<?xml version="1.0" encoding="UTF-8"?>
<svg width="65px" height="65px" viewBox="0 0 65 65" version="1.1" xmlns="http://www.w3.org/2000/svg" xmlns:xlink="http://www.w3.org/1999/xlink">
    <!-- Generator: Sketch 55.2 (78181) - https://sketchapp.com -->
    <title>dv1</title>
    <desc>Created with Sketch.</desc>
    <defs>
        <linearGradient x1="97.091763%" y1="50%" x2="0%" y2="50%" id="linearGradient-1">
            <stop stop-color="#0C71D5" offset="0%"></stop>
            <stop stop-color="#3793EE" offset="100%"></stop>
        </linearGradient>
        <linearGradient x1="97.091763%" y1="50%" x2="0%" y2="50%" id="linearGradient-2">
            <stop stop-color="#0C71D5" offset="0%"></stop>
            <stop stop-color="#3793EE" offset="100%"></stop>
        </linearGradient>
        <linearGradient x1="97.091763%" y1="50%" x2="0%" y2="50%" id="linearGradient-3">
            <stop stop-color="#0C71D5" offset="0%"></stop>
            <stop stop-color="#3793EE" offset="100%"></stop>
        </linearGradient>
    </defs>
    <g id="Welcome" stroke="none" stroke-width="1" fill="none" fill-rule="evenodd">
        <g id="Artboard-Copy" transform="translate(-57.000000, -191.000000)">
            <g id="Group-5-Copy" transform="translate(57.000000, 191.000000)">
                <g id="dv1">
                    <circle id="Oval" fill="url(#linearGradient-1)" opacity="0.15297154" cx="32.5" cy="32.5" r="32.5"></circle>
                    <g id="calendar" transform="translate(8.125000, 3.250000)">
                        <path d="M3.036379,0 L45.5449911,0 C47.2210543,0 48.5813701,1.35875445 48.5813701,3.036379 L48.5813701,45.5449911 C48.5813701,47.2210543 47.2210543,48.5813701 45.5449911,48.5813701 L3.036379,48.5813701 C1.36031584,48.5813701 0,47.2210543 0,45.5449911 L0,3.036379 C0,1.35875445 1.36031584,0 3.036379,0 Z" id="Path" fill="#FFFFFF"></path>
                        <path d="M45.5449911,0 L3.036379,0 C1.36031584,0 0,1.35875445 0,3.036379 L0,10.627153 L48.5811966,10.627153 L48.5811966,3.036379 C48.5811966,1.35875445 47.2210543,0 45.5449911,0 Z" id="Path" fill="url(#linearGradient-2)"></path>
                        <path d="M32.9107607,25.7268149 C32.376419,25.7268149 31.8207384,25.8194573 31.3849377,26.0000578 L31.3363612,25.9544306 C32.1349244,24.8886966 33.7093238,23.4357384 34.6779048,22.3245507 C34.9678025,21.9829537 35.1865703,21.7112722 35.1865703,21.3939635 C35.1865703,20.5771842 34.1435632,19.7376779 33.4680027,19.7376779 C33.2721352,19.7376779 33.0065258,19.7376779 32.7407429,19.897113 C32.4508452,20.0792749 32.1592126,20.2598754 31.9649066,20.4406495 C29.5190792,22.5736788 25.8133852,27.3862233 25.8133852,30.8112144 C25.8133852,33.8293772 28.1620596,36.4389769 31.8920418,36.4389769 C35.4749066,36.4389769 37.9693113,33.762411 37.9693113,30.8112144 C37.9708719,28.1315258 35.8165036,25.7268149 32.9107607,25.7268149 Z M31.8936032,33.1689101 C30.440645,33.1689101 29.5921174,32.0804493 29.5921174,30.8080916 C29.5921174,29.4705027 30.5121219,28.4503959 31.8936032,28.4503959 C33.4194262,28.4503959 34.195089,29.6072109 34.195089,30.8080916 C34.1935276,32.125903 33.2721352,33.1689101 31.8936032,33.1689101 Z M20.8185053,33.3829938 L16.2292393,33.3829938 C18.3607073,30.9144395 22.2487367,27.7278203 22.2487367,24.5229849 C22.2487367,21.5913923 19.7664769,19.7225845 16.6816948,19.7225845 C13.5969128,19.7225845 10.7881495,22.0530427 10.7881495,24.9601735 C10.7881495,25.858839 11.4135721,26.6438701 12.6175756,26.6438701 C15.0254093,26.6438701 13.6468772,22.906081 16.5314546,22.906081 C17.5591948,22.906081 18.3365925,23.7365658 18.3365925,24.6822464 C18.3365925,25.5127313 17.9099867,26.2276735 17.4590925,26.8289813 C15.5522909,29.3672776 13.2946975,31.4427091 11.2133674,33.72754 C10.9628514,34.0052936 10.6365214,34.4197553 10.6365214,34.9041326 C10.6365214,35.9669173 11.4897331,36.4268327 12.5934609,36.4268327 L20.9706539,36.4268327 C21.9225801,36.4268327 22.7757918,35.9667438 22.7757918,34.9041326 C22.7754448,33.8429093 21.9208452,33.3829938 20.8185053,33.3829938 Z" id="Shape" fill="url(#linearGradient-3)"></path>
                        <polygon id="Path" fill="#CBD8F3" points="0 9.10896352 48.5811966 9.10896352 48.5811966 12.1453425 0 12.1453425"></polygon>
                        <path d="M24.2906851,3.036379 C25.1301913,3.036379 25.8088746,3.71645018 25.8088746,4.55456851 C25.8088746,5.39268683 25.1301913,6.07275801 24.2906851,6.07275801 C23.4511788,6.07275801 22.7724956,5.39268683 22.7724956,4.55456851 C22.7724956,3.71645018 23.4510053,3.036379 24.2906851,3.036379 Z" id="Path" fill="#FFFFFF"></path>
                        <path d="M45.5449911,45.5449911 L3.036379,45.5449911 C1.36031584,45.5449911 0,44.1846753 0,42.5086121 L0,45.5449911 C0,47.2210543 1.36031584,48.5813701 3.036379,48.5813701 L45.5449911,48.5813701 C47.2210543,48.5813701 48.5813701,47.2210543 48.5813701,45.5449911 L48.5813701,42.5086121 C48.5813701,44.1846753 47.2210543,45.5449911 45.5449911,45.5449911 Z" id="Path" fill="#C1D0EE"></path>
                    </g>
                </g>
            </g>
        </g>
    </g>
</svg>