<?xml version="1.0" encoding="UTF-8"?>
<svg width="65px" height="65px" viewBox="0 0 65 65" version="1.1" xmlns="http://www.w3.org/2000/svg" xmlns:xlink="http://www.w3.org/1999/xlink">
    <!-- Generator: Sketch 55.2 (78181) - https://sketchapp.com -->
    <title>dv2</title>
    <desc>Created with Sketch.</desc>
    <defs>
        <linearGradient x1="97.091763%" y1="50%" x2="0%" y2="50%" id="linearGradient-1">
            <stop stop-color="#0C71D5" offset="0%"></stop>
            <stop stop-color="#3793EE" offset="100%"></stop>
        </linearGradient>
        <linearGradient x1="97.091763%" y1="50%" x2="0%" y2="50%" id="linearGradient-2">
            <stop stop-color="#0C71D5" offset="0%"></stop>
            <stop stop-color="#3793EE" offset="100%"></stop>
        </linearGradient>
        <linearGradient x1="50%" y1="0%" x2="50%" y2="100%" id="linearGradient-3">
            <stop stop-color="#7492A4" offset="0%"></stop>
            <stop stop-color="#40596B" offset="100%"></stop>
        </linearGradient>
    </defs>
    <g id="Welcome" stroke="none" stroke-width="1" fill="none" fill-rule="evenodd">
        <g id="Artboard-Copy" transform="translate(-142.000000, -191.000000)">
            <g id="dv2" transform="translate(142.000000, 191.000000)">
                <circle id="Oval" fill="url(#linearGradient-1)" opacity="0.15297154" cx="32.5" cy="32.5" r="32.5"></circle>
                <g id="doctor(1)" transform="translate(1.625000, 0.000000)" fill-rule="nonzero">
                    <path d="M38.6285714,34.2476335 L38.3468436,45.4475662 L30.4571429,50.5142857 L22.7083721,45.5809404 L22.2857143,34.2476335 C22.2857143,34.2476335 24.8216612,31.9810221 24.1172755,29.7142857 L36.5152823,29.7142857 C36.0926245,31.9810221 38.6285714,34.2476335 38.6285714,34.2476335 Z" id="Path" fill="url(#linearGradient-2)"></path>
                    <path d="M53.4857143,52 L53.4857143,48.0831505 C53.4857143,44.3012819 51.6129504,40.7896281 48.6165283,38.8987571 L43.4976794,35.7921724 L38.3788306,32.6857143 L38.3788306,32.6857143 L33.8841973,44.4363893 L32.1363234,36.4675829 L33.3848717,34.9819076 L28.8902384,34.9819076 L30.1387867,36.4675829 L28.3909127,44.4363893 L24.0211694,32.6857143 L18.9023206,35.7921724 L13.7834717,38.8986305 C10.7870496,40.7895015 8.91428571,44.3012819 8.91428571,48.0830239 L8.91428571,52 L53.4857143,52 L53.4857143,52 Z" id="Path" fill="#F2F2F2"></path>
                    <g id="Group" transform="translate(19.314286, 17.828571)" fill="#F8B64C">
                        <ellipse id="Oval" transform="translate(3.056436, 3.680694) rotate(-112.420650) translate(-3.056436, -3.680694) " cx="3.05643591" cy="3.68069443" rx="2.99475074" ry="1.91485007"></ellipse>
                        <ellipse id="Oval" transform="translate(22.214850, 3.684741) rotate(112.420650) translate(-22.214850, -3.684741) " cx="22.2148502" cy="3.68474129" rx="2.99475074" ry="1.91485007"></ellipse>
                    </g>
                    <path d="M41.6,14.8640558 C41.6,15.384438 41.6,16.0348243 41.4699604,16.6852107 L41.4699604,16.6852107 C40.6899665,22.7991836 36.4,32.6857143 31.2,32.6857143 C26,32.6857143 21.7100335,22.7991836 20.9300396,16.5550846 C20.8,16.0347024 20.8,15.3843161 20.8,14.8639338 C20.8,9.14021709 25.4799634,4.45714286 31.1998781,4.45714286 C36.9197928,4.45714286 41.6,9.14033904 41.6,14.8640558 Z" id="Path" fill="#FFD15C"></path>
                    <path d="M20.8926179,19.3142857 C20.6355437,17.9024452 20.7640205,15.9771535 21.6639612,14.9502511 C21.6639612,14.9502511 20.8926179,8.40425928 25.6492749,8.78931762 C25.6492749,8.78931762 29.5059912,10.0728855 36.7051549,8.78931762 C36.7051549,8.78931762 39.6619306,8.66092473 39.1477821,11.7413915 C39.1477821,11.7413915 38.3764388,14.5651927 39.9191253,15.2069165 L40.5618712,19.1858928 L41.2046171,16.233819 C42.361632,10.8430022 41.0760197,5.45218544 36.0622885,3.01344251 C35.9336911,3.01344251 35.9336911,3.01344251 35.9336911,3.01344251 C36.576437,2.11493294 37.8620493,2.5 37.8620493,2.5 C29.3772733,-2.89082549 23.7207962,2.11493294 23.7207962,2.11493294 C17.6786475,7.6341426 19.6070056,14.0517415 19.6070056,14.0517415 C18.9642598,16.3620915 20.8926179,19.3142857 20.8926179,19.3142857 Z" id="Path" fill="url(#linearGradient-3)"></path>
                    <g id="Group" transform="translate(0.000000, 10.400000)" fill="#C1D0EE">
                        <path d="M11.8857143,28.5712413 L17.1256129,25.6135461 L21.8543779,22.9130051 L21.8543779,22.7843677 L21.8543779,22.7843677 C22.3656313,22.141422 22.7490415,21.3698389 23.1324516,20.5982557 C21.9822212,18.7979353 20.9598341,16.74034 20.1930138,14.4255906 C19.2983502,13.9111617 18.53153,13.0110617 18.1481198,11.9822039 C17.6368664,10.8248291 17.6368664,9.53881707 18.0202765,8.38144237 C17.509023,6.96691347 17.2534562,5.68090139 17.509023,4.52352669 C17.3811797,3.75194356 17.1256129,2.08013991 17.3811797,0.151182071 C14.0583318,0.0225446947 12.1412811,1.82298572 12.1412811,1.82298572 C7.54035945,6.06669296 8.94615668,10.953346 8.94615668,10.953346 C8.69058986,11.9820833 9.074,13.139458 9.58513364,14.0396785 C9.2017235,14.4254701 9.07388018,15.3256906 9.45729032,16.0972737 C9.71285714,16.8688569 10.3519539,17.2546484 10.8630876,17.3832858 C11.5020645,19.3122436 12.3967281,21.2412015 13.4191152,22.7843677 L13.4191152,22.7843677 C13.8025253,24.4561714 12.1410415,26.1278545 12.1410415,26.1278545 L12.1410415,26.1278545 L8.05137327,28.4426039 L3.83410138,30.6288365 C1.40579724,32.0433654 0,34.4867522 0,37.3159305 L0,38.6019426 L5.87899539,38.6019426 C6.00671889,34.4867522 8.30717972,30.6288365 11.8857143,28.5712413 Z" id="Path"></path>
                        <path d="M57.5115207,30.6288365 L53.549576,28.3140871 L49.4599078,25.9993377 L49.4599078,25.9993377 L49.4599078,25.9993377 C49.4599078,25.9993377 47.798424,24.327534 48.1818341,22.6558509 L48.1818341,22.6558509 C49.2042212,21.1126847 50.0988848,19.1837268 50.7378618,17.254769 C51.2491152,17.1261316 51.8880922,16.6118232 52.143659,15.9687569 C52.5270691,14.9400196 52.2715023,13.9111617 51.6324055,13.6540075 L51.8879724,12.6252702 C52.7826359,8.5102003 51.760129,4.26649306 48.053871,2.46605204 C47.9260276,2.33741466 47.7983041,2.33741466 47.7983041,2.33741466 C48.3095576,1.6944689 49.2041014,1.95162309 49.2041014,1.95162309 C46.9036406,0.408456822 44.8587465,0.0226652546 43.0695392,0.0226652546 C43.5807926,2.20877728 43.4529493,4.65216407 42.9416959,7.22406766 L42.9416959,7.48122186 C43.7085161,8.63859656 43.9640829,10.3104002 43.1972627,11.8535665 C42.8138525,12.8823038 42.0470323,13.7825243 41.1523687,14.2969533 C40.3855484,16.6117027 39.3631613,18.6692979 38.2129309,20.4696183 C38.596341,21.2412015 38.9797512,22.0127846 39.4910046,22.6557304 L39.4910046,22.6557304 L39.4910046,22.7843677 L49.3318249,28.4426039 C53.0380829,30.5001991 55.2108203,34.3581148 55.3385438,38.601822 L61.3456221,38.601822 L61.3456221,37.3158099 C61.3456221,34.615269 59.8119816,32.0433654 57.5115207,30.6288365 Z" id="Path"></path>
                    </g>
                    <polygon id="Path" fill="#FF7058" points="47.5428571 45.8532668 44.7753046 45.8532668 44.7753046 43.0857143 42.8818382 43.0857143 42.8818382 45.8532668 40.1142857 45.8532668 40.1142857 47.7468697 42.8818382 47.7468697 42.8818382 50.5142857 44.7753046 50.5142857 44.7753046 47.7468697 47.5428571 47.7468697"></polygon>
                </g>
            </g>
        </g>
    </g>
</svg>