<?xml version="1.0" encoding="UTF-8"?>
<svg width="65px" height="67px" viewBox="0 0 65 67" version="1.1" xmlns="http://www.w3.org/2000/svg" xmlns:xlink="http://www.w3.org/1999/xlink">
    <!-- Generator: Sketch 55.2 (78181) - https://sketchapp.com -->
    <title>phieu kham benh</title>
    <desc>Created with Sketch.</desc>
    <defs>
        <linearGradient x1="97.091763%" y1="50%" x2="0%" y2="50%" id="linearGradient-1">
            <stop stop-color="#0C71D5" offset="0%"></stop>
            <stop stop-color="#3793EE" offset="100%"></stop>
        </linearGradient>
        <linearGradient x1="97.091763%" y1="50%" x2="0%" y2="50%" id="linearGradient-2">
            <stop stop-color="#0C71D5" offset="0%"></stop>
            <stop stop-color="#3793EE" offset="100%"></stop>
        </linearGradient>
        <linearGradient x1="97.091763%" y1="50%" x2="0%" y2="50%" id="linearGradient-3">
            <stop stop-color="#0C71D5" offset="0%"></stop>
            <stop stop-color="#3793EE" offset="100%"></stop>
        </linearGradient>
        <linearGradient x1="97.091763%" y1="50%" x2="0%" y2="50%" id="linearGradient-4">
            <stop stop-color="#0C71D5" offset="0%"></stop>
            <stop stop-color="#3793EE" offset="100%"></stop>
        </linearGradient>
        <linearGradient x1="50%" y1="0%" x2="50%" y2="100%" id="linearGradient-5">
            <stop stop-color="#FFA991" offset="0%"></stop>
            <stop stop-color="#FF7058" offset="100%"></stop>
        </linearGradient>
    </defs>
    <g id="Welcome" stroke="none" stroke-width="1" fill="none" fill-rule="evenodd">
        <g id="Artboard-Copy" transform="translate(-232.000000, -193.000000)">
            <g id="Group-5-Copy-2" transform="translate(232.000000, 193.000000)">
                <g id="phieu-kham-benh">
                    <circle id="Oval" fill="url(#linearGradient-1)" opacity="0.15297154" cx="32.5" cy="34.125" r="32.5"></circle>
                    <g id="medical-history" transform="translate(13.000000, 0.000000)" fill-rule="nonzero">
                        <path d="M38.5495148,9.53097313 L2.10127258,9.53097313 C0.949205704,9.53097313 0.00657875061,10.4736001 0.00657875061,11.625667 L0.00657875061,51.530208 C0.00657875061,52.682373 0.949205704,53.625 2.10127258,53.625 L38.5495148,53.625 C39.7015816,53.625 40.6442086,52.682373 40.6442086,51.5303062 L40.6442086,11.6257652 C40.6442086,10.4736001 39.7015816,9.53097313 38.5495148,9.53097313 Z" id="Path" fill="#C1D0EE"></path>
                        <path d="M38.5495148,6.17941063 L2.10127258,6.17941063 C0.949205704,6.17941063 0.00657875061,7.12203758 0.00657875061,8.27410446 L0.00657875061,48.1786455 C0.00657875061,49.3308105 0.949205704,50.2734375 2.10127258,50.2734375 L38.5495148,50.2734375 C39.7015816,50.2734375 40.6442086,49.3308105 40.6442086,48.1787437 L40.6442086,8.27420265 C40.6442086,7.12203758 39.7015816,6.17941063 38.5495148,6.17941063 Z" id="Path-Copy" fill="#FFFFFF"></path>
                        <path d="M36.4548209,11.4162925 C36.4548209,10.7878745 36.0358429,10.3688965 35.4074249,10.3688965 L5.24336243,10.3688965 C4.61494446,10.3688965 4.19596642,10.7878745 4.19596642,11.4162925 L4.19596642,45.0366538 C4.19596642,45.6650718 4.61494446,46.0840498 5.24336243,46.0840498 L30.9037301,46.0840498 L36.4548209,40.5330572 L36.4548209,11.4162925 L36.4548209,11.4162925 Z" id="Path" fill="#F2F2F2"></path>
                        <path d="M36.4548209,40.532959 L31.6369171,40.532959 C31.2179391,40.532959 31.0084991,40.847168 31.0084991,41.161377 L31.0084991,46.0839516 L36.4548209,40.532959 Z" id="Path" fill="#CDD6E0"></path>
                        <path d="M28.8090363,3.97994774 L25.1432975,3.97994774 C24.7243195,1.78048485 22.7342965,0 20.3253937,0 C17.9164909,0 15.9264679,1.78048485 15.5074899,3.97994774 L11.8417511,3.97994774 C10.7943551,3.97994774 9.85172813,4.81780563 9.85172813,5.9699707 L9.85172813,10.1594566 C9.85172813,11.3115234 10.7943551,12.2541504 11.946422,12.2541504 L28.7042672,12.2541504 C29.8563341,12.2541504 30.798961,11.3115234 30.798961,10.1594566 L30.798961,5.9699707 C30.798961,4.92257469 29.9611031,3.97994774 28.8090363,3.97994774 Z M20.3253937,6.17941063 C19.1733268,6.17941063 18.2306998,5.23678368 18.2306998,4.0847168 C18.2306998,2.93264992 19.1733268,1.99002296 20.3253937,1.99002296 C21.4774606,1.99002296 22.4200875,2.93264992 22.4200875,4.0847168 C22.4200875,5.23678368 21.4774606,6.17941063 20.3253937,6.17941063 Z" id="Shape" fill="url(#linearGradient-2)"></path>
                        <g id="Group" transform="translate(6.578751, 30.340805)" opacity="0.782063802">
                            <rect id="Rectangle" fill="url(#linearGradient-3)" x="0.0262168121" y="0.0326973724" width="27.4409507" height="2.09469383"></rect>
                            <rect id="Rectangle" fill="url(#linearGradient-3)" x="0.0262168121" y="5.06004112" width="27.4409507" height="2.09469383"></rect>
                            <rect id="Rectangle" fill="url(#linearGradient-4)" x="0.0262168121" y="9.982714" width="19.690397" height="2.09469383"></rect>
                        </g>
                        <circle id="Oval" fill="url(#linearGradient-5)" cx="20.3253937" cy="21.47098" r="5.9699707"></circle>
                        <polygon id="Path" fill="#FFFFFF" points="24.5148795 20.528353 21.3727897 20.528353 21.3727897 17.2814941 19.2779977 17.2814941 19.2779977 20.528353 16.1359078 20.528353 16.1359078 22.5182778 19.2779977 22.5182778 19.2779977 25.6603677 21.3727897 25.6603677 21.3727897 22.5182778 24.5148795 22.5182778"></polygon>
                    </g>
                </g>
            </g>
        </g>
    </g>
</svg>