<?xml version="1.0" encoding="UTF-8"?>
<svg width="65px" height="65px" viewBox="0 0 65 65" version="1.1" xmlns="http://www.w3.org/2000/svg" xmlns:xlink="http://www.w3.org/1999/xlink">
    <!-- Generator: Sketch 55.2 (78181) - https://sketchapp.com -->
    <title>phieu kham benh</title>
    <desc>Created with Sketch.</desc>
    <defs>
        <linearGradient x1="97.091763%" y1="50%" x2="0%" y2="50%" id="linearGradient-1">
            <stop stop-color="#0C71D5" offset="0%"></stop>
            <stop stop-color="#3793EE" offset="100%"></stop>
        </linearGradient>
        <linearGradient x1="97.091763%" y1="50%" x2="0%" y2="50%" id="linearGradient-2">
            <stop stop-color="#0C71D5" offset="0%"></stop>
            <stop stop-color="#3793EE" offset="100%"></stop>
        </linearGradient>
        <linearGradient x1="97.091763%" y1="50%" x2="0%" y2="50%" id="linearGradient-3">
            <stop stop-color="#0C71D5" offset="0%"></stop>
            <stop stop-color="#3793EE" offset="100%"></stop>
        </linearGradient>
        <linearGradient x1="97.091763%" y1="50%" x2="0%" y2="50%" id="linearGradient-4">
            <stop stop-color="#0C71D5" offset="0%"></stop>
            <stop stop-color="#3793EE" offset="100%"></stop>
        </linearGradient>
        <linearGradient x1="97.091763%" y1="50%" x2="0%" y2="50%" id="linearGradient-5">
            <stop stop-color="#0C71D5" offset="0%"></stop>
            <stop stop-color="#3793EE" offset="100%"></stop>
        </linearGradient>
        <linearGradient x1="97.091763%" y1="50%" x2="0%" y2="50%" id="linearGradient-6">
            <stop stop-color="#0C71D5" offset="0%"></stop>
            <stop stop-color="#3793EE" offset="100%"></stop>
        </linearGradient>
    </defs>
    <g id="Welcome" stroke="none" stroke-width="1" fill="none" fill-rule="evenodd">
        <g id="Artboard-Copy" transform="translate(-192.000000, -61.000000)">
            <g id="phieu-kham-benh" transform="translate(192.000000, 61.000000)">
                <circle id="Oval" fill="url(#linearGradient-1)" opacity="0.15297154" cx="32.5" cy="32.5" r="32.5"></circle>
                <g id="credit-card" transform="translate(3.250000, 4.875000)">
                    <path d="M55.1090893,45.5 L3.23614881,45.5 C1.44857143,45.5 -2.20268248e-13,44.0514286 -2.20268248e-13,42.2638512 L-2.20268248e-13,6.48614881 C-2.20268248e-13,4.69857143 1.44857143,3.25 3.23614881,3.25 L55.1090893,3.25 C56.8966667,3.25 58.3452381,4.69857143 58.3452381,6.48614881 L58.3452381,42.2638512 C58.3452381,44.0514286 56.8966667,45.5 55.1090893,45.5" id="XMLID_118_" fill="#C1D0EE"></path>
                    <path d="M55.1090893,42.25 L3.23614881,42.25 C1.44857143,42.25 0,40.8014286 0,39.0138512 L0,3.23614881 C0,1.44857143 1.44857143,0 3.23614881,0 L55.1090893,0 C56.8966667,0 58.3452381,1.44857143 58.3452381,3.23614881 L58.3452381,39.0138512 C58.3452381,40.8014286 56.8966667,42.25 55.1090893,42.25" id="XMLID_118_-Copy" stroke="#F5F5F5" stroke-width="0.3" fill="#FFFFFF"></path>
                    <path d="M46.2738095,12.0714286 C46.2738095,15.4051548 43.5718214,18.1071429 40.2380952,18.1071429 C36.9033631,18.1071429 34.202381,15.4051548 34.202381,12.0714286 C34.202381,8.73770238 36.9033631,6.03571429 40.2380952,6.03571429 C43.5718214,6.03571429 46.2738095,8.73770238 46.2738095,12.0714286" id="XMLID_117_" fill="#CBD8F3"></path>
                    <path d="M53.3154762,12.0714286 C53.3154762,15.4051548 50.6134881,18.1071429 47.2797619,18.1071429 C43.9460357,18.1071429 41.2440476,15.4051548 41.2440476,12.0714286 C41.2440476,8.73770238 43.9460357,6.03571429 47.2797619,6.03571429 C50.6134881,6.03571429 53.3154762,8.73770238 53.3154762,12.0714286" id="XMLID_116_" fill="#54A3F2"></path>
                    <path d="M14.0833333,7.04166667 L5.0297619,7.04166667 C4.47347024,7.04166667 4.02380952,7.49233333 4.02380952,8.04761905 C4.02380952,8.60290476 4.47347024,9.05357143 5.0297619,9.05357143 L14.0833333,9.05357143 C14.639625,9.05357143 15.0892857,8.60290476 15.0892857,8.04761905 C15.0892857,7.49233333 14.639625,7.04166667 14.0833333,7.04166667" id="XMLID_115_" fill="url(#linearGradient-2)"></path>
                    <path d="M28.1666667,8.04761905 C28.1666667,7.49233333 27.717006,7.04166667 27.1607143,7.04166667 L18.1071429,7.04166667 C17.5508512,7.04166667 17.1011905,7.49233333 17.1011905,8.04761905 C17.1011905,8.60290476 17.5508512,9.05357143 18.1071429,9.05357143 L27.1607143,9.05357143 C27.717006,9.05357143 28.1666667,8.60290476 28.1666667,8.04761905" id="XMLID_114_" fill="url(#linearGradient-2)"></path>
                    <path d="M6.03571429,12.0714286 L5.0297619,12.0714286 C4.47347024,12.0714286 4.02380952,12.5220952 4.02380952,13.077381 C4.02380952,13.6326667 4.47347024,14.0833333 5.0297619,14.0833333 L6.03571429,14.0833333 C6.59200595,14.0833333 7.04166667,13.6326667 7.04166667,13.077381 C7.04166667,12.5220952 6.59200595,12.0714286 6.03571429,12.0714286" id="XMLID_113_" fill="url(#linearGradient-3)"></path>
                    <path d="M12.0714286,12.0714286 L10.0595238,12.0714286 C9.50323214,12.0714286 9.05357143,12.5220952 9.05357143,13.077381 C9.05357143,13.6326667 9.50323214,14.0833333 10.0595238,14.0833333 L12.0714286,14.0833333 C12.6277202,14.0833333 13.077381,13.6326667 13.077381,13.077381 C13.077381,12.5220952 12.6277202,12.0714286 12.0714286,12.0714286" id="XMLID_112_" fill="url(#linearGradient-4)"></path>
                    <path d="M17.1011905,12.0714286 L16.0952381,12.0714286 C15.5389464,12.0714286 15.0892857,12.5220952 15.0892857,13.077381 C15.0892857,13.6326667 15.5389464,14.0833333 16.0952381,14.0833333 L17.1011905,14.0833333 C17.6574821,14.0833333 18.1071429,13.6326667 18.1071429,13.077381 C18.1071429,12.5220952 17.6574821,12.0714286 17.1011905,12.0714286" id="XMLID_111_" fill="url(#linearGradient-3)"></path>
                    <path d="M23.1369048,12.0714286 L21.125,12.0714286 C20.5687083,12.0714286 20.1190476,12.5220952 20.1190476,13.077381 C20.1190476,13.6326667 20.5687083,14.0833333 21.125,14.0833333 L23.1369048,14.0833333 C23.6931964,14.0833333 24.1428571,13.6326667 24.1428571,13.077381 C24.1428571,12.5220952 23.6931964,12.0714286 23.1369048,12.0714286" id="XMLID_110_" fill="url(#linearGradient-4)"></path>
                    <path d="M26.4565476,12.3631548 C26.2644107,12.5542857 26.1547619,12.8057738 26.1547619,13.077381 C26.1547619,13.3489881 26.2644107,13.6004762 26.4464881,13.7916071 C26.6366131,13.9726786 26.8991667,14.0833333 27.1607143,14.0833333 C27.4222619,14.0833333 27.6828036,13.9726786 27.8749405,13.7916071 C28.0560119,13.6004762 28.1666667,13.3389286 28.1666667,13.077381 C28.1666667,12.8158333 28.0560119,12.5542857 27.8749405,12.3732143 C27.5027381,11.9909524 26.8186905,11.9909524 26.4565476,12.3631548" id="XMLID_109_" fill="url(#linearGradient-5)"></path>
                    <rect id="XMLID_108_" fill="url(#linearGradient-6)" x="5.0297619" y="29.172619" width="9.05357143" height="6.03571429"></rect>
                    <rect id="XMLID_107_" fill="url(#linearGradient-6)" x="18.1071429" y="29.172619" width="9.05357143" height="6.03571429"></rect>
                    <rect id="XMLID_106_" fill="url(#linearGradient-6)" x="31.1845238" y="29.172619" width="9.05357143" height="6.03571429"></rect>
                    <rect id="XMLID_105_" fill="url(#linearGradient-6)" x="44.2619048" y="29.172619" width="9.05357143" height="6.03571429"></rect>
                </g>
            </g>
        </g>
    </g>
</svg>