<?xml version="1.0" encoding="UTF-8"?>
<svg width="65px" height="67px" viewBox="0 0 65 67" version="1.1" xmlns="http://www.w3.org/2000/svg" xmlns:xlink="http://www.w3.org/1999/xlink">
    <!-- Generator: Sketch 55.2 (78181) - https://sketchapp.com -->
    <title>phieu kham benh</title>
    <desc>Created with Sketch.</desc>
    <defs>
        <linearGradient x1="97.091763%" y1="50%" x2="0%" y2="50%" id="linearGradient-1">
            <stop stop-color="#0C71D5" offset="0%"></stop>
            <stop stop-color="#3793EE" offset="100%"></stop>
        </linearGradient>
        <linearGradient x1="97.091763%" y1="50%" x2="0%" y2="50%" id="linearGradient-2">
            <stop stop-color="#0C71D5" offset="0%"></stop>
            <stop stop-color="#3793EE" offset="100%"></stop>
        </linearGradient>
        <linearGradient x1="0%" y1="100%" x2="100%" y2="100%" id="linearGradient-3">
            <stop stop-color="#0C71D5" offset="0%"></stop>
            <stop stop-color="#3793EE" offset="100%"></stop>
        </linearGradient>
        <linearGradient x1="97.091763%" y1="50%" x2="0%" y2="50%" id="linearGradient-4">
            <stop stop-color="#0C71D5" offset="0%"></stop>
            <stop stop-color="#3793EE" offset="100%"></stop>
        </linearGradient>
        <linearGradient x1="97.091763%" y1="50%" x2="0%" y2="50%" id="linearGradient-5">
            <stop stop-color="#0C71D5" offset="0%"></stop>
            <stop stop-color="#3793EE" offset="100%"></stop>
        </linearGradient>
        <linearGradient x1="97.091763%" y1="50%" x2="0%" y2="50%" id="linearGradient-6">
            <stop stop-color="#0C71D5" offset="0%"></stop>
            <stop stop-color="#3793EE" offset="100%"></stop>
        </linearGradient>
        <linearGradient x1="97.091763%" y1="50%" x2="0%" y2="50%" id="linearGradient-7">
            <stop stop-color="#0C71D5" offset="0%"></stop>
            <stop stop-color="#3793EE" offset="100%"></stop>
        </linearGradient>
        <linearGradient x1="97.091763%" y1="50%" x2="0%" y2="50%" id="linearGradient-8">
            <stop stop-color="#0C71D5" offset="0%"></stop>
            <stop stop-color="#3793EE" offset="100%"></stop>
        </linearGradient>
    </defs>
    <g id="Welcome" stroke="none" stroke-width="1" fill="none" fill-rule="evenodd">
        <g id="Artboard-Copy" transform="translate(-330.000000, -195.000000)">
            <g id="Group-5-Copy-4" transform="translate(157.000000, 195.000000)">
                <g id="phieu-kham-benh" transform="translate(173.000000, 0.000000)">
                    <circle id="Oval" fill="url(#linearGradient-1)" opacity="0.15297154" cx="32.5" cy="34.125" r="32.5"></circle>
                    <g id="report-(2)" transform="translate(16.250000, 0.000000)">
                        <path d="M30.3819725,6.8340601 C30.3008056,7.51818095 29.7196707,8.04919437 29.0134815,8.04919437 L25.7294022,8.04919437 C25.6575863,8.9379156 24.9149904,9.63724744 24.0075671,9.63724744 L9.10428069,9.63724744 C8.1969821,9.63724744 7.45426151,8.9379156 7.38257033,8.04919437 L3.43930627,8.04919437 C2.73311701,8.04919437 2.1519821,7.51818095 2.07081522,6.8340601 C0.88959399,7.35185742 0.0731873402,8.46026535 0.0731873402,9.74434783 L0.0731873402,32.015991 L0.0731873402,48.6889898 C0.0731873402,50.4686765 1.64129156,51.9113523 3.57545716,51.9113523 L24.9485294,51.9113523 L24.9485294,47.9824265 C24.9485294,46.0481362 26.3910806,44.4801566 28.1708919,44.4801566 L32.3797251,44.4801566 L32.3797251,32.015991 L32.3797251,9.74434783 C32.3797251,8.46026535 31.5631937,7.35185742 30.3819725,6.8340601 Z" id="Shape" fill="#C1D0EE" fill-rule="nonzero"></path>
                        <path d="M30.3819725,3.5840601 C30.3008056,4.26818095 29.7196707,4.79919437 29.0134815,4.79919437 L25.7294022,4.79919437 C25.6575863,5.6879156 24.9149904,6.38724744 24.0075671,6.38724744 L9.10428069,6.38724744 C8.1969821,6.38724744 7.45426151,5.6879156 7.38257033,4.79919437 L3.43930627,4.79919437 C2.73311701,4.79919437 2.1519821,4.26818095 2.07081522,3.5840601 C0.88959399,4.10185742 0.0731873402,5.21026535 0.0731873402,6.49434783 L0.0731873402,28.765991 L0.0731873402,45.4389898 C0.0731873402,47.2186765 1.64129156,48.6613523 3.57545716,48.6613523 L24.9485294,48.6613523 L24.9485294,44.7324265 C24.9485294,42.7981362 26.3910806,41.2301566 28.1708919,41.2301566 L32.3797251,41.2301566 L32.3797251,28.765991 L32.3797251,6.49434783 C32.3797251,5.21026535 31.5631937,4.10185742 30.3819725,3.5840601 Z M30.3819725,3.5840601 C30.3008056,4.26818095 29.7196707,4.79919437 29.0134815,4.79919437 L25.7294022,4.79919437 C25.6575863,5.6879156 24.9149904,6.38724744 24.0075671,6.38724744 L9.10428069,6.38724744 C8.1969821,6.38724744 7.45426151,5.6879156 7.38257033,4.79919437 L3.43930627,4.79919437 C2.73311701,4.79919437 2.1519821,4.26818095 2.07081522,3.5840601 C0.88959399,4.10185742 0.0731873402,5.21026535 0.0731873402,6.49434783 L0.0731873402,28.765991 L0.0731873402,45.4389898 C0.0731873402,47.2186765 1.64129156,48.6613523 3.57545716,48.6613523 L24.9485294,48.6613523 L24.9485294,44.7324265 C24.9485294,42.7981362 26.3910806,41.2301566 28.1708919,41.2301566 L32.3797251,41.2301566 L32.3797251,28.765991 L32.3797251,6.49434783 C32.3797251,5.21026535 31.5631937,4.10185742 30.3819725,3.5840601 Z M8.22890026,36.3042871 C8.22890026,36.7884207 7.83640665,37.1809143 7.35227302,37.1809143 L4.45956522,37.1809143 C3.97543159,37.1809143 3.58306266,36.7884207 3.58306266,36.3042871 L3.58306266,33.411704 C3.58306266,32.9275703 3.97543159,32.5350767 4.45956522,32.5350767 L7.35227302,32.5350767 C7.83640665,32.5350767 8.22890026,32.9275703 8.22890026,33.411704 L8.22890026,36.3042871 Z M8.22890026,29.3355307 C8.22890026,29.8196643 7.83640665,30.2120332 7.35227302,30.2120332 L4.45956522,30.2120332 C3.97543159,30.2120332 3.58306266,29.8196643 3.58306266,29.3355307 L3.58306266,26.4428229 C3.58306266,25.9588139 3.97543159,25.5663203 4.45956522,25.5663203 L7.35227302,25.5663203 C7.83640665,25.5663203 8.22890026,25.9588139 8.22890026,26.4428229 L8.22890026,29.3355307 Z M8.22890026,22.366899 C8.22890026,22.8510326 7.83640665,23.2434015 7.35227302,23.2434015 L4.45956522,23.2434015 C3.97543159,23.2434015 3.58306266,22.8510326 3.58306266,22.366899 L3.58306266,19.4741912 C3.58306266,18.9901822 3.97543159,18.5976886 4.45956522,18.5976886 L7.35227302,18.5976886 C7.83640665,18.5976886 8.22890026,18.9901822 8.22890026,19.4741912 L8.22890026,22.366899 Z M8.22890026,15.3981426 C8.22890026,15.8821515 7.83640665,16.2746451 7.35227302,16.2746451 L4.45956522,16.2746451 C3.97543159,16.2746451 3.58306266,15.8821515 3.58306266,15.3981426 L3.58306266,12.5054348 C3.58306266,12.0214258 3.97543159,11.6289322 4.45956522,11.6289322 L7.35227302,11.6289322 C7.83640665,11.6289322 8.22890026,12.0214258 8.22890026,12.5054348 L8.22890026,15.3981426 Z M19.3189642,42.8002558 C19.3189642,43.2357641 18.9661189,43.588734 18.5303613,43.588734 L17.2786957,43.588734 L17.2786957,44.8405243 C17.2786957,45.2760326 16.9257257,45.6292519 16.4902174,45.6292519 L16.0348849,45.6292519 L15.9630691,45.6292519 C15.5275607,45.6292519 15.1744661,45.2760326 15.1744661,44.8405243 L15.1744661,43.588734 L13.9225512,43.588734 C13.4872922,43.588734 13.1341976,43.2357641 13.1341976,42.8002558 L13.1341976,42.2729827 C13.1341976,41.8375991 13.4872922,41.4846292 13.9225512,41.4846292 L15.1744661,41.4846292 L15.1744661,40.2327142 C15.1744661,39.7973306 15.5275607,39.4442359 15.9630691,39.4442359 L16.0348849,39.4442359 L16.4902174,39.4442359 C16.9257257,39.4442359 17.2786957,39.7973306 17.2786957,40.2327142 L17.2786957,41.4846292 L18.5303613,41.4846292 C18.9661189,41.4846292 19.3189642,41.8375991 19.3189642,42.2729827 L19.3189642,42.8002558 Z M29.0010134,36.9697059 L10.4462148,36.9697059 C10.1545876,36.9697059 9.91831841,36.733312 9.91831841,36.4419341 C9.91831841,36.1501822 10.1547123,35.913913 10.4462148,35.913913 L29.0010134,35.913913 C29.2926407,35.913913 29.5289098,36.1503069 29.5289098,36.4419341 C29.5289098,36.733312 29.2926407,36.9697059 29.0010134,36.9697059 Z M29.0010134,30.0009495 L10.4462148,30.0009495 C10.1545876,30.0009495 9.91831841,29.7645556 9.91831841,29.4731777 C9.91831841,29.1814258 10.1547123,28.9451566 10.4462148,28.9451566 L29.0010134,28.9451566 C29.2926407,28.9451566 29.5289098,29.1815505 29.5289098,29.4731777 C29.5289098,29.7646803 29.2926407,30.0009495 29.0010134,30.0009495 Z M29.0010134,23.0321931 L10.4462148,23.0321931 C10.1545876,23.0321931 9.91831841,22.7957992 9.91831841,22.5042967 C9.91831841,22.2127941 10.1547123,21.9764003 10.4462148,21.9764003 L29.0010134,21.9764003 C29.2926407,21.9764003 29.5289098,22.2127941 29.5289098,22.5042967 C29.5289098,22.7957992 29.2926407,23.0321931 29.0010134,23.0321931 Z M29.0010134,16.0635614 L10.4462148,16.0635614 C10.1545876,16.0635614 9.91831841,15.8271675 9.91831841,15.535665 C9.91831841,15.2441624 10.1547123,15.0076439 10.4462148,15.0076439 L29.0010134,15.0076439 C29.2926407,15.0076439 29.5289098,15.2440377 29.5289098,15.535665 C29.5289098,15.8272922 29.2926407,16.0635614 29.0010134,16.0635614 Z" id="Shape-Copy" fill="#FFFFFF" fill-rule="nonzero"></path>
                        <rect id="Rectangle" fill="#FFFFFF" x="2.4375" y="10.96875" width="28.03125" height="28.03125"></rect>
                        <path d="M24.9485294,44.7323018 L24.9485294,48.6612276 L32.3797251,41.230032 L28.1708919,41.230032 C26.3910806,41.2301566 24.9485294,42.7981362 24.9485294,44.7323018 Z" id="Path" fill="#C1D0EE"></path>
                        <path d="M25.6048465,4.92387468 L29.0136061,4.92387468 C29.7197954,4.92387468 30.3008056,4.39286125 30.3820972,3.70874041 C30.3884559,3.65475384 30.392695,3.60039322 30.392695,3.54491049 C30.392695,2.78323849 29.7754028,2.16569693 29.0136061,2.16569693 L25.6119533,2.16569693 C25.6118286,2.16569693 25.6084623,4.87736893 25.6048465,4.92387468 Z" id="Path" fill="url(#linearGradient-2)"></path>
                        <path d="M3.43930627,4.92387468 L7.50725064,4.92387468 C7.50351023,4.87736893 7.50014386,2.16569693 7.50014386,2.16569693 L3.43930627,2.16569693 C2.67763427,2.16569693 2.06021739,2.78311381 2.06021739,3.54491049 C2.06021739,3.60039322 2.06445652,3.6550032 2.07081522,3.70874041 C2.15210678,4.39286125 2.73311701,4.92387468 3.43930627,4.92387468 Z" id="Path" fill="url(#linearGradient-3)"></path>
                        <path d="M7.35227302,11.6289322 L4.45956522,11.6289322 C3.97543159,11.6289322 3.58306266,12.0214258 3.58306266,12.5054348 L3.58306266,15.3981426 C3.58306266,15.8821515 3.97543159,16.2746451 4.45956522,16.2746451 L7.35227302,16.2746451 C7.83640665,16.2746451 8.22890026,15.8821515 8.22890026,15.3981426 L8.22890026,12.5054348 C8.22890026,12.0214258 7.83640665,11.6289322 7.35227302,11.6289322 Z" id="Path" fill="url(#linearGradient-4)"></path>
                        <path d="M29.0010134,15.0075192 L10.4462148,15.0075192 C10.1545876,15.0075192 9.91831841,15.243913 9.91831841,15.5355403 C9.91831841,15.8271675 10.1547123,16.0634367 10.4462148,16.0634367 L29.0010134,16.0634367 C29.2926407,16.0634367 29.5289098,15.8270428 29.5289098,15.5355403 C29.5289098,15.2440377 29.2926407,15.0075192 29.0010134,15.0075192 Z" id="Path" fill="url(#linearGradient-5)"></path>
                        <path d="M7.35227302,18.5975639 L4.45956522,18.5975639 C3.97543159,18.5975639 3.58306266,18.9900575 3.58306266,19.4740665 L3.58306266,22.3667743 C3.58306266,22.8509079 3.97543159,23.2432769 4.45956522,23.2432769 L7.35227302,23.2432769 C7.83640665,23.2432769 8.22890026,22.8509079 8.22890026,22.3667743 L8.22890026,19.4740665 C8.22890026,18.9901822 7.83640665,18.5975639 7.35227302,18.5975639 Z" id="Path" fill="url(#linearGradient-4)"></path>
                        <path d="M29.0010134,21.9764003 L10.4462148,21.9764003 C10.1545876,21.9764003 9.91831841,22.2127941 9.91831841,22.5042967 C9.91831841,22.7957992 10.1547123,23.0321931 10.4462148,23.0321931 L29.0010134,23.0321931 C29.2926407,23.0321931 29.5289098,22.7957992 29.5289098,22.5042967 C29.5289098,22.2127941 29.2926407,21.9764003 29.0010134,21.9764003 Z" id="Path" fill="url(#linearGradient-6)"></path>
                        <path d="M7.35227302,25.5663203 L4.45956522,25.5663203 C3.97543159,25.5663203 3.58306266,25.9588139 3.58306266,26.4428229 L3.58306266,29.3355307 C3.58306266,29.8196643 3.97543159,30.2120332 4.45956522,30.2120332 L7.35227302,30.2120332 C7.83640665,30.2120332 8.22890026,29.8196643 8.22890026,29.3355307 L8.22890026,26.4428229 C8.22890026,25.9588139 7.83640665,25.5663203 7.35227302,25.5663203 Z" id="Path" fill="url(#linearGradient-4)"></path>
                        <path d="M29.0010134,28.945032 L10.4462148,28.945032 C10.1545876,28.945032 9.91831841,29.1814258 9.91831841,29.4730531 C9.91831841,29.7645556 10.1547123,30.0008248 10.4462148,30.0008248 L29.0010134,30.0008248 C29.2926407,30.0008248 29.5289098,29.7644309 29.5289098,29.4730531 C29.5289098,29.1814258 29.2926407,28.945032 29.0010134,28.945032 Z" id="Path" fill="url(#linearGradient-6)"></path>
                        <path d="M7.35227302,32.534952 L4.45956522,32.534952 C3.97543159,32.534952 3.58306266,32.9274457 3.58306266,33.4115793 L3.58306266,36.3041624 C3.58306266,36.788296 3.97543159,37.1807896 4.45956522,37.1807896 L7.35227302,37.1807896 C7.83640665,37.1807896 8.22890026,36.788296 8.22890026,36.3041624 L8.22890026,33.4115793 C8.22890026,32.9275703 7.83640665,32.534952 7.35227302,32.534952 Z" id="Path" fill="url(#linearGradient-1)"></path>
                        <path d="M29.0010134,35.9137884 L10.4462148,35.9137884 C10.1545876,35.9137884 9.91831841,36.1501822 9.91831841,36.4418095 C9.91831841,36.733312 10.1547123,36.9695812 10.4462148,36.9695812 L29.0010134,36.9695812 C29.2926407,36.9695812 29.5289098,36.7331873 29.5289098,36.4418095 C29.5289098,36.1500575 29.2926407,35.9137884 29.0010134,35.9137884 Z" id="Path" fill="url(#linearGradient-6)"></path>
                        <path d="M7.37546355,4.78323529 C7.37546355,4.83073849 7.37882992,4.87736893 7.38257033,4.92387468 C7.45426151,5.81259591 8.1969821,6.51192775 9.10428069,6.51192775 L24.0076918,6.51192775 C24.9149904,6.51192775 25.6575863,5.81259591 25.7295269,4.92387468 C25.7331426,4.87736893 25.7366336,4.83073849 25.7366336,4.78323529 L25.7366336,2.16569693 L25.7366336,1.72881714 C25.7366336,0.774015345 24.9626183,0 24.0078165,0 L9.10428069,0 C8.1494789,0 7.37546355,0.774015345 7.37546355,1.72881714 L7.37546355,2.16569693 L7.37546355,4.78323529 Z" id="Path" fill="url(#linearGradient-7)"></path>
                        <rect id="Rectangle" fill="#FFFFFF" x="12.1875" y="39" width="8.53125" height="7.3125"></rect>
                        <path d="M18.5302366,41.4846292 L17.278571,41.4846292 L17.278571,40.2327142 C17.278571,39.7973306 16.925601,39.4442359 16.4900927,39.4442359 L16.0347602,39.4442359 L15.9629444,39.4442359 C15.5274361,39.4442359 15.1743414,39.7973306 15.1743414,40.2327142 L15.1743414,41.4846292 L13.9224265,41.4846292 C13.4871675,41.4846292 13.1340729,41.8375991 13.1340729,42.2729827 L13.1340729,42.8002558 C13.1340729,43.2357641 13.4871675,43.588734 13.9224265,43.588734 L15.1743414,43.588734 L15.1743414,44.8405243 C15.1743414,45.2760326 15.5274361,45.6292519 15.9629444,45.6292519 L16.0347602,45.6292519 L16.4900927,45.6292519 C16.925601,45.6292519 17.278571,45.2760326 17.278571,44.8405243 L17.278571,43.588734 L18.5302366,43.588734 C18.9659942,43.588734 19.3188395,43.2357641 19.3188395,42.8002558 L19.3188395,42.2729827 C19.3189642,41.8375991 18.9659942,41.4846292 18.5302366,41.4846292 Z" id="Path" fill="url(#linearGradient-8)"></path>
                    </g>
                </g>
            </g>
        </g>
    </g>
</svg>