<?xml version="1.0" encoding="UTF-8"?>
<svg width="65px" height="69px" viewBox="0 0 65 69" version="1.1" xmlns="http://www.w3.org/2000/svg" xmlns:xlink="http://www.w3.org/1999/xlink">
    <!-- Generator: Sketch 55.2 (78181) - https://sketchapp.com -->
    <title>phieu kham benh</title>
    <desc>Created with Sketch.</desc>
    <defs>
        <linearGradient x1="97.091763%" y1="50%" x2="0%" y2="50%" id="linearGradient-1">
            <stop stop-color="#0C71D5" offset="0%"></stop>
            <stop stop-color="#3793EE" offset="100%"></stop>
        </linearGradient>
        <linearGradient x1="97.091763%" y1="50%" x2="0%" y2="50%" id="linearGradient-2">
            <stop stop-color="#0C71D5" offset="0%"></stop>
            <stop stop-color="#3793EE" offset="100%"></stop>
        </linearGradient>
        <linearGradient x1="97.091763%" y1="50%" x2="0%" y2="50%" id="linearGradient-3">
            <stop stop-color="#0C71D5" offset="0%"></stop>
            <stop stop-color="#3793EE" offset="100%"></stop>
        </linearGradient>
    </defs>
    <g id="Welcome" stroke="none" stroke-width="1" fill="none" fill-rule="evenodd">
        <g id="Artboard-Copy" transform="translate(-175.000000, -270.000000)">
            <g id="Group-5-Copy-5" transform="translate(24.000000, 270.000000)">
                <g id="phieu-kham-benh" transform="translate(151.000000, 0.000000)">
                    <circle id="Oval" fill="url(#linearGradient-1)" opacity="0.148530506" cx="32.5" cy="35.75" r="32.5"></circle>
                    <g id="chat-(2)-copy" transform="translate(3.250000, 0.000000)">
                        <path d="M27.2562245,25.3519898 L41.8812245,25.3519898 L49.7369388,32.8734184 L49.7369388,25.3519898 L53.0678571,25.3519898 C55.4078571,25.3519898 57.3180612,23.4417857 57.3180612,21.1017857 L57.3180612,5.34260204 C57.3180612,3.00260204 55.4078571,1.09239796 53.0678571,1.09239796 L27.2562245,1.09239796 C24.9162245,1.09239796 23.0060204,3.00260204 23.0060204,5.34260204 L23.0060204,21.1017857 C23.0060204,23.4417857 24.9162245,25.3519898 27.2562245,25.3519898 Z" id="XMLID_61_" fill="#FFFFFF"></path>
                        <path d="M8.17806122,50.9248469 C8.30938776,50.9845408 8.46459184,51.0084184 8.60785714,51.0084184 C8.88244898,51.0084184 9.15704082,50.9009694 9.36,50.709949 L16.8456122,43.5466837 L30.9214286,43.5466837 C33.8464286,43.5466837 36.2222449,41.1708673 36.2222449,38.2458673 L36.2222449,30.2588265 C36.2222449,29.6618878 35.7327551,29.172398 35.1358163,29.172398 C34.5388776,29.172398 34.0493878,29.6618878 34.0493878,30.2588265 L34.0493878,38.2458673 C34.0493878,39.9769898 32.6406122,41.3738265 30.9214286,41.3738265 L16.4038776,41.3738265 C16.1292857,41.3738265 15.8546939,41.4812755 15.6517347,41.6722959 L9.68234694,47.3790306 L9.68234694,42.4721939 C9.68234694,41.8752551 9.19285714,41.3857653 8.59591837,41.3857653 L5.30081633,41.3857653 C3.56969388,41.3857653 2.17285714,39.9769898 2.17285714,38.2578061 L2.17285714,22.6180102 C2.17285714,20.8868878 3.58163265,19.4781122 5.30081633,19.4781122 L18.1111224,19.4781122 C18.7080612,19.4781122 19.197551,18.9886224 19.197551,18.3916837 C19.197551,17.7947449 18.7080612,17.3052551 18.1111224,17.3052551 L5.30081633,17.3052551 C2.37581633,17.3052551 0,19.6810714 0,22.6060714 L0,38.2458673 C0,41.1708673 2.37581633,43.5466837 5.30081633,43.5466837 L7.52142857,43.5466837 L7.52142857,49.9339286 C7.52142857,50.3637245 7.78408163,50.7577041 8.17806122,50.9248469 Z" id="Path-Copy-3" fill="url(#linearGradient-2)"></path>
                        <path d="M41.4514286,26.4384184 L48.9967347,33.6613776 C49.1996939,33.852398 49.4742857,33.9598469 49.7488776,33.9598469 C49.8921429,33.9598469 50.0354082,33.9359694 50.1786735,33.8762755 C50.5726531,33.7091327 50.8353061,33.3151531 50.8353061,32.8853571 L50.8353061,26.4384184 L53.0797959,26.4384184 C56.0167347,26.4384184 58.4164286,24.0506633 58.4164286,21.1017857 L58.4164286,5.34260204 C58.4164286,2.40566327 56.0286735,0.00596938776 53.0797959,0.00596938776 L27.2562245,0.00596938776 C24.3192857,0.00596938776 21.9195918,2.39372449 21.9195918,5.34260204 L21.9195918,21.1017857 C21.9195918,24.0387245 24.3073469,26.4384184 27.2562245,26.4384184 L41.4514286,26.4384184 L41.4514286,26.4384184 Z M24.092449,21.1017857 L24.092449,5.34260204 C24.092449,3.59954082 25.5131633,2.17882653 27.2562245,2.17882653 L53.0678571,2.17882653 C54.8109184,2.17882653 56.2316327,3.59954082 56.2316327,5.34260204 L56.2316327,21.1017857 C56.2316327,22.8448469 54.8109184,24.2655612 53.0678571,24.2655612 L49.7369388,24.2655612 C49.14,24.2655612 48.6505102,24.755051 48.6505102,25.3519898 L48.6505102,30.342398 L42.6214286,24.5759694 C42.4184694,24.384949 42.1558163,24.2775 41.8692857,24.2775 L27.2562245,24.2775 C25.5131633,24.2775 24.092449,22.8567857 24.092449,21.1017857 Z" id="Shape-Copy-2" fill="url(#linearGradient-3)"></path>
                        <path d="M40.1620408,14.5235204 C40.4485714,14.5235204 40.7231633,14.4041327 40.9261224,14.2011735 C41.1290816,13.9982143 41.2484694,13.7236224 41.2484694,13.4370918 C41.2484694,13.1505612 41.1290816,12.8759694 40.9261224,12.6730102 C40.7231633,12.470051 40.4485714,12.3506633 40.1620408,12.3506633 C39.8755102,12.3506633 39.6009184,12.470051 39.3979592,12.6730102 C39.195,12.8759694 39.0756122,13.1505612 39.0756122,13.4370918 C39.0756122,13.7236224 39.195,13.9982143 39.3979592,14.2011735 C39.6009184,14.4160714 39.8755102,14.5235204 40.1620408,14.5235204 Z" id="Path" fill="url(#linearGradient-1)"></path>
                        <path d="M44.1973469,14.5235204 C44.4838776,14.5235204 44.7584694,14.4041327 44.9614286,14.2011735 C45.1643878,13.9982143 45.2837755,13.7236224 45.2837755,13.4370918 C45.2837755,13.1505612 45.1643878,12.8759694 44.9614286,12.6730102 C44.7584694,12.470051 44.4838776,12.3506633 44.1973469,12.3506633 C43.9108163,12.3506633 43.6362245,12.470051 43.4332653,12.6730102 C43.2303061,12.8759694 43.1109184,13.1505612 43.1109184,13.4370918 C43.1109184,13.7236224 43.2303061,13.9982143 43.4332653,14.2011735 C43.6242857,14.4160714 43.9108163,14.5235204 44.1973469,14.5235204 Z" id="Path" fill="url(#linearGradient-1)"></path>
                        <path d="M36.1386735,14.5235204 C36.4252041,14.5235204 36.6997959,14.4041327 36.9027551,14.2011735 C37.1057143,13.9982143 37.225102,13.7236224 37.225102,13.4370918 C37.225102,13.1505612 37.1057143,12.8759694 36.9027551,12.6730102 C36.6997959,12.470051 36.4252041,12.3506633 36.1386735,12.3506633 C35.8521429,12.3506633 35.577551,12.470051 35.3745918,12.6730102 C35.1716327,12.8759694 35.0522449,13.1505612 35.0522449,13.4370918 C35.0522449,13.7236224 35.1716327,13.9982143 35.3745918,14.2011735 C35.577551,14.4160714 35.8521429,14.5235204 36.1386735,14.5235204 Z" id="Path" fill="url(#linearGradient-1)"></path>
                    </g>
                </g>
            </g>
        </g>
    </g>
</svg>