<?xml version="1.0" encoding="UTF-8"?>
<svg width="66px" height="66px" viewBox="0 0 66 66" version="1.1" xmlns="http://www.w3.org/2000/svg" xmlns:xlink="http://www.w3.org/1999/xlink">
    <!-- Generator: Sketch 51.3 (57544) - http://www.bohemiancoding.com/sketch -->
    <title>Group 23</title>
    <desc>Created with Sketch.</desc>
    <defs></defs>
    <g id="Page-1" stroke="none" stroke-width="1" fill="none" fill-rule="evenodd">
        <g id="Homepages" transform="translate(-1220.000000, -725.000000)">
            <g id="nav-center" transform="translate(0.000000, 640.000000)">
                <g id="Group-3-Copy-2" transform="translate(1078.000000, 39.000000)">
                    <g id="Group-23" transform="translate(142.000000, 46.000000)">
                        <circle id="Oval-Copy-6" fill="#E6F6FF" cx="33" cy="33" r="33"></circle>
                        <g id="Group-22" transform="translate(15.000000, 15.000000)" fill="#1DA1F2">
                            <g id="flasks">
                                <path d="M14.7506006,3.12147446 L14.7506006,9.12582875 L14.7506006,9.12860961 L14.7506006,9.13139039 L14.7506006,16.028111 C14.7506006,18.0889793 16.4271592,19.7655379 18.4880275,19.7655379 C20.5486178,19.7655379 22.2251764,18.0889793 22.2251764,16.028111 L22.2251764,3.11062923 C22.4476423,3.03221004 22.6520327,2.90596061 22.8238877,2.73438382 C23.1264413,2.43183021 23.2930126,2.02972315 23.2930126,1.60175439 C23.2930126,1.57394615 23.2921784,1.54975297 23.2913441,1.52611598 C23.2716003,1.10704585 23.0886221,0.71828675 22.7752232,0.43269615 C22.4707231,0.153779527 22.0750119,0 21.6612253,0 L15.2544859,0 C14.8267952,0 14.42441,0.166571351 14.1218564,0.469124957 C13.8193028,0.771678563 13.6527315,1.17378562 13.6527315,1.60175439 C13.6527315,2.02972315 13.8193028,2.43183021 14.1218564,2.73438382 C14.3014976,2.91402505 14.5164553,3.0441676 14.7506006,3.12147446 Z M15.2544859,1.06783626 L21.6620595,1.06783626 C21.8058282,1.06783626 21.9487625,1.12317466 22.0541557,1.22022539 C22.1589927,1.31699805 22.2179462,1.44018855 22.2243421,1.57533654 L22.2251764,1.57895167 L22.2251764,1.60175439 C22.2243421,1.89568742 21.9851913,2.13483825 21.6912582,2.13567251 L19.6134269,2.13567251 C19.3192157,2.13567251 19.0795087,2.37565761 19.0795087,2.66959064 C19.0795087,2.96435794 19.3192157,3.20350877 19.6134269,3.20350877 L21.1576182,3.20350877 L21.1576182,8.59469148 L17.4201913,8.59469148 C17.1259801,8.59469148 16.8862731,8.83439843 16.8862731,9.12860961 C16.8862731,9.42337691 17.1259801,9.66252773 17.4201913,9.66252773 L21.1576182,9.66252773 L21.1576182,16.028111 C21.1576182,17.5000009 19.9599174,18.6977017 18.4880275,18.6977017 C17.0161376,18.6977017 15.8184369,17.5000009 15.8184369,16.028111 L15.8184369,3.20350877 L17.4763639,3.20350877 C17.770297,3.20350877 18.0102821,2.96435794 18.0102821,2.66959064 C18.0102821,2.37565761 17.7711312,2.13650678 17.4777543,2.13567251 C17.4719146,2.13428212 17.4663529,2.13567251 17.4605132,2.13567251 C16.4610852,2.13567251 16.4377263,2.13567251 15.2544859,2.13567251 C14.9605528,2.13483825 14.721402,1.89568742 14.7205677,1.60175439 C14.721402,1.30782135 14.9605528,1.06867052 15.2544859,1.06783626 Z" id="Shape" fill-rule="nonzero"></path>
                                <path d="M35.9262941,30.3034689 L31.0114666,21.8200103 C30.7942842,21.4451554 30.6037978,19.9268256 30.6037978,19.2079827 L30.6037978,15.5511998 C31.3187476,15.3907462 31.8548904,14.7514349 31.8548904,13.988655 C31.8548904,13.9630714 31.8543342,13.9372098 31.8529438,13.9119042 C31.8140122,13.0832188 31.1132447,12.4580897 30.222825,12.4580897 L24.7615655,12.4580897 C23.8483431,12.4580897 23.1598112,13.1160326 23.1598112,13.988655 C23.1598112,14.7514349 23.6956759,15.3907462 24.4106256,15.5511998 L24.4106256,19.2079827 C24.4106256,19.9268256 24.2201392,21.4451554 24.0032349,21.8197323 L19.0884074,30.3034689 C17.507231,33.0325692 19.4738295,36.4488109 22.6300643,36.4488109 L32.3843592,36.4488109 C35.5383693,36.4488109 37.5085828,33.0347938 35.9262941,30.3034689 Z M32.3843592,35.3809747 L22.6300643,35.3809747 C20.2988999,35.3809747 18.8428606,32.8573772 20.0121969,30.8387774 L24.9270246,22.3550408 C25.3463728,21.6311925 25.4784619,19.6921242 25.4784619,19.2079827 L25.4784619,15.5904094 L26.8947353,15.5904094 C27.1895026,15.5904094 27.4286535,15.3515366 27.4286535,15.0564912 C27.4286535,14.7614459 27.1897807,14.5225731 26.8947353,14.5225731 L24.7615655,14.5225731 C24.4670763,14.5225731 24.2276474,14.2831442 24.2276474,13.988655 C24.2276474,13.6708068 24.5043394,13.5259259 24.7615655,13.5259259 L30.222825,13.5259259 C30.4845005,13.5259259 30.7723157,13.6624644 30.786498,13.9627933 C30.786776,13.9714138 30.7870541,13.9800344 30.7870541,13.988655 C30.7870541,14.2831442 30.5476252,14.5225731 30.253136,14.5225731 L29.027627,14.5225731 C28.7325816,14.5225731 28.4937089,14.7614459 28.4937089,15.0564912 C28.4937089,15.3515366 28.7325816,15.5904094 29.027627,15.5904094 L29.5359615,15.5904094 L29.5359615,19.2079827 C29.5359615,19.6921242 29.6680507,21.6311925 30.0876769,22.3550408 L35.0022265,30.8387774 C36.1710066,32.8559868 34.7174702,35.3809747 32.3843592,35.3809747 Z" id="Shape" fill-rule="nonzero"></path>
                                <path d="M31.6010012,27.0838313 C31.4530614,26.8285517 31.1260365,26.74179 30.8713131,26.8897298 C30.6160334,27.0376696 30.5292717,27.3641384 30.6772115,27.6194179 L33.0904103,31.7814766 C33.4616502,32.4221784 33.0003116,33.2247241 32.258944,33.2247241 L22.7554794,33.2247241 C22.0149461,33.2247241 21.5524951,32.4227345 21.9242912,31.7814766 L24.1831542,27.8855428 L29.3593792,27.8855428 C29.6541466,27.8855428 29.8932974,27.6463919 29.8932974,27.3516247 C29.8932974,27.0565792 29.6541466,26.8177065 29.3593792,26.8177065 L23.8755951,26.8177065 C23.6851087,26.8177065 23.5090826,26.9189284 23.4137003,27.0835532 L21.0005017,31.2458899 C20.2160313,32.5984825 21.1909881,34.2925603 22.7554794,34.2925603 L32.258944,34.2925603 C33.8223231,34.2925603 34.7989483,32.5995949 34.0141998,31.2458899 L31.6010012,27.0838313 Z" id="Path"></path>
                                <path d="M26.6177653,29.0812969 C26.6177653,29.3760642 26.3786145,29.615215 26.0838472,29.615215 C25.7888017,29.615215 25.5499291,29.3760642 25.5499291,29.0812969 C25.5499291,28.7862515 25.7888017,28.5473787 26.0838472,28.5473787 C26.3786145,28.5473787 26.6177653,28.7862515 26.6177653,29.0812969 Z" id="Path"></path>
                                <path d="M29.820996,30.861024 C29.820996,31.1557913 29.5821233,31.3949421 29.2870779,31.3949421 C28.9923105,31.3949421 28.7531598,31.1557913 28.7531598,30.861024 C28.7531598,30.5659786 28.9923105,30.3271058 29.2870779,30.3271058 C29.5821233,30.3271058 29.820996,30.5659786 29.820996,30.861024 Z" id="Path"></path>
                                <path d="M27.3293781,31.9288602 C27.3293781,32.2236276 27.0905053,32.4627784 26.79546,32.4627784 C26.5006926,32.4627784 26.2615418,32.2236276 26.2615418,31.9288602 C26.2615418,31.6338149 26.5006926,31.3949421 26.79546,31.3949421 C27.0905053,31.3949421 27.3293781,31.6338149 27.3293781,31.9288602 Z" id="Path"></path>
                                <path d="M12.5643172,18.10483 L12.5643172,15.5862381 C13.2764861,15.4277312 13.8151316,14.7945376 13.8151316,14.0242495 C13.8151316,13.1335517 13.0745982,12.4224951 12.1836224,12.4224951 L6.72208484,12.4224951 C6.29411607,12.4224951 5.89200902,12.5890665 5.58945541,12.8916201 C5.2869018,13.1941737 5.12033045,13.5962807 5.12033045,14.0242495 C5.12033045,14.4522183 5.2869018,14.8543253 5.58945541,15.1568789 C5.80719391,15.3746174 6.0772119,15.5206107 6.37058874,15.58596 L6.36780795,18.1059424 C2.58032622,19.4234966 0.0355945419,23.004085 0.0355945419,27.0159792 C0.0353164773,32.218344 4.26383679,36.4488109 9.46759202,36.4488109 L9.49845911,36.4488109 C14.6824705,36.432404 18.8998675,32.2008248 18.8998675,27.0162573 C18.8998675,23.0046412 16.355692,19.4240527 12.5643172,18.10483 Z M9.49484405,35.3809747 C4.8786769,35.3946007 1.10315273,31.6482751 1.1034308,27.0159792 C1.1034308,23.4581935 3.36006916,20.282771 6.71874785,19.114269 C7.14949748,18.9643826 7.43898119,18.5589386 7.43898119,18.1051081 L7.43898119,15.6260039 L8.38418315,15.6260039 C8.39002286,15.6260039 8.39558451,15.6279505 8.40142422,15.6260039 C8.69452299,15.6251696 8.93395195,15.3860188 8.93395195,15.0920858 C8.93395195,14.7981527 8.69480113,14.5581676 8.40003383,14.5581676 L6.72208484,14.5581676 C6.4281518,14.5573334 6.18900097,14.3181825 6.18816671,14.0242495 C6.18900097,13.7303165 6.4281518,13.4911656 6.72208484,13.4903314 L12.1841786,13.4903314 C12.4744965,13.4903314 12.7472953,13.7147439 12.7472953,14.0242495 C12.7467392,14.3181825 12.5073102,14.5573334 12.2133772,14.5581676 L10.5362625,14.5581676 C10.2423294,14.5581676 10.0023443,14.7981527 10.0023443,15.0920858 C10.0023443,15.3868531 10.2423294,15.6260039 10.5362625,15.6260039 L10.5376529,15.6260039 L11.4964809,15.6260039 L11.4964809,18.10483 C11.4964809,18.5586604 11.7865208,18.9646607 12.2178265,19.1148251 C15.5759491,20.2833272 17.8320312,23.4587497 17.8320312,27.0162573 C17.8323094,31.6140711 14.0921016,35.3665144 9.49484405,35.3809747 Z" id="Shape" fill-rule="nonzero"></path>
                                <path d="M13.3829916,23.7059649 C12.1927991,23.7059649 11.2843041,24.3875448 10.5526693,25.0543863 C10.3346528,25.2529371 10.3190802,25.590529 10.517631,25.8085456 C10.7161818,26.0268402 11.0537738,26.0424129 11.2717904,25.843584 C12.1057593,25.083863 12.7175405,24.7738012 13.3829916,24.7738012 C14.6243513,24.7738012 15.7350122,25.7746196 15.693856,27.1986793 C15.6357368,28.423076 14.6215704,29.4010916 13.3829916,29.4010916 C12.0242812,29.4010916 10.9700709,28.0968854 9.85412646,26.7162064 C8.71343266,25.3052166 7.42034966,23.7059649 5.55247047,23.7059649 C4.66399732,23.7059649 3.82502286,24.0480062 3.18988275,24.6689641 C2.52331929,25.3205111 2.12872047,26.2356801 2.17543831,27.2554081 C2.30252193,31.1755351 5.52521837,34.3128603 9.46981668,34.3131384 L9.49150707,34.3131384 C13.6087944,34.3000685 16.7917251,30.8740939 16.7644731,27.0585258 C16.7728155,25.2954837 15.3000914,23.7059649 13.3829916,23.7059649 Z M9.48789201,33.2453021 L9.46814815,33.2453021 C5.77688295,33.2450241 3.17431014,30.1583099 3.24077184,27.0293272 C3.2710828,25.7857429 4.30832997,24.7738012 5.55247047,24.7738012 C6.91034658,24.7738012 7.98485681,26.1024786 9.0237725,27.3874973 C10.2481691,28.90249 11.5142782,30.4689279 13.3829916,30.4689279 C13.9124604,30.4689279 14.4138429,30.3465716 14.8604432,30.1288331 C13.7845425,31.9839206 11.7792906,33.238072 9.48789201,33.2453021 Z" id="Shape" fill-rule="nonzero"></path>
                                <path d="M5.73044318,27.3722027 C5.73044318,27.66697 5.49157042,27.9061209 5.19652505,27.9061209 C4.90175775,27.9061209 4.66260693,27.66697 4.66260693,27.3722027 C4.66260693,27.0774354 4.90175775,26.8382846 5.19652505,26.8382846 C5.49157042,26.8382846 5.73044318,27.0774354 5.73044318,27.3722027 Z" id="Path"></path>
                                <path d="M8.93395195,29.1519298 C8.93395195,29.4466971 8.69480113,29.685848 8.40003383,29.685848 C8.10526653,29.685848 7.8661157,29.4466971 7.8661157,29.1519298 C7.8661157,28.8571625 8.10526653,28.6180117 8.40003383,28.6180117 C8.69480113,28.6180117 8.93395195,28.8571625 8.93395195,29.1519298 Z" id="Path"></path>
                                <path d="M6.44233402,30.2197661 C6.44233402,30.5145334 6.20346126,30.7536842 5.90841589,30.7536842 C5.61364859,30.7536842 5.37449776,30.5145334 5.37449776,30.2197661 C5.37449776,29.9249988 5.61364859,29.685848 5.90841589,29.685848 C6.20346126,29.685848 6.44233402,29.9249988 6.44233402,30.2197661 Z" id="Path"></path>
                            </g>
                        </g>
                    </g>
                </g>
            </g>
        </g>
    </g>
</svg>