<?xml version="1.0" encoding="UTF-8"?>
<svg width="66px" height="66px" viewBox="0 0 66 66" version="1.1" xmlns="http://www.w3.org/2000/svg" xmlns:xlink="http://www.w3.org/1999/xlink">
    <!-- Generator: Sketch 51.3 (57544) - http://www.bohemiancoding.com/sketch -->
    <title>Group 24</title>
    <desc>Created with Sketch.</desc>
    <defs></defs>
    <g id="Page-1" stroke="none" stroke-width="1" fill="none" fill-rule="evenodd">
        <g id="Homepages" transform="translate(-1342.000000, -725.000000)">
            <g id="nav-center" transform="translate(0.000000, 640.000000)">
                <g id="Group-3-Copy-2" transform="translate(1078.000000, 39.000000)">
                    <g id="Group-24" transform="translate(264.000000, 46.000000)">
                        <circle id="Oval-Copy-7" fill="#E6F6FF" cx="33" cy="33" r="33"></circle>
                        <g id="handshake-(1)" transform="translate(12.000000, 20.000000)" fill="#1DA1F2">
                            <path d="M21.2684378,20.5520503 C20.7634094,20.1695357 20.1431468,20.0431339 19.564577,20.1510056 C19.4736637,19.6027954 19.1818143,19.1180343 18.7370915,18.7811833 C18.2762376,18.4321718 17.7072637,18.2836 17.1345673,18.3626012 C16.9926961,18.3822067 16.8548784,18.4152962 16.7223549,18.460877 C16.5967803,18.0302999 16.337276,17.6348805 15.9530242,17.3438584 C15.3201049,16.8644743 14.5064342,16.7877894 13.820489,17.0698774 C13.6839121,16.6588231 13.4273858,16.2984785 13.0746518,16.0312809 C12.6138806,15.6822694 12.0445759,15.5337803 11.4721276,15.6126988 C11.0077993,15.6768096 10.5864046,15.8844462 10.257495,16.2063243 L7.98656304,16.0553535 L9.37847261,4.74842514 L11.8725932,4.91792607 C11.886739,4.91883603 11.900802,4.91933237 11.9147823,4.91933237 C12.1462433,4.91933237 12.3600842,4.78995245 12.4667151,4.58181953 L13.4014106,2.75800934 C13.6382486,2.29632817 14.1728921,2.06164093 14.6727917,2.20003774 L16.060896,2.58387588 C16.3908809,2.67495471 16.7328609,2.48146389 16.8242706,2.15123074 C16.9155976,1.82099759 16.7218586,1.47918311 16.3916254,1.38785611 L15.0037693,1.0041007 C13.9399421,0.709604202 12.8016635,1.20892467 12.2974623,2.19176537 L11.5490607,3.65208747 L9.53043611,3.51493152 L9.57825043,3.12646086 C9.73112389,1.88486031 8.84540086,0.750469728 7.60380031,0.597596265 L2.82336109,0.00943050584 C2.48270475,-0.0322622568 2.17364887,0.209373774 2.13179066,0.549368327 C2.08993245,0.889445603 2.33173393,1.19908054 2.67172848,1.24093875 L7.4521677,1.82943541 C7.72465969,1.86293852 7.96778475,2.00059082 8.13670661,2.21699611 C8.30562848,2.4334014 8.38024529,2.70266716 8.34665946,2.97515914 L6.70508965,16.3102253 C6.63584988,16.872664 6.12180459,17.2736259 5.55936591,17.2047998 L0.778926693,16.6163031 C0.438435798,16.5747758 0.129214475,16.8161637 0.0873562646,17.1562409 C0.0454980545,17.4963182 0.287299533,17.8059532 0.627294086,17.8478114 L5.40773331,18.436308 C5.50137658,18.4478066 5.59444078,18.4534318 5.6865123,18.4534318 C6.52450374,18.4534318 7.28051595,17.9878626 7.67221284,17.2781757 L9.37111019,17.3910936 C9.16802342,17.7841968 9.09018039,18.2291678 9.1518923,18.676455 C9.23097619,19.248986 9.52828529,19.7565788 9.9890565,20.1055075 C10.3690066,20.3933034 10.8224981,20.5447706 11.2910454,20.5447706 C11.3907275,20.5447706 11.4910714,20.5379045 11.5915807,20.5240896 C11.5980332,20.5231797 11.6043202,20.5219388 11.6106899,20.5209461 C11.6115171,20.5273986 11.6120135,20.5337683 11.6128407,20.5402208 C11.6919246,21.1127518 11.9892337,21.6203446 12.4500049,21.9692733 C12.8400473,22.264597 13.2986677,22.4072955 13.7538964,22.4072955 C13.86061,22.4072955 13.9670755,22.3986095 14.0724655,22.3830574 C14.1439388,22.9396227 14.4294184,23.4683101 14.911036,23.8330391 C15.3010784,24.1284455 15.7596988,24.2710612 16.2149275,24.2710612 C16.3213103,24.2710612 16.4274448,24.262458 16.532504,24.2469886 C16.5334139,24.2538547 16.5339103,24.2608035 16.5348202,24.2676696 C16.6139041,24.8402005 16.9112132,25.3477934 17.3720672,25.6967221 C17.7520173,25.9844353 18.2055088,26.1359851 18.6739733,26.1359851 C18.7737381,26.1359851 18.874082,26.1291191 18.9745086,26.1153042 C19.5471223,26.0362203 20.0546325,25.7389112 20.4035612,25.27814 L21.6869372,23.5835443 C22.4074609,22.6323868 22.2196781,21.2724086 21.2684378,20.5520503 Z M11.4219143,19.2949804 C11.1777966,19.3287317 10.9349197,19.2652826 10.7383681,19.1163798 C10.5418165,18.9675598 10.415001,18.7509891 10.3812497,18.5067886 C10.3474984,18.2625054 10.4109475,18.019794 10.5598503,17.8231597 L11.032451,17.1990918 C11.181271,17.0025402 11.3978417,16.8757247 11.6420422,16.8419735 C11.8863254,16.8084704 12.1290368,16.8716713 12.3256711,17.020574 C12.5222227,17.169394 12.6490382,17.3859647 12.6827895,17.6301652 C12.7165408,17.8743657 12.6530917,18.1170771 12.5042717,18.3137114 L12.0315882,18.9377793 C11.8826855,19.1343309 11.6661975,19.2612291 11.4219143,19.2949804 Z M13.1993165,20.9801456 C13.0027649,20.8313256 12.8759494,20.6147549 12.8421981,20.3705544 C12.8084468,20.1262712 12.871896,19.8835598 13.0207987,19.6869254 L13.4933994,19.0629403 C13.4933994,19.0629403 13.4934821,19.0628576 13.4934821,19.0627749 L13.9108233,18.5116693 C14.0921538,18.2722668 14.3683683,18.1462786 14.6478091,18.1462786 C14.8419617,18.1462786 15.0376033,18.2071633 15.2039608,18.3331515 C15.6097207,18.6404702 15.68988,19.220529 15.3825613,19.6263717 L14.4925367,20.8016278 C14.185218,21.2073877 13.6050764,21.2874643 13.1993165,20.9801456 Z M15.6603476,22.8439114 C15.463796,22.6950914 15.3369805,22.4785206 15.3032293,22.2342374 C15.269478,21.9901197 15.3328444,21.7474082 15.4815816,21.5509394 C15.4816644,21.5508567 15.4816644,21.5507739 15.4817471,21.5506912 L16.3717718,20.3753524 C16.3717718,20.3753524 16.3717718,20.3753524 16.3717718,20.3753524 L16.6947252,19.9489115 C16.8435452,19.7523599 17.060116,19.6255444 17.3043991,19.5917932 C17.5487651,19.5582073 17.7913938,19.621491 17.9880281,19.7703937 C18.3936226,20.0775469 18.4737819,20.6573576 18.1668768,21.0631175 L16.9535678,22.6652281 C16.9534851,22.6653108 16.9534023,22.6653935 16.9534023,22.6654763 C16.6460009,23.0710707 16.0661903,23.15123 15.6603476,22.8439114 Z M20.6978922,22.8344809 L19.4145162,24.5290766 C19.2656962,24.7256282 19.0491254,24.8524437 18.804925,24.8861949 C18.5604763,24.9198635 18.3178476,24.8564971 18.121296,24.7076771 C17.9247444,24.5588571 17.7979289,24.3422864 17.7641777,24.0980859 C17.7304264,23.8538027 17.7938755,23.6110913 17.9427782,23.414457 L19.1558391,21.81276 C19.1560872,21.8125118 19.1562527,21.8121809 19.1565009,21.8119328 L19.226237,21.7198612 C19.375057,21.5233096 19.5916277,21.3964942 19.8359109,21.3627429 C20.0801941,21.3292398 20.3229055,21.3924407 20.5195398,21.5413434 C20.9250516,21.8484967 21.0052109,22.4287209 20.6978922,22.8344809 Z" id="Shape" fill-rule="nonzero"></path>
                            <path d="M42.4327265,17.1562409 C42.3908682,16.8162464 42.0815642,16.5747758 41.741156,16.6163031 L36.9607995,17.2047998 C36.3975336,17.2740395 35.8843156,16.872664 35.8150758,16.3102253 L35.7661033,15.9122414 L35.7547702,15.8200872 L34.1735887,2.97515914 C34.1400029,2.70266716 34.2146197,2.43348412 34.3835416,2.21699611 C34.5524634,2.00059082 34.7955885,1.86293852 35.0680805,1.82943541 L39.8485197,1.24093875 C40.188597,1.19908054 40.4303157,0.889445603 40.3884575,0.549368327 C40.3465993,0.209373774 40.0372953,-0.0320968093 39.6968871,0.00943050584 L34.9164479,0.59792716 C33.7481405,0.741783735 32.8952588,1.75473588 32.9259493,2.90831837 L31.7204163,3.05672475 L27.9874251,0.955955486 C27.4588204,0.658150039 26.8595696,0.530259144 26.2544455,0.585849494 C26.2532047,0.585932218 26.2519638,0.586263113 26.250723,0.586345837 L25.1270865,0.690246848 C24.7858511,0.721764591 24.5348672,1.0239544 24.5664677,1.36518981 C24.5979854,1.70634249 24.8996789,1.95691268 25.2414107,1.92580856 L26.3681907,1.82157665 C26.7207592,1.7889835 27.0701843,1.86360031 27.3785784,2.03715471 L31.2489738,4.21527066 C31.3700813,4.29518179 31.517495,4.33174568 31.6665632,4.31346374 L33.0667451,4.14115019 L34.0937603,12.4832598 L34.4488933,15.3681674 L32.2156006,15.3699873 C32.0666979,15.37007 31.922924,15.4237577 31.8105025,15.5209581 L31.6376926,15.6554669 L26.0308433,10.8230772 C27.3121512,10.4547084 28.5335672,9.56369105 29.6755683,8.16127556 C29.8918909,7.89556693 29.8519353,7.50478 29.5862267,7.28837471 C29.3205181,7.07205214 28.9296484,7.1120077 28.7133258,7.37771634 C27.4368986,8.94533113 26.0947887,9.75221844 24.7242219,9.77587743 C22.7275191,9.81343401 21.2604136,8.15780117 21.2469296,8.14233183 C21.1249121,8.00120514 20.9460634,7.92311393 20.7596041,7.92766374 C20.5731448,7.93295805 20.3990114,8.02196879 20.2853489,8.16979611 L18.6187139,10.3388125 C17.7406014,11.4817236 16.2447081,11.9075854 14.8962285,11.3981726 L14.7182897,11.3309182 C14.5620246,11.2718535 14.4983273,11.1497532 14.4743374,11.0821679 C14.4503475,11.0145826 14.4225524,10.8796602 14.5064342,10.7352246 L18.8563791,3.24814747 C19.1377226,2.76388272 19.6386975,2.44399004 20.1964209,2.39237043 L22.771859,2.15420879 C23.1130944,2.12260833 23.3640782,1.82041852 23.3324777,1.47926584 C23.3008773,1.13811315 22.9986875,0.887212062 22.6575348,0.918647082 L20.0820967,1.15680872 C19.1253967,1.24532311 18.2660626,1.79411237 17.7833696,2.62482412 L13.4334247,10.1119012 C13.1885624,10.5334614 13.1417408,11.0386553 13.3051202,11.4980202 C13.4684995,11.9573851 13.823798,12.3195496 14.2797712,12.4917804 L14.45771,12.5590348 C14.9825093,12.7572409 15.5232744,12.8529522 16.0568425,12.8529522 C17.4178961,12.8528695 18.7307218,12.2296289 19.60263,11.0949074 L20.8460504,9.47666568 C21.5123901,10.0509339 22.7554797,10.9014993 24.3422864,11.0059794 L32.4446626,17.9891862 C32.5903391,18.1146781 32.6784399,18.2893907 32.6926684,18.4811443 C32.7068969,18.6728979 32.6456813,18.8587781 32.5203549,19.0042892 L32.2045984,19.3705072 C31.8079381,19.8299548 31.1106597,19.8809953 30.6503848,19.4845005 C30.6246577,19.4623305 30.5972762,19.443304 30.5692328,19.4260975 L28.4658991,17.6124623 C28.2065602,17.3887774 27.8146979,17.4177307 27.5908475,17.677235 C27.3670798,17.9367394 27.3961158,18.328519 27.6556202,18.5522867 L29.364858,20.0260928 L28.5851868,20.930925 C28.3456188,21.208794 27.9851088,21.3491762 27.6212071,21.306408 C27.4033955,21.2807637 27.1994815,21.1906775 27.0315523,21.0458282 C27.0285742,21.0432638 27.025348,21.041113 27.02237,21.0386313 L25.0680217,19.3535488 C24.8085174,19.1298638 24.4168205,19.1588171 24.19297,19.4183215 C23.9692023,19.6778258 23.9982384,20.0696054 24.2577427,20.2933732 L25.751237,21.5811335 L24.9669333,22.4920046 C24.7272826,22.7699563 24.3659454,22.9103385 24.0019609,22.8674876 C23.6615528,22.8272839 23.3533241,23.070988 23.3133686,23.4112307 C23.273413,23.7515562 23.5167862,24.0598675 23.8571117,24.0998231 C23.9490177,24.1105772 24.0406756,24.1159542 24.1320026,24.1159542 C24.80951,24.1159542 25.4579814,23.8225332 25.9070058,23.3019527 L26.7454936,22.3282116 C26.9745556,22.4374069 27.2208242,22.5087975 27.4762751,22.5388262 C28.2505693,22.6298223 29.016012,22.3316033 29.5250939,21.7411212 L30.3649879,20.7663875 C31.29381,21.2069741 32.4410228,20.9956149 33.1441746,20.1810343 L33.4603447,19.81432 C33.8021591,19.4174942 33.9690129,18.9113077 33.9302155,18.3890728 C33.8914181,17.8667551 33.6514365,17.3908454 33.2548589,17.0492791 L32.7456116,16.6104297 L34.6069784,16.608858 C34.810396,17.6809576 35.7538602,18.4535146 36.8334877,18.4535146 C36.9254765,18.4535146 37.0187061,18.4478893 37.1122667,18.4363907 L41.8927059,17.8478941 C42.2327832,17.8059532 42.4745847,17.4964009 42.4327265,17.1562409 Z" id="Path"></path>
                            <path d="M38.4667851,12.6773297 C37.4633462,12.6773297 36.6469457,13.4936475 36.6469457,14.4970865 C36.6469457,15.5005254 37.4633462,16.3169259 38.4667851,16.3169259 C39.470224,16.3169259 40.2865419,15.5005254 40.2865419,14.4970865 C40.2865419,13.4936475 39.470224,12.6773297 38.4667851,12.6773297 Z M38.4667851,15.0760699 C38.1475542,15.0760699 37.8878017,14.8163174 37.8878017,14.4970865 C37.8878017,14.1778556 38.1475542,13.9181858 38.4667851,13.9181858 C38.786016,13.9181858 39.0456858,14.1778556 39.0456858,14.4970865 C39.0456858,14.8163174 38.786016,15.0760699 38.4667851,15.0760699 Z" id="Shape" fill-rule="nonzero"></path>
                            <path d="M5.80629626,14.4970865 C5.80629626,13.4936475 4.98997844,12.6773297 3.98653953,12.6773297 C2.98310062,12.6773297 2.1667828,13.4936475 2.1667828,14.4970865 C2.1667828,15.5005254 2.98310062,16.3169259 3.98653953,16.3169259 C4.98997844,16.3169259 5.80629626,15.5005254 5.80629626,14.4970865 Z M3.40763883,14.4970865 C3.40763883,14.1778556 3.66730864,13.9181858 3.98653953,13.9181858 C4.30577043,13.9181858 4.56544023,14.1778556 4.56544023,14.4970865 C4.56544023,14.8163174 4.30577043,15.0760699 3.98653953,15.0760699 C3.66730864,15.0760699 3.40763883,14.8163174 3.40763883,14.4970865 Z" id="Shape" fill-rule="nonzero"></path>
                        </g>
                    </g>
                </g>
            </g>
        </g>
    </g>
</svg>