<svg id="Layer_1" data-name="Layer 1" xmlns="http://www.w3.org/2000/svg" viewBox="0 0 200 200"><defs><style>.cls-1{fill:#fff;}.cls-2{fill:#008c8a;}.cls-3{fill:#e30016;}</style></defs><title>logo-200x200</title><rect class="cls-1" width="200" height="200" rx="100" ry="100"/><path id="path2" class="cls-2" d="M176.06,107.52a21.4,21.4,0,0,0-1.6,1.59c-1,1.12-9.11,14.69-15.87,23.4a2.81,2.81,0,0,0-1.47-2.14c2.34-3.58,13.63-20.91,14.84-22.93.49-.94,2.5-2.62,3.33-2.52a.9.9,0,0,1,.36.09,1.26,1.26,0,0,1,.76,1.23,2.84,2.84,0,0,1-.35,1.28ZM155.48,129.8a6.78,6.78,0,0,0-1.48-.18l-.14,0c2.64-4.39,11.86-19.72,13.72-22.39,1-1.46,1.79-1.68,2.27-1.69A1.76,1.76,0,0,1,171,106c-.18.22-.37.46-.51.66-1.2,2-13.1,20.25-15,23.14Zm-6,.93c3.87-6.13,13.78-21.82,14.49-22.7a2,2,0,0,1,1.39-.49C162,112.72,152.31,129,151.7,130a14.9,14.9,0,0,0-2.2.76ZM48,130c-.61-1-10.34-17.25-13.68-22.43a2,2,0,0,1,1.39.49c.71.88,10.62,16.57,14.49,22.7A14.85,14.85,0,0,0,48,130Zm-2.31-.35a6.78,6.78,0,0,0-1.48.18c-1.89-2.9-13.79-21.14-15-23.14-.13-.2-.33-.44-.51-.66a1.76,1.76,0,0,1,1.12-.44c.48,0,1.24.23,2.27,1.69,1.85,2.68,11.08,18,13.72,22.39Zm-4.59,2.89c-6.75-8.71-14.9-22.28-15.87-23.4a21.4,21.4,0,0,0-1.6-1.59,2.82,2.82,0,0,1-.35-1.28A1.26,1.26,0,0,1,24,105a.89.89,0,0,1,.36-.09c.84-.1,2.84,1.58,3.33,2.52,1.21,2,12.5,19.35,14.84,22.93a2.81,2.81,0,0,0-1.48,2.14Zm139.08-23.94a2.28,2.28,0,0,0-2.1-1.94h0a3.7,3.7,0,0,0,0-.4,2.87,2.87,0,0,0-1.63-2.61,2.37,2.37,0,0,0-1.21-.3,5.3,5.3,0,0,0-3.18,1.47,3.68,3.68,0,0,0-2.26-.84,4.42,4.42,0,0,0-3.37,2,6.6,6.6,0,0,0-.81-.05,3.86,3.86,0,0,0-3.05,1.15c-1.08,1.37-15.51,24.28-16.1,25.21-.76.45-1.51.89-2.37,1.49-6.95,4.78-10.5,6.61-19.81,8.48-8,1.53-21.6,6.6-24.5,25-2.91-18.45-16.47-23.51-24.5-25-9.31-1.87-12.86-3.69-19.81-8.48-.86-.59-1.61-1-2.37-1.49-.59-.93-15-23.85-16.1-25.21A3.87,3.87,0,0,0,34,105.91a6.65,6.65,0,0,0-.81.05,4.41,4.41,0,0,0-3.37-2,3.68,3.68,0,0,0-2.26.84,5.3,5.3,0,0,0-3.18-1.47,2.38,2.38,0,0,0-1.21.3,2.87,2.87,0,0,0-1.63,2.61,3.86,3.86,0,0,0,0,.4h0a2.28,2.28,0,0,0-2.1,1.94,6.29,6.29,0,0,0-.27,2c.08,9.15,12.74,29,22.73,41,10.8,12.83,19.59,15.26,28.43,19.16a30.89,30.89,0,0,1,12.78,10.5.87.87,0,0,0,.74.4.9.9,0,0,0,.42-.11.78.78,0,0,0,.32-1.1,32.16,32.16,0,0,0-13.53-11.14c-9-4-17.19-6.15-27.81-18.71-9.88-11.64-22.46-31.88-22.38-40a5.15,5.15,0,0,1,.21-1.56c.29-.83.46-.78.46-.79.24-.13,1.64,1,2.3,1.91.82.87,10.19,16.6,17.4,25.31,0,.13.06.22.06.23a.81.81,0,0,0,.54.49,31.68,31.68,0,0,0,3.38,3.51c7.05,6.1,24.35,13.3,26.09,15.79a.9.9,0,0,0,1.2.18.76.76,0,0,0,.2-1.11c-2.72-3.35-19.56-10.09-26.34-16a31.52,31.52,0,0,1-3.56-3.73,6.55,6.55,0,0,1-.17-1.38c0-.85.23-1.46.67-1.63a5.18,5.18,0,0,1,2.27-.53c1.7,0,4.41.78,8.82,3.83,7,4.83,11,6.9,20.47,8.77,8.73,1.82,23.65,7.08,23.73,31.13,0,1.3.09,2.79,0,4.22a.82.82,0,0,0,.81.85h0a.45.45,0,0,1,.59,0h0a.82.82,0,0,0,.81-.85c-.09-1.43,0-2.92,0-4.22.07-24.06,15-29.31,23.73-31.13,9.43-1.87,13.49-3.94,20.47-8.77,4.41-3,7.12-3.83,8.82-3.83a5.18,5.18,0,0,1,2.27.53c.44.17.67.78.67,1.63a6.49,6.49,0,0,1-.17,1.38,31.56,31.56,0,0,1-3.56,3.73c-6.77,6-23.61,12.7-26.34,16a.76.76,0,0,0,.2,1.11.91.91,0,0,0,1.2-.18c1.74-2.49,19-9.69,26.09-15.79a31.82,31.82,0,0,0,3.38-3.51.8.8,0,0,0,.54-.49s0-.1.06-.23c7.22-8.71,16.59-24.44,17.4-25.31.67-.86,2.07-2,2.3-1.91,0,0,.16,0,.46.79a5.15,5.15,0,0,1,.21,1.56c.08,8.09-12.5,28.33-22.38,40-10.62,12.57-18.78,14.71-27.81,18.71A32.18,32.18,0,0,0,115,180.41a.78.78,0,0,0,.32,1.1.9.9,0,0,0,.42.11.87.87,0,0,0,.74-.4,30.92,30.92,0,0,1,12.78-10.5c8.84-3.91,17.63-6.33,28.43-19.16,10-11.92,22.65-31.81,22.73-41a6.29,6.29,0,0,0-.27-2Z"/><path id="path4" class="cls-2" d="M27.15,92.17l4.31.63.62-4.37q.33-2.37-1.85-2.69T27.76,87.8Zm-5.6-.82,3.83.56.57-4a2.19,2.19,0,0,0-.3-1.58,1.82,1.82,0,0,0-1.33-.78q-1.91-.28-2.2,1.8ZM33.1,95.56l-13.88-2,1-6.86a5,5,0,0,1,1.2-2.86A3.08,3.08,0,0,1,24.22,83a3,3,0,0,1,2.67,2.45h0q.94-2.57,3.95-2.13a3.36,3.36,0,0,1,2.8,2.09A6.87,6.87,0,0,1,34,89.07l-.91,6.49Z"/><path id="path6" class="cls-2" d="M35.25,82.32,22,77.65l3.31-9.7,2,.71L24.82,76l3.47,1.22,2.31-6.8,1.89.67-2.31,6.8,3.88,1.36,2.55-7.47,2,.71Z"/><path id="path8" class="cls-2" d="M38.8,80.94,36.74,80l.95-2.17,2.07.93ZM20.36,71.81l1,2-.73,1.67L19,72.38l.89-2,3.43-.81-.74,1.69Z"/><path id="path10" class="cls-2" d="M39.16,71.21,27,64l1.3-2.28,12.17-.38-8.93-5.29L32.76,54l12.12,7.17-1.29,2.25-12.13.36,0,.06,8.91,5.27Z"/><path id="path12" class="cls-2" d="M46.24,59.32,35.84,49.76l1.65-1.86,4.14,3.8,4.28-4.82-4.14-3.8,1.65-1.85,10.41,9.56-1.64,1.85-4.7-4.31L43.2,53.15l4.69,4.31Z"/><path id="path14" class="cls-2" d="M61.8,44.57,50.23,35.21l2.14-1.41,9,7.52.05,0-3-11.46,2.09-1.38,3.63,14.62Z"/><path id="path16" class="cls-2" d="M68.91,40.28,62.77,27.46,65,26.36l6.14,12.82Z"/><path id="path18" class="cls-2" d="M73.11,38.11l-4.52-13.5,9.55-3.31.68,2L71.6,25.85l1.18,3.54,6.69-2.32L80.12,29l-6.69,2.32,1.32,4,7.36-2.55.69,2Z"/><path id="path20" class="cls-2" d="M76.36,40.11l-.54-2.23,2.27-.57.54,2.23ZM72.11,19.7l-.91,2.07-1.75.44,1.36-3.29,2.12-.53,2.74,2.25-1.77.45Z"/><path id="path22" class="cls-2" d="M84.18,34.41,82.31,20.27l2.57-.35,7.77,9.54h0L91.26,19l2.31-.32,1.87,14.14-2.53.35-7.73-9.53-.06,0,1.38,10.4-2.32.32Z"/><path id="path24" class="cls-2" d="M102.38,32.9l2-14.12,2.57.38,4.91,11.33,1.46-10.4,2.31.34-2,14.12-2.53-.37-4.88-11.31h-.07l-1.46,10.38-2.31-.34Z"/><path id="path26" class="cls-2" d="M115.73,35.08l4.8-13.4,2.31.85-1.91,5.33,6,2.22,1.91-5.33,2.31.85L126.34,39,124,38.15l2.17-6-6-2.22-2.17,6-2.31-.86Z"/><path id="path28" class="cls-2" d="M138.69,32.64l-4.95,4.11L137.4,39l1.35-6.35ZM127,39.21l11.89-9.33,2.23,1.39-2.69,15-2.25-1.39L137,41l-4.78-3-3.06,2.52L127,39.21Z"/><path id="path30" class="cls-2" d="M142.63,27.95l-2.31.61-1.56-1.09,3.61-1,1.88,1.32,0,3.58-1.57-1.11Z"/><path id="path32" class="cls-2" d="M138.87,46.78,149.1,36.31l2,1.79-2.45,12.17,7.54-7.72,1.85,1.61L147.85,54.63l-2-1.77,2.47-12.13-.06,0-7.52,7.7-1.84-1.61Z"/><path id="path34" class="cls-2" d="M165,56l-9.2,5.3,1.35,2.1a4.91,4.91,0,0,0,3.2,2.48,6.26,6.26,0,0,0,4-1.07,5.78,5.78,0,0,0,2.84-2.88,4.47,4.47,0,0,0-.86-3.83Zm-12.41,4.23,12.88-7.42,3.25,5.05a5.52,5.52,0,0,1,.76,5.15,8,8,0,0,1-3.75,3.93,8.64,8.64,0,0,1-5.41,1.34,6.1,6.1,0,0,1-4.48-3Z"/><path id="path36" class="cls-2" d="M173.46,72.75l-6.87.07,1.58,4.09,5.31-4.11,0-.06Zm-14.17-2.3,16.14.26,1,2.5-12.17,10-1-2.51,3.26-2.55-2.06-5.35-4.23,0Z"/><path id="path38" class="cls-2" d="M179.64,71.39l-2.21-.89-.49-1.77,3.5,1.34.6,2.14L178.7,75l-.5-1.8,1.44-1.84Z"/><path id="path40" class="cls-2" d="M164.29,83.91l14.91-2.12.42,2.61-9.95,8,11-1.56.38,2.35-14.91,2.13-.41-2.58,9.94-8,0-.07-11,1.57-.38-2.35Z"/><path id="path42" class="cls-3" d="M136.11,79h-25V53.55H86V79H61v25.49H86V130h25V104.52h25Z"/><path id="path44" class="cls-1" d="M87.13,83.64v16.53h-3.3V89.45H79.75V86.92q4.3.1,4.76-3.28Z"/><path id="path46" class="cls-1" d="M97.94,83.64v16.53h-3.3V89.45H90.56V86.92q4.3.1,4.76-3.28Z"/><path id="path48" class="cls-1" d="M112.75,83.64V86.4H106l-.66,3.75,0,0a4.22,4.22,0,0,1,3.18-1.28,4.58,4.58,0,0,1,3.72,1.65,5.94,5.94,0,0,1,1.3,4,5.73,5.73,0,0,1-1.74,4.28,5.83,5.83,0,0,1-4.29,1.68,6.65,6.65,0,0,1-4.18-1.32,4.75,4.75,0,0,1-1.86-3.92h3.3a2.77,2.77,0,0,0,.85,1.8,2.57,2.57,0,0,0,1.82.68,2.53,2.53,0,0,0,2.07-1,3.36,3.36,0,0,0,.74-2.22,3.27,3.27,0,0,0-.76-2.22,2.57,2.57,0,0,0-2.05-.88A2.93,2.93,0,0,0,105,92.78h-3l1.6-9.14Z"/></svg>