<svg id="Layer_1" data-name="Layer 1" xmlns="http://www.w3.org/2000/svg" viewBox="0 0 161.95 45"><defs><style>.cls-1{fill:#008c8a;}.cls-2{fill:#e30016;}.cls-3{fill:#fff;}</style></defs><title>logo-ngang-color</title><path class="cls-1" d="M48.11,5.34A.38.38,0,0,1,48.5,5h2a1.33,1.33,0,0,1,.53.11,1.42,1.42,0,0,1,.43.29,1.33,1.33,0,0,1,.29.42,1.35,1.35,0,0,1,0,1,1.49,1.49,0,0,1-.2.38,2.4,2.4,0,0,1,1,.85,2.33,2.33,0,0,1,.18,2.19,2.48,2.48,0,0,1-.51.75,2.38,2.38,0,0,1-.76.51,2.34,2.34,0,0,1-.93.19h-2a.38.38,0,0,1-.27-.11.36.36,0,0,1-.12-.27Zm.77.38V6.86h1.64a.57.57,0,0,0,.42-.16.57.57,0,0,0,0-.81.59.59,0,0,0-.42-.17Zm0,1.91v3.2h1.64a1.63,1.63,0,0,0,.64-.13,1.65,1.65,0,0,0,.52-.34,1.58,1.58,0,0,0,.47-1.13A1.52,1.52,0,0,0,52,8.62a1.59,1.59,0,0,0-.35-.5,1.72,1.72,0,0,0-1.16-.49Z"/><path class="cls-1" d="M53.4,8.38a1.81,1.81,0,0,1,.14-.71,1.77,1.77,0,0,1,.39-.58,1.88,1.88,0,0,1,.58-.39,1.83,1.83,0,0,1,2,.39,1.89,1.89,0,0,1,.39.58,1.75,1.75,0,0,1,.15.71V9.1a.37.37,0,0,1-.11.27.36.36,0,0,1-.27.11h-2.5v.34a1,1,0,0,0,.08.4,1.13,1.13,0,0,0,.23.34,1,1,0,0,0,.34.23,1.07,1.07,0,0,0,.41.08,1.05,1.05,0,0,0,1-.61v0a.39.39,0,0,1,.14-.17.36.36,0,0,1,.22-.07.36.36,0,0,1,.27.12.38.38,0,0,1,.11.27.39.39,0,0,1,0,.14l0,0a1.82,1.82,0,0,1-.66.78,1.75,1.75,0,0,1-1,.3,1.8,1.8,0,0,1-.71-.14,1.82,1.82,0,0,1-.58-.39,1.86,1.86,0,0,1-.39-.58,1.72,1.72,0,0,1-.15-.7ZM55,5A.31.31,0,0,1,55.18,5a.38.38,0,0,1,.23.07l.66.48a.37.37,0,0,1,.17.31.35.35,0,0,1-.13.27.41.41,0,0,1-.28.11.31.31,0,0,1-.21-.07l-.45-.31-.43.31a.37.37,0,0,1-.21.07.4.4,0,0,1-.28-.11.35.35,0,0,1-.12-.27.37.37,0,0,1,.17-.31Zm-.84,3.71h2.11V8.38a1,1,0,0,0-.09-.4A1.22,1.22,0,0,0,56,7.64a.94.94,0,0,0-.34-.23,1.09,1.09,0,0,0-.41-.08,1.07,1.07,0,0,0-.41.08,1,1,0,0,0-.57.57,1,1,0,0,0-.08.4Zm.61,4a.44.44,0,0,1,.13-.32.45.45,0,0,1,.77.32.44.44,0,0,1-.13.32.43.43,0,0,1-.32.13.44.44,0,0,1-.32-.13A.43.43,0,0,1,54.77,12.68Z"/><path class="cls-1" d="M57.62,8.38a1.79,1.79,0,0,1,.14-.71,1.75,1.75,0,0,1,.39-.58,1.86,1.86,0,0,1,.58-.39,1.77,1.77,0,0,1,.71-.14,1.79,1.79,0,0,1,.7.14,1.77,1.77,0,0,1,.58.39,1.91,1.91,0,0,1,.39.58,1.76,1.76,0,0,1,.14.71v2.84a.36.36,0,0,1-.12.27.38.38,0,0,1-.65-.27V8.38a1,1,0,0,0-.09-.4,1.2,1.2,0,0,0-.23-.34.94.94,0,0,0-.34-.23,1.08,1.08,0,0,0-.41-.08,1.07,1.07,0,0,0-.41.08,1,1,0,0,0-.57.57,1.06,1.06,0,0,0-.08.4v2.84a.36.36,0,0,1-.12.27.38.38,0,0,1-.27.11.38.38,0,0,1-.38-.38Z"/><path class="cls-1" d="M62,5.22a.38.38,0,0,1,.38-.38.38.38,0,0,1,.27.11.37.37,0,0,1,.12.27V6.91a1.79,1.79,0,0,1,.49-.25,1.77,1.77,0,0,1,.57-.09,1.79,1.79,0,0,1,.7.14,1.76,1.76,0,0,1,.58.39,1.91,1.91,0,0,1,.39.58,1.74,1.74,0,0,1,.14.71v2.84a.36.36,0,0,1-.12.27.38.38,0,0,1-.65-.27V8.38a1,1,0,0,0-.09-.4,1.2,1.2,0,0,0-.23-.34.93.93,0,0,0-.34-.23,1.08,1.08,0,0,0-.41-.08,1,1,0,0,0-.41.08,1.12,1.12,0,0,0-.33.22.94.94,0,0,0-.23.32,1.09,1.09,0,0,0-.09.39v2.88a.37.37,0,0,1-.12.27.38.38,0,0,1-.27.11.38.38,0,0,1-.38-.38v-6Z"/><path class="cls-1" d="M68.59,7.13a.41.41,0,0,1,0-.15.4.4,0,0,1,.1-.26.34.34,0,0,1,.27-.12.37.37,0,0,1,.2.06.39.39,0,0,1,.14.17l1.5,3.48,1.49-3.48a.35.35,0,0,1,.35-.23.34.34,0,0,1,.27.12A.4.4,0,0,1,73,7a.41.41,0,0,1,0,.15l-1.83,4.28a.36.36,0,0,1-.35.23.34.34,0,0,1-.35-.23Z"/><path class="cls-1" d="M73.48,5.22a.38.38,0,0,1,.38-.38.38.38,0,0,1,.27.11.37.37,0,0,1,.12.27v.29a.38.38,0,0,1-.65.27.36.36,0,0,1-.12-.27Zm0,1.77a.38.38,0,0,1,.38-.38.38.38,0,0,1,.27.11.37.37,0,0,1,.12.27v4.23a.38.38,0,0,1-.65.27.36.36,0,0,1-.12-.27Z"/><path class="cls-1" d="M74.9,8.38A1.81,1.81,0,0,1,75,7.67a1.77,1.77,0,0,1,.39-.58A1.88,1.88,0,0,1,76,6.7a1.83,1.83,0,0,1,2,.39,1.89,1.89,0,0,1,.39.58,1.75,1.75,0,0,1,.15.71V9.1a.37.37,0,0,1-.11.27.36.36,0,0,1-.27.11h-2.5v.34a1,1,0,0,0,.08.4,1.13,1.13,0,0,0,.23.34,1,1,0,0,0,.34.23,1.07,1.07,0,0,0,.41.08,1.05,1.05,0,0,0,1-.61v0a.39.39,0,0,1,.14-.17.36.36,0,0,1,.22-.07.36.36,0,0,1,.27.12.38.38,0,0,1,.11.27.39.39,0,0,1,0,.14l0,0a1.82,1.82,0,0,1-.66.78,1.75,1.75,0,0,1-1,.3A1.8,1.8,0,0,1,76,11.5a1.82,1.82,0,0,1-.58-.39,1.86,1.86,0,0,1-.39-.58,1.72,1.72,0,0,1-.15-.7ZM76.5,5A.31.31,0,0,1,76.68,5a.38.38,0,0,1,.23.07l.66.48a.37.37,0,0,1,.17.31.35.35,0,0,1-.13.27.41.41,0,0,1-.28.11.31.31,0,0,1-.21-.07l-.45-.31-.43.31A.37.37,0,0,1,76,6.2a.4.4,0,0,1-.28-.11.35.35,0,0,1-.12-.27.37.37,0,0,1,.17-.31Zm-.84,3.71h2.11V8.38A1,1,0,0,0,77.7,8a1.22,1.22,0,0,0-.23-.34.94.94,0,0,0-.34-.23,1.09,1.09,0,0,0-.41-.08,1.07,1.07,0,0,0-.41.08,1,1,0,0,0-.57.57,1,1,0,0,0-.08.4Zm.61,4a.44.44,0,0,1,.13-.32.45.45,0,0,1,.77.32A.44.44,0,0,1,77,13a.43.43,0,0,1-.32.13.44.44,0,0,1-.32-.13A.43.43,0,0,1,76.27,12.68Z"/><path class="cls-1" d="M79.12,8.38a1.79,1.79,0,0,1,.14-.71,1.75,1.75,0,0,1,.39-.58,1.86,1.86,0,0,1,.58-.39,1.77,1.77,0,0,1,.71-.14,1.79,1.79,0,0,1,.7.14,1.77,1.77,0,0,1,.58.39,1.91,1.91,0,0,1,.39.58,1.76,1.76,0,0,1,.14.71v2.84a.36.36,0,0,1-.12.27.38.38,0,0,1-.65-.27V8.38a1,1,0,0,0-.09-.4,1.2,1.2,0,0,0-.23-.34.94.94,0,0,0-.34-.23,1.08,1.08,0,0,0-.41-.08,1.07,1.07,0,0,0-.41.08A1,1,0,0,0,80,8a1.06,1.06,0,0,0-.08.4v2.84a.36.36,0,0,1-.12.27.38.38,0,0,1-.27.11.38.38,0,0,1-.38-.38Z"/><path d="M48.9,30.08a.51.51,0,0,1,.52-.52h2.73a3.28,3.28,0,0,1,2.32.95,3.39,3.39,0,0,1,.7,1,3,3,0,0,1,.26,1.26v2.6a3,3,0,0,1-.26,1.25,3.39,3.39,0,0,1-.7,1,3.25,3.25,0,0,1-1,.69,3.2,3.2,0,0,1-1.27.25H49.43a.51.51,0,0,1-.36-.15.49.49,0,0,1-.16-.37V34.72h-.3a.5.5,0,0,1-.37-.15.5.5,0,0,1-.15-.36.51.51,0,0,1,.15-.36.5.5,0,0,1,.37-.16h.3Zm1,.52v3.08h1.6a.52.52,0,0,1,.37.88.49.49,0,0,1-.37.16h-1.6v2.83h2.23a2.22,2.22,0,0,0,.87-.17,2.25,2.25,0,0,0,.71-.46,2.14,2.14,0,0,0,.64-1.54v-2.6a2.14,2.14,0,0,0-.64-1.54,2.22,2.22,0,0,0-.71-.46,2.27,2.27,0,0,0-.88-.17Z"/><path d="M56.21,34.22a2.44,2.44,0,0,1,.19-1,2.4,2.4,0,0,1,.54-.79,2.55,2.55,0,0,1,.79-.53,2.42,2.42,0,0,1,1-.19,2.45,2.45,0,0,1,1,.19,2.4,2.4,0,0,1,.79.53,2.57,2.57,0,0,1,.53.79,2.38,2.38,0,0,1,.2,1v3.86a.49.49,0,0,1-.16.37.51.51,0,0,1-.36.15.52.52,0,0,1-.34-.12.45.45,0,0,1-.17-.29,2.39,2.39,0,0,1-1.45.46,2.46,2.46,0,0,1-1.75-.72,2.55,2.55,0,0,1-.54-.79,2.35,2.35,0,0,1-.2-1Zm1,2a1.34,1.34,0,0,0,.11.54,1.57,1.57,0,0,0,.31.46,1.36,1.36,0,0,0,.46.31,1.44,1.44,0,0,0,.55.11,1.46,1.46,0,0,0,.55-.1,1.37,1.37,0,0,0,.45-.29,1.47,1.47,0,0,0,.31-.43,1.4,1.4,0,0,0,.13-.54v-2a1.32,1.32,0,0,0-.12-.55,1.64,1.64,0,0,0-.31-.46,1.29,1.29,0,0,0-.46-.31,1.48,1.48,0,0,0-.55-.11,1.46,1.46,0,0,0-.56.11,1.4,1.4,0,0,0-.77.77,1.43,1.43,0,0,0-.11.55Z"/><path d="M65.72,30.08a.51.51,0,0,1,.52-.52.51.51,0,0,1,.36.15.5.5,0,0,1,.16.37v4l2.68-2.17a.49.49,0,0,1,.33-.12.51.51,0,0,1,.35.14.49.49,0,0,1,.16.38.52.52,0,0,1-.18.41l-2.2,1.78,2.76,3.28a.46.46,0,0,1,.14.34.53.53,0,0,1-.52.51.52.52,0,0,1-.41-.18l-2.78-3.31-.33.26v2.71a.52.52,0,0,1-.89.37.49.49,0,0,1-.16-.37Z"/><path d="M71.37,29.92a.51.51,0,0,1,.52-.52.51.51,0,0,1,.36.15.49.49,0,0,1,.16.37v2.3a2.43,2.43,0,0,1,.67-.34,2.4,2.4,0,0,1,.77-.12,2.45,2.45,0,0,1,1,.19,2.41,2.41,0,0,1,.79.53,2.58,2.58,0,0,1,.53.79,2.36,2.36,0,0,1,.2,1v3.86a.49.49,0,0,1-.16.37.51.51,0,0,1-.88-.37V34.22a1.32,1.32,0,0,0-.12-.55,1.64,1.64,0,0,0-.31-.46,1.28,1.28,0,0,0-.46-.31,1.48,1.48,0,0,0-.55-.11,1.42,1.42,0,0,0-.55.11,1.54,1.54,0,0,0-.45.29,1.3,1.3,0,0,0-.31.43,1.48,1.48,0,0,0-.12.53v3.92a.49.49,0,0,1-.16.37.51.51,0,0,1-.36.15.51.51,0,0,1-.52-.52V29.92Z"/><path d="M76.91,34.22a2.44,2.44,0,0,1,.19-1,2.4,2.4,0,0,1,.54-.79,2.55,2.55,0,0,1,.79-.53,2.42,2.42,0,0,1,1-.19,2.45,2.45,0,0,1,1,.19,2.4,2.4,0,0,1,.79.53,2.57,2.57,0,0,1,.53.79,2.38,2.38,0,0,1,.2,1v2a2.45,2.45,0,0,1-.72,1.74,2.5,2.5,0,0,1-2.71.53,2.44,2.44,0,0,1-.79-.53,2.55,2.55,0,0,1-.54-.79,2.35,2.35,0,0,1-.2-1Zm1,2a1.34,1.34,0,0,0,.11.54,1.57,1.57,0,0,0,.31.46,1.36,1.36,0,0,0,.46.31,1.47,1.47,0,0,0,1.12,0,1.41,1.41,0,0,0,.46-.31,1.5,1.5,0,0,0,.31-.46,1.37,1.37,0,0,0,.11-.54v-2a1.32,1.32,0,0,0-.12-.55,1.64,1.64,0,0,0-.31-.46,1.29,1.29,0,0,0-.46-.31,1.48,1.48,0,0,0-.55-.11,1.46,1.46,0,0,0-.56.11,1.4,1.4,0,0,0-.77.77,1.43,1.43,0,0,0-.11.55Z"/><path d="M82.64,34.22a2.44,2.44,0,0,1,.19-1,2.4,2.4,0,0,1,.54-.79,2.55,2.55,0,0,1,.79-.53,2.42,2.42,0,0,1,1-.19,2.45,2.45,0,0,1,1,.19,2.4,2.4,0,0,1,.79.53,2.57,2.57,0,0,1,.53.79,2.38,2.38,0,0,1,.2,1v3.86a.49.49,0,0,1-.16.37.51.51,0,0,1-.36.15.52.52,0,0,1-.34-.12.45.45,0,0,1-.17-.29,2.39,2.39,0,0,1-1.45.46,2.46,2.46,0,0,1-1.75-.72,2.55,2.55,0,0,1-.54-.79,2.35,2.35,0,0,1-.2-1Zm1,2a1.34,1.34,0,0,0,.11.54,1.57,1.57,0,0,0,.31.46,1.36,1.36,0,0,0,.46.31,1.44,1.44,0,0,0,.55.11,1.46,1.46,0,0,0,.55-.1,1.37,1.37,0,0,0,.45-.29,1.47,1.47,0,0,0,.31-.43,1.4,1.4,0,0,0,.13-.54v-2a1.32,1.32,0,0,0-.12-.55,1.64,1.64,0,0,0-.31-.46,1.29,1.29,0,0,0-.46-.31,1.48,1.48,0,0,0-.55-.11,1.46,1.46,0,0,0-.56.11,1.4,1.4,0,0,0-.77.77,1.43,1.43,0,0,0-.11.55Z"/><path d="M92.15,29.92a.51.51,0,0,1,.52-.52.51.51,0,0,1,.36.15.49.49,0,0,1,.16.37v2.3a2.43,2.43,0,0,1,.67-.34,2.4,2.4,0,0,1,.77-.12,2.45,2.45,0,0,1,1,.19,2.41,2.41,0,0,1,.79.53,2.58,2.58,0,0,1,.53.79,2.36,2.36,0,0,1,.2,1v3.86a.49.49,0,0,1-.16.37.51.51,0,0,1-.88-.37V34.22a1.32,1.32,0,0,0-.12-.55,1.64,1.64,0,0,0-.31-.46,1.28,1.28,0,0,0-.46-.31,1.48,1.48,0,0,0-.55-.11,1.42,1.42,0,0,0-.55.11,1.54,1.54,0,0,0-.45.29,1.3,1.3,0,0,0-.31.43,1.48,1.48,0,0,0-.12.53v3.92a.49.49,0,0,1-.16.37.51.51,0,0,1-.36.15.51.51,0,0,1-.52-.52V29.92Z"/><path d="M97.69,34.22a2.44,2.44,0,0,1,.19-1,2.4,2.4,0,0,1,.54-.79,2.55,2.55,0,0,1,.79-.53,2.42,2.42,0,0,1,1-.19,2.45,2.45,0,0,1,1,.19,2.4,2.4,0,0,1,.79.53,2.57,2.57,0,0,1,.53.79,2.38,2.38,0,0,1,.2,1v3.86a.49.49,0,0,1-.16.37.51.51,0,0,1-.36.15.52.52,0,0,1-.34-.12.45.45,0,0,1-.17-.29,2.39,2.39,0,0,1-1.45.46,2.46,2.46,0,0,1-1.75-.72,2.55,2.55,0,0,1-.54-.79,2.35,2.35,0,0,1-.2-1Zm1,2a1.34,1.34,0,0,0,.11.54,1.57,1.57,0,0,0,.31.46,1.36,1.36,0,0,0,.46.31,1.44,1.44,0,0,0,.55.11,1.46,1.46,0,0,0,.55-.1,1.37,1.37,0,0,0,.45-.29,1.47,1.47,0,0,0,.31-.43,1.4,1.4,0,0,0,.13-.54v-2a1.32,1.32,0,0,0-.12-.55,1.64,1.64,0,0,0-.31-.46,1.29,1.29,0,0,0-.46-.31,1.48,1.48,0,0,0-.55-.11,1.46,1.46,0,0,0-.56.11,1.4,1.4,0,0,0-.77.77,1.43,1.43,0,0,0-.11.55Zm.82,3.87a.6.6,0,0,1,.18-.43.62.62,0,1,1,.44,1,.6.6,0,0,1-.43-.18A.59.59,0,0,1,99.56,40.06Z"/><path d="M103.52,34.22a2.44,2.44,0,0,1,.19-1,2.4,2.4,0,0,1,.54-.79,2.55,2.55,0,0,1,.79-.53,2.52,2.52,0,0,1,1.92,0,2.4,2.4,0,0,1,.79.53,2.57,2.57,0,0,1,.53.79,2.36,2.36,0,0,1,.2,1v3.86a.49.49,0,0,1-.16.37.51.51,0,0,1-.88-.37V34.22a1.34,1.34,0,0,0-.12-.55,1.64,1.64,0,0,0-.31-.46,1.29,1.29,0,0,0-.46-.31,1.48,1.48,0,0,0-.55-.11,1.46,1.46,0,0,0-.56.11,1.41,1.41,0,0,0-.77.77,1.43,1.43,0,0,0-.11.55v3.86a.49.49,0,0,1-.16.37.51.51,0,0,1-.36.15.51.51,0,0,1-.52-.52Z"/><path d="M109.16,34.22a2.43,2.43,0,0,1,.19-1,2.4,2.4,0,0,1,.53-.79,2.55,2.55,0,0,1,.79-.53,2.42,2.42,0,0,1,1-.19,2.45,2.45,0,0,1,1,.19,2.42,2.42,0,0,1,.79.53,2.58,2.58,0,0,1,.53.79,2.38,2.38,0,0,1,.2,1v4.32a2.38,2.38,0,0,1-.2,1,2.55,2.55,0,0,1-.53.79,2.48,2.48,0,0,1-1.75.72.5.5,0,0,1-.37-.15.5.5,0,0,1-.15-.36.51.51,0,0,1,.52-.52,1.45,1.45,0,0,0,.55-.11,1.34,1.34,0,0,0,.46-.31,1.59,1.59,0,0,0,.31-.46,1.32,1.32,0,0,0,.12-.55V38.2a2.47,2.47,0,0,1-1.44.45,2.47,2.47,0,0,1-1.75-.72,2.55,2.55,0,0,1-.54-.79,2.36,2.36,0,0,1-.2-1Zm1,2a1.33,1.33,0,0,0,.11.54,1.54,1.54,0,0,0,.31.46,1.34,1.34,0,0,0,.46.31,1.44,1.44,0,0,0,.55.11,1.46,1.46,0,0,0,.55-.1,1.37,1.37,0,0,0,.45-.29,1.47,1.47,0,0,0,.31-.43,1.39,1.39,0,0,0,.13-.54v-2a1.32,1.32,0,0,0-.12-.55,1.64,1.64,0,0,0-.31-.46,1.28,1.28,0,0,0-.46-.31,1.51,1.51,0,0,0-1.12,0,1.41,1.41,0,0,0-.77.77,1.43,1.43,0,0,0-.11.55Z"/><path d="M118.65,30.08a.51.51,0,0,1,.52-.52.51.51,0,0,1,.36.15.5.5,0,0,1,.16.37v8a.52.52,0,0,1-.89.37.49.49,0,0,1-.16-.37Z"/><path class="cls-2" d="M48.67,25.63V15.85h3.45l3,5.12A11,11,0,0,1,55,19.13V15.85h3.4v9.79H55l-3-5.08a9,9,0,0,1,.11,1.55v3.53Z"/><path class="cls-2" d="M60.24,25.63V15.85h3.52V19.1H65.9V15.85h3.52v9.79H65.9V22.18H63.75v3.45Z"/><path class="cls-2" d="M70,25.63l3.49-9.79h3.92l3.42,9.79H77l-.31-1.23H74l-.3,1.23Zm3.63-10.2,1-1.75H76l1,1.75h-.82l-.88-.85-.89.85Zm1,6.65h1.47L75.8,21a10.4,10.4,0,0,1-.39-2.15h-.07a10.29,10.29,0,0,1-.4,2.15Z"/><path class="cls-2" d="M81.34,25.63V15.85h3.45l3,5.12a11,11,0,0,1-.11-1.84V15.85h3.4v9.79H87.64l-3-5.08a9,9,0,0,1,.11,1.55v3.53Z"/><path class="cls-2" d="M97.6,25.63V15.85h2.85a8.9,8.9,0,0,1,3.88.61,4.54,4.54,0,0,1,2.63,4.29A4.55,4.55,0,0,1,104.32,25a9.65,9.65,0,0,1-4.14.62Zm3.49-3a3,3,0,0,0,1.64-.4,1.71,1.71,0,0,0,.64-1.5q0-1.89-2.13-1.89h-.15Z"/><path class="cls-2" d="M107.12,25.63l3.49-9.79h3.92L118,25.63h-3.78l-.31-1.23H111.2l-.3,1.23Zm3.63-10.2,1-1.75h1.46l1,1.75h-.82l-.88-.85-.89.85Zm1,6.65h1.47L113,21a10.4,10.4,0,0,1-.39-2.15h-.07a10.29,10.29,0,0,1-.4,2.15Z"/><path class="cls-2" d="M118.49,25.63V15.85h3.45L125,21a11,11,0,0,1-.11-1.84V15.85h3.4v9.79h-3.48l-3-5.08a9,9,0,0,1,.11,1.55v3.53Z"/><path class="cls-2" d="M137.17,18.91h-1.46v-3h5v9.69h-3.52Z"/><path class="cls-2" d="M146.54,18.91h-1.46v-3h5v9.69h-3.52Z"/><path class="cls-2" d="M153.59,21.77l.93-5.83h6.06v2.61h-3.86l-.1.59a10.89,10.89,0,0,1,1.3-.08,3.62,3.62,0,0,1,2.5.84,3,3,0,0,1,.94,2.37A3.2,3.2,0,0,1,160,25.08a5.44,5.44,0,0,1-3.15.82,8,8,0,0,1-3.78-.89l.44-2.73a8.78,8.78,0,0,0,3.2.85q1.36,0,1.36-.75,0-.95-1.87-.95A14.72,14.72,0,0,0,153.59,21.77Z"/><path id="path2" class="cls-1" d="M42.68,24.53a5.78,5.78,0,0,0-.43.43c-.26.3-2.46,4-4.28,6.31a.76.76,0,0,0-.4-.58c.63-1,3.68-5.64,4-6.19.13-.25.67-.71.9-.68l.1,0a.34.34,0,0,1,.2.33.77.77,0,0,1-.09.35Zm-5.55,6a1.83,1.83,0,0,0-.4,0h0c.71-1.19,3.2-5.32,3.7-6,.28-.39.48-.45.61-.45a.48.48,0,0,1,.3.12l-.14.18c-.32.54-3.53,5.46-4,6.24Zm-1.61.25c1-1.65,3.72-5.89,3.91-6.12a.53.53,0,0,1,.37-.13c-.9,1.4-3.53,5.78-3.69,6.05a4,4,0,0,0-.59.2Zm-27.38-.2c-.16-.28-2.79-4.65-3.69-6.05a.53.53,0,0,1,.37.13c.19.24,2.87,4.47,3.91,6.12A4,4,0,0,0,8.14,30.58Zm-.62-.09a1.83,1.83,0,0,0-.4,0c-.51-.78-3.72-5.7-4-6.24l-.14-.18a.47.47,0,0,1,.3-.12c.13,0,.33.06.61.45.5.72,3,4.85,3.7,6Zm-1.24.78c-1.82-2.35-4-6-4.28-6.31a5.77,5.77,0,0,0-.43-.43.76.76,0,0,1-.09-.35.34.34,0,0,1,.2-.33l.1,0c.23,0,.77.43.9.68.33.55,3.37,5.22,4,6.19a.76.76,0,0,0-.4.58ZM43.8,24.81a.62.62,0,0,0-.57-.52h0a1,1,0,0,0,0-.11.77.77,0,0,0-.44-.7.64.64,0,0,0-.33-.08,1.43,1.43,0,0,0-.86.4,1,1,0,0,0-.61-.23,1.19,1.19,0,0,0-.91.54h-.22a1,1,0,0,0-.82.31c-.29.37-4.18,6.55-4.34,6.8s-.41.24-.64.4a11.74,11.74,0,0,1-5.34,2.29,7.72,7.72,0,0,0-6.61,6.75,7.72,7.72,0,0,0-6.61-6.75,11.74,11.74,0,0,1-5.34-2.29c-.23-.16-.43-.28-.64-.4s-4-6.43-4.34-6.8a1,1,0,0,0-.82-.31H4.15a1.19,1.19,0,0,0-.91-.54,1,1,0,0,0-.61.23,1.43,1.43,0,0,0-.86-.4.64.64,0,0,0-.33.08.78.78,0,0,0-.44.7,1,1,0,0,0,0,.11H1a.62.62,0,0,0-.57.52,1.7,1.7,0,0,0-.07.54c0,2.47,3.44,7.83,6.13,11,2.91,3.46,5.28,4.12,7.67,5.17a8.33,8.33,0,0,1,3.45,2.83.24.24,0,0,0,.2.11.24.24,0,0,0,.11,0,.21.21,0,0,0,.09-.3,8.68,8.68,0,0,0-3.65-3c-2.43-1.08-4.64-1.66-7.5-5C4.22,33,.82,27.54.84,25.35a1.39,1.39,0,0,1,.06-.42c.08-.22.12-.21.12-.21s.44.28.62.51,2.75,4.48,4.69,6.83l0,.06a.22.22,0,0,0,.15.13,8.54,8.54,0,0,0,.91.95c1.9,1.65,6.57,3.59,7,4.26a.24.24,0,0,0,.32,0,.21.21,0,0,0,.05-.3c-.73-.9-5.28-2.72-7.1-4.33a8.5,8.5,0,0,1-1-1,1.77,1.77,0,0,1,0-.37c0-.23.06-.39.18-.44a1.4,1.4,0,0,1,.61-.14A4.55,4.55,0,0,1,9.9,32a12.28,12.28,0,0,0,5.52,2.36c2.35.49,6.38,1.91,6.4,8.4,0,.35,0,.75,0,1.14a.22.22,0,0,0,.22.23h0a.23.23,0,0,0,.08,0,.23.23,0,0,0,.08,0h0a.22.22,0,0,0,.22-.23c0-.39,0-.79,0-1.14,0-6.49,4-7.91,6.4-8.4A12.28,12.28,0,0,0,34.36,32a4.55,4.55,0,0,1,2.38-1,1.4,1.4,0,0,1,.61.14c.12,0,.18.21.18.44a1.75,1.75,0,0,1,0,.37,8.51,8.51,0,0,1-1,1c-1.83,1.61-6.37,3.42-7.1,4.33a.21.21,0,0,0,.05.3.24.24,0,0,0,.32,0c.47-.67,5.14-2.61,7-4.26a8.59,8.59,0,0,0,.91-.95.22.22,0,0,0,.15-.13l0-.06c1.95-2.35,4.47-6.59,4.69-6.83s.56-.55.62-.51,0,0,.12.21a1.39,1.39,0,0,1,.06.42c0,2.18-3.37,7.64-6,10.78-2.86,3.39-5.07,4-7.5,5a8.68,8.68,0,0,0-3.65,3,.21.21,0,0,0,.09.3.24.24,0,0,0,.11,0,.23.23,0,0,0,.2-.11,8.34,8.34,0,0,1,3.45-2.83c2.38-1.05,4.76-1.71,7.67-5.17,2.69-3.22,6.11-8.58,6.13-11a1.7,1.7,0,0,0-.07-.54Z"/><path id="path4" class="cls-1" d="M2.52,20.39l1.16.17.17-1.18q.09-.64-.5-.73t-.66.56ZM1,20.17l1,.15.15-1.09a.59.59,0,0,0-.08-.43.49.49,0,0,0-.36-.21q-.52-.08-.59.48ZM4.12,21.3.38,20.76l.26-1.85A1.36,1.36,0,0,1,1,18.14a.83.83,0,0,1,.76-.23.82.82,0,0,1,.72.66h0A.87.87,0,0,1,3.52,18a.91.91,0,0,1,.76.56,1.85,1.85,0,0,1,.09,1L4.12,21.3Z"/><path id="path6" class="cls-1" d="M4.7,17.73,1.13,16.47,2,13.85l.54.19-.67,2,.94.33.62-1.83L4,14.7l-.62,1.83,1,.37.69-2,.54.19Z"/><path id="path8" class="cls-1" d="M5.66,17.36l-.56-.25.26-.59.56.25Zm-5-2.46.28.54-.2.45-.46-.84.24-.55.92-.22-.2.46Z"/><path id="path10" class="cls-1" d="M5.76,14.73,2.49,12.8l.35-.62,3.28-.1L3.72,10.66,4,10.1,7.3,12,7,12.64l-3.27.1v0l2.4,1.42Z"/><path id="path12" class="cls-1" d="M7.67,11.53,4.86,8.95l.44-.5,1.12,1,1.15-1.3-1.12-1,.44-.5L9.71,9.23l-.44.5L8,8.56,6.85,9.86,8.11,11Z"/><path id="path14" class="cls-1" d="M11.86,7.55,8.74,5l.58-.38,2.43,2h0l-.82-3.09.56-.37,1,3.94Z"/><path id="path16" class="cls-1" d="M13.78,6.39,12.13,2.93l.59-.29L14.38,6.1Z"/><path id="path18" class="cls-1" d="M14.92,5.81,13.7,2.17l2.58-.89.18.55-1.95.68.32,1,1.8-.63.17.52L15,4,15.36,5l2-.69.18.55Z"/><path id="path20" class="cls-1" d="M15.79,6.34l-.15-.6.61-.15.15.6ZM14.65.84l-.25.56-.47.12L14.3.63l.57-.14.74.61-.48.12Z"/><path id="path22" class="cls-1" d="M17.9,4.81,17.4,1l.69-.1,2.09,2.57h0L19.81.66l.62-.09.5,3.81-.68.09L18.17,1.91h0l.37,2.8-.63.09Z"/><path id="path24" class="cls-1" d="M22.81,4.4,23.35.59l.69.1,1.32,3.06.4-2.81.62.09-.54,3.81-.68-.1L23.85,1.69h0l-.39,2.8-.62-.09Z"/><path id="path26" class="cls-1" d="M26.41,5l1.29-3.62.62.23L27.81,3l1.62.6.52-1.44.62.23L29.27,6l-.62-.23.58-1.63-1.62-.6L27,5.22,26.41,5Z"/><path id="path28" class="cls-1" d="M32.6,4.33,31.27,5.44l1,.61.36-1.71ZM29.45,6.1l3.21-2.52.6.37L32.53,8l-.61-.38.22-1.06-1.29-.8L30,6.46l-.58-.36Z"/><path id="path30" class="cls-1" d="M33.67,3.06,33,3.23l-.42-.3,1-.28L34.1,3V4l-.42-.3Z"/><path id="path32" class="cls-1" d="M32.65,8.15l2.76-2.83L36,5.8,35.3,9.08l2-2.08.5.43-2.76,2.83-.54-.48.67-3.27h0l-2,2.08-.5-.44Z"/><path id="path34" class="cls-1" d="M39.71,10.62l-2.48,1.43.37.57a1.32,1.32,0,0,0,.86.67A1.69,1.69,0,0,0,39.54,13a1.56,1.56,0,0,0,.77-.78,1.21,1.21,0,0,0-.23-1Zm-3.35,1.14,3.47-2,.88,1.36a1.49,1.49,0,0,1,.21,1.39,2.16,2.16,0,0,1-1,1.06,2.33,2.33,0,0,1-1.46.36,1.65,1.65,0,0,1-1.21-.81Z"/><path id="path36" class="cls-1" d="M42,15.15l-1.85,0,.43,1.1L42,15.16v0Zm-3.82-.62,4.35.07.26.67L39.49,18l-.26-.68.88-.69-.56-1.44H38.41Z"/><path id="path38" class="cls-1" d="M43.65,14.78l-.6-.24-.13-.48.94.36L44,15l-.63.76-.13-.48.39-.5Z"/><path id="path40" class="cls-1" d="M39.51,18.16l4-.57.11.7L41,20.46l3-.42.1.63-4,.57-.11-.7,2.68-2.16v0l-3,.42-.1-.63Z"/><path id="path42" class="cls-2" d="M31.91,16.84H25.15V10H18.4v6.87H11.64v6.87H18.4v6.87h6.76V23.72h6.76Z"/><path id="path44" class="cls-3" d="M18.7,18.09v4.46h-.89V19.65h-1.1V19q1.16,0,1.28-.89Z"/><path id="path46" class="cls-3" d="M21.61,18.09v4.46h-.89V19.65h-1.1V19q1.16,0,1.28-.89Z"/><path id="path48" class="cls-3" d="M25.61,18.09v.75H23.8l-.18,1h0a1.14,1.14,0,0,1,.86-.34,1.24,1.24,0,0,1,1,.45A1.6,1.6,0,0,1,25.85,21a1.55,1.55,0,0,1-.47,1.15,1.57,1.57,0,0,1-1.16.45,1.8,1.8,0,0,1-1.13-.36,1.28,1.28,0,0,1-.5-1.06h.89a.75.75,0,0,0,.23.48.69.69,0,0,0,.49.18.68.68,0,0,0,.56-.26A.91.91,0,0,0,25,21a.88.88,0,0,0-.2-.6.69.69,0,0,0-.55-.24.79.79,0,0,0-.67.36h-.8l.43-2.47Z"/></svg>