<?xml version="1.0" encoding="UTF-8"?>
<svg width="151px" height="60px" viewBox="0 0 151 60" version="1.1" xmlns="http://www.w3.org/2000/svg" xmlns:xlink="http://www.w3.org/1999/xlink">
    <!-- Generator: Sketch 59 (86127) - https://sketch.com -->
    <title>medpro-blue</title>
    <desc>Created with Sketch.</desc>
    <g id="Page-1" stroke="none" stroke-width="1" fill="none" fill-rule="evenodd">
        <g id="medpro-blue" fill="#0038B0" fill-rule="nonzero">
            <path d="M17.4554254,14.4395191 C19.3721031,12.3025248 21.7850272,11.2340425 24.6942699,11.2340425 C27.4323808,11.2340425 29.7169579,12.0679801 31.5480697,13.7358782 C32.6946535,14.8130623 33.507518,16.0379066 33.9866875,17.4104477 C34.4658568,18.8003627 34.8306666,20.6108445 34.8306666,22.8694566 L34.8306666,36.1651315 C34.8306666,36.2713443 34.7454708,36.3574468 34.6403764,36.3574468 L32.1497469,36.3574468 C30.6691157,36.3574468 29.468827,35.1443849 29.468827,33.6479975 L29.468827,23.3001832 L29.468827,23.3001832 C29.468827,20.9025799 29.1864635,19.1652121 28.6217282,18.0880279 C27.9200873,16.7849825 26.7050688,16.1334696 24.9766363,16.1334696 C24.1038633,16.1334696 23.2909989,16.3332669 22.5380185,16.7328675 C21.7850378,17.1324681 21.2288675,17.6623652 20.8694903,18.3225749 C20.2876419,19.3823851 19.9967219,21.2066213 19.9967219,23.7953381 L19.9967219,36.1651315 C19.9967219,36.2713443 19.9115261,36.3574468 19.8064317,36.3574468 L17.3784164,36.3574468 C15.9323662,36.3574468 14.7601109,35.1727166 14.7601109,33.7112781 L14.7601109,23.3001832 L14.7601109,23.3001832 C14.7601109,20.9025799 14.4777475,19.1652121 13.9130121,18.0880279 C13.2113712,16.7849825 11.9877962,16.1334696 10.2422505,16.1334696 C9.35236445,16.1334696 8.53094351,16.3332669 7.77796299,16.7328675 C7.0249825,17.1324681 6.46881206,17.6623652 6.10943499,18.3225749 C5.52758643,19.3997591 5.23666651,21.2239952 5.23666651,23.7953381 L5.23666651,36.1651315 C5.23666651,36.2713443 5.15147065,36.3574468 5.04637625,36.3574468 L2.61833325,36.3574468 C1.17226773,36.3574468 0,35.1727041 0,33.71125 L0,13.8802393 C0,12.4187852 1.17226773,11.2340425 2.61833325,11.2340425 L5.04637625,11.2340425 C5.15147065,11.2340425 5.23666651,11.320145 5.23666651,11.4263578 L5.23666651,13.6837566 L5.23666651,13.6837566 C6.79396709,12.0506064 8.6507207,11.2340425 10.8069831,11.2340425 C13.3568489,11.2340425 15.5729741,12.3025248 17.4554254,14.4395191 Z M53.9573334,21.6510638 C53.561875,20.1396896 53.0030835,18.9374781 52.2809422,18.0443933 C51.1805363,16.6360673 49.6760977,15.9319149 47.7675813,15.9319149 C46.1513601,15.9319149 44.7930671,16.4299739 43.6926612,17.426107 C42.5922552,18.42224 41.8529312,19.8305449 41.4746667,21.6510638 L53.9573334,21.6510638 Z M41.613378,25.833569 C41.8692544,27.0827324 42.321296,28.158385 42.9695161,29.0605587 C44.1806646,30.7087607 45.912069,31.5328493 48.1637814,31.5328493 C49.3919882,31.5328493 50.5220922,31.2639363 51.554127,30.7261018 C51.9443045,30.5227649 52.4272855,30.1139134 53.00307,29.4995475 C53.9598831,28.4786219 55.4554572,28.1903911 56.7168738,28.7838137 L58.9637753,29.8408494 C59.0590575,29.8856689 59.100343,30.0000674 59.0559913,30.0963614 C59.051564,30.1059737 59.0463577,30.1151996 59.0404258,30.1239448 C56.1078658,34.4471952 52.4737886,36.5216502 48.1381941,36.3473098 C44.5583407,36.203359 41.6304476,35.0374426 39.3616768,32.417669 C37.2805485,29.9887398 36.2400001,27.1087671 36.2400001,23.7776641 C36.2400001,19.8913775 37.5705374,16.707793 40.2316522,14.2268153 C42.3639556,12.2316235 44.8885651,11.2340425 47.8055562,11.2340425 C51.1148913,11.2340425 53.8697861,12.4831874 56.0703233,14.9815146 C57.213238,16.2827266 58.0490885,17.8875308 58.5778996,19.7959751 C58.9873019,21.2533327 59.1919999,22.762716 59.1919999,24.3241705 L59.1919999,24.8967009 C59.1919999,25.1395939 59.1834709,25.4518801 59.1664126,25.833569 L41.613378,25.833569 Z M73.0456149,15.9319149 C71.0837027,15.9319149 69.4374273,16.6723617 68.1067389,18.1532774 C66.8613512,19.5296581 66.2386667,21.3677082 66.2386667,23.6674832 C66.2386667,26.2982867 67.0234197,28.3192708 68.5929496,29.7304964 C69.8895176,30.880384 71.4078443,31.4553192 73.1479751,31.4553192 C75.1440075,31.4553192 76.7817531,30.7322947 78.061261,29.2862239 C79.3066487,27.9098433 79.9293333,26.0195263 79.9293333,23.615216 C79.9293333,21.0192577 79.1531102,19.0156959 77.6006404,17.6044702 C76.3893729,16.4894278 74.8710464,15.9319149 73.0456149,15.9319149 Z M84.9626667,36.3574468 L82.5049548,36.3574468 C80.9788234,36.3574468 79.7416498,35.1071073 79.7416498,33.5647356 L79.7416498,33.5647356 L79.7416498,33.5647356 C77.3699995,35.4265524 74.9813228,36.3574468 72.5755481,36.3574468 C70.6475158,36.3574468 68.7792295,35.8267499 66.9706328,34.7653404 C65.0426005,33.6343302 63.5411466,32.1031393 62.4662261,30.1717219 C61.3571809,28.205504 60.8026667,26.0653168 60.8026667,23.751096 C60.8026667,19.9578617 62.1590938,16.8171804 64.8719887,14.3289579 C67.1753901,12.240939 69.7432175,11.1969452 72.5755481,11.1969452 C74.9642606,11.1969452 77.3529373,12.1278397 79.7416498,13.9896565 L79.7416498,5.27657743 C79.7416498,2.36240419 82.0791786,0 84.9626667,0 L84.9626667,0 L84.9626667,0 L84.9626667,36.3574468 Z M98.7906916,15.9319149 C96.8287794,15.9319149 95.1910338,16.6549394 93.8774057,18.1010101 C92.632018,19.4773906 92.0093334,21.3589965 92.0093334,23.7458844 C92.0093334,26.3592651 92.7855565,28.3715382 94.3380263,29.7827638 C95.5492938,30.8978062 97.0505604,31.4553192 98.8418717,31.4553192 C100.087259,31.4553192 101.264389,31.1242959 102.373296,30.4622395 C104.59111,29.0858589 105.7,26.8383851 105.7,23.7197507 C105.7,21.0889474 104.915247,19.0679632 103.345717,17.6567376 C102.066209,16.50685 100.547882,15.9319149 98.7906916,15.9319149 Z M91.9956837,11.0297872 L91.9956837,11.0297872 L91.9956837,11.0297872 L91.9956837,13.8273917 C94.3673338,11.9623127 96.7560105,11.0297872 99.1617854,11.0297872 C101.089818,11.0297872 102.958104,11.5614139 104.766701,12.6246833 C106.694733,13.7576752 108.196187,15.2915489 109.271107,17.2263505 C110.380152,19.1960133 110.934667,21.3399506 110.934667,23.6582261 C110.934667,27.4755375 109.57824,30.6217217 106.865345,33.0968733 C104.561943,35.1885505 101.994116,36.2343737 99.1617854,36.2343737 C96.7730729,36.2343737 94.3843962,35.3018481 91.9956837,33.436769 L91.9956837,42.7234226 C91.9956837,45.6375958 89.6581547,48 86.7746667,48 L86.7746667,48 L86.7746667,48 L86.7746667,16.3063647 C86.7746667,13.3921914 89.1121956,11.0297872 91.9956837,11.0297872 Z M115.340687,11.89913 L117.740621,11.8507233 C117.845694,11.8486039 117.932573,11.9329712 117.93467,12.0391628 C117.934695,12.0404418 117.934708,12.041721 117.934708,12.0430002 L117.934708,13.8611874 L117.934708,13.8611874 C118.951976,13.0240387 119.774255,12.4833883 120.40157,12.23922 C121.028886,11.977611 121.868119,11.8468085 122.919296,11.8468085 C123.173613,11.8468085 124.436712,11.9165704 124.826667,11.9514516 L124.826667,15.6385859 C124.826667,16.2248323 124.356428,16.700079 123.776354,16.700079 C123.766175,16.700079 123.755997,16.6999294 123.745823,16.6996304 C123.745823,16.6996304 123.745823,16.6996304 123.745823,16.6996304 C123.449119,16.6909101 123.207522,16.68655 123.021023,16.68655 C120.935623,16.68655 119.528423,17.3928836 118.799381,18.805572 C118.222929,19.9217703 117.934708,21.7442851 117.934708,24.2731717 L117.934708,36.1651315 C117.934708,36.2713443 117.849512,36.3574468 117.744418,36.3574468 L115.340687,36.3574468 C113.908049,36.3574468 112.746667,35.1837051 112.746667,33.7358214 L112.746667,14.573599 C112.746667,13.1170397 113.899752,11.9281938 115.340687,11.89913 Z M138.704206,15.9319149 C136.742772,15.9319149 135.079842,16.6810728 133.715367,18.1794111 C132.487338,19.5383692 131.873333,21.3677082 131.873333,23.6674832 C131.873333,26.2634415 132.657895,28.2844258 134.227042,29.7304964 C135.506238,30.880384 137.032723,31.4553192 138.806541,31.4553192 C140.887367,31.4553192 142.592936,30.7061612 143.9233,29.2078229 C145.151328,27.8314423 145.765333,25.9672587 145.765333,23.615216 C145.765333,21.0715254 144.989299,19.0940969 143.437208,17.6828713 C142.175068,16.5155612 140.597416,15.9319149 138.704206,15.9319149 Z M138.911567,11.0297872 C142.460955,11.0297872 145.43588,12.3849781 147.836431,15.0954004 C149.945488,17.4757071 151,20.2990213 151,23.5654277 C151,27.4225672 149.63685,30.5846791 146.910509,33.0518584 C144.612838,35.1194241 141.886538,36.1531914 138.731527,36.1531914 C135.062112,36.1531914 132.027174,34.8066878 129.626622,32.1136399 C127.500419,29.7507078 126.437333,26.9100193 126.437333,23.5914893 C126.437333,20.3772065 127.414686,17.6233892 129.369421,15.329955 C131.83856,12.4631621 135.019244,11.0297872 138.911567,11.0297872 Z" id="medpro-copy-8"></path>
            <path d="M85.2516645,42.5 C85.2516645,42.7761424 85.0316916,43 84.7603413,43 L0.597000451,43 L0.597000451,43 C0.267286206,43 0,42.813452 0,42.5833333 L0,42.4166667 C0,42.186548 0.267286206,42 0.597000451,42 L84.7603413,42 C85.0316916,42 85.2516645,42.2238576 85.2516645,42.5 Z M94.170282,42 L150.598592,42 L150.598592,42 C150.820284,42 151,42.186548 151,42.4166667 L151,42.5833333 C151,42.813452 150.820284,43 150.598592,43 L94.170282,43 C93.8989317,43 93.6789588,42.7761424 93.6789588,42.5 C93.6789588,42.2238576 93.8989317,42 94.170282,42 Z" id="Combined-Shape"></path>
            <path d="M6.33872297,54.3172691 C6.46078826,54.3172691 6.55876023,54.3540826 6.63264185,54.4277109 C6.70652346,54.501339 6.74346371,54.6017396 6.74346371,54.7289157 L6.74346371,57.0783134 C6.74346371,57.3058914 6.71294785,57.4698791 6.65191521,57.5702811 C6.59088258,57.6706833 6.47042522,57.7510037 6.29053955,57.8112451 C6.03356002,57.9183407 5.72840142,58.0020078 5.37505457,58.062249 C5.02170771,58.1224903 4.67157836,58.1526105 4.324656,58.1526105 C3.63723577,58.1526105 3.04297953,58.008703 2.54186945,57.7208836 C2.04075938,57.4330641 1.65850806,57.018075 1.39510405,56.4759036 C1.13170003,55.9337322 1,55.2844751 1,54.5281125 C1,53.7851369 1.13170003,53.1425729 1.39510405,52.6004015 C1.65850806,52.0582303 2.03594108,51.6415677 2.52741443,51.3504016 C3.01888777,51.0592354 3.59547693,50.9136546 4.25719922,50.9136546 C4.70691339,50.9136546 5.12289275,50.9822617 5.5051498,51.119478 C5.88740685,51.2566941 6.21344473,51.455822 6.48327324,51.7168675 C6.611763,51.8239631 6.67600691,51.9578305 6.67600691,52.1184739 C6.67600691,52.2389564 6.64388497,52.3410303 6.57964009,52.4246989 C6.51539519,52.5083673 6.43830249,52.5502008 6.34835966,52.5502008 C6.29053927,52.5502008 6.23914413,52.5401608 6.19417271,52.5200803 C6.1492013,52.4999999 6.09138178,52.4665331 6.02071239,52.4196787 C5.70591249,52.1787137 5.42002705,52.009706 5.16304751,51.9126507 C4.90606799,51.8155952 4.61054597,51.7670682 4.27647259,51.7670682 C3.54408093,51.7670682 2.98515885,52.0030098 2.59968956,52.4748996 C2.21422027,52.9467896 2.02148851,53.631187 2.02148851,54.5281125 C2.02148851,55.4451184 2.21903856,56.1395558 2.61414458,56.6114458 C3.00925061,57.0833358 3.58905196,57.3192772 4.35356606,57.3192772 C4.86752511,57.3192772 5.36220328,57.2389567 5.8376154,57.0783134 L5.8376154,55.1004017 L4.57520979,55.1004017 C4.44672003,55.1004017 4.34553585,55.0652615 4.27165424,54.9949799 C4.19777263,54.9246985 4.16083237,54.8293179 4.16083237,54.7088354 C4.16083237,54.5883529 4.19777263,54.4929723 4.27165424,54.4226907 C4.34553585,54.3524093 4.44672003,54.3172691 4.57520979,54.3172691 L6.33872297,54.3172691 Z M8.64269352,58.1224899 C8.50135479,58.1224899 8.38410963,58.0823297 8.29095455,58.002008 C8.19779948,57.9216863 8.15122264,57.8012056 8.15122264,57.6405623 L8.15122264,53.564257 C8.15122264,53.4036137 8.19779948,53.2814596 8.29095455,53.1977913 C8.38410963,53.1141227 8.50135479,53.0722891 8.64269352,53.0722891 C8.78403227,53.0722891 8.89967133,53.1141227 8.98961416,53.1977913 C9.07955699,53.2814596 9.12452774,53.4036137 9.12452774,53.564257 L9.12452774,57.6405623 C9.12452774,57.8012056 9.07955699,57.9216863 8.98961416,58.002008 C8.89967133,58.0823297 8.78403227,58.1224899 8.64269352,58.1224899 Z M8.64269352,52.0883535 C8.45638337,52.0883535 8.30862235,52.0348065 8.19940606,51.927711 C8.09018976,51.8206152 8.03558243,51.6800544 8.03558243,51.5060241 C8.03558243,51.3319938 8.09018976,51.1931063 8.19940606,51.0893574 C8.30862235,50.9856085 8.45638337,50.9337349 8.64269352,50.9337349 C8.8225792,50.9337349 8.96873412,50.9856085 9.08116265,51.0893574 C9.19359119,51.1931063 9.24980463,51.3319938 9.24980463,51.5060241 C9.24980463,51.6800544 9.1951973,51.8206152 9.085981,51.927711 C8.97676469,52.0348065 8.82900369,52.0883535 8.64269352,52.0883535 Z M12.4788968,53.0522088 C13.1020722,53.0522088 13.5662345,53.2161964 13.8713977,53.5441767 C14.1765609,53.872157 14.3291402,54.3708132 14.3291402,55.0401607 L14.3291402,57.6405623 C14.3291402,57.7945123 14.2873816,57.9133196 14.2038633,57.996988 C14.120345,58.0806563 14.0047059,58.1224899 13.8569427,58.1224899 C13.7156039,58.1224899 13.6031771,58.078983 13.5196587,57.991968 C13.4361404,57.9049527 13.3943818,57.7878187 13.3943818,57.6405623 L13.3943818,57.2690763 C13.2723166,57.5502021 13.0908275,57.7660634 12.8499092,57.9166667 C12.6089909,58.0672698 12.3279237,58.1425702 12.0066993,58.1425702 C11.6983239,58.1425702 11.4156506,58.0773099 11.1586711,57.9467871 C10.9016916,57.8162645 10.7009293,57.6338699 10.5563784,57.3995985 C10.4118274,57.1653268 10.339553,56.9042853 10.339553,56.6164658 C10.339553,56.2617117 10.4278884,55.9822634 10.6045618,55.7781125 C10.7812352,55.5739614 11.073545,55.4283806 11.4815001,55.3413655 C11.8894551,55.2543503 12.4499832,55.2108433 13.1631014,55.2108433 L13.3847452,55.2108433 L13.3847452,54.9196788 C13.3847452,54.5448441 13.3108646,54.2737625 13.1631014,54.1064258 C13.0153382,53.9390889 12.7776357,53.8554217 12.4499868,53.8554217 C12.2251297,53.8554217 12.0131248,53.8855419 11.8139656,53.9457831 C11.6148065,54.0060244 11.3963772,54.0930383 11.1586711,54.2068274 C10.9852099,54.3072294 10.8631465,54.3574297 10.7924771,54.3574297 C10.6961098,54.3574297 10.617411,54.3206162 10.5563784,54.2469881 C10.4953457,54.1733598 10.4648299,54.0796525 10.4648299,53.9658634 C10.4648299,53.8654614 10.4921335,53.7767742 10.5467417,53.6997992 C10.6013498,53.6228242 10.6896852,53.5475238 10.8117505,53.4738957 C11.0366076,53.3467196 11.3000076,53.2446457 11.6019586,53.1676707 C11.9039095,53.0906957 12.1962194,53.0522088 12.4788968,53.0522088 Z M12.1801596,57.3895582 C12.5335065,57.3895582 12.8226041,57.2640575 13.0474612,57.0130522 C13.2723183,56.7620469 13.3847452,56.4390917 13.3847452,56.0441767 L13.3847452,55.7831325 L13.2112848,55.7831325 C12.7101748,55.7831325 12.3247112,55.8065593 12.0548827,55.8534137 C11.7850542,55.9002679 11.5923225,55.9789151 11.4766817,56.0893575 C11.3610409,56.1997998 11.3032214,56.3587674 11.3032214,56.5662651 C11.3032214,56.8072302 11.3867385,57.0046847 11.5537752,57.1586346 C11.7208119,57.3125844 11.9296046,57.3895582 12.1801596,57.3895582 Z M12.777634,52.309237 C12.7712096,52.3962521 12.7390876,52.4631858 12.6812672,52.5100402 C12.6234468,52.5568944 12.5592029,52.5803212 12.4885335,52.5803212 C12.4114397,52.5803212 12.3455896,52.5518744 12.2909815,52.4949799 C12.2363734,52.4380855 12.2090697,52.3594383 12.2090697,52.2590361 C12.2090697,52.1251667 12.2411916,52.009706 12.3054365,51.9126507 C12.3696814,51.8155952 12.4596229,51.7135212 12.5752637,51.6064257 C12.6523575,51.5327976 12.7101771,51.4692105 12.748724,51.4156628 C12.7872709,51.362115 12.8065441,51.3052213 12.8065441,51.2449799 C12.8065441,51.1713518 12.7744221,51.1127846 12.7101773,51.0692771 C12.6459324,51.0257696 12.5559909,51.0040161 12.4403501,51.0040161 C12.3054359,51.0040161 12.1512504,51.0341363 11.9777893,51.0943775 C11.8878464,51.1211513 11.815572,51.1077646 11.7609639,51.0542168 C11.7063557,51.000669 11.6790521,50.9337353 11.6790521,50.8534136 C11.6790521,50.7998659 11.695113,50.7496656 11.7272355,50.7028113 C11.7593579,50.6559569 11.8043287,50.6191434 11.8621491,50.5923695 C12.0548837,50.5053544 12.2701008,50.4618475 12.5078069,50.4618475 C12.8290313,50.4618475 13.0795826,50.5287813 13.2594682,50.6626507 C13.4393539,50.7965202 13.5292954,50.9638545 13.5292954,51.1646587 C13.5292954,51.3119151 13.4955673,51.4323958 13.4281102,51.5261044 C13.3606531,51.619813 13.2594689,51.726907 13.1245547,51.8473895 C13.0153384,51.9344047 12.9334274,52.0097052 12.8788192,52.0732932 C12.8242111,52.1368813 12.790483,52.2155284 12.777634,52.309237 Z M16.1705499,58.1224899 C16.0292112,58.1224899 15.911966,58.0823297 15.8188109,58.002008 C15.7256558,57.9216863 15.679079,57.8012056 15.679079,57.6405623 L15.679079,53.564257 C15.679079,53.4036137 15.7256558,53.2814596 15.8188109,53.1977913 C15.911966,53.1141227 16.0292112,53.0722891 16.1705499,53.0722891 C16.3118886,53.0722891 16.4275277,53.1141227 16.5174705,53.1977913 C16.6074134,53.2814596 16.6523841,53.4036137 16.6523841,53.564257 L16.6523841,57.6405623 C16.6523841,57.8012056 16.6074134,57.9216863 16.5174705,58.002008 C16.4275277,58.0823297 16.3118886,58.1224899 16.1705499,58.1224899 Z M16.1705499,52.0883535 C15.9842397,52.0883535 15.8364787,52.0348065 15.7272624,51.927711 C15.6180461,51.8206152 15.5634388,51.6800544 15.5634388,51.5060241 C15.5634388,51.3319938 15.6180461,51.1931063 15.7272624,51.0893574 C15.8364787,50.9856085 15.9842397,50.9337349 16.1705499,50.9337349 C16.3504356,50.9337349 16.4965905,50.9856085 16.609019,51.0893574 C16.7214476,51.1931063 16.777661,51.3319938 16.777661,51.5060241 C16.777661,51.6800544 16.7230537,51.8206152 16.6138374,51.927711 C16.5046211,52.0348065 16.3568601,52.0883535 16.1705499,52.0883535 Z M23.1202053,53.0522088 C23.5249479,53.0522088 23.8863201,53.1593028 24.2043322,53.3734941 C24.5223443,53.5876852 24.7696834,53.888887 24.9463568,54.2771084 C25.1230302,54.6653299 25.2113657,55.113786 25.2113657,55.62249 C25.2113657,56.1245005 25.1246364,56.5662631 24.9511752,56.9477912 C24.7777141,57.3293192 24.531981,57.6238276 24.2139689,57.8313254 C23.8959568,58.038823 23.5313725,58.1425702 23.1202053,58.1425702 C22.7668585,58.1425702 22.4552753,58.0639231 22.1854468,57.9066264 C21.9156184,57.7493298 21.7100378,57.5234285 21.5686991,57.2289157 L21.5686991,59.4678715 C21.5686991,59.6084345 21.5253345,59.7205485 21.4386038,59.8042168 C21.3518733,59.8878852 21.2378404,59.9297188 21.0965015,59.9297188 C20.9487384,59.9297188 20.8282811,59.8862119 20.7351259,59.7991968 C20.6419708,59.7121816 20.5953941,59.5950475 20.5953941,59.4477911 L20.5953941,53.564257 C20.5953941,53.4170006 20.6403647,53.2981933 20.7303076,53.2078313 C20.8202504,53.1174694 20.9391016,53.0722891 21.0868648,53.0722891 C21.2282037,53.0722891 21.3438426,53.1174694 21.4337856,53.2078313 C21.5237283,53.2981933 21.5686991,53.4170006 21.5686991,53.564257 L21.5686991,53.9759037 C21.7100378,53.6813909 21.9156184,53.4538162 22.1854468,53.2931726 C22.4552753,53.1325293 22.7668585,53.0522088 23.1202053,53.0522088 Z M22.8889248,57.3393575 C23.3129411,57.3393575 23.6405851,57.19043 23.8718666,56.8925703 C24.1031482,56.5947108 24.2187873,56.1713547 24.2187873,55.62249 C24.2187873,55.0669316 24.1015421,54.6352091 23.8670483,54.3273093 C23.6325544,54.0194094 23.3065165,53.8654618 22.8889248,53.8654618 C22.4649085,53.8654618 22.1388706,54.0160627 21.9108013,54.3172691 C21.6827321,54.6184755 21.5686991,55.0468513 21.5686991,55.6024097 C21.5686991,56.157968 21.6827321,56.5863439 21.9108013,56.8875502 C22.1388706,57.1887566 22.4649085,57.3393575 22.8889248,57.3393575 Z M28.8548353,53.0522088 C29.9726963,53.0522088 30.5316183,53.7115062 30.5316183,55.0301205 L30.5316183,57.6405623 C30.5316183,57.7878187 30.4866475,57.9049527 30.3967048,57.991968 C30.306762,58.078983 30.1879106,58.1224899 30.0401475,58.1224899 C29.8923843,58.1224899 29.775139,58.078983 29.6884086,57.991968 C29.6016779,57.9049527 29.5583132,57.7878187 29.5583132,57.6405623 L29.5583132,55.0401607 C29.5583132,54.6385522 29.4796144,54.3440438 29.3222145,54.1566265 C29.1648146,53.9692093 28.9190815,53.8755021 28.5850081,53.8755021 C28.1931143,53.8755021 27.8783192,54.0026761 27.6406132,54.2570281 C27.402907,54.5113801 27.2840558,54.8527421 27.2840558,55.2811246 L27.2840558,57.6405623 C27.2840558,57.7878187 27.2406911,57.9049527 27.1539606,57.991968 C27.06723,58.078983 26.9499849,58.1224899 26.8022217,58.1224899 C26.6544584,58.1224899 26.5356072,58.078983 26.4456643,57.991968 C26.3557215,57.9049527 26.3107507,57.7878187 26.3107507,57.6405623 L26.3107507,51.4257028 C26.3107507,51.2784464 26.3573276,51.1613124 26.4504827,51.0742971 C26.5436377,50.9872821 26.6640951,50.9437752 26.8118583,50.9437752 C26.953197,50.9437752 27.06723,50.9856087 27.1539606,51.0692771 C27.2406911,51.1529457 27.2840558,51.2650597 27.2840558,51.4056225 L27.2840558,53.9156627 C27.444668,53.6345368 27.6598852,53.4203489 27.9297136,53.2730923 C28.1995421,53.1258359 28.507913,53.0522088 28.8548353,53.0522088 Z M33.8570774,53.0522088 C34.4802527,53.0522088 34.9444151,53.2161964 35.2495783,53.5441767 C35.5547415,53.872157 35.7073207,54.3708132 35.7073207,55.0401607 L35.7073207,57.6405623 C35.7073207,57.7945123 35.6655622,57.9133196 35.5820438,57.996988 C35.4985254,58.0806563 35.3828865,58.1224899 35.2351232,58.1224899 C35.0937845,58.1224899 34.9813577,58.078983 34.8978393,57.991968 C34.8143209,57.9049527 34.7725624,57.7878187 34.7725624,57.6405623 L34.7725624,57.2690763 C34.650497,57.5502021 34.469008,57.7660634 34.2280897,57.9166667 C33.9871715,58.0672698 33.7061044,58.1425702 33.3848798,58.1425702 C33.0765045,58.1425702 32.7938311,58.0773099 32.5368516,57.9467871 C32.2798721,57.8162645 32.07911,57.6338699 31.934559,57.3995985 C31.790008,57.1653268 31.7177336,56.9042853 31.7177336,56.6164658 C31.7177336,56.2617117 31.8060689,55.9822634 31.9827423,55.7781125 C32.1594157,55.5739614 32.4517256,55.4283806 32.8596806,55.3413655 C33.2676357,55.2543503 33.8281639,55.2108433 34.5412819,55.2108433 L34.7629258,55.2108433 L34.7629258,54.9196788 C34.7629258,54.5448441 34.6890452,54.2737625 34.5412819,54.1064258 C34.3935187,53.9390889 34.1558163,53.8554217 33.8281673,53.8554217 C33.6033102,53.8554217 33.3913053,53.8855419 33.1921463,53.9457831 C32.9929871,54.0060244 32.7745578,54.0930383 32.5368516,54.2068274 C32.3633905,54.3072294 32.241327,54.3574297 32.1706577,54.3574297 C32.0742904,54.3574297 31.9955916,54.3206162 31.934559,54.2469881 C31.8735262,54.1733598 31.8430105,54.0796525 31.8430105,53.9658634 C31.8430105,53.8654614 31.8703141,53.7767742 31.9249222,53.6997992 C31.9795304,53.6228242 32.0678658,53.5475238 32.189931,53.4738957 C32.4147881,53.3467196 32.6781882,53.2446457 32.9801391,53.1676707 C33.2820902,53.0906957 33.5743999,53.0522088 33.8570774,53.0522088 Z M33.5583402,57.3895582 C33.911687,57.3895582 34.2007846,57.2640575 34.4256417,57.0130522 C34.6504989,56.7620469 34.7629258,56.4390917 34.7629258,56.0441767 L34.7629258,55.7831325 L34.5894654,55.7831325 C34.0883553,55.7831325 33.7028917,55.8065593 33.4330633,55.8534137 C33.1632348,55.9002679 32.970503,55.9789151 32.8548622,56.0893575 C32.7392214,56.1997998 32.681402,56.3587674 32.681402,56.5662651 C32.681402,56.8072302 32.7649191,57.0046847 32.9319556,57.1586346 C33.0989924,57.3125844 33.3077852,57.3895582 33.5583402,57.3895582 Z M34.0594478,52.5100402 C34.0080519,52.5568944 33.9470202,52.5803212 33.8763508,52.5803212 C33.8056813,52.5803212 33.7430435,52.5535477 33.6884355,52.4999999 C33.6338273,52.4464522 33.6065236,52.3828651 33.6065236,52.309237 C33.6065236,52.2423023 33.629009,52.1820619 33.6739804,52.1285142 L34.7147423,50.7128514 C34.8432321,50.5321277 34.990993,50.4417672 35.1580298,50.4417672 C35.280095,50.4417672 35.3828854,50.4852741 35.4664037,50.5722892 C35.5499219,50.6593044 35.5916804,50.7630517 35.5916804,50.8835342 C35.5916804,51.037484 35.5145878,51.1813917 35.3604001,51.3152612 L34.0594478,52.5100402 Z M39.5820707,53.0522088 C39.9868135,53.0522088 40.3481855,53.1593028 40.6661977,53.3734941 C40.98421,53.5876852 41.231549,53.888887 41.4082224,54.2771084 C41.5848959,54.6653299 41.6732311,55.113786 41.6732311,55.62249 C41.6732311,56.1245005 41.586502,56.5662631 41.4130407,56.9477912 C41.2395795,57.3293192 40.9938466,57.6238276 40.6758345,57.8313254 C40.3578222,58.038823 39.9932381,58.1425702 39.5820707,58.1425702 C39.2287239,58.1425702 38.9171409,58.0639231 38.6473125,57.9066264 C38.377484,57.7493298 38.1719035,57.5234285 38.0305646,57.2289157 L38.0305646,59.4678715 C38.0305646,59.6084345 37.9872001,59.7205485 37.9004694,59.8042168 C37.8137388,59.8878852 37.6997058,59.9297188 37.5583671,59.9297188 C37.4106039,59.9297188 37.2901465,59.8862119 37.1969915,59.7991968 C37.1038364,59.7121816 37.0572595,59.5950475 37.0572595,59.4477911 L37.0572595,53.564257 C37.0572595,53.4170006 37.1022303,53.2981933 37.1921732,53.2078313 C37.282116,53.1174694 37.4009672,53.0722891 37.5487305,53.0722891 C37.6900692,53.0722891 37.8057083,53.1174694 37.895651,53.2078313 C37.985594,53.2981933 38.0305646,53.4170006 38.0305646,53.564257 L38.0305646,53.9759037 C38.1719035,53.6813909 38.377484,53.4538162 38.6473125,53.2931726 C38.9171409,53.1325293 39.2287239,53.0522088 39.5820707,53.0522088 Z M39.3507904,57.3393575 C39.7748065,57.3393575 40.1024505,57.19043 40.3337322,56.8925703 C40.5650138,56.5947108 40.6806527,56.1713547 40.6806527,55.62249 C40.6806527,55.0669316 40.5634077,54.6352091 40.3289138,54.3273093 C40.09442,54.0194094 39.7683821,53.8654618 39.3507904,53.8654618 C38.9267742,53.8654618 38.6007363,54.0160627 38.3726669,54.3172691 C38.1445976,54.6184755 38.0305646,55.0468513 38.0305646,55.6024097 C38.0305646,56.157968 38.1445976,56.5863439 38.3726669,56.8875502 C38.6007363,57.1887566 38.9267742,57.3393575 39.3507904,57.3393575 Z M47.6399448,57.3493976 C47.7812835,57.3627845 47.8824677,57.4012714 47.9435003,57.4648594 C48.0045331,57.5284475 48.0350488,57.6171347 48.0350488,57.7309236 C48.0350488,57.8647933 47.9852597,57.9668672 47.8856801,58.0371486 C47.7861007,58.10743 47.6399457,58.1358769 47.4472111,58.1224899 L47.1870206,58.1024096 C46.6666372,58.0622488 46.2779613,57.8965878 46.0209818,57.6054217 C45.7640023,57.3142556 45.6355144,56.8842064 45.6355144,56.3152611 L45.6355144,53.9558233 L45.0573134,53.9558233 C44.774636,53.9558233 44.6332994,53.8253026 44.6332994,53.564257 C44.6332994,53.4437745 44.6702397,53.348394 44.7441212,53.2781125 C44.8180029,53.2078309 44.9223992,53.1726907 45.0573134,53.1726907 L45.6355144,53.1726907 L45.6355144,52.1385542 C45.6355144,51.9846044 45.6788791,51.8641235 45.7656098,51.7771085 C45.8523402,51.6900932 45.9695855,51.6465863 46.1173488,51.6465863 C46.265112,51.6465863 46.3839632,51.6900932 46.473906,51.7771085 C46.5638489,51.8641235 46.6088195,51.9846044 46.6088195,52.1385542 L46.6088195,53.1726907 L47.5628513,53.1726907 C47.6977656,53.1726907 47.802162,53.2078309 47.8760435,53.2781125 C47.9499252,53.348394 47.9868655,53.4437745 47.9868655,53.564257 C47.9868655,53.6914331 47.9499252,53.788487 47.8760435,53.8554217 C47.802162,53.9223565 47.6977656,53.9558233 47.5628513,53.9558233 L46.6088195,53.9558233 L46.6088195,56.3855423 C46.6088195,56.7001354 46.6714573,56.9310568 46.796735,57.0783134 C46.9220125,57.2255698 47.1131381,57.3092369 47.3701176,57.3293172 L47.6399448,57.3493976 Z M49.250074,58.1224899 C49.1087353,58.1224899 48.9914903,58.0823297 48.898335,58.002008 C48.80518,57.9216863 48.7586032,57.8012056 48.7586032,57.6405623 L48.7586032,53.564257 C48.7586032,53.4036137 48.80518,53.2814596 48.898335,53.1977913 C48.9914903,53.1141227 49.1087353,53.0722891 49.250074,53.0722891 C49.3914129,53.0722891 49.5070518,53.1141227 49.5969948,53.1977913 C49.6869375,53.2814596 49.7319083,53.4036137 49.7319083,53.564257 L49.7319083,57.6405623 C49.7319083,57.8012056 49.6869375,57.9216863 49.5969948,58.002008 C49.5070518,58.0823297 49.3914129,58.1224899 49.250074,58.1224899 Z M49.250074,52.0883535 C49.0637639,52.0883535 48.916003,52.0348065 48.8067867,51.927711 C48.6975703,51.8206152 48.642963,51.6800544 48.642963,51.5060241 C48.642963,51.3319938 48.6975703,51.1931063 48.8067867,51.0893574 C48.916003,50.9856085 49.0637639,50.9337349 49.250074,50.9337349 C49.4299597,50.9337349 49.5761147,50.9856085 49.6885433,51.0893574 C49.8009718,51.1931063 49.8571852,51.3319938 49.8571852,51.5060241 C49.8571852,51.6800544 49.8025778,51.8206152 49.6933615,51.927711 C49.5841453,52.0348065 49.4363843,52.0883535 49.250074,52.0883535 Z M54.7919705,56.8373493 C54.8819134,56.8373493 54.9557938,56.8741629 55.0136143,56.9477912 C55.0714346,57.0214193 55.1003444,57.1151267 55.1003444,57.2289157 C55.1003444,57.4230265 54.9847053,57.5870141 54.7534238,57.7208836 C54.5285666,57.854753 54.2828337,57.9585003 54.0162175,58.0321286 C53.7496011,58.1057567 53.4942315,58.1425702 53.250101,58.1425702 C52.5048605,58.1425702 51.9170286,57.9166689 51.4865878,57.4648594 C51.0561472,57.01305 50.84093,56.3955863 50.84093,55.6124499 C50.84093,55.1104393 50.9356898,54.6653299 51.1252122,54.2771084 C51.3147345,53.888887 51.5813469,53.5876852 51.9250571,53.3734941 C52.2687671,53.1593028 52.6590489,53.0522088 53.0959141,53.0522088 C53.7255139,53.0522088 54.2234043,53.26305 54.5896001,53.6847389 C54.9557959,54.1064278 55.138891,54.6753645 55.138891,55.3915662 C55.138891,55.6593053 55.0232521,55.7931728 54.7919705,55.7931728 L51.8142351,55.7931728 C51.8784799,56.8306612 52.3570972,57.3493976 53.250101,57.3493976 C53.4878072,57.3493976 53.6933877,57.3159307 53.8668488,57.248996 C54.04031,57.1820612 54.2234051,57.0950474 54.4161397,56.9879518 C54.4354132,56.9745649 54.4884146,56.946118 54.575145,56.9026105 C54.6618757,56.8591028 54.7341501,56.8373493 54.7919705,56.8373493 Z M53.1151874,53.7951808 C52.7425671,53.7951808 52.443833,53.9190082 52.2189759,54.1666668 C51.9941187,54.4143252 51.8592066,54.7623806 51.8142351,55.2108433 L54.3004997,55.2108433 C54.2812262,54.7556872 54.1704053,54.4059585 53.968034,54.1616466 C53.7656627,53.9173348 53.4813834,53.7951808 53.1151874,53.7951808 Z M54.3679565,51.4859438 C54.3229849,51.5127177 54.274802,51.5261044 54.2234061,51.5261044 C54.1591612,51.5261044 54.1029478,51.5026776 54.0547641,51.4558234 C54.0065804,51.408969 53.9824891,51.3520753 53.9824891,51.2851406 C53.9824891,51.2182059 54.0049745,51.1579655 54.0499459,51.1044177 L54.714877,50.2108434 C54.8240933,50.0702804 54.9429445,50 55.0714342,50 C55.1806507,50 55.2754103,50.0418336 55.3557164,50.1255021 C55.4360225,50.2091705 55.4761751,50.3078977 55.4761751,50.4216867 C55.4761751,50.5890236 55.3926579,50.7262378 55.2256213,50.8333333 L54.3679565,51.4859438 Z M52.2960694,52.4799196 C52.2382489,52.540161 52.1643685,52.5702812 52.0744255,52.5702812 C51.9844828,52.5702812 51.9073901,52.5368143 51.8431452,52.4698796 C51.7789003,52.4029448 51.7467783,52.3259711 51.7467783,52.2389558 C51.7467783,52.1251669 51.7981735,52.028113 51.9009653,51.9477913 L52.7008101,51.184739 C52.8292998,51.0776434 52.9609998,51.0240964 53.0959141,51.0240964 C53.2179793,51.0240964 53.3496794,51.0776434 53.4910181,51.184739 L54.2908628,51.9477913 C54.4000793,52.0348063 54.4546866,52.1352069 54.4546866,52.2489961 C54.4546866,52.3360111 54.4209585,52.4129849 54.3535014,52.4799196 C54.2860442,52.5468544 54.2073454,52.5803212 54.1174027,52.5803212 C54.0467332,52.5803212 53.9760649,52.550201 53.9053955,52.4899599 L53.0959141,51.6566266 L52.2960694,52.4799196 Z M58.7534508,53.0522088 C59.1581934,53.0522088 59.5195654,53.1593028 59.8375777,53.3734941 C60.1555898,53.5876852 60.4029289,53.888887 60.5796023,54.2771084 C60.7562757,54.6653299 60.8446112,55.113786 60.8446112,55.62249 C60.8446112,56.1245005 60.7578819,56.5662631 60.5844207,56.9477912 C60.4109596,57.3293192 60.1652265,57.6238276 59.8472144,57.8313254 C59.5292023,58.038823 59.1646179,58.1425702 58.7534508,58.1425702 C58.4001038,58.1425702 58.0885208,58.0639231 57.8186923,57.9066264 C57.5488639,57.7493298 57.3432833,57.5234285 57.2019446,57.2289157 L57.2019446,59.4678715 C57.2019446,59.6084345 57.15858,59.7205485 57.0718493,59.8042168 C56.9851188,59.8878852 56.8710859,59.9297188 56.729747,59.9297188 C56.5819839,59.9297188 56.4615266,59.8862119 56.3683713,59.7991968 C56.2752163,59.7121816 56.2286395,59.5950475 56.2286395,59.4477911 L56.2286395,53.564257 C56.2286395,53.4170006 56.2736102,53.2981933 56.3635531,53.2078313 C56.4534959,53.1174694 56.5723471,53.0722891 56.7201103,53.0722891 C56.861449,53.0722891 56.9770881,53.1174694 57.0670311,53.2078313 C57.1569738,53.2981933 57.2019446,53.4170006 57.2019446,53.564257 L57.2019446,53.9759037 C57.3432833,53.6813909 57.5488639,53.4538162 57.8186923,53.2931726 C58.0885208,53.1325293 58.4001038,53.0522088 58.7534508,53.0522088 Z M58.5221703,57.3393575 C58.9461866,57.3393575 59.2738304,57.19043 59.505112,56.8925703 C59.7363937,56.5947108 59.8520326,56.1713547 59.8520326,55.62249 C59.8520326,55.0669316 59.7347875,54.6352091 59.5002938,54.3273093 C59.2657999,54.0194094 58.939762,53.8654618 58.5221703,53.8654618 C58.098154,53.8654618 57.7721161,54.0160627 57.5440468,54.3172691 C57.3159776,54.6184755 57.2019446,55.0468513 57.2019446,55.6024097 C57.2019446,56.157968 57.3159776,56.5863439 57.5440468,56.8875502 C57.7721161,57.1887566 58.098154,57.3393575 58.5221703,57.3393575 Z M66.5222242,58.1425702 C66.0660855,58.1425702 65.6661672,58.038823 65.322457,57.8313254 C64.9787468,57.6238276 64.7121346,57.3293192 64.5226123,56.9477912 C64.3330897,56.5662631 64.2383301,56.1245005 64.2383301,55.62249 C64.2383301,55.113786 64.336302,54.6653299 64.5322489,54.2771084 C64.7281959,53.888887 65.0028386,53.5876852 65.3561854,53.3734941 C65.7095322,53.1593028 66.1142689,53.0522088 66.5704076,53.0522088 C66.8145382,53.0522088 67.0602711,53.0890224 67.307614,53.1626507 C67.5549567,53.2362788 67.7749921,53.3366794 67.9677267,53.4638554 C68.1733103,53.6111118 68.2761007,53.7817928 68.2761007,53.9759037 C68.2761007,54.0896926 68.2471909,54.1850734 68.1893706,54.2620481 C68.1315501,54.3390231 68.0576697,54.37751 67.9677267,54.37751 C67.9099064,54.37751 67.8520869,54.3624499 67.7942666,54.3323294 C67.736446,54.3022088 67.6625657,54.2570285 67.5726227,54.1967872 C67.4120105,54.0896916 67.2626434,54.0076978 67.124517,53.9508033 C66.9863904,53.8939086 66.8209624,53.8654618 66.6282278,53.8654618 C66.1913626,53.8654618 65.8524759,54.0194094 65.6115574,54.3273093 C65.3706391,54.6352091 65.2501818,55.0635849 65.2501818,55.6124499 C65.2501818,56.1613147 65.3690332,56.5846705 65.6067392,56.8825302 C65.8444452,57.1803897 66.1817259,57.3293172 66.6185909,57.3293172 C66.8113258,57.3293172 66.9815721,57.2991971 67.1293352,57.2389559 C67.2770985,57.1787146 67.4280717,57.0983941 67.5822594,56.9979919 C67.6529288,56.9511377 67.7235971,56.9109774 67.7942666,56.87751 C67.8649358,56.8440427 67.9291797,56.8273093 67.9870002,56.8273093 C68.076943,56.8273093 68.1508236,56.8657962 68.2086439,56.9427712 C68.2664642,57.019746 68.295374,57.1151267 68.295374,57.2289157 C68.295374,57.3226243 68.2712826,57.4079648 68.223099,57.4849398 C68.1749153,57.5619147 68.0930042,57.6405619 67.9773634,57.7208836 C67.7846288,57.854753 67.5597751,57.9585003 67.3027956,58.0321286 C67.0458161,58.1057567 66.7856283,58.1425702 66.5222242,58.1425702 Z M71.1582723,53.0522088 C71.7814476,53.0522088 72.24561,53.2161964 72.5507732,53.5441767 C72.8559363,53.872157 73.0085156,54.3708132 73.0085156,55.0401607 L73.0085156,57.6405623 C73.0085156,57.7945123 72.966757,57.9133196 72.8832387,57.996988 C72.7997205,58.0806563 72.6840814,58.1224899 72.5363181,58.1224899 C72.3949794,58.1224899 72.2825526,58.078983 72.1990342,57.991968 C72.1155158,57.9049527 72.0737573,57.7878187 72.0737573,57.6405623 L72.0737573,57.2690763 C71.9516919,57.5502021 71.7702029,57.7660634 71.5292846,57.9166667 C71.2883663,58.0672698 71.0072992,58.1425702 70.6860748,58.1425702 C70.3776994,58.1425702 70.0950262,58.0773099 69.8380465,57.9467871 C69.581067,57.8162645 69.3803048,57.6338699 69.2357539,57.3995985 C69.0912029,57.1653268 69.0189284,56.9042853 69.0189284,56.6164658 C69.0189284,56.2617117 69.1072637,55.9822634 69.2839371,55.7781125 C69.4606106,55.5739614 69.7529204,55.4283806 70.1608755,55.3413655 C70.5688305,55.2543503 71.1293587,55.2108433 71.8424768,55.2108433 L72.0641206,55.2108433 L72.0641206,54.9196788 C72.0641206,54.5448441 71.99024,54.2737625 71.8424768,54.1064258 C71.6947135,53.9390889 71.4570111,53.8554217 71.1293622,53.8554217 C70.9045051,53.8554217 70.6925002,53.8855419 70.4933412,53.9457831 C70.294182,54.0060244 70.0757527,54.0930383 69.8380465,54.2068274 C69.6645853,54.3072294 69.5425218,54.3574297 69.4718526,54.3574297 C69.3754853,54.3574297 69.2967865,54.3206162 69.2357539,54.2469881 C69.1747211,54.1733598 69.1442053,54.0796525 69.1442053,53.9658634 C69.1442053,53.8654614 69.171509,53.7767742 69.2261172,53.6997992 C69.2807252,53.6228242 69.3690607,53.5475238 69.4911259,53.4738957 C69.715983,53.3467196 69.9793831,53.2446457 70.281334,53.1676707 C70.583285,53.0906957 70.8755947,53.0522088 71.1582723,53.0522088 Z M70.859535,57.3895582 C71.2128819,57.3895582 71.5019795,57.2640575 71.7268367,57.0130522 C71.9516938,56.7620469 72.0641206,56.4390917 72.0641206,56.0441767 L72.0641206,55.7831325 L71.8906602,55.7831325 C71.3895502,55.7831325 71.0040868,55.8065593 70.7342581,55.8534137 C70.4644297,55.9002679 70.2716979,55.9789151 70.1560571,56.0893575 C70.0404164,56.1997998 69.9825969,56.3587674 69.9825969,56.5662651 C69.9825969,56.8072302 70.0661139,57.0046847 70.2331507,57.1586346 C70.4001873,57.3125844 70.6089801,57.3895582 70.859535,57.3895582 Z M71.1293622,60 C70.9623256,60 70.8274133,59.9481264 70.7246215,59.8443775 C70.6218296,59.7406286 70.5704346,59.6050878 70.5704346,59.4377511 C70.5704346,59.2704142 70.6218296,59.1365467 70.7246215,59.0361445 C70.8274133,58.9357425 70.9623256,58.8855422 71.1293622,58.8855422 C71.2899744,58.8855422 71.4232806,58.9374159 71.5292846,59.0411647 C71.6352886,59.1449134 71.6882899,59.2771075 71.6882899,59.4377511 C71.6882899,59.6050878 71.6368947,59.7406286 71.534103,59.8443775 C71.4313111,59.9481264 71.2963989,60 71.1293622,60 Z M70.4258844,52.3895583 C70.3552149,52.5100408 70.2556369,52.5702812 70.1271471,52.5702812 C70.0372041,52.5702812 69.9585055,52.5368143 69.8910484,52.4698796 C69.8235912,52.4029448 69.7898632,52.3226244 69.7898632,52.2289158 C69.7898632,52.1552874 69.8155607,52.0816603 69.8669566,52.0080322 L70.7342581,50.7128514 C70.798503,50.6258364 70.8627469,50.560576 70.9269918,50.5170683 C70.9912367,50.4735607 71.0683294,50.4518073 71.1582723,50.4518073 C71.2482151,50.4518073 71.3253077,50.4718874 71.3895526,50.5120482 C71.4537975,50.5522091 71.5180414,50.6191428 71.5822863,50.7128514 L72.449588,52.0080322 C72.5009838,52.0816603 72.5266814,52.1552874 72.5266814,52.2289158 C72.5266814,52.3226244 72.4929534,52.4029448 72.4254963,52.4698796 C72.3580391,52.5368143 72.2793403,52.5702812 72.1893975,52.5702812 C72.0673321,52.5702812 71.9677541,52.5100408 71.8906602,52.3895583 L71.1582723,51.184739 L70.4258844,52.3895583 Z M76.8929023,53.0522088 C78.0171878,53.0522088 78.579322,53.7115062 78.579322,55.0301205 L78.579322,57.6405623 C78.579322,57.7945123 78.5359575,57.9133196 78.4492268,57.996988 C78.3624962,58.0806563 78.2420388,58.1224899 78.0878512,58.1224899 C77.9400879,58.1224899 77.8228429,58.078983 77.7361122,57.991968 C77.6493815,57.9049527 77.6060169,57.7878187 77.6060169,57.6405623 L77.6060169,55.0803214 C77.6060169,54.6653259 77.5273183,54.3607774 77.3699181,54.1666668 C77.2125182,53.972556 76.9667853,53.8755021 76.6327118,53.8755021 C76.2408181,53.8755021 75.9260229,54.0026761 75.6883169,54.2570281 C75.4506108,54.5113801 75.3317594,54.8527421 75.3317594,55.2811246 L75.3317594,57.6405623 C75.3317594,57.7878187 75.288395,57.9049527 75.2016643,57.991968 C75.1149336,58.078983 74.9976886,58.1224899 74.8499253,58.1224899 C74.7021621,58.1224899 74.5833109,58.078983 74.4933681,57.991968 C74.4034252,57.9049527 74.3584544,57.7878187 74.3584544,57.6405623 L74.3584544,53.554217 C74.3584544,53.4136539 74.4050313,53.2981933 74.4981863,53.2078313 C74.5913414,53.1174694 74.7085866,53.0722891 74.8499253,53.0722891 C74.991264,53.0722891 75.1036908,53.115796 75.1872092,53.2028113 C75.2707276,53.2898263 75.3124861,53.4036139 75.3124861,53.5441767 L75.3124861,53.9558233 C75.466674,53.6613105 75.681891,53.4370825 75.958144,53.2831326 C76.234397,53.1291826 76.54598,53.0522088 76.8929023,53.0522088 Z M85.8373513,53.3734941 C85.8758983,53.2730919 85.9321117,53.1994648 86.0059932,53.1526104 C86.079875,53.1057562 86.1585736,53.0823294 86.242092,53.0823294 C86.3641573,53.0823294 86.4717659,53.1258363 86.564921,53.2128514 C86.658076,53.2998666 86.7046528,53.4036139 86.7046528,53.5240964 C86.7046528,53.5910311 86.691804,53.6546182 86.6661062,53.7148595 L83.987108,59.6385543 C83.948561,59.7322629 83.8923476,59.8042166 83.8184659,59.8544177 C83.7445843,59.9046186 83.6658855,59.9297188 83.5823672,59.9297188 C83.4667263,59.9297188 83.36233,59.8895585 83.269175,59.8092369 C83.1760199,59.7289152 83.129443,59.6285146 83.129443,59.5080321 C83.129443,59.4544843 83.145504,59.3875506 83.1776265,59.3072289 L83.8425576,57.8313254 L81.9826777,53.7148595 C81.9569796,53.6613117 81.9441309,53.6010714 81.9441309,53.5341367 C81.9441309,53.4069606 81.9955261,53.2998666 82.0983178,53.2128514 C82.2011097,53.1258363 82.3167488,53.0823294 82.4452385,53.0823294 C82.6379732,53.0823294 82.7760975,53.1760366 82.8596159,53.3634538 L84.3533019,56.817269 L85.8373513,53.3734941 Z M92.3919026,57.3493976 C92.5332413,57.3627845 92.6344255,57.4012714 92.6954581,57.4648594 C92.7564907,57.5284475 92.7870066,57.6171347 92.7870066,57.7309236 C92.7870066,57.8647933 92.7372176,57.9668672 92.637638,58.0371486 C92.5380584,58.10743 92.3919036,58.1358769 92.1991689,58.1224899 L91.9389785,58.1024096 C91.4185949,58.0622488 91.0299192,57.8965878 90.7729397,57.6054217 C90.5159602,57.3142556 90.3874723,56.8842064 90.3874723,56.3152611 L90.3874723,53.9558233 L89.8092712,53.9558233 C89.5265938,53.9558233 89.3852572,53.8253026 89.3852572,53.564257 C89.3852572,53.4437745 89.4221973,53.348394 89.4960791,53.2781125 C89.5699606,53.2078309 89.6743569,53.1726907 89.8092712,53.1726907 L90.3874723,53.1726907 L90.3874723,52.1385542 C90.3874723,51.9846044 90.430837,51.8641235 90.5175674,51.7771085 C90.6042981,51.6900932 90.7215433,51.6465863 90.8693064,51.6465863 C91.0170697,51.6465863 91.1359209,51.6900932 91.2258638,51.7771085 C91.3158066,51.8641235 91.3607774,51.9846044 91.3607774,52.1385542 L91.3607774,53.1726907 L92.3148092,53.1726907 C92.4497233,53.1726907 92.5541198,53.2078309 92.6280013,53.2781125 C92.7018829,53.348394 92.7388232,53.4437745 92.7388232,53.564257 C92.7388232,53.6914331 92.7018829,53.788487 92.6280013,53.8554217 C92.5541198,53.9223565 92.4497233,53.9558233 92.3148092,53.9558233 L91.3607774,53.9558233 L91.3607774,56.3855423 C91.3607774,56.7001354 91.4234152,56.9310568 91.5486927,57.0783134 C91.6739703,57.2255698 91.865096,57.3092369 92.1220755,57.3293172 L92.3919026,57.3493976 Z M97.1917743,56.8373493 C97.2817172,56.8373493 97.3555976,56.8741629 97.4134181,56.9477912 C97.4712384,57.0214193 97.5001482,57.1151267 97.5001482,57.2289157 C97.5001482,57.4230265 97.3845091,57.5870141 97.1532276,57.7208836 C96.9283704,57.854753 96.6826375,57.9585003 96.4160213,58.0321286 C96.1494049,58.1057567 95.8940353,58.1425702 95.6499048,58.1425702 C94.9046643,58.1425702 94.3168325,57.9166689 93.8863916,57.4648594 C93.455951,57.01305 93.2407338,56.3955863 93.2407338,55.6124499 C93.2407338,55.1104393 93.3354936,54.6653299 93.525016,54.2771084 C93.7145383,53.888887 93.9811507,53.5876852 94.3248607,53.3734941 C94.6685709,53.1593028 95.0588527,53.0522088 95.4957179,53.0522088 C96.1253177,53.0522088 96.6232082,53.26305 96.9894039,53.6847389 C97.3555997,54.1064278 97.5386948,54.6753645 97.5386948,55.3915662 C97.5386948,55.6593053 97.4230559,55.7931728 97.1917743,55.7931728 L94.2140389,55.7931728 C94.2782837,56.8306612 94.756901,57.3493976 95.6499048,57.3493976 C95.887611,57.3493976 96.0931915,57.3159307 96.2666526,57.248996 C96.4401138,57.1820612 96.6232089,57.0950474 96.8159436,56.9879518 C96.8352171,56.9745649 96.8882184,56.946118 96.9749489,56.9026105 C97.0616795,56.8591028 97.133954,56.8373493 97.1917743,56.8373493 Z M95.5149912,53.7951808 C95.1423709,53.7951808 94.8436368,53.9190082 94.6187796,54.1666668 C94.3939225,54.4143252 94.2590102,54.7623806 94.2140389,55.2108433 L96.7003035,55.2108433 C96.68103,54.7556872 96.5702091,54.4059585 96.3678378,54.1616466 C96.1654663,53.9173348 95.8811872,53.7951808 95.5149912,53.7951808 Z M96.7677603,51.4859438 C96.7227887,51.5127177 96.6746058,51.5261044 96.6232099,51.5261044 C96.558965,51.5261044 96.5027516,51.5026776 96.4545679,51.4558234 C96.4063843,51.408969 96.3822929,51.3520753 96.3822929,51.2851406 C96.3822929,51.2182059 96.4047781,51.1579655 96.4497497,51.1044177 L97.1146808,50.2108434 C97.2238971,50.0702804 97.3427483,50 97.4712381,50 C97.5804545,50 97.6752142,50.0418336 97.7555203,50.1255021 C97.8358264,50.2091705 97.8759789,50.3078977 97.8759789,50.4216867 C97.8759789,50.5890236 97.7924617,50.7262378 97.6254251,50.8333333 L96.7677603,51.4859438 Z M94.6958732,52.4799196 C94.6380527,52.540161 94.5641723,52.5702812 94.4742293,52.5702812 C94.3842866,52.5702812 94.3071939,52.5368143 94.242949,52.4698796 C94.1787041,52.4029448 94.1465821,52.3259711 94.1465821,52.2389558 C94.1465821,52.1251669 94.1979773,52.028113 94.3007691,51.9477913 L95.1006139,51.184739 C95.2291036,51.0776434 95.3608036,51.0240964 95.4957179,51.0240964 C95.6177831,51.0240964 95.7494832,51.0776434 95.8908219,51.184739 L96.6906666,51.9477913 C96.7998831,52.0348063 96.8544904,52.1352069 96.8544904,52.2489961 C96.8544904,52.3360111 96.8207624,52.4129849 96.7533052,52.4799196 C96.685848,52.5468544 96.6071492,52.5803212 96.5172065,52.5803212 C96.446537,52.5803212 96.3758687,52.550201 96.3051993,52.4899599 L95.4957179,51.6566266 L94.6958732,52.4799196 Z M103.495772,57.3493976 C103.63711,57.3627845 103.738295,57.4012714 103.799327,57.4648594 C103.86036,57.5284475 103.890876,57.6171347 103.890876,57.7309236 C103.890876,57.8647933 103.841087,57.9668672 103.741507,58.0371486 C103.641928,58.10743 103.495773,58.1358769 103.303038,58.1224899 L103.042848,58.1024096 C102.522464,58.0622488 102.133788,57.8965878 101.876809,57.6054217 C101.619829,57.3142556 101.491341,56.8842064 101.491341,56.3152611 L101.491341,53.9558233 L100.91314,53.9558233 C100.630463,53.9558233 100.489126,53.8253026 100.489126,53.564257 C100.489126,53.4437745 100.526067,53.348394 100.599948,53.2781125 C100.67383,53.2078309 100.778226,53.1726907 100.91314,53.1726907 L101.491341,53.1726907 L101.491341,52.1385542 C101.491341,51.9846044 101.534706,51.8641235 101.621437,51.7771085 C101.708167,51.6900932 101.825413,51.6465863 101.973176,51.6465863 C102.120939,51.6465863 102.23979,51.6900932 102.329733,51.7771085 C102.419676,51.8641235 102.464647,51.9846044 102.464647,52.1385542 L102.464647,53.1726907 L103.418678,53.1726907 C103.553592,53.1726907 103.657989,53.2078309 103.731871,53.2781125 C103.805752,53.348394 103.842692,53.4437745 103.842692,53.564257 C103.842692,53.6914331 103.805752,53.788487 103.731871,53.8554217 C103.657989,53.9223565 103.553592,53.9558233 103.418678,53.9558233 L102.464647,53.9558233 L102.464647,56.3855423 C102.464647,56.7001354 102.527284,56.9310568 102.652562,57.0783134 C102.77784,57.2255698 102.968965,57.3092369 103.225945,57.3293172 L103.495772,57.3493976 Z M107.158515,53.0522088 C108.276376,53.0522088 108.835298,53.7115062 108.835298,55.0301205 L108.835298,57.6405623 C108.835298,57.7878187 108.790327,57.9049527 108.700384,57.991968 C108.610441,58.078983 108.49159,58.1224899 108.343827,58.1224899 C108.196064,58.1224899 108.078819,58.078983 107.992088,57.991968 C107.905357,57.9049527 107.861993,57.7878187 107.861993,57.6405623 L107.861993,55.0401607 C107.861993,54.6385522 107.783294,54.3440438 107.625894,54.1566265 C107.468494,53.9692093 107.222761,53.8755021 106.888688,53.8755021 C106.496794,53.8755021 106.181999,54.0026761 105.944293,54.2570281 C105.706587,54.5113801 105.587735,54.8527421 105.587735,55.2811246 L105.587735,57.6405623 C105.587735,57.7878187 105.544371,57.9049527 105.45764,57.991968 C105.37091,58.078983 105.253664,58.1224899 105.105901,58.1224899 C104.958138,58.1224899 104.839287,58.078983 104.749344,57.991968 C104.659401,57.9049527 104.61443,57.7878187 104.61443,57.6405623 L104.61443,51.4257028 C104.61443,51.2784464 104.661007,51.1613124 104.754162,51.0742971 C104.847317,50.9872821 104.967775,50.9437752 105.115538,50.9437752 C105.256877,50.9437752 105.37091,50.9856087 105.45764,51.0692771 C105.544371,51.1529457 105.587735,51.2650597 105.587735,51.4056225 L105.587735,53.9156627 C105.748348,53.6345368 105.963565,53.4203489 106.233393,53.2730923 C106.503222,53.1258359 106.811592,53.0522088 107.158515,53.0522088 Z M112.228214,58.1425702 C111.765651,58.1425702 111.359308,58.038823 111.009173,57.8313254 C110.659039,57.6238276 110.389214,57.3276459 110.199692,56.9427712 C110.010169,56.5578964 109.91541,56.1111136 109.91541,55.6024097 C109.91541,55.0870121 110.010169,54.6368828 110.199692,54.2520081 C110.389214,53.8671333 110.659039,53.5709516 111.009173,53.3634538 C111.359308,53.1559561 111.765651,53.0522088 112.228214,53.0522088 C112.690777,53.0522088 113.09712,53.1559561 113.447254,53.3634538 C113.797389,53.5709516 114.067213,53.8671333 114.256736,54.2520081 C114.446258,54.6368828 114.541018,55.0870121 114.541018,55.6024097 C114.541018,56.1111136 114.446258,56.5578964 114.256736,56.9427712 C114.067213,57.3276459 113.797389,57.6238276 113.447254,57.8313254 C113.09712,58.038823 112.690777,58.1425702 112.228214,58.1425702 Z M112.228214,57.3393575 C112.658654,57.3393575 112.987904,57.1921033 113.215974,56.8975903 C113.444043,56.6030775 113.558076,56.1713549 113.558076,55.6024097 C113.558076,55.0401579 113.442437,54.6101085 113.211155,54.312249 C112.979874,54.0143893 112.65223,53.8654618 112.228214,53.8654618 C111.804198,53.8654618 111.476554,54.0143893 111.245272,54.312249 C111.01399,54.6101085 110.898351,55.0401579 110.898351,55.6024097 C110.898351,56.1713549 111.012384,56.6030775 111.240454,56.8975903 C111.468523,57.1921033 111.797773,57.3393575 112.228214,57.3393575 Z M111.495826,52.3895583 C111.425156,52.5100408 111.325578,52.5702812 111.197088,52.5702812 C111.107146,52.5702812 111.028447,52.5368143 110.96099,52.4698796 C110.893533,52.4029448 110.859804,52.3226244 110.859804,52.2289158 C110.859804,52.1552874 110.885502,52.0816603 110.936898,52.0080322 L111.8042,50.7128514 C111.868445,50.6258364 111.932688,50.560576 111.996933,50.5170683 C112.061178,50.4735607 112.138271,50.4518073 112.228214,50.4518073 C112.318157,50.4518073 112.395249,50.4718874 112.459494,50.5120482 C112.523739,50.5522091 112.587983,50.6191428 112.652228,50.7128514 L113.519529,52.0080322 C113.570925,52.0816603 113.596623,52.1552874 113.596623,52.2289158 C113.596623,52.3226244 113.562895,52.4029448 113.495438,52.4698796 C113.42798,52.5368143 113.349282,52.5702812 113.259339,52.5702812 C113.137274,52.5702812 113.037696,52.5100408 112.960602,52.3895583 L112.228214,51.184739 L111.495826,52.3895583 Z M118.174851,53.0522088 C119.299136,53.0522088 119.86127,53.7115062 119.86127,55.0301205 L119.86127,57.6405623 C119.86127,57.7945123 119.817906,57.9133196 119.731175,57.996988 C119.644445,58.0806563 119.523987,58.1224899 119.3698,58.1224899 C119.222036,58.1224899 119.104791,58.078983 119.018061,57.991968 C118.93133,57.9049527 118.887965,57.7878187 118.887965,57.6405623 L118.887965,55.0803214 C118.887965,54.6653259 118.809267,54.3607774 118.651867,54.1666668 C118.494467,53.972556 118.248734,53.8755021 117.91466,53.8755021 C117.522767,53.8755021 117.207971,54.0026761 116.970265,54.2570281 C116.732559,54.5113801 116.613708,54.8527421 116.613708,55.2811246 L116.613708,57.6405623 C116.613708,57.7878187 116.570343,57.9049527 116.483613,57.991968 C116.396882,58.078983 116.279637,58.1224899 116.131874,58.1224899 C115.984111,58.1224899 115.865259,58.078983 115.775316,57.991968 C115.685374,57.9049527 115.640403,57.7878187 115.640403,57.6405623 L115.640403,53.554217 C115.640403,53.4136539 115.68698,53.2981933 115.780135,53.2078313 C115.87329,53.1174694 115.990535,53.0722891 116.131874,53.0722891 C116.273213,53.0722891 116.385639,53.115796 116.469158,53.2028113 C116.552676,53.2898263 116.594435,53.4036139 116.594435,53.5441767 L116.594435,53.9558233 C116.748622,53.6613105 116.963839,53.4370825 117.240092,53.2831326 C117.516345,53.1291826 117.827928,53.0522088 118.174851,53.0522088 Z M125.10443,53.0722891 C125.252193,53.0722891 125.369438,53.1174694 125.456169,53.2078313 C125.542899,53.2981933 125.586264,53.4170006 125.586264,53.564257 L125.586264,57.6807229 C125.586264,58.4303919 125.395138,58.9959821 125.012881,59.3775101 C124.630624,59.759038 124.066884,59.9497991 123.321643,59.9497991 C122.627798,59.9497991 122.049603,59.812585 121.58704,59.5381527 C121.349334,59.3975896 121.230483,59.2302553 121.230483,59.0361445 C121.230483,58.9223556 121.260998,58.8286484 121.322031,58.7550201 C121.383064,58.681392 121.45855,58.6445784 121.548493,58.6445784 C121.632012,58.6445784 121.763712,58.6947787 121.943597,58.7951807 C122.174879,58.9089698 122.390096,58.997657 122.589255,59.0612451 C122.788414,59.1248329 123.026117,59.1566264 123.30237,59.1566264 C124.188949,59.1566264 124.632232,58.691437 124.632232,57.7610442 L124.632232,56.9879518 C124.497318,57.2824646 124.291737,57.5117127 124.015484,57.6757029 C123.739231,57.8396929 123.418012,57.9216867 123.051816,57.9216867 C122.640649,57.9216867 122.274458,57.8212861 121.953234,57.620482 C121.63201,57.4196778 121.383064,57.1352094 121.206391,56.7670683 C121.029718,56.3989272 120.941382,55.9738981 120.941382,55.4919678 C120.941382,55.0100378 121.031324,54.5850086 121.211209,54.2168675 C121.391095,53.8487264 121.64004,53.5625847 121.958052,53.3584338 C122.276065,53.1542827 122.640649,53.0522088 123.051816,53.0522088 C123.411587,53.0522088 123.727989,53.1325293 124.001029,53.2931726 C124.27407,53.4538162 124.481257,53.6813909 124.622596,53.9759037 L124.622596,53.554217 C124.622596,53.4069606 124.66596,53.2898263 124.752691,53.2028113 C124.839421,53.115796 124.956667,53.0722891 125.10443,53.0722891 Z M123.283096,57.118474 C123.700688,57.118474 124.028332,56.9745663 124.266038,56.6867471 C124.503744,56.3989276 124.622596,56.0006719 124.622596,55.4919678 C124.622596,54.9899574 124.50535,54.5933749 124.270857,54.3022088 C124.036363,54.0110427 123.707113,53.8654618 123.283096,53.8654618 C122.85908,53.8654618 122.526618,54.0093693 122.2857,54.2971888 C122.044781,54.5850082 121.924324,54.9832639 121.924324,55.4919678 C121.924324,56.0006719 122.046387,56.3989276 122.290518,56.6867471 C122.534649,56.9745663 122.865505,57.118474 123.283096,57.118474 Z M134.925817,53.0522088 C135.979433,53.0522088 136.506233,53.7115062 136.506233,55.0301205 L136.506233,57.6405623 C136.506233,57.7945123 136.461262,57.9133196 136.37132,57.996988 C136.281377,58.0806563 136.162525,58.1224899 136.014762,58.1224899 C135.873423,58.1224899 135.757784,58.0806563 135.667842,57.996988 C135.577899,57.9133196 135.532928,57.7945123 135.532928,57.6405623 L135.532928,55.0401607 C135.532928,54.6318588 135.46226,54.335677 135.320921,54.1516065 C135.179582,53.9675359 134.957941,53.8755021 134.65599,53.8755021 C134.302643,53.8755021 134.023182,54.0010028 133.817598,54.2520081 C133.612015,54.5030134 133.509224,54.8460487 133.509224,55.2811246 L133.509224,57.6405623 C133.509224,57.7945123 133.464254,57.9133196 133.374311,57.996988 C133.284368,58.0806563 133.165517,58.1224899 133.017753,58.1224899 C132.876415,58.1224899 132.760776,58.0806563 132.670833,57.996988 C132.58089,57.9133196 132.535919,57.7945123 132.535919,57.6405623 L132.535919,55.0401607 C132.535919,54.6318588 132.465251,54.335677 132.323912,54.1516065 C132.182573,53.9675359 131.960932,53.8755021 131.658981,53.8755021 C131.305634,53.8755021 131.024567,54.0010028 130.815771,54.2520081 C130.606975,54.5030134 130.502579,54.8460487 130.502579,55.2811246 L130.502579,57.6405623 C130.502579,57.7945123 130.457608,57.9133196 130.367665,57.996988 C130.277723,58.0806563 130.162083,58.1224899 130.020745,58.1224899 C129.879406,58.1224899 129.762161,58.0806563 129.669006,57.996988 C129.575851,57.9133196 129.529274,57.7945123 129.529274,57.6405623 L129.529274,53.554217 C129.529274,53.4069606 129.577457,53.2898263 129.673824,53.2028113 C129.770191,53.115796 129.88583,53.0722891 130.020745,53.0722891 C130.155659,53.0722891 130.26648,53.1141227 130.35321,53.1977913 C130.439941,53.2814596 130.483306,53.3969203 130.483306,53.5441767 L130.483306,53.9156627 C130.624644,53.6345368 130.820588,53.4203489 131.071143,53.2730923 C131.321698,53.1258359 131.610796,53.0522088 131.938445,53.0522088 C132.298216,53.0522088 132.595344,53.1291826 132.829838,53.2831326 C133.064332,53.4370825 133.239397,53.6746973 133.355037,53.995984 C133.496376,53.7081645 133.705169,53.4789165 133.981422,53.3082329 C134.257675,53.1375493 134.57247,53.0522088 134.925817,53.0522088 Z M138.347643,58.1224899 C138.206304,58.1224899 138.089059,58.0823297 137.995904,58.002008 C137.902749,57.9216863 137.856172,57.8012056 137.856172,57.6405623 L137.856172,53.564257 C137.856172,53.4036137 137.902749,53.2814596 137.995904,53.1977913 C138.089059,53.1141227 138.206304,53.0722891 138.347643,53.0722891 C138.488982,53.0722891 138.604621,53.1141227 138.694563,53.1977913 C138.784506,53.2814596 138.829477,53.4036137 138.829477,53.564257 L138.829477,57.6405623 C138.829477,57.8012056 138.784506,57.9216863 138.694563,58.002008 C138.604621,58.0823297 138.488982,58.1224899 138.347643,58.1224899 Z M138.347643,52.0883535 C138.161333,52.0883535 138.013572,52.0348065 137.904355,51.927711 C137.795139,51.8206152 137.740532,51.6800544 137.740532,51.5060241 C137.740532,51.3319938 137.795139,51.1931063 137.904355,51.0893574 C138.013572,50.9856085 138.161333,50.9337349 138.347643,50.9337349 C138.527528,50.9337349 138.673683,50.9856085 138.786112,51.0893574 C138.898541,51.1931063 138.954754,51.3319938 138.954754,51.5060241 C138.954754,51.6800544 138.900147,51.8206152 138.79093,51.927711 C138.681714,52.0348065 138.533953,52.0883535 138.347643,52.0883535 Z M142.742774,53.0522088 C143.867059,53.0522088 144.429194,53.7115062 144.429194,55.0301205 L144.429194,57.6405623 C144.429194,57.7945123 144.385829,57.9133196 144.299098,57.996988 C144.212368,58.0806563 144.09191,58.1224899 143.937723,58.1224899 C143.789959,58.1224899 143.672714,58.078983 143.585984,57.991968 C143.499253,57.9049527 143.455888,57.7878187 143.455888,57.6405623 L143.455888,55.0803214 C143.455888,54.6653259 143.37719,54.3607774 143.21979,54.1666668 C143.06239,53.972556 142.816657,53.8755021 142.482583,53.8755021 C142.09069,53.8755021 141.775894,54.0026761 141.538188,54.2570281 C141.300482,54.5113801 141.181631,54.8527421 141.181631,55.2811246 L141.181631,57.6405623 C141.181631,57.7878187 141.138266,57.9049527 141.051536,57.991968 C140.964805,58.078983 140.84756,58.1224899 140.699797,58.1224899 C140.552033,58.1224899 140.433182,58.078983 140.34324,57.991968 C140.253297,57.9049527 140.208326,57.7878187 140.208326,57.6405623 L140.208326,53.554217 C140.208326,53.4136539 140.254903,53.2981933 140.348058,53.2078313 C140.441213,53.1174694 140.558458,53.0722891 140.699797,53.0722891 C140.841135,53.0722891 140.953562,53.115796 141.037081,53.2028113 C141.120599,53.2898263 141.162358,53.4036139 141.162358,53.5441767 L141.162358,53.9558233 C141.316545,53.6613105 141.531762,53.4370825 141.808015,53.2831326 C142.084268,53.1291826 142.395851,53.0522088 142.742774,53.0522088 Z M148.323217,53.0522088 C149.441078,53.0522088 150,53.7115062 150,55.0301205 L150,57.6405623 C150,57.7878187 149.955029,57.9049527 149.865086,57.991968 C149.775143,58.078983 149.656292,58.1224899 149.508529,58.1224899 C149.360766,58.1224899 149.243521,58.078983 149.15679,57.991968 C149.07006,57.9049527 149.026695,57.7878187 149.026695,57.6405623 L149.026695,55.0401607 C149.026695,54.6385522 148.947996,54.3440438 148.790596,54.1566265 C148.633196,53.9692093 148.387463,53.8755021 148.05339,53.8755021 C147.661496,53.8755021 147.346701,54.0026761 147.108995,54.2570281 C146.871289,54.5113801 146.752437,54.8527421 146.752437,55.2811246 L146.752437,57.6405623 C146.752437,57.7878187 146.709073,57.9049527 146.622342,57.991968 C146.535612,58.078983 146.418366,58.1224899 146.270603,58.1224899 C146.12284,58.1224899 146.003989,58.078983 145.914046,57.991968 C145.824103,57.9049527 145.779132,57.7878187 145.779132,57.6405623 L145.779132,51.4257028 C145.779132,51.2784464 145.825709,51.1613124 145.918864,51.0742971 C146.012019,50.9872821 146.132477,50.9437752 146.28024,50.9437752 C146.421579,50.9437752 146.535612,50.9856087 146.622342,51.0692771 C146.709073,51.1529457 146.752437,51.2650597 146.752437,51.4056225 L146.752437,53.9156627 C146.91305,53.6345368 147.128267,53.4203489 147.398095,53.2730923 C147.667924,53.1258359 147.976294,53.0522088 148.323217,53.0522088 Z" id="Gii-php-tip-cn-y"></path>
        </g>
    </g>
</svg>