<svg id="Layer_1" data-name="Layer 1" xmlns="http://www.w3.org/2000/svg" viewBox="0 0 274 44"><defs><style>.cls-1{fill:#006eb7;}.cls-2{fill:#e31d42;}.cls-3{fill:#e12043;}.cls-4{fill:#086fb8;}</style></defs><title>logo-color</title><path class="cls-1" d="M2.43,16.91,2.7,16a2.89,2.89,0,0,1,.15-.41.62.62,0,0,1,.42-.34.55.55,0,0,1,.3,0,.57.57,0,0,1,.28.18.58.58,0,0,1,.14.3.65.65,0,0,1,.31-.27.59.59,0,0,1,.39,0,.73.73,0,0,1,.29.17.66.66,0,0,1,.18.28.7.7,0,0,1,0,.35q0,.12-.15.58l-.24.81ZM3,16.54l.55.16.09-.31q.08-.28.09-.35a.33.33,0,0,0,0-.22.26.26,0,0,0-.16-.12.27.27,0,0,0-.2,0,.29.29,0,0,0-.14.16s-.06.18-.13.41Zm.94.28.63.19.13-.44a2.28,2.28,0,0,0,.08-.33.31.31,0,0,0,0-.2.3.3,0,0,0-.18-.13.32.32,0,0,0-.2,0,.3.3,0,0,0-.15.12,1.71,1.71,0,0,0-.16.41Z"/><path class="cls-1" d="M5.53,15.23l-2.24-1L4,12.55l.38.17-.55,1.21.5.23L4.88,13l.38.17-.51,1.13.61.28.57-1.25.38.17Zm-2-2,0,.22-.14.3,0-.42.12-.27.35-.24-.14.3Zm3,1.59L6,14.65l.2-.43.43.2Z"/><path class="cls-1" d="M6.51,13.15,4.43,11.83l.26-.41,1.93,0-1.39-.88.25-.39L7.55,11.5l-.27.42-1.89,0,1.36.86Z"/><path class="cls-1" d="M7.85,11.11,6,9.5l.32-.38L7,9.76,7.67,9l-.74-.63L7.25,8l1.87,1.6L8.8,10,8,9.29,7.35,10l.82.7Z"/><path class="cls-1" d="M10.72,8.17,8.51,6.78l.42-.33,1.62,1L9.9,5.69l.41-.33.83,2.48Z"/><path class="cls-1" d="M12.05,7.2,10.72,5.12l.42-.27,1.33,2.07Z"/><path class="cls-1" d="M12.87,6.66,11.74,4.47l1.62-.84.19.37-1.18.61.25.49,1.1-.57.19.37-1.1.57.31.6,1.22-.63.19.37ZM12.5,3.85,12.4,4l-.29.15.23-.36.27-.14.43,0-.29.15Zm1.33,3.08-.22-.42L14,6.29l.22.42Z"/><path class="cls-1" d="M14.94,5.63,14.13,3.3l.46-.16,1.49,1.22-.54-1.55L16,2.66,16.79,5l-.47.16L14.85,4l.53,1.52Z"/><path class="cls-1" d="M18.8,4.56l-.29-2-.72.1-.06-.41,1.94-.28.06.41-.72.1.29,2Z"/><path class="cls-1" d="M20.33,4.37l0-2.46,1,0a1.81,1.81,0,0,1,.58.06.57.57,0,0,1,.29.23.71.71,0,0,1,.11.39.66.66,0,0,1-.16.46.78.78,0,0,1-.48.24,1.15,1.15,0,0,1,.27.2,2.76,2.76,0,0,1,.29.4l.31.48H22l-.37-.53a3.4,3.4,0,0,0-.27-.36.38.38,0,0,0-.15-.1.8.8,0,0,0-.25,0h-.1l0,1Zm.47-1.43h.37a1.91,1.91,0,0,0,.45,0,.27.27,0,0,0,.14-.11.32.32,0,0,0,0-.19.3.3,0,0,0-.07-.2.3.3,0,0,0-.19-.09H20.8Z"/><path class="cls-1" d="M25.23,2.22l.47.07,0,.33a1.16,1.16,0,0,1-.08.32.49.49,0,0,1-.16.19.87.87,0,0,1-.5.13l0,.22a3.4,3.4,0,0,1-.13.62.7.7,0,0,1-.19.29,1,1,0,0,1-.8.17A1,1,0,0,1,23,4.13a.68.68,0,0,1-.1-.29,3,3,0,0,1,0-.63l.18-1.3.49.07-.19,1.32a2.71,2.71,0,0,0,0,.41q0,.34.43.4t.49-.23a2.82,2.82,0,0,0,.08-.41l.19-1.35.49.07-.12.87a.52.52,0,0,0,.36-.13.4.4,0,0,0,.09-.22l-.23,0Z"/><path class="cls-1" d="M25.57,4.8l.72-2.36.46.14.49,1.87.48-1.57.44.13-.72,2.36L27,5.23,26.48,3.4,26,4.94Z"/><path class="cls-1" d="M29.35,5.23l.18-.37,1,.46-.42.89a1.34,1.34,0,0,1-.52,0A1.65,1.65,0,0,1,29,6.09a1.35,1.35,0,0,1-.54-.44,1,1,0,0,1-.19-.6,1.5,1.5,0,0,1,.15-.65,1.42,1.42,0,0,1,.44-.55,1.09,1.09,0,0,1,.62-.21,1.28,1.28,0,0,1,.59.14,1.18,1.18,0,0,1,.56.48.87.87,0,0,1,.07.62l-.49-.13a.52.52,0,0,0-.05-.34.59.59,0,0,0-.28-.25.67.67,0,0,0-.56,0,.87.87,0,0,0-.44.47,1,1,0,0,0-.11.68.65.65,0,0,0,.37.42.86.86,0,0,0,.31.08,1.06,1.06,0,0,0,.31,0l.14-.28Z"/><path class="cls-1" d="M31.64,7.66l.79-2.5.43.33-.6,1.83,1.58-1.09.42.32L32.07,8Z"/><path class="cls-1" d="M36.22,8.48l.33.34-.24.24a1.17,1.17,0,0,1-.26.2.49.49,0,0,1-.24.05.86.86,0,0,1-.47-.2l-.16.16a3.43,3.43,0,0,1-.48.41.7.7,0,0,1-.32.11,1,1,0,0,1-.73-.35,1,1,0,0,1-.37-.79.67.67,0,0,1,.1-.29,3,3,0,0,1,.41-.47L34.72,7l.35.36-1,.93a2.73,2.73,0,0,0-.28.3.42.42,0,0,0,.1.58q.28.28.53.11A2.79,2.79,0,0,0,34.77,9l1-1,.35.36L35.47,9a.52.52,0,0,0,.36.12A.4.4,0,0,0,36,9l-.16-.16Z"/><path class="cls-1" d="M38.19,11.13l.27.39-.28.19a1.17,1.17,0,0,1-.29.16.48.48,0,0,1-.25,0,.69.69,0,0,1-.26-.11l-.17.13a1.3,1.3,0,0,1-.95.27,1.14,1.14,0,0,1-.77-.52,1.16,1.16,0,0,1-.22-.91,1.28,1.28,0,0,1,.57-.79,1.33,1.33,0,0,1,1-.27,1.13,1.13,0,0,1,.75.51,1.16,1.16,0,0,1,.22.91,1.14,1.14,0,0,1-.26.52.34.34,0,0,0,.39,0l-.13-.19Zm-2-.78a1,1,0,0,0-.41.52.67.67,0,0,0,.56.8,1,1,0,0,0,.64-.21,1,1,0,0,0,.41-.51.69.69,0,0,0-.57-.81A1,1,0,0,0,36.16,10.35Z"/><path class="cls-1" d="M36.53,13.15l2.22-1.07.21.44-1,1.62,1.48-.72.2.42-2.22,1.07-.22-.45,1-1.59-1.45.7Z"/><path class="cls-1" d="M38.78,16.21l.4-.12.32,1-.94.29a1.35,1.35,0,0,1-.39-.35,1.65,1.65,0,0,1-.29-.54,1.35,1.35,0,0,1,0-.69,1,1,0,0,1,.32-.55,1.5,1.5,0,0,1,.58-.33,1.42,1.42,0,0,1,.7,0,1.09,1.09,0,0,1,.58.32,1.27,1.27,0,0,1,.29.53,1.17,1.17,0,0,1,0,.74.87.87,0,0,1-.41.47l-.23-.44a.53.53,0,0,0,.22-.27.59.59,0,0,0,0-.37.67.67,0,0,0-.35-.43.87.87,0,0,0-.64,0,1,1,0,0,0-.57.38.65.65,0,0,0-.06.55.86.86,0,0,0,.15.28,1.09,1.09,0,0,0,.22.21l.3-.09Z"/><circle class="cls-2" cx="21.52" cy="13.05" r="2.56"/><path class="cls-2" d="M31.6,15.23c-1.5.48-4.34,1.88-5.56,3.45-.2.25-.18.27.13.06,1.12-.77,3.82-1.22,4.35,0,1,2.19-3.25,8.08-5.62,11.16L24,31c-.39.49-.5.2-.58.07-1.76-3-1.15-7.25.49-10.62,1.48-3,4.42-5.45,8.93-6.23-4.83-.64-8.72.75-11.33,3.32-2.61-2.58-6.5-4-11.33-3.32,4.51.78,7.45,3.18,8.93,6.23,1.64,3.37,2.25,7.58.49,10.62-.07.13-.18.42-.58-.07l-.89-1.14c-2.36-3.08-6.58-9-5.62-11.16.53-1.21,3.23-.76,4.35,0,.31.21.33.2.13-.06-1.21-1.57-4.05-3-5.56-3.45-6-1.92-5.06,3-3.88,5.72,1.81,4.2,8.52,13,14,16.89C27,33.94,33.67,25.16,35.48,21,36.66,18.22,37.64,13.32,31.6,15.23Z"/><path class="cls-1" d="M21.52,42.21A20.68,20.68,0,0,0,39.28,32.14c-5.57-.62-13.18,1-17.76,7.79-4.58-6.78-12.19-8.4-17.76-7.79A20.68,20.68,0,0,0,21.52,42.21Z"/><path class="cls-1" d="M21.52,0A21.52,21.52,0,0,0,2.87,32.26l.89-.12a20.69,20.69,0,1,1,35.52,0l.89.12A21.52,21.52,0,0,0,21.52,0Z"/><path class="cls-1" d="M21.52,44A22.47,22.47,0,0,0,41.17,32.45q-.48-.11-1-.19a21.53,21.53,0,0,1-37.3,0q-.51.08-1,.19A22.48,22.48,0,0,0,21.52,44Z"/><path class="cls-1" d="M27.3,33.75q.61-.33,1.25-.62a20.79,20.79,0,0,1,8.52-1.8c.62,0,1.24,0,1.84.08A19.91,19.91,0,0,0,41,26.22,36.28,36.28,0,0,0,27.3,33.75Z"/><path class="cls-1" d="M6,31.34a20.79,20.79,0,0,1,8.52,1.8q.64.29,1.25.62A36.28,36.28,0,0,0,2.07,26.22a19.91,19.91,0,0,0,2.06,5.2C4.74,31.36,5.35,31.34,6,31.34Z"/><path class="cls-3" d="M50.3,19.66V7.87H56a3.71,3.71,0,0,1,2.89,1,2.83,2.83,0,0,1,.72,2,2.66,2.66,0,0,1-.52,1.74,2.45,2.45,0,0,1-.92.66,2.72,2.72,0,0,1,1.46,1.2,3.3,3.3,0,0,1,.38,1.66,3.33,3.33,0,0,1-.26,1.33,3.54,3.54,0,0,1-2,1.88,8.17,8.17,0,0,1-2.52.3ZM52.66,9.9v2.56h2.89a2.2,2.2,0,0,0,1.23-.3,1.15,1.15,0,0,0,.5-1,1.05,1.05,0,0,0-.45-1,2.6,2.6,0,0,0-1.35-.28Zm0,4.57v3.15h3a2.11,2.11,0,0,0,1.41-.42,1.65,1.65,0,0,0,.48-1.32,1.2,1.2,0,0,0-.51-1.06,2.17,2.17,0,0,0-1.26-.35Z"/><path class="cls-3" d="M71.34,7.87V9.94H65.1v2.49h5.75V14.5H65.1v3.05h6.53v2.1h-9V7.87ZM68.17,4.29,70,6.69H68.2l-1-1.35-1,1.35H64.27l1.87-2.4Zm-.08,16.35v1.9H66v-1.9Z"/><path class="cls-3" d="M81.31,7.87h2.3V19.66H81.15l-4.79-8.41,0,8.41H74V7.87h2.6l4.66,8.21Z"/><path class="cls-3" d="M93.5,14.37H88.9v5.28H86.44V7.87H88.9v4.46h4.6V7.87H96V19.66H93.5Z"/><path class="cls-3" d="M110.53,7.87h2.56l-4,11.78h-2.32l-4-11.78h2.63l2.52,8.93Z"/><path class="cls-3" d="M117.42,7.87V19.66H115V7.87Z"/><path class="cls-3" d="M128.64,7.87V9.94h-6.24v2.49h5.75V14.5h-5.75v3.05h6.53v2.1h-9V7.87Zm-3.17-3.58,1.88,2.4h-1.84l-1-1.35-1,1.35h-1.84l1.87-2.4Zm-.08,16.35v1.9h-2.07v-1.9Z"/><path class="cls-3" d="M138.62,7.87h2.3V19.66h-2.46l-4.79-8.41,0,8.41h-2.3V7.87h2.6l4.66,8.21Z"/><path class="cls-3" d="M153.66,9.94v9.71h-2.47V9.94h-3.57V7.87h9.59V9.94Z"/><path class="cls-3" d="M159.16,19.66V7.87h6a3.58,3.58,0,0,1,3,1.26,3.3,3.3,0,0,1,.69,2.05,3.23,3.23,0,0,1-.48,1.77A2.48,2.48,0,0,1,167,14a2.41,2.41,0,0,1,1.11.83,4.37,4.37,0,0,1,.39,2.16q0,1.22,0,1.7a.7.7,0,0,0,.49.64v.33h-2.73a7.17,7.17,0,0,1-.2-1,11.56,11.56,0,0,1-.07-1.43,3.39,3.39,0,0,0-.28-1.72q-.36-.51-1.66-.51h-2.52v4.63Zm2.43-6.6h2.89a2.24,2.24,0,0,0,1.44-.38,1.51,1.51,0,0,0,.46-1.23,1.5,1.5,0,0,0-.33-1,1.71,1.71,0,0,0-1.41-.54h-3.05Z"/><path class="cls-3" d="M180.9,8.36a.84.84,0,0,0,.41-.4,2,2,0,0,0,.08-.65h-.85V6h1.93V7.35q0,1.22-1.57,2v6.17a4.24,4.24,0,0,1-1.3,3.4A5.29,5.29,0,0,1,176,20a6.1,6.1,0,0,1-1.88-.28,4.17,4.17,0,0,1-1.87-1.16,4.22,4.22,0,0,1-.92-2.86V7.87h2.52v7.65a2.41,2.41,0,0,0,.59,1.76,2,2,0,0,0,1.51.6,2.42,2.42,0,0,0,1.78-.58,2.3,2.3,0,0,0,.57-1.69V7.87h2.53Z"/><path class="cls-3" d="M190.57,7.87h2.3V19.66h-2.46l-4.79-8.41,0,8.41h-2.3V7.87h2.6l4.66,8.21Z"/><path class="cls-3" d="M201.31,15.29v-2h4.92v6.37h-1.64l-.26-1.47a7,7,0,0,1-1.25,1.16,4.42,4.42,0,0,1-2.43.64,5,5,0,0,1-3.76-1.55,6.4,6.4,0,0,1-1.66-4.66,6.61,6.61,0,0,1,1.39-4.32A5.37,5.37,0,0,1,201,7.55a5.47,5.47,0,0,1,3.92,1.38,3.49,3.49,0,0,1,1.23,2.59h-2.46a1.73,1.73,0,0,0-.62-1.13,2.61,2.61,0,0,0-1.94-.8,3.05,3.05,0,0,0-2.35,1,4.67,4.67,0,0,0-1,3.25A4.27,4.27,0,0,0,198.84,17a3.21,3.21,0,0,0,2.34.84,2.64,2.64,0,0,0,1.85-.7,3.43,3.43,0,0,0,1-1.9Z"/><path class="cls-3" d="M220.7,7.87h2.56l-4,11.78h-2.32l-4-11.78h2.63l2.53,8.93Z"/><path class="cls-3" d="M234.69,8.36a.84.84,0,0,0,.41-.4,2,2,0,0,0,.08-.65h-.85V6h1.93V7.35q0,1.22-1.57,2v6.17a4.24,4.24,0,0,1-1.3,3.4A5.29,5.29,0,0,1,229.83,20,6.1,6.1,0,0,1,228,19.7a4.17,4.17,0,0,1-1.87-1.16,4.22,4.22,0,0,1-.92-2.86V7.87h2.52v7.65a2.41,2.41,0,0,0,.59,1.76,2,2,0,0,0,1.51.6,2.42,2.42,0,0,0,1.78-.58,2.3,2.3,0,0,0,.57-1.69V7.87h2.53Z"/><path class="cls-3" d="M245.94,8.72a1.19,1.19,0,0,0,.53-.58,1.89,1.89,0,0,0,.19-.8h-.85V6h1.94V7.38a2.47,2.47,0,0,1-.2,1.08,2,2,0,0,1-1,.89,4.82,4.82,0,0,1,1,1.8,8.6,8.6,0,0,1,.34,2.6,6.86,6.86,0,0,1-1.11,4.07,5,5,0,0,1-2.38,1.77,6.17,6.17,0,0,1-2.15.39,6.29,6.29,0,0,1-2.17-.38,5,5,0,0,1-2.38-1.76,6.89,6.89,0,0,1-1.13-4.1,6.76,6.76,0,0,1,1.11-4.06,4.84,4.84,0,0,1,2.38-1.76,6.38,6.38,0,0,1,2.19-.39,6.71,6.71,0,0,1,1.63.19A5.34,5.34,0,0,1,245.94,8.72Zm-6.86,5a4.46,4.46,0,0,0,1.1,3.31,2.91,2.91,0,0,0,2.12.83,2.86,2.86,0,0,0,2.08-.83,4.47,4.47,0,0,0,1.1-3.31,4.4,4.4,0,0,0-1.1-3.29,2.87,2.87,0,0,0-2.08-.82,2.94,2.94,0,0,0-2.11.82A4.39,4.39,0,0,0,239.08,13.75Z"/><path class="cls-3" d="M256.77,7.87h2.3V19.66h-2.46l-4.79-8.41,0,8.41h-2.3V7.87h2.6l4.66,8.21Z"/><path class="cls-3" d="M267.51,15.29v-2h4.92v6.37h-1.64l-.26-1.47a7,7,0,0,1-1.25,1.16,4.42,4.42,0,0,1-2.43.64,5,5,0,0,1-3.76-1.55,6.4,6.4,0,0,1-1.66-4.66,6.61,6.61,0,0,1,1.39-4.32,5.37,5.37,0,0,1,4.38-1.92,5.47,5.47,0,0,1,3.92,1.38,3.49,3.49,0,0,1,1.23,2.59H269.9a1.73,1.73,0,0,0-.62-1.13,2.61,2.61,0,0,0-1.94-.8,3.05,3.05,0,0,0-2.35,1,4.67,4.67,0,0,0-1,3.25A4.27,4.27,0,0,0,265,17a3.21,3.21,0,0,0,2.34.84,2.64,2.64,0,0,0,1.85-.7,3.43,3.43,0,0,0,1-1.9Z"/><path class="cls-4" d="M51.14,33.95l-.28.21a5.33,5.33,0,0,1-1.11-2.95,4.46,4.46,0,0,1,.62-2.2A5.69,5.69,0,0,1,52,27.15a8.37,8.37,0,0,1,4.89-1.25q1.11,0,2.57.1,3.42.24,4.27.24c.28,0,.42.06.42.17A2.34,2.34,0,0,1,64,27q-.16.42-.31.91a.66.66,0,0,1-.61.43q-.42,0-1.25-.05t-1.25-.05l-2.32-.14q-.49,0-1.13-.05-1.51-.12-1.93-.12-5,0-5,3.33A5.67,5.67,0,0,0,51.14,33.95Zm5.52,0-.14.35a4.23,4.23,0,0,0-1.7-.35,3.68,3.68,0,0,0-2.2.66,1.92,1.92,0,0,0-.92,1.6,1.25,1.25,0,0,0,.56,1,2.31,2.31,0,0,0,1.42.42,3.4,3.4,0,0,0,2.36-1A6.55,6.55,0,0,0,57.49,34a18.3,18.3,0,0,1,1.14-3,6.16,6.16,0,0,1,3-2.52l.21.21a8.22,8.22,0,0,0-.68,2.06q-.45,2-.61,2.52a7.48,7.48,0,0,1-1.21,2.43,5.52,5.52,0,0,1-2.39,1.77A7.78,7.78,0,0,1,54,38a3.25,3.25,0,0,1-2-.52,1.71,1.71,0,0,1-.7-1.46,2.45,2.45,0,0,1,.88-1.87,3,3,0,0,1,2.06-.8A5.54,5.54,0,0,1,56.65,33.95Z"/><path class="cls-4" d="M66.82,30.86,64.94,36.1c0,.12-.07.24-.1.37a1.55,1.55,0,0,0,0,.29q0,.59.69.59a2.72,2.72,0,0,0,1.44-.54l.78-.54.17.17a5.3,5.3,0,0,1-1.59,1,4.75,4.75,0,0,1-1.74.32,3.46,3.46,0,0,1-1.66-.33,1,1,0,0,1-.6-.92,2.38,2.38,0,0,1,.17-.8L64,31.45Zm-.66-3.37a6.22,6.22,0,0,0,1.08,2.33l-1,0-1.44-1.11a12.7,12.7,0,0,1-1.34-1.25Z"/><path class="cls-4" d="M71.92,31l-2.29,6.11v.21s.09-.06.17-.17a31.92,31.92,0,0,1,2-3.9q1.57-2.38,3.31-2.38a1.48,1.48,0,0,1,1,.29,1,1,0,0,1,.37.82,1.17,1.17,0,0,1,0,.23q0,.09-.12.4l-1.35,3.3a2,2,0,0,0-.21.73q0,.59.73.59a3,3,0,0,0,1.44-.47l.82-.5.14.21a7,7,0,0,1-1.68,1,4.72,4.72,0,0,1-1.72.32,2.53,2.53,0,0,1-1.54-.41,1.32,1.32,0,0,1-.55-1.12,2.29,2.29,0,0,1,.21-.94l1.53-3.75.07-.17-.07,0a.42.42,0,0,0-.21.1,8.87,8.87,0,0,0-1.46,1.61,19.48,19.48,0,0,0-1.21,2q-.45.83-1,2a1.37,1.37,0,0,1-.44.58,1.34,1.34,0,0,1-.7.15q-1.56,0-1.56-1.21a2.92,2.92,0,0,1,.2-.94l1.54-4.09Z"/><path class="cls-4" d="M83.44,26.1,79.31,37.21l0,.14,0,.07.14-.14L80,36.07A20.89,20.89,0,0,1,81.2,34a9.66,9.66,0,0,1,1.7-2.08,3.22,3.22,0,0,1,2.1-1,1.48,1.48,0,0,1,.95.27.9.9,0,0,1,.34.74,2.18,2.18,0,0,1-.07.5c0,.19-.1.39-.17.58L84.82,36a2.88,2.88,0,0,0-.17.87q0,.56.59.56a2.43,2.43,0,0,0,1-.21q.16-.07,1.44-.83l.14.21a7,7,0,0,1-1.65,1,4.6,4.6,0,0,1-1.75.36,2.66,2.66,0,0,1-1.53-.4,1.23,1.23,0,0,1-.59-1.06,2.33,2.33,0,0,1,.09-.55q.09-.34.19-.67L84,31.66l.07-.17-.07,0s-.17.09-.36.28-.38.39-.68.73a21,21,0,0,0-1.68,2.27q-.59.88-1.47,2.45a1.37,1.37,0,0,1-.47.57,2,2,0,0,1-.85.12,1.39,1.39,0,0,1-1-.35,1.16,1.16,0,0,1-.38-.9,2.15,2.15,0,0,1,.21-.87l3.37-9.09Z"/><path class="cls-4" d="M94.78,28.36l2.78-.56-1.32,3.68h1.32l-.49.69H96l-1.39,4a1.92,1.92,0,0,0-.1.3,1.27,1.27,0,0,0,0,.3q0,.59.66.59A3.41,3.41,0,0,0,96.51,37a8.76,8.76,0,0,0,1.25-.69l.14.21a6.42,6.42,0,0,1-3.75,1.28,2.76,2.76,0,0,1-1.53-.36,1.16,1.16,0,0,1-.56-1,1.54,1.54,0,0,1,0-.3l.11-.5,1.25-3.43h-1l.49-.69h.73Z"/><path class="cls-4" d="M103.77,26.1,99.64,37.21l0,.14,0,.07.14-.14.59-1.21a20.89,20.89,0,0,1,1.16-2.1,9.66,9.66,0,0,1,1.7-2.08,3.22,3.22,0,0,1,2.1-1,1.48,1.48,0,0,1,.95.27.9.9,0,0,1,.34.74,2.18,2.18,0,0,1-.07.5c0,.19-.1.39-.17.58L105.15,36a2.88,2.88,0,0,0-.17.87q0,.56.59.56a2.43,2.43,0,0,0,1-.21q.16-.07,1.44-.83l.14.21a7,7,0,0,1-1.65,1,4.6,4.6,0,0,1-1.75.36,2.66,2.66,0,0,1-1.53-.4,1.23,1.23,0,0,1-.59-1.06,2.33,2.33,0,0,1,.09-.55q.09-.34.19-.67l1.42-3.52.07-.17-.07,0s-.17.09-.36.28-.38.39-.68.73a21,21,0,0,0-1.68,2.27q-.59.88-1.47,2.45a1.37,1.37,0,0,1-.47.57,2,2,0,0,1-.85.12,1.39,1.39,0,0,1-1-.35,1.16,1.16,0,0,1-.38-.9,2.15,2.15,0,0,1,.21-.87L101,26.66Z"/><path class="cls-4" d="M115.53,32.57l-1.15,3.28a2.91,2.91,0,0,0-.21.94.49.49,0,0,0,.56.56,4.21,4.21,0,0,0,2.15-1.08l.17.21a6.26,6.26,0,0,1-1.59,1,4.29,4.29,0,0,1-1.57.29,3.28,3.28,0,0,1-1.17-.17,1.38,1.38,0,0,1-.7-.62,5,5,0,0,1-1.27.61,4.68,4.68,0,0,1-1.37.19,2.3,2.3,0,0,1-1.37-.36,1.16,1.16,0,0,1-.5-1,2.35,2.35,0,0,1,0-.31c0-.08.05-.28.12-.59L109,31.56l2.6-.52-1.67,4.82a2.74,2.74,0,0,0-.24.92q0,.57.59.57a2,2,0,0,0,.75-.19,5.6,5.6,0,0,0,.92-.51V36.4a4.74,4.74,0,0,1,.17-.92l1.37-3.92,2.58-.53-.35.9a3,3,0,0,0,.64-.67,1.28,1.28,0,0,0,.23-.72q0-.59-.45-.59H116l-.1-.21,1.73-.94a1.13,1.13,0,0,1,.56.91,2.4,2.4,0,0,1-.94,1.78,5.18,5.18,0,0,1-.9.63Q116,32.35,115.53,32.57Z"/><path class="cls-4" d="M123.82,31.8a2.91,2.91,0,0,0,.66-.63,1.12,1.12,0,0,0,.21-.66.64.64,0,0,0-.19-.43l-.23-.19,1.53-1.15a1.23,1.23,0,0,1,.59.94,1.91,1.91,0,0,1-.26.91,3,3,0,0,1-.71.86,8.37,8.37,0,0,1-.75.47l-.78.4v.17a5.87,5.87,0,0,1-.13,1.26A4.62,4.62,0,0,1,123.3,35a2.6,2.6,0,0,0,1.08.23,3.51,3.51,0,0,0,.65,0,4.49,4.49,0,0,0,.67-.21l.07.26a2.61,2.61,0,0,1-.64.22,3.47,3.47,0,0,1-.64.06,4.85,4.85,0,0,1-.68,0,2.44,2.44,0,0,1-.61-.19,5.39,5.39,0,0,1-1.71,2,4.1,4.1,0,0,1-2.28.62,3.31,3.31,0,0,1-2-.49,1.79,1.79,0,0,1-.64-1.53,4.63,4.63,0,0,1,.82-2.54,5.37,5.37,0,0,1,2.06-1.9,4.35,4.35,0,0,1,.78-.35,2.24,2.24,0,0,1,.68-.14c.12,0,.17,0,.17.14a18.16,18.16,0,0,0-1.44,2.79,7.43,7.43,0,0,0-.68,2.72q0,.9.69.9a1.92,1.92,0,0,0,1.47-1,10.79,10.79,0,0,0,.88-1.72,3.74,3.74,0,0,1-1-2.5,2.29,2.29,0,0,1,.36-1.37,1.16,1.16,0,0,1,1-.5,1.21,1.21,0,0,1,.91.39A2.13,2.13,0,0,1,123.82,31.8Zm-1.67,2.46a9.9,9.9,0,0,0,.18-1,7.49,7.49,0,0,0,.06-.95q0-1.56-.49-1.56-.21,0-.35.29a1.83,1.83,0,0,0-.14.79,4.57,4.57,0,0,0,.21,1.29A3.79,3.79,0,0,0,122.15,34.26Z"/><path class="cls-4" d="M129.44,31l-2.29,6.11v.21s.09-.06.17-.17a31.92,31.92,0,0,1,2-3.9q1.57-2.38,3.31-2.38a1.48,1.48,0,0,1,1,.29,1,1,0,0,1,.37.82,1.17,1.17,0,0,1,0,.23q0,.09-.12.4l-1.35,3.3a2,2,0,0,0-.21.73q0,.59.73.59a3,3,0,0,0,1.44-.47l.82-.5.14.21a7,7,0,0,1-1.68,1,4.72,4.72,0,0,1-1.72.32,2.53,2.53,0,0,1-1.54-.41,1.32,1.32,0,0,1-.55-1.12,2.29,2.29,0,0,1,.21-.94l1.53-3.75.07-.17-.07,0a.42.42,0,0,0-.21.1,8.87,8.87,0,0,0-1.46,1.61,19.48,19.48,0,0,0-1.21,2q-.45.83-1,2a1.37,1.37,0,0,1-.44.58,1.34,1.34,0,0,1-.7.15q-1.56,0-1.56-1.21a2.92,2.92,0,0,1,.2-.94l1.54-4.09Z"/><path class="cls-4" d="M143.84,31l-2.43,6.73a13.36,13.36,0,0,0,3.33-1.53l.14.24a14.38,14.38,0,0,1-1.53.9q-.69.35-2.12.9a5.26,5.26,0,0,1-.34.71,3.19,3.19,0,0,1-1.72,1.43,4.09,4.09,0,0,1-1.62.39,1.6,1.6,0,0,1-1-.26.8.8,0,0,1-.36-.68q0-1.25,2.46-1.63l.31-1a3.94,3.94,0,0,1-1.87.42,2.86,2.86,0,0,1-1.67-.42,1.39,1.39,0,0,1-.59-1.21,5.29,5.29,0,0,1,1.37-3.45,4.31,4.31,0,0,1,3.35-1.75,2.89,2.89,0,0,1,1,.14,2.33,2.33,0,0,1,.77.49Zm-5.24,7.53a3.59,3.59,0,0,0-1.44.55,1.1,1.1,0,0,0-.57.87q0,.49.56.49Q138,40.44,138.6,38.53ZM141,31.66a1,1,0,0,0-.87-.52,1.34,1.34,0,0,0-1.1.71,13.86,13.86,0,0,0-1.19,2.72q-.33.94-.42,1.32a2.86,2.86,0,0,0-.1.69.77.77,0,0,0,.21.54.68.68,0,0,0,.52.23,1.9,1.9,0,0,0,1.18-.62Z"/><path class="cls-4" d="M150.88,31.73l2.81-.55-1.84,4.95a2.3,2.3,0,0,0-.17.76.63.63,0,0,0,.66.66,2.16,2.16,0,0,0,1.6-1,13.2,13.2,0,0,0,1-1.69,8.19,8.19,0,0,1-.57-1.2,3.9,3.9,0,0,1-.23-1.3,2,2,0,0,1,.39-1.33,1.3,1.3,0,0,1,1.07-.48,1.27,1.27,0,0,1,1.07.51,2.25,2.25,0,0,1,.39,1.4,6.1,6.1,0,0,1-1,2.95,3.8,3.8,0,0,0,1.87.54h.42v.42l-.35,0a3.27,3.27,0,0,1-2.08-.82,7,7,0,0,1-2,1.74,5.42,5.42,0,0,1-2.62.6,2.67,2.67,0,0,1-1.53-.38,1.23,1.23,0,0,1-.56-1.07,1.46,1.46,0,0,1,.05-.41q.05-.18.23-.63Zm4.2,2.81a7.29,7.29,0,0,0,.4-1.26,5.86,5.86,0,0,0,.12-1.21q0-1.11-.52-1.11c-.14,0-.25.12-.35.36a2.74,2.74,0,0,0-.14,1A6.39,6.39,0,0,0,155.08,34.54Z"/><path class="cls-4" d="M166.87,30.93,165,36a1.71,1.71,0,0,0-.17.59q0,.63.69.63A3.13,3.13,0,0,0,166.6,37a5.25,5.25,0,0,0,1.21-.66l.14.21a5.88,5.88,0,0,1-1.67.93,5.2,5.2,0,0,1-1.79.36,2.24,2.24,0,0,1-1.91-.8,4.39,4.39,0,0,1-2.46.8,2.58,2.58,0,0,1-1.51-.38A1.58,1.58,0,0,1,158,36a4.54,4.54,0,0,1,.43-1.78,6.9,6.9,0,0,1,1.13-1.79,4.11,4.11,0,0,1,3.26-1.53,1.87,1.87,0,0,1,1.46.49Zm-2.84.8a1.09,1.09,0,0,0-.9-.45,1,1,0,0,0-.81.36,6,6,0,0,0-.79,1.51,17.29,17.29,0,0,0-.74,1.91,5.31,5.31,0,0,0-.3,1.32q0,.83.73.83a1.5,1.5,0,0,0,.64-.16l.61-.36-.07-.35a2.64,2.64,0,0,1,.07-.54,3.68,3.68,0,0,1,.1-.36Z"/><path class="cls-4" d="M164.72,27.53a5.1,5.1,0,0,0,.35,1.14,9.52,9.52,0,0,0,.76,1.19l-1,0-1.44-1.11a12.86,12.86,0,0,1-1.34-1.25Z"/><path class="cls-4" d="M174.75,33.95l-.28.21a5.33,5.33,0,0,1-1.11-2.95A4.47,4.47,0,0,1,174,29a5.69,5.69,0,0,1,1.67-1.86,8.37,8.37,0,0,1,4.89-1.25q1.11,0,2.57.1,3.42.24,4.27.24c.28,0,.42.06.42.17a2.31,2.31,0,0,1-.16.53q-.16.42-.31.91a.66.66,0,0,1-.61.43q-.42,0-1.25-.05t-1.25-.05l-2.32-.14q-.49,0-1.13-.05-1.51-.12-1.92-.12-5,0-5,3.33A5.67,5.67,0,0,0,174.75,33.95Zm5.52,0-.14.35a4.23,4.23,0,0,0-1.7-.35,3.68,3.68,0,0,0-2.2.66,1.93,1.93,0,0,0-.92,1.6,1.25,1.25,0,0,0,.55,1,2.31,2.31,0,0,0,1.42.42,3.4,3.4,0,0,0,2.36-1A6.55,6.55,0,0,0,181.1,34a18.34,18.34,0,0,1,1.14-3,6.15,6.15,0,0,1,3-2.52l.21.21a8.18,8.18,0,0,0-.68,2.06q-.45,2-.61,2.52a7.48,7.48,0,0,1-1.21,2.43,5.51,5.51,0,0,1-2.39,1.77,7.78,7.78,0,0,1-2.95.56,3.25,3.25,0,0,1-2-.52,1.71,1.71,0,0,1-.7-1.46,2.45,2.45,0,0,1,.88-1.87,3,3,0,0,1,2.06-.8A5.54,5.54,0,0,1,180.26,33.95Z"/><path class="cls-4" d="M190.25,31,188,37.11l-.07.21.07.07s.08,0,.13-.12a9,9,0,0,0,.39-.92,15.91,15.91,0,0,1,1.53-2.91,2.82,2.82,0,0,1,.62-1.76,1.74,1.74,0,0,1,1.35-.81q.73,0,.73.56a.51.51,0,0,1-.12.31,3.14,3.14,0,0,1-.44.42l-.58.52-.93.9v.35a1.44,1.44,0,0,0,.35,1,1.2,1.2,0,0,0,.94.38,2.39,2.39,0,0,0,.4,0,3,3,0,0,0,.5-.14l.07.42-.36.06h-.3a2.15,2.15,0,0,1-1.29-.41,2.52,2.52,0,0,1-.86-1.15,5.44,5.44,0,0,0-.56.84q-.29.51-1,1.87a3,3,0,0,1-.43.76,1.12,1.12,0,0,1-.81.24,1.83,1.83,0,0,1-1.12-.33,1,1,0,0,1-.44-.84,2.88,2.88,0,0,1,.24-1.06l1.42-4Z"/><path class="cls-4" d="M201.63,30.93,199.76,36a1.71,1.71,0,0,0-.17.59q0,.63.69.63a3.13,3.13,0,0,0,1.08-.24,5.25,5.25,0,0,0,1.21-.66l.14.21a5.88,5.88,0,0,1-1.67.93,5.2,5.2,0,0,1-1.79.36,2.24,2.24,0,0,1-1.91-.8,4.39,4.39,0,0,1-2.46.8,2.58,2.58,0,0,1-1.51-.38,1.58,1.58,0,0,1-.64-1.39,4.54,4.54,0,0,1,.43-1.78,6.9,6.9,0,0,1,1.13-1.79,4.11,4.11,0,0,1,3.26-1.53,1.87,1.87,0,0,1,1.46.49Zm-2.84.8a1.09,1.09,0,0,0-.9-.45,1,1,0,0,0-.81.36,6,6,0,0,0-.79,1.51,17.29,17.29,0,0,0-.74,1.91,5.31,5.31,0,0,0-.3,1.32q0,.83.73.83a1.5,1.5,0,0,0,.64-.16l.61-.36-.07-.35a2.64,2.64,0,0,1,.07-.54,3.68,3.68,0,0,1,.1-.36Z"/><path class="cls-4" d="M199.27,27.43h2.67a13.47,13.47,0,0,1-1.33,1.21l-1.44,1.14h-1a6.57,6.57,0,0,0,.72-1.18A5.8,5.8,0,0,0,199.27,27.43Z"/><path class="cls-4" d="M209.44,36.31l.14.21a7,7,0,0,1-4.06,1.28,5.7,5.7,0,0,1-2-.29A1.52,1.52,0,0,1,202.36,36,5,5,0,0,1,204,32.52a4.92,4.92,0,0,1,3.53-1.66q1.46,0,1.46,1.35a3.13,3.13,0,0,1-.66,1.87,1.8,1.8,0,0,1-1.39.9.74.74,0,0,1-.52-.19.65.65,0,0,1-.21-.5q0-.66,1.14-1.39t1.14-1.18a.45.45,0,0,0-.16-.35.54.54,0,0,0-.36-.14q-1.18,0-2.17,2a7.19,7.19,0,0,0-.88,3.14q0,1,1.18,1a4.62,4.62,0,0,0,1.46-.23A11.82,11.82,0,0,0,209.44,36.31Z"/><path class="cls-4" d="M215.44,26.1l-4.13,11.11,0,.14,0,.07.14-.14.59-1.21A20.79,20.79,0,0,1,213.2,34a9.68,9.68,0,0,1,1.7-2.08,3.22,3.22,0,0,1,2.1-1,1.48,1.48,0,0,1,.95.27.9.9,0,0,1,.34.74,2.18,2.18,0,0,1-.07.5A6,6,0,0,1,218,33L216.83,36a2.87,2.87,0,0,0-.17.87c0,.37.2.56.59.56a2.42,2.42,0,0,0,1-.21q.16-.07,1.44-.83l.14.21a7.06,7.06,0,0,1-1.65,1,4.6,4.6,0,0,1-1.75.36,2.66,2.66,0,0,1-1.53-.4,1.23,1.23,0,0,1-.59-1.06,2.35,2.35,0,0,1,.09-.55q.09-.34.19-.67L216,31.66l.07-.17-.07,0s-.17.09-.36.28-.38.39-.68.73a21,21,0,0,0-1.68,2.27q-.59.88-1.47,2.45a1.38,1.38,0,0,1-.47.57,2,2,0,0,1-.85.12,1.39,1.39,0,0,1-1-.35,1.16,1.16,0,0,1-.38-.9,2.15,2.15,0,0,1,.21-.87l3.37-9.09Z"/><path class="cls-4" d="M228.48,31l-2.29,6.11v.21s.09-.06.17-.17a32,32,0,0,1,2-3.9q1.57-2.38,3.31-2.38a1.48,1.48,0,0,1,1,.29A1,1,0,0,1,233,32a1.27,1.27,0,0,1,0,.23c0,.06-.05.19-.12.4l-1.35,3.3a2,2,0,0,0-.21.73q0,.59.73.59a3,3,0,0,0,1.44-.47l.82-.5.14.21a7,7,0,0,1-1.68,1,4.72,4.72,0,0,1-1.72.32,2.53,2.53,0,0,1-1.54-.41,1.32,1.32,0,0,1-.55-1.12,2.29,2.29,0,0,1,.21-.94l1.53-3.75.07-.17-.07,0a.42.42,0,0,0-.21.1A8.87,8.87,0,0,0,229,33.06a19.32,19.32,0,0,0-1.21,2q-.45.83-1,2a1.36,1.36,0,0,1-.44.58,1.34,1.34,0,0,1-.7.15q-1.56,0-1.56-1.21a2.93,2.93,0,0,1,.21-.94l1.54-4.09Z"/><path class="cls-4" d="M240,26.1l-4.13,11.11,0,.14,0,.07.14-.14.59-1.21a20.79,20.79,0,0,1,1.16-2.1,9.68,9.68,0,0,1,1.7-2.08,3.22,3.22,0,0,1,2.1-1,1.48,1.48,0,0,1,.95.27.9.9,0,0,1,.34.74,2.18,2.18,0,0,1-.07.5,6,6,0,0,1-.17.58L241.39,36a2.87,2.87,0,0,0-.17.87c0,.37.2.56.59.56a2.42,2.42,0,0,0,1-.21q.16-.07,1.44-.83l.14.21a7.06,7.06,0,0,1-1.65,1,4.6,4.6,0,0,1-1.75.36,2.66,2.66,0,0,1-1.53-.4,1.23,1.23,0,0,1-.59-1.06,2.35,2.35,0,0,1,.09-.55q.09-.34.19-.67l1.42-3.52.07-.17-.07,0s-.17.09-.36.28-.38.39-.68.73a21,21,0,0,0-1.68,2.27q-.59.88-1.47,2.45a1.38,1.38,0,0,1-.47.57,2,2,0,0,1-.85.12,1.39,1.39,0,0,1-1-.35,1.16,1.16,0,0,1-.38-.9,2.15,2.15,0,0,1,.21-.87l3.37-9.09Z"/><path class="cls-4" d="M248.29,30.86l-1.87,5.24c0,.12-.07.24-.09.37a1.53,1.53,0,0,0,0,.29q0,.59.69.59a2.72,2.72,0,0,0,1.44-.54l.78-.54.14.17a5.27,5.27,0,0,1-1.58,1,4.69,4.69,0,0,1-1.73.32,3.42,3.42,0,0,1-1.65-.33,1,1,0,0,1-.59-.92,2.38,2.38,0,0,1,.17-.8l1.56-4.27Zm-.42-3.92a1.42,1.42,0,0,1,1.46,1.46,1.37,1.37,0,0,1-.42,1,1.41,1.41,0,0,1-1,.42,1.39,1.39,0,0,1-1.42-1.42,1.45,1.45,0,0,1,.4-1A1.36,1.36,0,0,1,247.88,26.94Z"/><path class="cls-4" d="M257.35,36.31l.14.24a10,10,0,0,1-2.46,1,11.8,11.8,0,0,1-2.78.29,6.25,6.25,0,0,1-2-.26,1.44,1.44,0,0,1-1.11-1.41,5.87,5.87,0,0,1,.56-2.15,5,5,0,0,1,4.82-3.12q1.91,0,1.91,1.21A2.51,2.51,0,0,1,255.26,34a9.62,9.62,0,0,1-3.08,1.55,1.55,1.55,0,0,0-.09.37c0,.12,0,.22,0,.29a1.06,1.06,0,0,0,.42.88,1.8,1.8,0,0,0,1.14.33A7.78,7.78,0,0,0,257.35,36.31Zm-5.1-1.11a10.68,10.68,0,0,0,1.84-1.72,3.78,3.78,0,0,0,1.14-2c0-.25-.15-.38-.45-.38q-.69,0-1.56,1.68A13.84,13.84,0,0,0,252.25,35.2Z"/><path class="cls-4" d="M251.24,38.39a1.42,1.42,0,0,1,1.46,1.46,1.37,1.37,0,0,1-.42,1,1.41,1.41,0,0,1-1,.42,1.39,1.39,0,0,1-1.42-1.42,1.45,1.45,0,0,1,.4-1A1.36,1.36,0,0,1,251.24,38.39Zm2.22-10.86h1.77a6.82,6.82,0,0,0,.83,2.32h-.69q-.33-.23-.82-.61l-.82-.64-1.35,1.25h-.62a10,10,0,0,0,1.06-1.18A5.06,5.06,0,0,0,253.46,27.53Z"/><path class="cls-4" d="M261.82,30.9l-2.25,6.28a.54.54,0,0,0-.07.21l0,.07.14-.1,1.14-2.5a12.36,12.36,0,0,1,1.67-2.69,3.13,3.13,0,0,1,2.32-1.27q1.35,0,1.35,1.11a2.33,2.33,0,0,1-.17.76l-1.73,4.41-.07.2.07.08c.08,0,.14-.07.18-.21l.87-1.87a19.71,19.71,0,0,1,1-1.91,7.32,7.32,0,0,1,1.47-1.8,3,3,0,0,1,1.94-.8,1.49,1.49,0,0,1,1,.29.93.93,0,0,1,.35.76,1.31,1.31,0,0,1-.14.59l-1.42,3.7a1,1,0,0,0-.07.42.55.55,0,0,0,.62.63,4.58,4.58,0,0,0,2.32-1l.17.21a6,6,0,0,1-3.5,1.31,2.48,2.48,0,0,1-1.48-.41,1.23,1.23,0,0,1-.56-1,2.93,2.93,0,0,1,.2-1l1.5-3.79.06-.09-.06-.1-.14.07-.35.31a10.34,10.34,0,0,0-1.84,2.44q-1,1.92-1.49,2.76a1.94,1.94,0,0,1-.49.72,1.32,1.32,0,0,1-.72.15,1.52,1.52,0,0,1-1.08-.38,1.31,1.31,0,0,1-.42-1,2.76,2.76,0,0,1,.24-1l1.49-3.84.07-.14-.07-.07s-.13.06-.24.17a14,14,0,0,0-2,2.6A30.73,30.73,0,0,0,260.06,37a1.48,1.48,0,0,1-.4.61,1.07,1.07,0,0,1-.64.16q-1.63,0-1.63-1.25a2.55,2.55,0,0,1,.24-1l1.42-4Z"/></svg>