<svg id="Layer_1" data-name="Layer 1" xmlns="http://www.w3.org/2000/svg" viewBox="0 0 274 44"><defs><style>.cls-1{fill:#fff;}.cls-2{fill:#006eb7;}.cls-3{fill:#e31d42;}</style></defs><title>logo-white</title><circle class="cls-1" cx="22" cy="22" r="22"/><path class="cls-2" d="M4.35,17.67l.26-.87a2.65,2.65,0,0,1,.14-.38.59.59,0,0,1,.16-.2.58.58,0,0,1,.23-.11.52.52,0,0,1,.28,0,.54.54,0,0,1,.38.45.61.61,0,0,1,.29-.25.56.56,0,0,1,.36,0,.69.69,0,0,1,.27.16.61.61,0,0,1,.17.26.65.65,0,0,1,0,.33q0,.11-.14.54l-.22.74Zm.5-.33.5.15.09-.29q.08-.26.09-.32a.3.3,0,0,0,0-.2.24.24,0,0,0-.15-.12.25.25,0,0,0-.18,0,.26.26,0,0,0-.13.14s-.06.17-.12.37Zm.87.26.58.17.12-.41a2.08,2.08,0,0,0,.08-.31.27.27,0,0,0-.21-.3.29.29,0,0,0-.18,0,.28.28,0,0,0-.14.11,1.56,1.56,0,0,0-.15.38Z"/><path class="cls-2" d="M7.23,16.14l-2.07-1,.71-1.54.35.16L5.7,14.93l.46.21.48-1,.35.16-.48,1,.56.26L7.6,14.4l.35.16ZM5.35,14.29l0,.2-.13.28,0-.39.12-.25.33-.22-.13.28Zm2.73,1.48-.4-.18.18-.4.4.18Z"/><path class="cls-2" d="M8.13,14.24,6.2,13l.24-.38,1.79,0-1.28-.82.23-.36L9.1,12.71l-.25.39-1.75,0,1.25.8Z"/><path class="cls-2" d="M9.37,12.35,7.64,10.86l.3-.35.68.59.59-.68-.68-.59.3-.35L10.56,11l-.3.35-.76-.65-.59.68.76.65Z"/><path class="cls-2" d="M12,9.65,10,8.36l.39-.31,1.5,1-.6-1.67.38-.3.76,2.3Z"/><path class="cls-2" d="M13.26,8.75,12,6.83l.39-.25L13.64,8.5Z"/><path class="cls-2" d="M14,8.25l-1-2,1.5-.77.18.34-1.09.56.23.45,1-.52.17.34-1,.52.28.55,1.13-.58.18.34ZM13.7,5.64l-.1.18L13.33,6l.21-.33.25-.13.39,0-.27.14Zm1.22,2.85-.2-.39.39-.2.2.39Z"/><path class="cls-2" d="M15.91,7.31l-.75-2.15L15.58,5,17,6.14l-.5-1.44.4-.14.75,2.15-.44.15-1.36-1.1.49,1.4Z"/><path class="cls-2" d="M19.48,6.33l-.27-1.87-.67.1-.06-.38,1.79-.26.06.38-.67.1.27,1.88Z"/><path class="cls-2" d="M20.9,6.15l0-2.28,1,0a1.66,1.66,0,0,1,.53.05.53.53,0,0,1,.27.21.65.65,0,0,1,.11.36.61.61,0,0,1-.14.43.73.73,0,0,1-.45.22,1.09,1.09,0,0,1,.25.19,2.62,2.62,0,0,1,.27.37l.29.44H22.4l-.34-.49a3.09,3.09,0,0,0-.25-.33.34.34,0,0,0-.14-.09.77.77,0,0,0-.23,0h-.09l0,1Zm.44-1.32h.34a1.77,1.77,0,0,0,.41,0,.25.25,0,0,0,.13-.1.3.3,0,0,0,0-.17.28.28,0,0,0-.06-.18A.28.28,0,0,0,22,4.24h-.7Z"/><path class="cls-2" d="M25.44,4.15l.43.06,0,.31a1.06,1.06,0,0,1-.08.29A.44.44,0,0,1,25.6,5a.79.79,0,0,1-.46.12l0,.21a3.13,3.13,0,0,1-.12.57.64.64,0,0,1-.18.26.89.89,0,0,1-.74.15.93.93,0,0,1-.72-.38.62.62,0,0,1-.09-.27,2.77,2.77,0,0,1,0-.58l.17-1.2.46.06-.17,1.22a2.53,2.53,0,0,0,0,.38q0,.31.4.37t.45-.22a2.48,2.48,0,0,0,.07-.38l.18-1.25.46.06-.11.81a.48.48,0,0,0,.33-.12.37.37,0,0,0,.09-.2l-.21,0Z"/><path class="cls-2" d="M25.75,6.55l.66-2.18.43.13.45,1.73.44-1.46.41.13-.66,2.18L27,6.94l-.45-1.69-.43,1.42Z"/><path class="cls-2" d="M29.25,6.94l.17-.35.9.43-.39.82a1.25,1.25,0,0,1-.48,0,1.52,1.52,0,0,1-.55-.14,1.24,1.24,0,0,1-.5-.4,1,1,0,0,1-.18-.56,1.39,1.39,0,0,1,.14-.61,1.31,1.31,0,0,1,.41-.51,1,1,0,0,1,.58-.19,1.17,1.17,0,0,1,.54.13A1.09,1.09,0,0,1,30.4,6a.81.81,0,0,1,.06.58L30,6.51a.48.48,0,0,0,0-.32A.55.55,0,0,0,29.71,6a.63.63,0,0,0-.52,0,.81.81,0,0,0-.41.44.89.89,0,0,0-.1.63.6.6,0,0,0,.34.39.81.81,0,0,0,.29.07,1,1,0,0,0,.28,0l.12-.26Z"/><path class="cls-2" d="M31.35,9.18l.72-2.31.4.3-.56,1.7,1.46-1,.39.29-2,1.33Z"/><path class="cls-2" d="M35.57,9.91l.31.31-.22.22a1,1,0,0,1-.24.19.46.46,0,0,1-.22,0,.8.8,0,0,1-.44-.19l-.15.14a3.07,3.07,0,0,1-.44.38.64.64,0,0,1-.3.1.89.89,0,0,1-.68-.33.93.93,0,0,1-.34-.73.62.62,0,0,1,.09-.27,2.72,2.72,0,0,1,.38-.44l.87-.85.32.33-.88.87a2.55,2.55,0,0,0-.26.28.39.39,0,0,0,.09.53q.26.26.49.1a2.59,2.59,0,0,0,.29-.26l.9-.88.32.33-.58.57a.48.48,0,0,0,.34.11.38.38,0,0,0,.19-.11l-.15-.15Z"/><path class="cls-2" d="M37.41,12.36l.25.36-.26.18a1.09,1.09,0,0,1-.27.15.44.44,0,0,1-.23,0,.63.63,0,0,1-.24-.1l-.16.12a1.2,1.2,0,0,1-.88.25,1.06,1.06,0,0,1-.72-.48A1.07,1.07,0,0,1,34.7,12a1.18,1.18,0,0,1,.53-.73,1.23,1.23,0,0,1,.92-.25,1,1,0,0,1,.69.47,1.08,1.08,0,0,1,.21.84,1,1,0,0,1-.24.48.32.32,0,0,0,.36,0L37,12.61Zm-1.89-.71a.88.88,0,0,0-.38.48.62.62,0,0,0,.52.74.9.9,0,0,0,.59-.2.88.88,0,0,0,.38-.48.64.64,0,0,0-.53-.75A.88.88,0,0,0,35.52,11.65Z"/><path class="cls-2" d="M35.86,14.21l2-1,.2.4-1,1.51,1.37-.67.19.38-2,1-.2-.42.93-1.48L36,14.6Z"/><path class="cls-2" d="M38,17l.37-.12.3.95-.87.27a1.23,1.23,0,0,1-.36-.33,1.51,1.51,0,0,1-.27-.5,1.24,1.24,0,0,1,0-.64,1,1,0,0,1,.29-.51,1.38,1.38,0,0,1,.54-.31,1.31,1.31,0,0,1,.65,0,1,1,0,0,1,.54.29,1.18,1.18,0,0,1,.27.49,1.09,1.09,0,0,1,0,.69.81.81,0,0,1-.38.44l-.22-.41A.48.48,0,0,0,39,17a.55.55,0,0,0,0-.35.62.62,0,0,0-.33-.4.81.81,0,0,0-.6,0,.89.89,0,0,0-.53.35.6.6,0,0,0-.05.51.79.79,0,0,0,.14.26,1,1,0,0,0,.21.2l.28-.09Z"/><circle class="cls-3" cx="22" cy="14.18" r="2.37"/><path class="cls-3" d="M31.33,16.2a12.38,12.38,0,0,0-5.14,3.19c-.18.23-.16.25.12.05,1-.71,3.53-1.13,4,0,.89,2-3,7.48-5.2,10.33l-.83,1.06c-.36.46-.46.19-.53.07-1.63-2.81-1.07-6.71.45-9.83,1.37-2.82,4.09-5,8.27-5.76C28,14.71,24.41,16,22,18.38,19.59,16,16,14.71,11.51,15.3c4.18.72,6.89,2.95,8.27,5.76,1.52,3.12,2.08,7,.45,9.83-.07.12-.17.39-.53-.07l-.83-1.06c-2.19-2.85-6.09-8.3-5.2-10.33.49-1.12,3-.7,4,0,.28.19.3.18.12-.05a12.38,12.38,0,0,0-5.14-3.19C7.08,14.43,8,19,9.08,21.5,10.76,25.39,17,33.52,22,37.13c5-3.62,11.24-11.74,12.92-15.63C36,19,36.93,14.43,31.33,16.2Z"/><path class="cls-2" d="M22,41.17a19.14,19.14,0,0,0,16.44-9.32c-5.15-.57-12.2.93-16.44,7.21-4.24-6.28-11.28-7.78-16.44-7.21A19.14,19.14,0,0,0,22,41.17Z"/><path class="cls-2" d="M22,2.1A19.92,19.92,0,0,0,4.74,32l.82-.11a19.15,19.15,0,1,1,32.88,0l.82.11A19.92,19.92,0,0,0,22,2.1Z"/><path class="cls-2" d="M22,42.83A20.8,20.8,0,0,0,40.19,32.14L39.26,32A19.92,19.92,0,0,1,4.74,32l-.92.18A20.8,20.8,0,0,0,22,42.83Z"/><path class="cls-2" d="M27.35,33.35q.56-.31,1.15-.58a19.25,19.25,0,0,1,7.89-1.66c.57,0,1.15,0,1.71.08A18.43,18.43,0,0,0,40,26.37,33.58,33.58,0,0,0,27.35,33.35Z"/><path class="cls-2" d="M7.61,31.11a19.25,19.25,0,0,1,7.89,1.66q.59.27,1.16.58A33.58,33.58,0,0,0,4,26.37,18.43,18.43,0,0,0,5.9,31.19C6.46,31.14,7,31.11,7.61,31.11Z"/><path class="cls-1" d="M50.3,19.66V7.87H56a3.71,3.71,0,0,1,2.89,1,2.83,2.83,0,0,1,.72,2,2.66,2.66,0,0,1-.52,1.74,2.45,2.45,0,0,1-.92.66,2.72,2.72,0,0,1,1.46,1.2,3.64,3.64,0,0,1,.12,3,3.54,3.54,0,0,1-2,1.88,8.15,8.15,0,0,1-2.52.3ZM52.66,9.9v2.56h2.89a2.19,2.19,0,0,0,1.23-.3,1.15,1.15,0,0,0,.5-1,1.05,1.05,0,0,0-.45-1,2.6,2.6,0,0,0-1.35-.28Zm0,4.57v3.15h3a2.11,2.11,0,0,0,1.41-.42,1.65,1.65,0,0,0,.48-1.32,1.2,1.2,0,0,0-.51-1.06,2.16,2.16,0,0,0-1.26-.35Z"/><path class="cls-1" d="M71.34,7.87V9.94H65.1v2.49h5.75V14.5H65.1v3.05h6.53v2.1h-9V7.87ZM68.17,4.29,70,6.69H68.2l-1-1.35-1,1.35H64.27l1.87-2.4Zm-.08,16.35v1.9H66v-1.9Z"/><path class="cls-1" d="M81.31,7.87h2.3V19.66H81.15l-4.79-8.41,0,8.41H74V7.87h2.6l4.66,8.21Z"/><path class="cls-1" d="M93.5,14.37H88.9v5.28H86.44V7.87H88.9v4.46h4.6V7.87H96V19.66H93.5Z"/><path class="cls-1" d="M110.53,7.87h2.56l-4,11.78h-2.32l-4-11.78h2.63l2.52,8.93Z"/><path class="cls-1" d="M117.42,7.87V19.66H115V7.87Z"/><path class="cls-1" d="M128.64,7.87V9.94h-6.24v2.49h5.75V14.5h-5.75v3.05h6.53v2.1h-9V7.87Zm-3.17-3.58,1.88,2.4h-1.84l-1-1.35-1,1.35h-1.84l1.87-2.4Zm-.08,16.35v1.9h-2.07v-1.9Z"/><path class="cls-1" d="M138.62,7.87h2.3V19.66h-2.46l-4.79-8.41,0,8.41h-2.3V7.87h2.6l4.66,8.21Z"/><path class="cls-1" d="M153.66,9.94v9.71h-2.47V9.94h-3.57V7.87h9.59V9.94Z"/><path class="cls-1" d="M159.16,19.66V7.87h6a3.58,3.58,0,0,1,3,1.26,3.3,3.3,0,0,1,.69,2.05,3.23,3.23,0,0,1-.48,1.77A2.48,2.48,0,0,1,167,14a2.4,2.4,0,0,1,1.11.83,4.37,4.37,0,0,1,.39,2.16q0,1.22,0,1.7a.69.69,0,0,0,.49.64v.33h-2.73a7.19,7.19,0,0,1-.2-1,11.57,11.57,0,0,1-.07-1.43,3.4,3.4,0,0,0-.28-1.72q-.36-.51-1.66-.51h-2.52v4.63Zm2.43-6.6h2.89a2.24,2.24,0,0,0,1.44-.38,1.51,1.51,0,0,0,.46-1.23,1.5,1.5,0,0,0-.33-1,1.71,1.71,0,0,0-1.41-.54h-3.05Z"/><path class="cls-1" d="M180.9,8.36a.84.84,0,0,0,.41-.41,2,2,0,0,0,.08-.64h-.85V6h1.93V7.35q0,1.22-1.57,2v6.17a4.24,4.24,0,0,1-1.3,3.4A5.3,5.3,0,0,1,176,20a6.12,6.12,0,0,1-1.88-.28,4.18,4.18,0,0,1-1.87-1.16,4.22,4.22,0,0,1-.92-2.86V7.87h2.52v7.65a2.41,2.41,0,0,0,.59,1.76,2,2,0,0,0,1.51.6,2.42,2.42,0,0,0,1.78-.58,2.3,2.3,0,0,0,.57-1.69V7.87h2.53Z"/><path class="cls-1" d="M190.57,7.87h2.3V19.66h-2.46l-4.79-8.41,0,8.41h-2.3V7.87h2.6l4.66,8.21Z"/><path class="cls-1" d="M201.31,15.29v-2h4.92v6.37h-1.64l-.26-1.47a7.07,7.07,0,0,1-1.25,1.16,4.42,4.42,0,0,1-2.43.64,5,5,0,0,1-3.76-1.55,6.39,6.39,0,0,1-1.66-4.66,6.61,6.61,0,0,1,1.39-4.32A5.37,5.37,0,0,1,201,7.55a5.47,5.47,0,0,1,3.92,1.38,3.49,3.49,0,0,1,1.23,2.59h-2.46a1.73,1.73,0,0,0-.62-1.13,2.61,2.61,0,0,0-1.94-.8,3.05,3.05,0,0,0-2.35,1,4.67,4.67,0,0,0-1,3.25A4.27,4.27,0,0,0,198.84,17a3.21,3.21,0,0,0,2.34.84,2.64,2.64,0,0,0,1.85-.7,3.43,3.43,0,0,0,1-1.9Z"/><path class="cls-1" d="M220.7,7.87h2.56l-4,11.78h-2.32l-4-11.78h2.63l2.53,8.93Z"/><path class="cls-1" d="M234.69,8.36A.84.84,0,0,0,235.1,8a2,2,0,0,0,.08-.64h-.85V6h1.93V7.35q0,1.22-1.57,2v6.17a4.24,4.24,0,0,1-1.3,3.4A5.3,5.3,0,0,1,229.83,20,6.12,6.12,0,0,1,228,19.7a4.18,4.18,0,0,1-1.87-1.16,4.22,4.22,0,0,1-.92-2.86V7.87h2.52v7.65a2.41,2.41,0,0,0,.59,1.76,2,2,0,0,0,1.51.6,2.42,2.42,0,0,0,1.78-.58,2.3,2.3,0,0,0,.57-1.69V7.87h2.53Z"/><path class="cls-1" d="M245.94,8.72a1.19,1.19,0,0,0,.53-.58,1.88,1.88,0,0,0,.19-.8h-.85V6h1.94V7.38a2.47,2.47,0,0,1-.2,1.08,2,2,0,0,1-1,.89,4.83,4.83,0,0,1,1,1.8,8.6,8.6,0,0,1,.34,2.6,6.86,6.86,0,0,1-1.11,4.07,5,5,0,0,1-2.38,1.77,6.17,6.17,0,0,1-2.15.39,6.29,6.29,0,0,1-2.17-.38,5,5,0,0,1-2.38-1.76,6.89,6.89,0,0,1-1.13-4.1,6.76,6.76,0,0,1,1.11-4.06,4.84,4.84,0,0,1,2.38-1.75,6.38,6.38,0,0,1,2.19-.39,6.68,6.68,0,0,1,1.63.19A5.33,5.33,0,0,1,245.94,8.72Zm-6.86,5a4.46,4.46,0,0,0,1.1,3.31,2.91,2.91,0,0,0,2.12.83,2.86,2.86,0,0,0,2.08-.83,4.47,4.47,0,0,0,1.1-3.31,4.4,4.4,0,0,0-1.1-3.29,2.88,2.88,0,0,0-2.08-.82,2.94,2.94,0,0,0-2.11.82A4.39,4.39,0,0,0,239.08,13.75Z"/><path class="cls-1" d="M256.77,7.87h2.3V19.66h-2.46l-4.79-8.41,0,8.41h-2.3V7.87h2.6l4.66,8.21Z"/><path class="cls-1" d="M267.51,15.29v-2h4.92v6.37h-1.64l-.26-1.47a7.07,7.07,0,0,1-1.25,1.16,4.42,4.42,0,0,1-2.43.64,5,5,0,0,1-3.76-1.55,6.39,6.39,0,0,1-1.66-4.66,6.61,6.61,0,0,1,1.39-4.32,5.37,5.37,0,0,1,4.38-1.92,5.47,5.47,0,0,1,3.92,1.38,3.49,3.49,0,0,1,1.23,2.59H269.9a1.73,1.73,0,0,0-.62-1.13,2.61,2.61,0,0,0-1.94-.8,3.05,3.05,0,0,0-2.35,1,4.67,4.67,0,0,0-1,3.25A4.27,4.27,0,0,0,265,17a3.21,3.21,0,0,0,2.34.84,2.64,2.64,0,0,0,1.85-.7,3.43,3.43,0,0,0,1-1.9Z"/><path class="cls-1" d="M51.14,33.95l-.28.21a5.33,5.33,0,0,1-1.11-2.95,4.46,4.46,0,0,1,.62-2.2A5.69,5.69,0,0,1,52,27.15a8.37,8.37,0,0,1,4.89-1.25q1.11,0,2.57.1,3.42.24,4.27.24c.28,0,.42.06.42.17A2.34,2.34,0,0,1,64,27q-.16.42-.31.91a.66.66,0,0,1-.61.43q-.42,0-1.25-.05t-1.25-.05l-2.32-.14q-.49,0-1.13-.05-1.51-.12-1.93-.12-5,0-5,3.33A5.67,5.67,0,0,0,51.14,33.95Zm5.52,0-.14.35a4.23,4.23,0,0,0-1.7-.35,3.68,3.68,0,0,0-2.2.66,1.92,1.92,0,0,0-.92,1.6,1.25,1.25,0,0,0,.56,1,2.31,2.31,0,0,0,1.42.42,3.4,3.4,0,0,0,2.36-1A6.55,6.55,0,0,0,57.49,34a18.3,18.3,0,0,1,1.14-3,6.16,6.16,0,0,1,3-2.52l.21.21a8.22,8.22,0,0,0-.68,2.06q-.45,2-.61,2.52a7.48,7.48,0,0,1-1.21,2.43,5.52,5.52,0,0,1-2.39,1.77A7.78,7.78,0,0,1,54,38a3.25,3.25,0,0,1-2-.52,1.71,1.71,0,0,1-.7-1.46,2.45,2.45,0,0,1,.88-1.87,3,3,0,0,1,2.06-.8A5.54,5.54,0,0,1,56.65,33.95Z"/><path class="cls-1" d="M66.82,30.86,64.94,36.1c0,.12-.07.24-.1.37a1.55,1.55,0,0,0,0,.29q0,.59.69.59a2.72,2.72,0,0,0,1.44-.54l.78-.54.17.17a5.3,5.3,0,0,1-1.59,1,4.75,4.75,0,0,1-1.74.32,3.46,3.46,0,0,1-1.66-.33,1,1,0,0,1-.6-.92,2.38,2.38,0,0,1,.17-.8L64,31.45Zm-.66-3.37a6.22,6.22,0,0,0,1.08,2.33l-1,0-1.44-1.11a12.7,12.7,0,0,1-1.34-1.25Z"/><path class="cls-1" d="M71.92,31l-2.29,6.11v.21s.09-.06.17-.17a31.92,31.92,0,0,1,2-3.9q1.57-2.38,3.31-2.38a1.48,1.48,0,0,1,1,.29,1,1,0,0,1,.37.82,1.17,1.17,0,0,1,0,.23q0,.09-.12.4l-1.35,3.3a2,2,0,0,0-.21.73q0,.59.73.59a3,3,0,0,0,1.44-.47l.82-.5.14.21a7,7,0,0,1-1.68,1,4.72,4.72,0,0,1-1.72.32,2.53,2.53,0,0,1-1.54-.41,1.32,1.32,0,0,1-.55-1.12,2.29,2.29,0,0,1,.21-.94l1.53-3.75.07-.17-.07,0a.42.42,0,0,0-.21.1,8.87,8.87,0,0,0-1.46,1.61,19.48,19.48,0,0,0-1.21,2q-.45.83-1,2a1.37,1.37,0,0,1-.44.58,1.34,1.34,0,0,1-.7.15q-1.56,0-1.56-1.21a2.92,2.92,0,0,1,.2-.94l1.54-4.09Z"/><path class="cls-1" d="M83.44,26.1,79.31,37.21l0,.14,0,.07.14-.14L80,36.07A20.89,20.89,0,0,1,81.2,34a9.66,9.66,0,0,1,1.7-2.08,3.22,3.22,0,0,1,2.1-1,1.48,1.48,0,0,1,.95.27.9.9,0,0,1,.34.74,2.18,2.18,0,0,1-.07.5c0,.19-.1.39-.17.58L84.82,36a2.88,2.88,0,0,0-.17.87q0,.56.59.56a2.43,2.43,0,0,0,1-.21q.16-.07,1.44-.83l.14.21a7,7,0,0,1-1.65,1,4.6,4.6,0,0,1-1.75.36,2.66,2.66,0,0,1-1.53-.4,1.23,1.23,0,0,1-.59-1.06,2.33,2.33,0,0,1,.09-.55q.09-.34.19-.67L84,31.66l.07-.17-.07,0s-.17.09-.36.28-.38.39-.68.73a21,21,0,0,0-1.68,2.27q-.59.88-1.47,2.45a1.37,1.37,0,0,1-.47.57,2,2,0,0,1-.85.12,1.39,1.39,0,0,1-1-.35,1.16,1.16,0,0,1-.38-.9,2.15,2.15,0,0,1,.21-.87l3.37-9.09Z"/><path class="cls-1" d="M94.78,28.36l2.78-.56-1.32,3.68h1.32l-.49.69H96l-1.39,4a1.92,1.92,0,0,0-.1.3,1.27,1.27,0,0,0,0,.3q0,.59.66.59A3.41,3.41,0,0,0,96.51,37a8.76,8.76,0,0,0,1.25-.69l.14.21a6.42,6.42,0,0,1-3.75,1.28,2.76,2.76,0,0,1-1.53-.36,1.16,1.16,0,0,1-.56-1,1.54,1.54,0,0,1,0-.3l.11-.5,1.25-3.43h-1l.49-.69h.73Z"/><path class="cls-1" d="M103.77,26.1,99.64,37.21l0,.14,0,.07.14-.14.59-1.21a20.89,20.89,0,0,1,1.16-2.1,9.66,9.66,0,0,1,1.7-2.08,3.22,3.22,0,0,1,2.1-1,1.48,1.48,0,0,1,.95.27.9.9,0,0,1,.34.74,2.18,2.18,0,0,1-.07.5c0,.19-.1.39-.17.58L105.15,36a2.88,2.88,0,0,0-.17.87q0,.56.59.56a2.43,2.43,0,0,0,1-.21q.16-.07,1.44-.83l.14.21a7,7,0,0,1-1.65,1,4.6,4.6,0,0,1-1.75.36,2.66,2.66,0,0,1-1.53-.4,1.23,1.23,0,0,1-.59-1.06,2.33,2.33,0,0,1,.09-.55q.09-.34.19-.67l1.42-3.52.07-.17-.07,0s-.17.09-.36.28-.38.39-.68.73a21,21,0,0,0-1.68,2.27q-.59.88-1.47,2.45a1.37,1.37,0,0,1-.47.57,2,2,0,0,1-.85.12,1.39,1.39,0,0,1-1-.35,1.16,1.16,0,0,1-.38-.9,2.15,2.15,0,0,1,.21-.87L101,26.66Z"/><path class="cls-1" d="M115.53,32.57l-1.15,3.28a2.91,2.91,0,0,0-.21.94.49.49,0,0,0,.56.56,4.21,4.21,0,0,0,2.15-1.08l.17.21a6.26,6.26,0,0,1-1.59,1,4.29,4.29,0,0,1-1.57.29,3.28,3.28,0,0,1-1.17-.17,1.38,1.38,0,0,1-.7-.62,5,5,0,0,1-1.27.61,4.68,4.68,0,0,1-1.37.19,2.3,2.3,0,0,1-1.37-.36,1.16,1.16,0,0,1-.5-1,2.35,2.35,0,0,1,0-.31c0-.08.05-.28.12-.59L109,31.56l2.6-.52-1.67,4.82a2.74,2.74,0,0,0-.24.92q0,.57.59.57a2,2,0,0,0,.75-.19,5.6,5.6,0,0,0,.92-.51V36.4a4.74,4.74,0,0,1,.17-.92l1.37-3.92,2.58-.53-.35.9a3,3,0,0,0,.64-.67,1.28,1.28,0,0,0,.23-.72q0-.59-.45-.59H116l-.1-.21,1.73-.94a1.13,1.13,0,0,1,.56.91,2.4,2.4,0,0,1-.94,1.78,5.18,5.18,0,0,1-.9.63Q116,32.35,115.53,32.57Z"/><path class="cls-1" d="M123.82,31.8a2.91,2.91,0,0,0,.66-.63,1.12,1.12,0,0,0,.21-.66.64.64,0,0,0-.19-.43l-.23-.19,1.53-1.15a1.23,1.23,0,0,1,.59.94,1.91,1.91,0,0,1-.26.91,3,3,0,0,1-.71.86,8.37,8.37,0,0,1-.75.47l-.78.4v.17a5.87,5.87,0,0,1-.13,1.26A4.62,4.62,0,0,1,123.3,35a2.6,2.6,0,0,0,1.08.23,3.51,3.51,0,0,0,.65,0,4.49,4.49,0,0,0,.67-.21l.07.26a2.61,2.61,0,0,1-.64.22,3.47,3.47,0,0,1-.64.06,4.85,4.85,0,0,1-.68,0,2.44,2.44,0,0,1-.61-.19,5.39,5.39,0,0,1-1.71,2,4.1,4.1,0,0,1-2.28.62,3.31,3.31,0,0,1-2-.49,1.79,1.79,0,0,1-.64-1.53,4.63,4.63,0,0,1,.82-2.54,5.37,5.37,0,0,1,2.06-1.9,4.35,4.35,0,0,1,.78-.35,2.24,2.24,0,0,1,.68-.14c.12,0,.17,0,.17.14a18.16,18.16,0,0,0-1.44,2.79,7.43,7.43,0,0,0-.68,2.72q0,.9.69.9a1.92,1.92,0,0,0,1.47-1,10.79,10.79,0,0,0,.88-1.72,3.74,3.74,0,0,1-1-2.5,2.29,2.29,0,0,1,.36-1.37,1.16,1.16,0,0,1,1-.5,1.21,1.21,0,0,1,.91.39A2.13,2.13,0,0,1,123.82,31.8Zm-1.67,2.46a9.9,9.9,0,0,0,.18-1,7.49,7.49,0,0,0,.06-.95q0-1.56-.49-1.56-.21,0-.35.29a1.83,1.83,0,0,0-.14.79,4.57,4.57,0,0,0,.21,1.29A3.79,3.79,0,0,0,122.15,34.26Z"/><path class="cls-1" d="M129.44,31l-2.29,6.11v.21s.09-.06.17-.17a31.92,31.92,0,0,1,2-3.9q1.57-2.38,3.31-2.38a1.48,1.48,0,0,1,1,.29,1,1,0,0,1,.37.82,1.17,1.17,0,0,1,0,.23q0,.09-.12.4l-1.35,3.3a2,2,0,0,0-.21.73q0,.59.73.59a3,3,0,0,0,1.44-.47l.82-.5.14.21a7,7,0,0,1-1.68,1,4.72,4.72,0,0,1-1.72.32,2.53,2.53,0,0,1-1.54-.41,1.32,1.32,0,0,1-.55-1.12,2.29,2.29,0,0,1,.21-.94l1.53-3.75.07-.17-.07,0a.42.42,0,0,0-.21.1,8.87,8.87,0,0,0-1.46,1.61,19.48,19.48,0,0,0-1.21,2q-.45.83-1,2a1.37,1.37,0,0,1-.44.58,1.34,1.34,0,0,1-.7.15q-1.56,0-1.56-1.21a2.92,2.92,0,0,1,.2-.94l1.54-4.09Z"/><path class="cls-1" d="M143.84,31l-2.43,6.73a13.36,13.36,0,0,0,3.33-1.53l.14.24a14.38,14.38,0,0,1-1.53.9q-.69.35-2.12.9a5.26,5.26,0,0,1-.34.71,3.19,3.19,0,0,1-1.72,1.43,4.09,4.09,0,0,1-1.62.39,1.6,1.6,0,0,1-1-.26.8.8,0,0,1-.36-.68q0-1.25,2.46-1.63l.31-1a3.94,3.94,0,0,1-1.87.42,2.86,2.86,0,0,1-1.67-.42,1.39,1.39,0,0,1-.59-1.21,5.29,5.29,0,0,1,1.37-3.45,4.31,4.31,0,0,1,3.35-1.75,2.89,2.89,0,0,1,1,.14,2.33,2.33,0,0,1,.77.49Zm-5.24,7.53a3.59,3.59,0,0,0-1.44.55,1.1,1.1,0,0,0-.57.87q0,.49.56.49Q138,40.44,138.6,38.53ZM141,31.66a1,1,0,0,0-.87-.52,1.34,1.34,0,0,0-1.1.71,13.86,13.86,0,0,0-1.19,2.72q-.33.94-.42,1.32a2.86,2.86,0,0,0-.1.69.77.77,0,0,0,.21.54.68.68,0,0,0,.52.23,1.9,1.9,0,0,0,1.18-.62Z"/><path class="cls-1" d="M150.88,31.73l2.81-.55-1.84,4.95a2.3,2.3,0,0,0-.17.76.63.63,0,0,0,.66.66,2.16,2.16,0,0,0,1.6-1,13.2,13.2,0,0,0,1-1.69,8.19,8.19,0,0,1-.57-1.2,3.9,3.9,0,0,1-.23-1.3,2,2,0,0,1,.39-1.33,1.3,1.3,0,0,1,1.07-.48,1.27,1.27,0,0,1,1.07.51,2.25,2.25,0,0,1,.39,1.4,6.1,6.1,0,0,1-1,2.95,3.8,3.8,0,0,0,1.87.54h.42v.42l-.35,0a3.27,3.27,0,0,1-2.08-.82,7,7,0,0,1-2,1.74,5.42,5.42,0,0,1-2.62.6,2.67,2.67,0,0,1-1.53-.38,1.23,1.23,0,0,1-.56-1.07,1.46,1.46,0,0,1,.05-.41q.05-.18.23-.63Zm4.2,2.81a7.29,7.29,0,0,0,.4-1.26,5.86,5.86,0,0,0,.12-1.21q0-1.11-.52-1.11c-.14,0-.25.12-.35.36a2.74,2.74,0,0,0-.14,1A6.39,6.39,0,0,0,155.08,34.54Z"/><path class="cls-1" d="M166.87,30.93,165,36a1.71,1.71,0,0,0-.17.59q0,.63.69.63A3.13,3.13,0,0,0,166.6,37a5.25,5.25,0,0,0,1.21-.66l.14.21a5.88,5.88,0,0,1-1.67.93,5.2,5.2,0,0,1-1.79.36,2.24,2.24,0,0,1-1.91-.8,4.39,4.39,0,0,1-2.46.8,2.58,2.58,0,0,1-1.51-.38A1.58,1.58,0,0,1,158,36a4.54,4.54,0,0,1,.43-1.78,6.9,6.9,0,0,1,1.13-1.79,4.11,4.11,0,0,1,3.26-1.53,1.87,1.87,0,0,1,1.46.49Zm-2.84.8a1.09,1.09,0,0,0-.9-.45,1,1,0,0,0-.81.36,6,6,0,0,0-.79,1.51,17.29,17.29,0,0,0-.74,1.91,5.31,5.31,0,0,0-.3,1.32q0,.83.73.83a1.5,1.5,0,0,0,.64-.16l.61-.36-.07-.35a2.64,2.64,0,0,1,.07-.54,3.68,3.68,0,0,1,.1-.36Z"/><path class="cls-1" d="M164.72,27.53a5.1,5.1,0,0,0,.35,1.14,9.52,9.52,0,0,0,.76,1.19l-1,0-1.44-1.11a12.86,12.86,0,0,1-1.34-1.25Z"/><path class="cls-1" d="M174.75,33.95l-.28.21a5.33,5.33,0,0,1-1.11-2.95A4.47,4.47,0,0,1,174,29a5.69,5.69,0,0,1,1.67-1.86,8.37,8.37,0,0,1,4.89-1.25q1.11,0,2.57.1,3.42.24,4.27.24c.28,0,.42.06.42.17a2.31,2.31,0,0,1-.16.53q-.16.42-.31.91a.66.66,0,0,1-.61.43q-.42,0-1.25-.05t-1.25-.05l-2.32-.14q-.49,0-1.13-.05-1.51-.12-1.92-.12-5,0-5,3.33A5.67,5.67,0,0,0,174.75,33.95Zm5.52,0-.14.35a4.23,4.23,0,0,0-1.7-.35,3.68,3.68,0,0,0-2.2.66,1.93,1.93,0,0,0-.92,1.6,1.25,1.25,0,0,0,.55,1,2.31,2.31,0,0,0,1.42.42,3.4,3.4,0,0,0,2.36-1A6.55,6.55,0,0,0,181.1,34a18.34,18.34,0,0,1,1.14-3,6.15,6.15,0,0,1,3-2.52l.21.21a8.18,8.18,0,0,0-.68,2.06q-.45,2-.61,2.52a7.48,7.48,0,0,1-1.21,2.43,5.51,5.51,0,0,1-2.39,1.77,7.78,7.78,0,0,1-2.95.56,3.25,3.25,0,0,1-2-.52,1.71,1.71,0,0,1-.7-1.46,2.45,2.45,0,0,1,.88-1.87,3,3,0,0,1,2.06-.8A5.54,5.54,0,0,1,180.26,33.95Z"/><path class="cls-1" d="M190.25,31,188,37.11l-.07.21.07.07s.08,0,.13-.12a9,9,0,0,0,.39-.92,15.91,15.91,0,0,1,1.53-2.91,2.82,2.82,0,0,1,.62-1.76,1.74,1.74,0,0,1,1.35-.81q.73,0,.73.56a.51.51,0,0,1-.12.31,3.14,3.14,0,0,1-.44.42l-.58.52-.93.9v.35a1.44,1.44,0,0,0,.35,1,1.2,1.2,0,0,0,.94.38,2.39,2.39,0,0,0,.4,0,3,3,0,0,0,.5-.14l.07.42-.36.06h-.3a2.15,2.15,0,0,1-1.29-.41,2.52,2.52,0,0,1-.86-1.15,5.44,5.44,0,0,0-.56.84q-.29.51-1,1.87a3,3,0,0,1-.43.76,1.12,1.12,0,0,1-.81.24,1.83,1.83,0,0,1-1.12-.33,1,1,0,0,1-.44-.84,2.88,2.88,0,0,1,.24-1.06l1.42-4Z"/><path class="cls-1" d="M201.63,30.93,199.76,36a1.71,1.71,0,0,0-.17.59q0,.63.69.63a3.13,3.13,0,0,0,1.08-.24,5.25,5.25,0,0,0,1.21-.66l.14.21a5.88,5.88,0,0,1-1.67.93,5.2,5.2,0,0,1-1.79.36,2.24,2.24,0,0,1-1.91-.8,4.39,4.39,0,0,1-2.46.8,2.58,2.58,0,0,1-1.51-.38,1.58,1.58,0,0,1-.64-1.39,4.54,4.54,0,0,1,.43-1.78,6.9,6.9,0,0,1,1.13-1.79,4.11,4.11,0,0,1,3.26-1.53,1.87,1.87,0,0,1,1.46.49Zm-2.84.8a1.09,1.09,0,0,0-.9-.45,1,1,0,0,0-.81.36,6,6,0,0,0-.79,1.51,17.29,17.29,0,0,0-.74,1.91,5.31,5.31,0,0,0-.3,1.32q0,.83.73.83a1.5,1.5,0,0,0,.64-.16l.61-.36-.07-.35a2.64,2.64,0,0,1,.07-.54,3.68,3.68,0,0,1,.1-.36Z"/><path class="cls-1" d="M199.27,27.43h2.67a13.47,13.47,0,0,1-1.33,1.21l-1.44,1.14h-1a6.57,6.57,0,0,0,.72-1.18A5.8,5.8,0,0,0,199.27,27.43Z"/><path class="cls-1" d="M209.44,36.31l.14.21a7,7,0,0,1-4.06,1.28,5.7,5.7,0,0,1-2-.29A1.52,1.52,0,0,1,202.36,36,5,5,0,0,1,204,32.52a4.92,4.92,0,0,1,3.53-1.66q1.46,0,1.46,1.35a3.13,3.13,0,0,1-.66,1.87,1.8,1.8,0,0,1-1.39.9.74.74,0,0,1-.52-.19.65.65,0,0,1-.21-.5q0-.66,1.14-1.39t1.14-1.18a.45.45,0,0,0-.16-.35.54.54,0,0,0-.36-.14q-1.18,0-2.17,2a7.19,7.19,0,0,0-.88,3.14q0,1,1.18,1a4.62,4.62,0,0,0,1.46-.23A11.82,11.82,0,0,0,209.44,36.31Z"/><path class="cls-1" d="M215.44,26.1l-4.13,11.11,0,.14,0,.07.14-.14.59-1.21A20.79,20.79,0,0,1,213.2,34a9.68,9.68,0,0,1,1.7-2.08,3.22,3.22,0,0,1,2.1-1,1.48,1.48,0,0,1,.95.27.9.9,0,0,1,.34.74,2.18,2.18,0,0,1-.07.5A6,6,0,0,1,218,33L216.83,36a2.87,2.87,0,0,0-.17.87c0,.37.2.56.59.56a2.42,2.42,0,0,0,1-.21q.16-.07,1.44-.83l.14.21a7.06,7.06,0,0,1-1.65,1,4.6,4.6,0,0,1-1.75.36,2.66,2.66,0,0,1-1.53-.4,1.23,1.23,0,0,1-.59-1.06,2.35,2.35,0,0,1,.09-.55q.09-.34.19-.67L216,31.66l.07-.17-.07,0s-.17.09-.36.28-.38.39-.68.73a21,21,0,0,0-1.68,2.27q-.59.88-1.47,2.45a1.38,1.38,0,0,1-.47.57,2,2,0,0,1-.85.12,1.39,1.39,0,0,1-1-.35,1.16,1.16,0,0,1-.38-.9,2.15,2.15,0,0,1,.21-.87l3.37-9.09Z"/><path class="cls-1" d="M228.48,31l-2.29,6.11v.21s.09-.06.17-.17a32,32,0,0,1,2-3.9q1.57-2.38,3.31-2.38a1.48,1.48,0,0,1,1,.29A1,1,0,0,1,233,32a1.27,1.27,0,0,1,0,.23c0,.06-.05.19-.12.4l-1.35,3.3a2,2,0,0,0-.21.73q0,.59.73.59a3,3,0,0,0,1.44-.47l.82-.5.14.21a7,7,0,0,1-1.68,1,4.72,4.72,0,0,1-1.72.32,2.53,2.53,0,0,1-1.54-.41,1.32,1.32,0,0,1-.55-1.12,2.29,2.29,0,0,1,.21-.94l1.53-3.75.07-.17-.07,0a.42.42,0,0,0-.21.1A8.87,8.87,0,0,0,229,33.06a19.32,19.32,0,0,0-1.21,2q-.45.83-1,2a1.36,1.36,0,0,1-.44.58,1.34,1.34,0,0,1-.7.15q-1.56,0-1.56-1.21a2.93,2.93,0,0,1,.21-.94l1.54-4.09Z"/><path class="cls-1" d="M240,26.1l-4.13,11.11,0,.14,0,.07.14-.14.59-1.21a20.79,20.79,0,0,1,1.16-2.1,9.68,9.68,0,0,1,1.7-2.08,3.22,3.22,0,0,1,2.1-1,1.48,1.48,0,0,1,.95.27.9.9,0,0,1,.34.74,2.18,2.18,0,0,1-.07.5,6,6,0,0,1-.17.58L241.39,36a2.87,2.87,0,0,0-.17.87c0,.37.2.56.59.56a2.42,2.42,0,0,0,1-.21q.16-.07,1.44-.83l.14.21a7.06,7.06,0,0,1-1.65,1,4.6,4.6,0,0,1-1.75.36,2.66,2.66,0,0,1-1.53-.4,1.23,1.23,0,0,1-.59-1.06,2.35,2.35,0,0,1,.09-.55q.09-.34.19-.67l1.42-3.52.07-.17-.07,0s-.17.09-.36.28-.38.39-.68.73a21,21,0,0,0-1.68,2.27q-.59.88-1.47,2.45a1.38,1.38,0,0,1-.47.57,2,2,0,0,1-.85.12,1.39,1.39,0,0,1-1-.35,1.16,1.16,0,0,1-.38-.9,2.15,2.15,0,0,1,.21-.87l3.37-9.09Z"/><path class="cls-1" d="M248.29,30.86l-1.87,5.24c0,.12-.07.24-.09.37a1.53,1.53,0,0,0,0,.29q0,.59.69.59a2.72,2.72,0,0,0,1.44-.54l.78-.54.14.17a5.27,5.27,0,0,1-1.58,1,4.69,4.69,0,0,1-1.73.32,3.42,3.42,0,0,1-1.65-.33,1,1,0,0,1-.59-.92,2.38,2.38,0,0,1,.17-.8l1.56-4.27Zm-.42-3.92a1.42,1.42,0,0,1,1.46,1.46,1.37,1.37,0,0,1-.42,1,1.41,1.41,0,0,1-1,.42,1.39,1.39,0,0,1-1.42-1.42,1.45,1.45,0,0,1,.4-1A1.36,1.36,0,0,1,247.88,26.94Z"/><path class="cls-1" d="M257.35,36.31l.14.24a10,10,0,0,1-2.46,1,11.8,11.8,0,0,1-2.78.29,6.25,6.25,0,0,1-2-.26,1.44,1.44,0,0,1-1.11-1.41,5.87,5.87,0,0,1,.56-2.15,5,5,0,0,1,4.82-3.12q1.91,0,1.91,1.21A2.51,2.51,0,0,1,255.26,34a9.62,9.62,0,0,1-3.08,1.55,1.55,1.55,0,0,0-.09.37c0,.12,0,.22,0,.29a1.06,1.06,0,0,0,.42.88,1.8,1.8,0,0,0,1.14.33A7.78,7.78,0,0,0,257.35,36.31Zm-5.1-1.11a10.68,10.68,0,0,0,1.84-1.72,3.78,3.78,0,0,0,1.14-2c0-.25-.15-.38-.45-.38q-.69,0-1.56,1.68A13.84,13.84,0,0,0,252.25,35.2Z"/><path class="cls-1" d="M251.24,38.39a1.42,1.42,0,0,1,1.46,1.46,1.37,1.37,0,0,1-.42,1,1.41,1.41,0,0,1-1,.42,1.39,1.39,0,0,1-1.42-1.42,1.45,1.45,0,0,1,.4-1A1.36,1.36,0,0,1,251.24,38.39Zm2.22-10.86h1.77a6.82,6.82,0,0,0,.83,2.32h-.69q-.33-.23-.82-.61l-.82-.64-1.35,1.25h-.62a10,10,0,0,0,1.06-1.18A5.06,5.06,0,0,0,253.46,27.53Z"/><path class="cls-1" d="M261.82,30.9l-2.25,6.28a.54.54,0,0,0-.07.21l0,.07.14-.1,1.14-2.5a12.36,12.36,0,0,1,1.67-2.69,3.13,3.13,0,0,1,2.32-1.27q1.35,0,1.35,1.11a2.33,2.33,0,0,1-.17.76l-1.73,4.41-.07.2.07.08c.08,0,.14-.07.18-.21l.87-1.87a19.71,19.71,0,0,1,1-1.91,7.32,7.32,0,0,1,1.47-1.8,3,3,0,0,1,1.94-.8,1.49,1.49,0,0,1,1,.29.93.93,0,0,1,.35.76,1.31,1.31,0,0,1-.14.59l-1.42,3.7a1,1,0,0,0-.07.42.55.55,0,0,0,.62.63,4.58,4.58,0,0,0,2.32-1l.17.21a6,6,0,0,1-3.5,1.31,2.48,2.48,0,0,1-1.48-.41,1.23,1.23,0,0,1-.56-1,2.93,2.93,0,0,1,.2-1l1.5-3.79.06-.09-.06-.1-.14.07-.35.31a10.34,10.34,0,0,0-1.84,2.44q-1,1.92-1.49,2.76a1.94,1.94,0,0,1-.49.72,1.32,1.32,0,0,1-.72.15,1.52,1.52,0,0,1-1.08-.38,1.31,1.31,0,0,1-.42-1,2.76,2.76,0,0,1,.24-1l1.49-3.84.07-.14-.07-.07s-.13.06-.24.17a14,14,0,0,0-2,2.6A30.73,30.73,0,0,0,260.06,37a1.48,1.48,0,0,1-.4.61,1.07,1.07,0,0,1-.64.16q-1.63,0-1.63-1.25a2.55,2.55,0,0,1,.24-1l1.42-4Z"/></svg>