<?xml version="1.0" encoding="UTF-8"?>
<svg width="223px" height="70px" viewBox="0 0 223 70" version="1.1" xmlns="http://www.w3.org/2000/svg" xmlns:xlink="http://www.w3.org/1999/xlink">
    <!-- Generator: Sketch 56.2 (81672) - https://sketch.com -->
    <title>logo_white_noslogan</title>
    <desc>Created with Sketch.</desc>
    <g id="Page-1" stroke="none" stroke-width="1" fill="none" fill-rule="evenodd">
        <g id="logo_white_noslogan" fill="#FFFFFF" fill-rule="nonzero">
            <path d="M25.757351,21.0022487 C28.5856142,17.8939951 32.1461423,16.3398901 36.439042,16.3398901 C40.479418,16.3398901 43.8505562,17.5528505 46.5525579,19.9788045 C48.2444653,21.5455665 49.4439341,23.3270998 50.1509998,25.3234578 C50.8580658,27.3450862 51.3963817,29.978428 51.3963817,33.2635742 L51.3963817,52.5847373 C51.3963817,52.7488151 51.2633705,52.8818262 51.0992928,52.8818262 L47.4403971,52.8818262 C45.2555672,52.8818262 43.4844126,51.1106716 43.4844126,48.9258417 L43.4844126,33.8900652 C43.4844126,30.4027563 43.0677549,27.8757587 42.2344273,26.3089967 C41.1990811,24.4137201 39.4061911,23.466096 36.8557036,23.466096 C35.5678338,23.466096 34.368365,23.7567007 33.2572617,24.3379189 C32.1461581,24.919137 31.3254693,25.6898713 30.7951697,26.6501448 C29.9365899,28.1916364 29.5073063,30.8449838 29.5073063,34.6102667 L29.5073063,52.5847373 C29.5073063,52.7488151 29.3742951,52.8818262 29.2102174,52.8818262 L25.643716,52.8818262 C23.5099139,52.8818262 21.7801256,51.1520379 21.7801256,49.0182357 L21.7801256,33.8900652 C21.7801256,30.4027563 21.3634681,27.8757587 20.5301405,26.3089967 C19.4947941,24.4137201 17.6892781,23.466096 15.1135383,23.466096 C13.8004161,23.466096 12.5883214,23.7567007 11.477218,24.3379189 C10.3661146,24.919137 9.54542549,25.6898713 9.01512612,26.6501448 C8.1565462,28.2169068 7.72726268,30.8702542 7.72726268,34.6102667 L7.72726268,52.5847373 C7.72726268,52.7488151 7.59425143,52.8818262 7.43017377,52.8818262 L3.86363134,52.8818262 C1.72980667,52.8818262 0,51.1520195 0,49.018195 L0,20.2035215 C0,18.0696968 1.72980667,16.3398901 3.86363134,16.3398901 L7.43017377,16.3398901 C7.59425143,16.3398901 7.72726268,16.4729014 7.72726268,16.636979 L7.72726268,19.9029938 C10.0252266,17.5275805 12.7650655,16.3398901 15.9468618,16.3398901 C19.709462,16.3398901 22.9795924,17.8939951 25.757351,21.0022487 Z M79.6198283,31.4914246 C79.0362871,29.2931341 78.2117305,27.5445202 77.1461335,26.2455303 C75.5223667,24.1971233 73.3024063,23.1729351 70.4861856,23.1729351 C68.1012782,23.1729351 66.0969711,23.8973609 64.4732044,25.3462341 C62.8494376,26.7951074 61.7584855,28.8434838 61.2003157,31.4914246 L79.6198283,31.4914246 Z M61.404999,37.5748691 C61.7825723,39.3917749 62.4496079,40.9563089 63.4061263,42.2685186 C65.1933057,44.6658247 67.7481785,45.8644599 71.0708215,45.8644599 C72.8831723,45.8644599 74.5507618,45.4733263 76.0736398,44.6910475 C76.6264174,44.4070941 77.3054272,43.8475972 78.1106692,43.0125564 C79.6001262,41.4679834 81.904977,41.0374112 83.8516064,41.9400856 L86.9886665,43.3947767 C87.1375158,43.4638035 87.2022283,43.6404258 87.1332044,43.7892766 C87.1261513,43.8044873 87.117823,43.8190734 87.1083087,43.8328792 C82.783119,50.1090211 77.4247042,53.1204219 71.0330645,52.867082 C65.7506074,52.6577059 61.4301871,50.9618832 58.0823727,47.1514282 C55.0114448,43.6185559 53.4760041,39.4296418 53.4760041,34.5845602 C53.4760041,28.9319647 55.4393547,24.3014481 59.3661147,20.6928716 C62.5125569,17.7908694 66.2378887,16.3398901 70.5422219,16.3398901 C75.4255006,16.3398901 79.490643,18.1567686 82.7377713,21.7905799 C84.4242646,23.68319 85.6576515,26.0173741 86.4379692,28.7932022 C87.0420861,30.9129254 87.3441399,33.1083203 87.3441399,35.3794524 L87.3441399,36.2121965 C87.3441399,36.565484 87.3315544,37.0197035 87.3063829,37.5748691 L61.404999,37.5748691 Z M107.786634,23.1729351 C104.891622,23.1729351 102.462366,24.2499133 100.498793,26.403902 C98.6610896,28.4058445 97.7422518,31.0792845 97.7422518,34.4243024 C97.7422518,38.2507998 98.9002391,41.190317 101.216249,43.2429417 C103.129474,44.9154503 105.369927,45.7516924 107.937677,45.7516924 C110.883037,45.7516924 113.299706,44.7000549 115.187757,42.596748 C117.02546,40.5948058 117.944298,37.8453436 117.944298,34.3482797 C117.944298,30.5724641 116.798897,27.6582877 114.508062,25.6056631 C112.720707,23.9838363 110.480253,23.1729351 107.786634,23.1729351 Z M125.371521,52.8818262 L121.729343,52.8818262 C119.485966,52.8818262 117.667351,51.0632104 117.667351,48.8198338 L117.667351,48.8198338 C114.167726,51.5278423 110.642978,52.8818262 107.092999,52.8818262 C104.247981,52.8818262 101.491124,52.1099289 98.8223462,50.5661109 C95.977328,48.9210591 93.761772,46.6939452 92.1756114,43.8847027 C90.5390965,41.0248435 89.7208512,37.9119459 89.7208512,34.5459166 C89.7208512,29.0286657 91.7224049,24.4605517 95.7255719,20.8414376 C99.1244877,17.8044188 102.913592,16.2859321 107.092999,16.2859321 C110.617801,16.2859321 114.142549,17.6399161 117.667351,20.3479245 L117.667351,7.70417008 C117.667351,3.44927442 121.116625,0 125.371521,0 L125.371521,0 L125.371521,52.8818262 Z M145.776253,23.1729351 C142.881242,23.1729351 140.464573,24.2245726 138.526173,26.3278793 C136.68847,28.3298218 135.769633,31.0666133 135.769633,34.5383364 C135.769633,38.3394931 136.915033,41.2663396 139.205868,43.3189644 C140.993224,44.9407911 143.208504,45.7516924 145.851775,45.7516924 C147.689478,45.7516924 149.426459,45.2702197 151.06277,44.30726 C154.335392,42.3053175 155.971678,39.0363718 155.971678,34.5003251 C155.971678,30.6738276 154.813691,27.7343105 152.497682,25.6816859 C150.609631,24.009177 148.369177,23.1729351 145.776253,23.1729351 Z M135.749491,16.0428012 L135.749491,16.0428012 L135.749491,20.1119108 C139.249115,17.3991575 142.773863,16.0428012 146.323842,16.0428012 C149.16886,16.0428012 151.925717,16.8160511 154.594495,18.362574 C157.439513,20.0105082 159.655069,22.2415242 161.24123,25.0556888 C162.877745,27.9205591 163.69599,31.038911 163.69599,34.410838 C163.69599,39.9631086 161.694437,44.5392268 157.69127,48.1393291 C154.292354,51.1816693 150.503249,52.7028165 146.323842,52.7028165 C142.799041,52.7028165 139.274292,51.3464603 135.749491,48.633707 L135.749491,62.1117242 C135.749491,66.3666197 132.300216,69.8158942 128.045321,69.8158942 L128.045321,69.8158942 L128.045321,23.7469713 C128.045321,19.4920756 131.494595,16.0428012 135.749491,16.0428012 Z M170.197546,17.3072584 L173.722307,17.2371808 C173.886352,17.2339194 174.021981,17.3642604 174.025243,17.5283056 C174.025281,17.5302739 174.025301,17.5322424 174.025301,17.5342111 L174.025301,20.1610665 C175.526389,18.9434356 176.73975,18.1570608 177.665422,17.8019185 C178.591092,17.4214088 179.829472,17.2311569 181.380596,17.2311569 C181.755868,17.2311569 183.619705,17.3326254 184.195125,17.38336 L184.195125,22.7402022 C184.195125,23.5962565 183.501164,24.2902256 182.645109,24.2902256 C182.630145,24.2902256 182.615182,24.2900089 182.600224,24.2895756 C182.600224,24.2895756 182.600224,24.2895756 182.600224,24.2895756 C182.162406,24.2768919 181.805903,24.2705502 181.530704,24.2705502 C178.453473,24.2705502 176.376999,25.2979109 175.301219,27.352663 C174.450603,28.9761708 174.025301,31.6270151 174.025301,35.305275 L174.025301,52.5847373 C174.025301,52.7488151 173.89229,52.8818262 173.728212,52.8818262 L170.197546,52.8818262 C168.083535,52.8818262 166.36979,51.1680819 166.36979,49.0540709 L166.36979,21.2118717 C166.36979,19.0852434 168.071338,17.3495306 170.197546,17.3072584 Z M204.672922,23.1729351 C201.778616,23.1729351 199.324785,24.2625836 197.311354,26.4419134 C195.499267,28.4185148 194.593237,31.0792845 194.593237,34.4243024 C194.593237,38.200118 195.750942,41.1396348 198.066387,43.2429417 C199.953978,44.9154503 202.206469,45.7516924 204.823929,45.7516924 C207.89441,45.7516924 210.41116,44.6620439 212.374255,42.482714 C214.186342,40.4807715 215.092372,37.7693206 215.092372,34.3482797 C215.092372,30.6484871 213.947251,27.7723218 211.656974,25.7196973 C209.79455,24.0218473 207.466557,23.1729351 204.672922,23.1729351 Z M204.978905,16.0428012 C210.216407,16.0428012 214.606227,18.0139233 218.148499,21.9562266 C221.260638,25.4183775 222.816684,29.5248818 222.816684,34.2758628 C222.816684,39.8860634 220.805209,44.4853482 216.782201,48.0738552 C213.391741,51.0811249 209.368793,52.5847373 204.713236,52.5847373 C199.298621,52.5847373 194.820245,50.6262506 191.277974,46.7092185 C188.140533,43.2723386 186.571836,39.1405636 186.571836,34.3137693 C186.571836,29.6386019 188.014025,25.6331808 190.898446,22.2973857 C194.541926,18.1276419 199.235365,16.0428012 204.978905,16.0428012 Z" id="medpro-copy-2"></path>
        </g>
    </g>
</svg>