<svg width="1024" height="1024" viewBox="0 0 1024 1024" fill="none" xmlns="http://www.w3.org/2000/svg">
<rect width="1024" height="1024" fill="white"/>
<g clip-path="url(#clip0)">
<path d="M516.922 704.415C528.227 704.415 539.647 704.415 550.952 704.415C555.335 704.415 558.219 705.914 560.296 710.182C567.217 724.715 581.06 730.482 598.709 726.791C615.666 723.1 631.355 715.949 646.581 707.875C691.455 684.229 729.407 652.394 758.707 610.755C784.662 573.959 800.235 533.012 806.58 488.489C812.347 448.234 809.81 408.555 799.082 369.338C783.393 311.665 751.555 264.489 706.105 225.964C683.034 206.471 657.886 190.207 630.086 178.096C619.358 173.367 608.053 169.56 596.633 166.907C584.52 164.139 572.754 166.215 564.218 176.827C562.257 179.249 561.334 182.364 559.373 184.67C557.527 186.631 554.874 189.054 552.567 189.054C529.034 189.4 505.386 189.4 481.854 189.4C474.356 189.4 472.164 186.401 473.433 179.019C477.701 152.835 488.775 129.997 508.732 112.465C530.072 93.6633 555.566 85.3585 584.174 87.0887C615.666 89.0495 645.197 98.6232 673.344 112.119C747.402 147.645 804.849 201.511 846.723 271.987C864.603 301.976 876.831 334.157 884.791 368.069C893.442 404.979 894.596 442.466 891.712 480.184C888.482 522.4 876.716 562.31 858.259 600.258C840.263 637.284 816.269 670.042 787.431 699.339C762.744 724.254 735.867 746.631 705.874 764.625C669.306 786.54 630.316 803.034 587.289 806.264C542.877 809.609 508.501 791.961 486.237 752.629C479.431 740.633 475.625 727.83 473.317 714.334C472.164 707.529 474.356 704.415 481.277 704.299C493.043 704.068 504.81 704.184 516.691 704.184C516.922 704.299 516.922 704.415 516.922 704.415Z" fill="#0272BB"/>
<path d="M129.097 444.427C129.443 391.599 139.479 340.847 161.742 292.633C180.891 251.224 208.461 216.621 243.068 187.093C287.018 149.721 335.814 121.115 390.723 103.237C424.407 92.2792 459.129 86.6273 494.428 85.3585C496.735 85.2432 499.157 86.9734 501.464 87.8961C500.426 90.0877 499.965 93.0866 498.234 94.4708C489.352 102.199 480.585 110.042 474.01 119.962C466.512 131.266 460.975 143.377 457.283 156.296C454.169 166.907 451.977 168.984 441.018 170.714C422.561 173.597 404.912 179.134 387.608 186.055C345.504 202.895 308.821 227.694 278.828 261.836C251.72 292.633 232.571 327.813 220.804 367.031C208 409.939 205.231 453.655 213.306 497.716C218.613 526.899 229.687 554.235 243.875 580.188C265.562 619.982 295.209 652.625 332.699 678.001C365.691 700.262 401.682 715.834 440.903 722.87C450.939 724.715 454.976 729.444 457.629 738.441C464.666 761.972 476.778 782.388 496.504 797.613C499.157 799.574 502.849 801.65 501.349 805.572C499.849 809.609 495.697 808.456 492.351 808.34C442.402 806.264 394.76 794.96 349.31 774.313C298.669 751.245 254.373 719.409 215.959 679.269C182.852 644.666 160.243 603.949 146.285 558.273C134.864 521.247 129.327 483.183 129.097 444.427Z" fill="#0272BB"/>
<path d="M373.535 866.82C372.035 865.782 370.766 864.282 369.036 863.821C348.849 857.708 330.853 846.981 313.204 835.908C300.976 828.18 289.21 819.529 277.905 810.416C269.484 803.726 265.562 794.499 267.869 783.31C269.369 776.274 272.945 773.16 280.212 773.275C291.632 773.506 301.553 778.351 311.473 783.08C330.738 792.423 349.656 802.573 369.267 811.339C387.493 819.413 406.526 825.873 424.983 833.485C448.516 843.174 469.857 856.093 486.237 876.048C495.004 886.775 501.118 898.655 501.579 912.843C502.502 943.063 503.425 973.168 504.117 1003.39C504.348 1010.77 500.426 1014.23 493.158 1014C469.28 1013.19 445.632 1009.5 422.33 1004.08C417.37 1002.93 412.41 1001.31 407.565 999.582C403.296 998.083 401.335 994.853 402.028 990.239C402.374 988.394 402.489 986.433 403.066 984.587C407.565 969.938 403.758 957.481 393.145 946.523C381.956 935.104 368.228 928.068 353.924 921.724C333.16 912.727 312.396 903.846 291.748 894.387C272.137 885.391 258.525 870.05 248.605 851.249C242.26 839.137 237.184 826.334 230.494 814.453C213.537 784.233 195.887 754.244 178.815 724.023C175.008 717.218 172.239 709.605 169.471 702.223C168.548 699.685 168.663 696.686 168.894 693.918C169.817 684.114 179.968 679.269 187.582 685.613C193.234 690.342 198.079 696.34 202.232 702.338C208.461 711.566 213.883 721.37 219.65 730.944C225.534 740.517 233.493 748.015 243.068 753.782C254.603 760.703 260.486 770.738 260.832 784.349C261.178 797.613 265.677 808.802 276.405 817.453C294.401 831.871 313.896 843.866 334.429 854.132C344.927 859.323 356.001 863.244 366.959 867.512C368.69 868.204 370.766 868.089 372.727 868.32C373.073 867.974 373.304 867.397 373.535 866.82Z" fill="#EC2626"/>
<path d="M649.696 868.665C651.773 868.319 653.849 868.204 655.81 867.743C670.806 864.052 684.187 856.554 697.684 849.288C714.872 839.945 731.368 829.564 746.595 817.106C756.169 809.263 761.014 798.997 761.245 787.232C761.476 771.891 767.589 760.818 780.74 753.09C795.159 744.67 803.234 730.713 811.425 716.872C816.731 707.875 822.845 699.455 828.843 690.919C830.228 688.958 832.419 687.459 834.38 685.959C838.072 683.076 842.225 681.807 846.723 684.114C851.453 686.536 853.645 690.688 853.645 695.994C853.645 703.953 850.876 711.104 847.069 717.794C836.111 737.057 824.575 756.089 813.732 775.467C803.35 794.153 793.544 813.3 783.393 832.217C777.741 842.713 772.55 853.44 766.09 863.475C755.246 880.546 739.327 891.273 720.755 899.001C697.915 908.459 675.42 918.725 653.041 929.106C642.429 934.066 633.431 941.448 625.702 950.33C616.935 960.48 615.551 972.13 619.012 984.702C621.895 995.199 620.165 998.544 609.668 1001.54C583.597 1008.92 556.95 1012.85 529.957 1014.12C521.652 1014.46 517.96 1011.35 518.191 1002.93C518.998 971.438 519.69 939.949 521.19 908.459C521.882 894.041 530.072 882.507 539.532 872.126C556.604 853.209 578.176 841.213 601.362 831.755C628.817 820.567 656.387 809.494 683.611 797.728C694.223 793.115 703.913 786.54 714.411 781.465C723.178 777.197 732.175 773.391 742.096 773.275C749.248 773.275 752.939 776.39 754.439 783.426C756.861 794.614 752.363 803.265 744.403 810.532C729.753 823.796 713.026 834.177 695.838 843.866C682.226 851.479 668.499 858.861 653.618 863.706C651.888 864.282 650.388 865.667 648.773 866.705C649.119 867.281 649.465 867.973 649.696 868.665Z" fill="#EC2626"/>
<path d="M112.831 662.89C108.102 653.201 103.141 644.435 99.3346 635.323C95.9893 627.48 101.18 619.175 109.371 618.137C111.908 617.791 114.562 618.713 117.561 619.059C117.561 618.944 117.907 618.483 117.907 618.021C118.714 610.87 121.944 606.487 127.366 605.103C134.749 603.257 140.286 605.103 144.208 611.562C149.399 620.213 154.013 629.325 159.089 638.668C143.631 646.742 128.52 654.701 112.831 662.89ZM145.823 633.131C143.054 628.172 140.747 623.442 137.979 618.944C136.248 616.06 133.48 614.792 130.019 616.291C126.789 617.791 125.174 620.559 126.443 623.904C128.52 629.21 131.173 634.17 133.711 639.591C138.209 637.169 141.901 635.208 145.823 633.131ZM126.097 643.512C123.675 639.014 121.598 634.631 119.06 630.594C117.561 628.172 115.023 626.672 111.908 628.056C109.025 629.325 107.756 631.747 108.794 634.516C110.755 639.475 113.408 644.089 115.83 649.049C119.522 646.973 122.636 645.358 126.097 643.512Z" fill="#0C74BA"/>
<path d="M163.011 249.379C156.436 244.765 150.668 240.728 144.67 236.576C143.401 237.844 142.362 238.998 141.094 240.382C139.479 239.344 137.748 238.306 135.903 237.037C136.825 235.422 137.518 234.153 138.556 232.308C132.788 228.155 126.905 223.888 120.33 219.159C126.097 211.546 131.404 203.702 137.518 196.782C141.555 192.168 147.553 190.553 153.667 191.937C164.28 194.244 172.586 199.781 177.892 209.354C181.007 214.891 181.122 220.889 178.007 226.195C173.508 234.038 168.202 241.42 163.011 249.379ZM145.131 223.311C147.438 220.081 149.63 217.198 151.822 214.083C153.783 215.583 155.398 216.736 157.128 218.005C155.052 221.119 153.091 224.118 150.899 227.233C154.475 229.77 157.935 232.193 161.281 234.615C167.741 228.617 171.894 221.004 170.048 217.082C166.01 208.662 158.858 203.356 150.091 202.087C141.209 200.934 139.133 209.931 134.057 215.352C137.748 218.236 141.209 220.658 145.131 223.311Z" fill="#0C74B9"/>
<path d="M938.546 602.219C937.393 605.449 936.355 608.332 935.086 611.792C918.936 605.91 903.017 600.143 886.521 594.029C887.675 590.915 888.482 588.031 889.866 585.379C890.443 584.225 892.289 583.418 893.673 583.072C903.017 580.88 912.361 578.919 921.704 576.843C923.319 576.497 924.934 576.036 926.549 574.651C916.975 571.076 907.4 567.615 897.48 563.924C898.749 560.695 899.787 557.696 901.056 554.466C917.436 560.464 933.24 566.231 949.39 572.114C948.582 574.651 948.236 576.958 947.083 578.919C946.16 580.419 944.545 582.149 942.93 582.61C932.778 585.032 922.512 587.224 912.361 589.416C910.976 589.762 909.477 590.108 906.939 590.684C918.128 594.606 928.164 598.412 938.546 602.219Z" fill="#0C74BA"/>
<path d="M125.982 275.793C116.407 271.41 106.833 267.027 96.9123 262.413C98.2965 259.299 99.6808 256.415 101.18 253.185C116.869 260.337 132.326 267.373 147.784 274.409C147.669 275.216 147.669 275.562 147.553 276.024C146.054 282.829 141.901 285.597 134.864 285.943C126.328 286.405 117.907 288.135 109.486 289.288C108.563 289.404 107.64 289.865 105.679 290.326C115.831 294.94 124.944 299.093 134.864 303.706C133.48 306.821 132.096 309.82 130.596 312.934C114.908 305.783 99.5654 298.862 84.2231 291.826C85.4921 283.867 87.2224 282.137 94.7205 281.099C105.102 279.599 115.369 278.1 125.751 276.6C125.866 276.37 125.866 276.139 125.982 275.793Z" fill="#0B74BA"/>
<path d="M858.951 195.628C852.491 200.242 846.146 204.856 839.686 209.47C837.956 210.738 836.226 212.122 834.034 213.622C831.958 210.969 829.996 208.431 827.805 205.548C841.647 195.167 855.259 184.901 869.102 174.52C870.717 176.712 872.447 178.326 873.485 180.403C874.293 182.133 874.87 184.555 874.178 186.285C870.256 197.243 866.103 207.97 862.527 219.505C871.063 213.161 879.715 206.701 888.482 200.242C890.558 203.01 892.404 205.432 894.596 208.316C880.868 218.582 867.372 228.732 853.414 239.344C851.453 236.691 849.376 234.269 847.646 231.616C847.069 230.808 847.415 229.078 847.877 228.04C851.337 218.697 854.913 209.354 858.374 199.896C858.605 198.512 858.72 197.012 858.951 195.628C859.181 195.628 859.412 195.628 859.643 195.628C859.527 195.513 859.412 195.282 859.412 195.167C859.181 195.167 859.066 195.397 858.951 195.628Z" fill="#0C74BA"/>
<path d="M914.091 399.212C913.745 398.404 913.629 398.174 913.514 397.943C910.861 391.599 912.36 386.87 917.897 382.372C925.396 376.258 932.086 369.338 938.777 361.956C928.625 363.801 918.474 365.762 907.861 367.723C907.169 364.378 906.593 361.263 905.9 357.688C922.858 354.458 939.584 351.344 956.657 348.229C957.234 351.574 958.156 354.343 958.272 357.226C958.272 358.495 957.118 360.11 956.08 361.033C948.236 368.415 940.392 375.682 932.547 382.948C931.855 383.64 931.279 384.448 930.24 385.601C941.315 383.64 951.697 381.679 962.655 379.719C963.347 383.064 963.924 386.063 964.616 389.638C947.544 392.983 930.933 396.098 914.091 399.212Z" fill="#0B74BA"/>
<path d="M68.9963 558.619C68.1888 555.274 67.3813 552.621 67.1506 549.852C67.0352 548.699 67.9581 547.084 68.8809 546.277C76.2637 538.895 83.6464 531.512 91.1445 524.246C92.2981 523.208 93.7977 522.516 95.182 521.708C94.8359 521.247 94.3745 520.785 94.0284 520.324C83.5311 522.631 73.1491 524.822 62.1903 527.245C61.3828 524.015 60.6907 520.901 59.9985 517.902C60.6907 517.44 61.0367 517.094 61.4982 517.094C77.5326 513.519 93.6823 509.943 110.178 506.252C110.87 509.366 111.909 512.25 112.255 515.249C112.37 516.518 111.332 518.248 110.409 519.286C103.488 526.322 96.4509 533.243 89.5295 540.163C88.376 541.317 87.3378 542.47 85.4921 544.431C96.6816 542.009 106.833 539.817 117.33 537.51C118.138 540.74 118.83 543.739 119.637 547.43C102.68 551.236 86.0689 554.927 68.9963 558.619Z" fill="#0B74BA"/>
<path d="M881.676 644.32C883.983 640.052 885.829 636.822 887.79 633.247C890.443 634.631 892.75 635.9 895.634 637.399C892.058 644.204 888.482 650.779 884.675 658.046C878.907 654.932 873.14 651.933 867.603 648.703C866.795 648.242 866.103 646.857 866.103 645.819C865.065 633.708 868.295 622.981 877.754 614.907C886.867 607.063 900.94 607.986 911.899 616.868C921.474 624.596 924.011 636.822 918.128 647.896C914.437 654.816 910.284 661.16 901.633 662.429C899.095 662.775 896.442 662.429 893.096 662.429C894.25 658.738 895.057 655.854 896.211 653.086C896.557 652.394 897.941 651.702 898.864 651.702C904.862 651.471 908.323 648.126 910.284 642.82C912.361 637.284 912.13 631.632 907.285 627.941C903.132 624.711 898.056 621.828 892.981 620.789C881.33 618.598 875.216 630.478 876.716 639.937C876.831 641.321 879.6 642.474 881.676 644.32Z" fill="#0D74BA"/>
<path d="M693.646 44.8723C697.338 46.7178 700.337 48.2173 703.567 49.8321C699.529 58.2523 695.723 66.3265 691.801 74.2853C690.993 75.9001 690.186 77.3996 689.494 79.0144C685.918 87.2039 690.07 94.1246 699.068 94.8167C702.644 95.0473 704.951 93.2018 706.451 90.2029C710.257 82.5901 714.064 74.9773 717.871 67.2492C719.255 64.4809 720.524 61.7127 722.139 58.483C725.369 60.0978 728.484 61.5973 731.944 63.3275C729.291 68.7487 726.869 73.9392 724.446 79.0144C729.06 81.3213 731.829 80.6292 734.713 76.1308C733.444 75.3234 732.29 74.6313 730.675 73.5932C732.175 70.7096 733.559 67.8259 735.174 64.7116C738.289 66.3265 741.173 67.7106 743.941 69.0947C740.365 82.4747 735.52 85.8198 722.139 83.9742C720.524 87.2039 718.794 90.6642 716.948 94.0092C711.296 104.39 704.605 106.928 693.416 102.66C690.301 101.507 687.186 99.8918 684.533 97.931C676.92 92.6251 674.613 86.1658 678.304 77.6303C682.918 67.0185 688.34 56.2915 693.646 44.8723Z" fill="#0E74B9"/>
<path d="M943.737 476.147C936.816 476.147 930.587 476.262 924.473 476.032C923.204 476.032 921.589 474.648 920.897 473.379C915.014 463.805 913.514 453.424 917.09 442.812C922.281 427.356 942.814 421.704 957.926 431.278C969.577 438.66 972.922 459.422 963.694 469.688C961.156 472.571 957.349 474.417 953.427 477.3C952.619 473.263 951.927 470.61 951.812 468.073C951.812 466.804 952.619 465.074 953.658 464.382C958.733 461.268 960.348 456.654 959.656 451.117C958.849 445.004 955.619 440.621 949.505 439.121C946.621 438.314 943.391 438.083 940.276 438.314C927.357 439.121 921.358 448.58 926.088 460.46C928.164 465.766 928.626 465.997 935.201 464.843C935.201 461.152 935.201 457.461 935.201 453.424C938.315 453.424 940.853 453.424 943.968 453.424C943.968 457.461 943.968 461.268 943.968 464.959C943.737 468.65 943.737 472.341 943.737 476.147Z" fill="#0C74BA"/>
<path d="M313.896 66.7879C313.55 50.4089 328.777 42.1041 341.004 41.7581C355.078 41.412 366.959 55.2534 366.959 71.4017C366.844 84.897 354.386 96.0855 339.274 95.9702C325.431 95.8548 313.896 82.7055 313.896 66.7879ZM355.885 71.4017C355.309 65.6344 353.117 59.8672 348.618 55.1381C344.234 50.6396 339.043 50.5243 333.506 52.7158C328.2 54.792 324.624 59.9826 324.97 65.4038C325.316 71.517 327.393 77.1689 331.661 81.7827C335.698 86.0505 341.466 87.3193 347.003 85.1277C352.54 82.9362 355.885 77.9763 355.885 71.4017Z" fill="#0C74BA"/>
<path d="M465.358 40.0279C455.322 45.7952 457.514 54.9074 459.129 64.135C455.207 64.4811 451.746 64.7118 447.939 65.0578C446.324 47.7561 444.594 31.031 442.979 13.8447C446.786 13.4986 450.131 13.1526 453.822 12.8066C454.63 19.9579 455.322 26.8786 456.13 34.7221C457.86 32.6459 459.129 31.2617 460.398 29.7623C462.935 26.5326 465.819 23.5336 467.896 19.9579C472.625 11.6531 479.316 8.19275 489.237 9.92293C483.584 16.8436 477.932 23.8797 471.933 31.2617C479.777 40.8354 487.506 50.2936 495.812 60.3286C491.313 60.9054 487.391 61.4821 483.469 61.5974C482.315 61.5974 480.931 60.444 480.123 59.4059C475.048 52.9466 470.088 46.3719 465.358 40.0279Z" fill="#0D73B9"/>
<path d="M247.913 88.7034C246.644 98.5077 245.606 107.389 244.452 116.732C256.103 120.769 267.754 124.806 280.097 129.074C276.406 131.958 273.406 134.495 270.061 136.572C269.023 137.264 266.946 136.802 265.678 136.341C258.295 133.573 250.912 130.574 242.376 127.229C242.376 132.188 241.338 136.802 242.606 140.724C243.991 144.646 247.567 147.875 250.451 151.566C247.451 153.873 244.798 155.949 241.799 158.256C231.302 144.53 221.035 131.035 210.538 117.309C213.421 115.117 216.075 112.926 219.189 110.619C223.688 116.386 227.956 121.923 232.571 128.036C232.917 126.767 233.263 126.075 233.378 125.383C234.301 117.424 234.878 109.581 236.031 101.622C236.377 99.4305 237.762 97.1235 239.376 95.5087C241.684 92.9711 244.567 91.241 247.913 88.7034Z" fill="#0C74B9"/>
<path d="M542.646 61.2514C538.263 61.2514 534.917 61.2514 531.457 61.2514C531.457 53.7539 531.457 46.6026 531.457 38.9898C524.651 38.9898 518.191 38.9898 510.808 38.9898C510.808 46.1412 510.808 53.2926 510.808 60.3286C506.655 60.3286 503.31 60.3286 500.311 60.3286C500.311 43.1422 500.311 26.4172 500.311 9.00013C503.771 9.00013 506.655 8.76944 509.539 9.11548C510.462 9.23082 511.615 11.307 511.731 12.4605C511.961 17.8817 511.846 23.3029 511.846 29.3008C518.306 29.3008 524.881 29.3008 532.033 29.3008C532.033 23.0722 532.033 16.7282 532.033 9.92289C536.071 9.92289 539.531 9.92289 542.761 9.92289C542.646 27.2246 542.646 44.1803 542.646 61.2514Z" fill="#0C74B9"/>
<path d="M97.143 313.626C100.142 314.549 102.565 315.356 105.564 316.279C103.026 324.699 100.604 332.888 98.0658 341.655C102.334 342.923 106.487 344.192 111.101 345.576C113.985 336.118 116.753 327.006 119.637 317.432C122.521 318.24 125.174 319.047 128.289 319.97C124.367 332.888 120.56 345.576 116.523 358.726C99.9115 353.766 83.7617 348.806 67.0352 343.846C70.8419 331.274 74.5333 318.932 78.4554 306.128C81.3392 306.936 83.9924 307.628 87.107 308.551C84.3385 317.663 81.8007 326.544 78.9168 336.003C82.3774 337.041 85.6074 337.964 89.4141 339.117C91.8366 330.351 94.4898 322.161 97.143 313.626Z" fill="#0E74B9"/>
<path d="M294.516 61.136C303.168 76.1308 311.589 90.7796 320.356 105.774C317.241 107.62 314.242 109.35 310.897 111.311C307.09 104.852 303.399 98.5077 299.592 91.9331C293.709 95.2781 288.056 98.6231 281.827 102.199C285.519 108.658 289.095 115.002 292.901 121.577C289.671 123.422 286.672 125.268 283.442 127.229C274.791 112.234 266.254 97.4696 257.603 82.4748C260.832 80.5139 263.716 78.7838 266.946 76.8229C270.407 82.5901 273.637 88.242 277.213 94.24C283.211 90.7796 288.979 87.4346 294.978 83.9743C291.517 77.9763 288.402 72.4398 284.942 66.4418C288.056 64.827 290.94 63.2122 294.516 61.136Z" fill="#0C74BA"/>
<path d="M75.2256 579.265C74.6488 577.42 74.072 575.574 73.3799 573.267C75.9177 572.229 78.5709 571.191 81.5701 569.922C84.9154 578.919 88.1454 587.455 91.4907 596.682C94.836 595.529 98.066 594.26 101.757 592.991C98.7581 584.571 95.7589 576.497 92.7596 568.192C95.5281 567.154 98.066 566.116 101.065 564.962C104.18 573.267 107.064 581.111 110.294 589.762C114.562 588.262 118.599 586.878 123.098 585.378C119.753 576.036 116.407 567.039 113.062 557.465C115.946 556.427 118.484 555.504 121.483 554.466C126.097 567.154 130.712 579.496 135.441 592.415C127.482 595.298 119.868 598.182 112.139 600.95C104.872 603.603 97.4892 606.256 90.2218 609.024C88.2607 609.716 86.5304 610.408 85.7229 607.64C85.3769 606.717 85.1461 605.91 84.8001 605.102V604.987C84.454 604.18 84.2233 603.257 83.8772 602.45C80.9933 594.837 78.1095 587.109 75.2256 579.265Z" fill="#0D74B9"/>
<path d="M76.725 488.258C76.1483 481.338 75.5715 474.994 75.1101 468.188C68.4194 468.534 62.0749 468.88 55.0382 469.226C54.6921 465.766 54.4614 462.421 54 458.499C71.3033 457.23 88.2606 455.962 105.564 454.693C105.91 458.384 106.141 461.614 106.487 465.42C99.104 466.112 91.952 466.689 84.2231 467.496C84.6846 474.186 85.146 480.645 85.6074 487.797C93.2209 487.335 100.488 486.874 108.102 486.297C108.332 489.988 108.563 493.333 108.794 497.14C91.4905 498.409 74.5333 499.677 57.3453 500.946C56.9992 497.14 56.7685 493.795 56.4225 490.219C63.4592 489.527 69.8037 488.95 76.725 488.258Z" fill="#0D74B9"/>
<path d="M903.478 222.042C905.439 225.387 906.939 228.156 908.9 231.501C903.132 234.846 897.479 238.075 891.366 241.536C894.711 247.533 897.941 253.416 901.286 259.414C907.285 256.069 912.937 252.955 918.936 249.725C920.781 252.839 922.396 255.723 924.357 259.183C909.361 267.603 894.48 275.793 879.253 284.329C877.408 281.099 875.677 278.215 873.832 274.87C880.291 271.179 886.636 267.603 893.327 263.797C889.981 257.684 886.751 252.032 883.406 245.919C876.831 249.494 870.486 253.07 863.796 256.761C862.065 253.647 860.45 250.648 858.489 247.187C873.485 238.883 888.251 230.578 903.478 222.042Z" fill="#0C74BA"/>
<path d="M634.7 20.5347C639.199 22.1495 643.236 23.3029 647.043 25.0331C647.85 25.3792 648.312 27.4554 648.427 28.7242C648.542 39.3359 648.542 49.8323 649.465 60.79C653.849 55.3688 658.232 50.063 662.616 44.6417C665.154 41.5274 667.576 38.4131 670.229 35.5295C671.037 34.6067 672.767 33.684 673.805 34.03C677.612 35.0681 681.188 36.5676 685.341 38.0671C675.997 49.0249 666.884 59.6366 657.886 70.133C657.079 71.0557 656.387 71.8631 655.579 72.7859C649.004 80.6294 649.004 80.6294 639.66 76.7076C638.622 76.2462 637.468 74.9775 637.353 74.0547C636.43 56.5223 635.623 38.9898 634.7 20.5347Z" fill="#0A73BA"/>
<path d="M558.45 11.1917C562.603 11.7684 565.717 12.2298 569.524 12.8065C568.486 20.3039 567.448 27.4553 566.525 34.722C565.948 38.7591 565.256 42.9115 565.025 46.9486C564.564 52.9465 567.909 56.5222 574.484 57.3296C580.252 58.0217 583.828 55.7148 584.866 49.7168C586.481 40.1432 587.865 30.4542 589.25 20.8806C589.48 19.2658 589.826 17.7663 590.173 15.6901C593.633 16.2668 596.979 16.7282 600.67 17.3049C600.324 20.1886 600.093 22.8415 599.747 25.3791C598.363 34.722 597.094 44.0649 595.248 53.2925C593.403 62.6355 587.865 66.9032 578.291 66.5572C573.792 66.4419 569.178 65.6344 564.794 64.3656C557.988 62.4048 553.49 56.5222 554.066 49.3708C555.104 36.9136 556.95 24.341 558.45 11.1917Z" fill="#0D74BA"/>
<path d="M902.555 550.775C903.247 547.2 903.363 544.201 904.401 541.548C904.862 540.279 906.823 538.779 908.092 538.779C916.052 538.895 919.282 534.627 919.397 527.245C919.397 526.668 919.743 526.091 919.858 525.515C921.935 516.748 921.935 516.633 914.206 511.904C912.13 510.635 910.861 509.366 911.899 506.598C912.706 504.291 913.053 501.754 913.629 498.524C918.128 501.523 922.281 504.176 926.318 506.829C936.47 513.634 946.506 520.555 956.772 527.245C959.195 528.86 959.656 530.359 959.31 533.358C958.618 539.125 956.08 541.432 950.312 542.24C934.624 544.777 919.051 547.776 902.555 550.775ZM926.78 535.55C933.586 534.396 939.469 533.473 946.506 532.32C940.392 528.398 935.316 525.169 929.894 521.824C928.741 526.437 927.818 530.59 926.78 535.55Z" fill="#0C74B9"/>
<path d="M375.265 82.4748C376.188 74.4006 376.995 67.0186 377.803 59.5211C378.957 49.8322 380.225 40.2586 381.264 30.5696C381.494 28.1473 382.302 26.7632 384.84 26.4172C386.916 26.0711 388.762 25.1484 390.838 24.9177C391.876 24.8023 393.491 25.2637 394.183 26.0711C405.027 40.0279 415.755 53.9846 426.944 68.518C423.368 69.4408 420.369 70.5943 417.255 70.9403C415.986 71.0556 413.909 69.7868 413.332 68.6334C410.218 62.8662 406.065 60.5593 399.836 63.9043C399.374 64.1349 398.682 64.2503 398.106 64.3656C388.185 66.9032 388.3 66.9032 386.57 77.0536C386.455 78.0917 385.532 79.4758 384.609 79.8219C381.725 80.86 378.726 81.4367 375.265 82.4748ZM402.258 53.8693C398.221 48.3327 394.645 43.4882 390.377 37.6056C389.8 44.9877 389.223 50.9856 388.646 57.5603C393.261 56.2915 397.298 55.2534 402.258 53.8693Z" fill="#0C74BA"/>
<path d="M888.251 303.36C902.67 304.168 916.282 304.975 929.894 305.783C931.855 305.898 933.701 306.129 935.662 306.129C944.198 306.475 944.198 306.475 946.621 315.01C946.967 316.164 946.39 318.24 945.583 319.047C932.663 330.466 919.628 341.655 906.708 352.959C906.362 353.189 905.9 353.305 905.324 353.651C904.285 350.536 902.901 347.537 902.324 344.423C902.094 343.27 903.247 341.54 904.17 340.617C911.207 334.042 911.322 334.042 907.861 324.93C907.861 324.815 907.746 324.699 907.746 324.468C906.592 316.74 902.67 312.934 894.48 314.203C893.557 314.318 891.942 313.28 891.596 312.473C890.212 309.82 889.405 306.936 888.251 303.36ZM933.932 315.587C926.549 315.587 920.435 315.587 914.091 315.587C915.475 319.739 916.744 323.892 918.243 328.506C923.55 324.238 928.279 320.316 933.932 315.587Z" fill="#0B74BA"/>
<path d="M189.312 210.969C184.583 200.934 179.968 191.245 175.354 181.556C172.47 175.558 169.817 169.56 166.818 163.678C165.78 161.601 166.01 160.333 167.625 158.718C173.393 152.604 173.278 152.604 181.007 155.488C194.965 160.679 208.807 165.754 222.765 170.944C223.573 171.29 224.265 171.636 225.418 172.213C223.342 174.52 221.727 176.827 219.535 178.442C218.382 179.364 216.075 179.941 214.806 179.48C206.039 176.366 206.039 176.25 199.81 182.825C199.348 183.402 198.771 183.863 198.31 184.44C191.735 191.36 191.85 191.36 195.772 200.127C196.349 201.395 196.003 203.702 195.195 204.971C193.58 207.047 191.504 208.662 189.312 210.969ZM187.467 183.286C190.927 179.48 193.926 176.25 197.156 172.559C190.812 170.022 185.044 167.83 178.469 165.177C181.699 171.752 184.352 177.173 187.467 183.286Z" fill="#0C74BA"/>
<path d="M781.893 111.657C778.779 110.504 775.549 109.35 772.203 108.081C773.241 102.66 772.434 98.0463 767.589 94.8167C762.744 91.4717 756.976 91.0103 753.054 95.2781C749.132 99.4305 745.672 104.506 743.249 109.696C740.711 115.233 742.903 120.423 747.633 123.653C752.016 126.652 756.515 126.421 761.475 122.73C762.052 122.269 762.629 121.807 763.552 121.115C764.821 122.615 765.859 123.884 767.012 125.152C768.166 126.537 769.204 127.921 770.473 129.651C765.397 134.149 759.86 136.572 753.17 135.533C735.636 132.765 726.753 115.002 735.174 99.3151C741.865 86.7425 751.324 81.3213 763.206 83.0515C776.587 85.0124 785.931 98.0463 782.701 110.158C782.585 110.734 782.239 111.08 781.893 111.657Z" fill="#0D74B9"/>
<path d="M54.8075 425.164C54.5768 424.357 54.4614 424.242 54.4614 424.126C55.2689 413.861 55.1536 413.861 64.9588 411.438C74.3026 409.131 83.7617 407.055 94.4898 404.518C87.107 400.942 80.8778 398.058 74.6486 395.059C72.1108 393.906 69.573 392.753 67.0352 391.484C57.8067 387.101 57.8067 387.101 59.9985 376.143C64.6127 378.45 69.2269 380.526 73.7258 382.833C84.3385 388.139 94.9512 393.791 105.679 398.75C110.755 401.057 108.217 404.864 108.332 408.093C108.563 411.323 106.833 412.476 103.718 413.284C88.9527 416.744 74.3026 420.551 59.5371 424.126C58.1528 424.472 56.5378 424.818 54.8075 425.164Z" fill="#0C74BA"/>
<path d="M438.71 233.577C439.979 233.461 441.248 233.115 442.517 233.115C488.198 233.115 533.879 233.115 579.56 233.115C580.944 233.115 582.443 233.231 584.289 233.346C584.289 281.906 584.289 330.12 584.289 379.027C633.085 379.027 681.534 379.027 730.214 379.027C730.214 428.048 730.214 476.378 730.214 525.515C681.649 525.515 633.085 525.515 584.52 525.515L584.404 525.399C586.135 524.822 587.75 523.9 589.48 523.9C634.469 523.784 679.457 523.784 724.331 523.784C726.061 523.784 727.676 523.669 729.291 523.554C729.291 475.57 729.291 428.163 729.291 380.411C727.215 380.411 725.484 380.411 723.754 380.411C679.111 380.411 634.353 380.411 589.711 380.411C583.251 380.411 582.905 380.065 582.905 373.721C582.905 328.852 582.905 284.098 582.905 239.229C582.905 237.498 582.905 235.768 582.905 233.577C580.598 233.577 578.867 233.577 577.137 233.577C539.531 233.577 501.925 233.577 464.319 233.577C456.014 233.577 447.824 233.692 439.518 233.692C439.287 233.577 439.057 233.577 438.941 233.692L438.71 233.577Z" fill="#C64B45"/>
<path d="M820.768 137.494C817.077 133.803 813.616 130.343 809.694 126.537C811.539 124.576 813.385 122.615 815.462 120.193C825.844 129.882 835.995 139.455 846.146 149.029C844.07 151.22 842.339 153.181 840.263 155.373C836.456 151.912 832.765 148.452 828.727 144.761C818.922 155.142 809.463 165.177 799.543 175.674C797.005 173.367 794.582 171.06 791.583 168.407C801.388 158.141 810.963 147.991 820.768 137.494Z" fill="#0D74B9"/>
<path d="M584.636 525.514C584.52 537.856 584.52 550.314 584.405 562.656C584.405 597.144 584.405 631.632 584.405 666.12C584.405 667.735 584.405 669.35 584.405 671.195C535.494 671.195 487.16 671.195 438.019 671.195C438.019 669.465 438.019 667.85 438.019 666.12C438.019 620.905 438.019 575.574 438.019 530.359C438.019 528.744 437.903 527.129 437.903 525.514L438.019 525.399C438.595 527.014 439.518 528.744 439.518 530.359C439.634 575.113 439.634 619.867 439.634 664.736C439.634 666.581 439.749 668.427 439.864 670.618C441.825 670.618 443.325 670.618 444.709 670.618C489.006 670.618 533.418 670.503 577.714 670.734C582.098 670.734 583.021 669.35 583.021 665.197C582.905 620.213 582.905 575.343 583.021 530.359C583.021 528.744 583.943 527.014 584.52 525.399L584.636 525.514Z" fill="#C43D37"/>
<path d="M965.655 489.988C965.309 493.91 964.963 497.024 964.501 500.946C947.313 498.985 930.471 497.024 913.168 495.063C913.629 491.372 913.975 487.912 914.322 484.221C931.625 486.182 948.351 488.027 965.655 489.988Z" fill="#0D74BA"/>
<path d="M114.908 367.377C114.1 371.298 113.293 374.528 112.485 378.104C95.5279 374.643 79.0321 371.298 61.9595 367.838C62.6516 364.262 63.3437 360.917 64.0359 356.996C81.1085 360.456 97.7197 363.916 114.908 367.377Z" fill="#0D74B9"/>
<path d="M857.105 160.102C857.682 161.371 858.374 162.755 859.297 164.831C847.069 175.904 834.611 187.208 821.691 198.858C819.153 196.205 816.961 193.667 814.308 190.899C827.113 179.364 839.686 167.945 852.029 156.757C853.99 158.141 855.605 159.179 857.105 160.102Z" fill="#0D73B9"/>
<path d="M437.903 525.514C389.454 525.514 341.005 525.514 292.094 525.514C291.979 523.554 291.863 522.054 291.863 520.439C291.863 474.878 291.863 429.432 291.863 383.871C291.863 382.371 292.555 380.987 292.901 379.488C305.706 379.488 318.51 379.488 331.43 379.488C366.96 379.488 402.489 379.603 438.019 379.603C436.288 379.834 434.673 380.295 432.943 380.295C388.07 380.295 343.312 380.295 298.439 380.295C296.708 380.295 294.978 380.295 293.248 380.295C293.248 428.394 293.248 475.801 293.248 523.669C295.67 523.669 297.862 523.669 300.054 523.669C344.465 523.669 388.877 523.669 433.174 523.784C434.789 523.784 436.519 524.822 438.134 525.284L437.903 525.514Z" fill="#C54841"/>
<path d="M437.903 379.719C402.374 379.719 366.844 379.603 331.315 379.603C318.51 379.603 305.706 379.603 292.786 379.603C294.401 379.488 296.016 379.142 297.516 379.142C342.62 379.142 387.724 379.142 432.712 379.142C434.212 379.142 435.596 379.142 437.788 379.142C437.788 377.066 437.788 375.22 437.788 373.375C437.788 328.506 437.788 283.521 437.788 238.652C437.788 236.922 438.249 235.307 438.48 233.577L438.711 233.807C438.596 234.384 438.48 234.961 438.48 235.538C438.48 282.137 438.48 328.736 438.48 375.336C438.48 376.489 438.942 377.527 439.172 378.681C438.942 379.142 438.365 379.373 437.903 379.719Z" fill="#C64B45"/>
<path d="M64.1511 323.084C69.9189 327.467 68.1885 331.504 65.8814 336.58C63.2282 331.043 56.8837 328.505 59.4215 321.008C61.7286 314.203 68.0732 315.702 72.9181 312.357C72.3413 318.24 71.1878 322.277 64.1511 323.084Z" fill="#1676B9"/>
<path d="M693.416 106.582C688.686 117.424 690.763 117.078 680.035 110.965C681.419 108.197 682.688 105.313 684.303 102.199C687.533 103.698 690.417 105.198 693.416 106.582Z" fill="#1676B9"/>
<path d="M857.22 160.217C856.413 152.72 861.604 158.141 863.68 157.334C865.872 153.066 857.105 151.566 862.065 145.915C864.603 149.721 867.256 152.951 869.102 156.642C869.679 157.91 868.987 160.563 867.948 161.601C867.141 162.409 864.834 162.063 863.219 161.717C861.142 161.486 859.181 160.679 857.22 160.217Z" fill="#1F79B9"/>
<path d="M129.904 566.693C133.134 565.424 136.133 564.386 139.478 563.002C140.632 566.347 141.785 569.346 143.054 572.806C139.94 573.959 137.056 574.998 133.711 576.266C132.557 573.152 131.288 570.038 129.904 566.693Z" fill="#1676B9"/>
<path d="M80.4166 600.835C78.3402 598.759 75.4563 597.028 74.5334 594.606C73.3799 591.376 73.7259 587.57 73.3799 584.11C73.8413 583.533 74.1874 583.072 75.4563 581.457C75.687 585.263 75.8024 587.916 76.1484 590.454C76.2638 591.607 77.302 592.53 77.7634 593.568C78.6862 595.99 79.4937 598.412 80.4166 600.835Z" fill="#1F79B9"/>
<path d="M84.7998 605.218C85.1459 606.025 85.3766 606.948 85.7226 607.755C85.3766 606.948 85.0305 606.141 84.7998 605.218Z" fill="#C4E3F3"/>
<path d="M83.877 602.565C84.223 603.372 84.4537 604.295 84.7998 605.103C84.4537 604.295 84.1077 603.488 83.877 602.565Z" fill="#C4E3F3"/>
<path d="M437.903 379.719C438.48 379.373 438.941 379.142 439.518 378.796C439.518 330.466 439.633 282.252 439.633 233.923C447.939 233.807 456.129 233.807 464.435 233.807C502.041 233.807 539.647 233.807 577.253 233.807C578.983 233.807 580.713 233.807 583.02 233.807C583.02 235.999 583.02 237.729 583.02 239.459C583.02 284.328 583.02 329.082 583.02 373.951C583.02 380.295 583.366 380.641 589.826 380.641C634.469 380.641 679.111 380.641 723.869 380.641C725.6 380.641 727.33 380.641 729.406 380.641C729.406 428.394 729.406 475.801 729.406 523.784C727.791 523.9 726.061 524.015 724.446 524.015C679.458 524.015 634.469 524.015 589.596 524.13C587.865 524.13 586.25 525.169 584.52 525.63C584.058 527.245 583.02 528.975 583.02 530.59C582.905 575.574 582.905 620.443 583.02 665.428C583.02 669.58 582.097 670.965 577.714 670.965C533.417 670.849 489.006 670.849 444.709 670.849C443.209 670.849 441.825 670.849 439.864 670.849C439.749 668.658 439.633 666.812 439.633 664.967C439.633 620.213 439.633 575.459 439.518 530.59C439.518 528.975 438.595 527.245 438.018 525.63C436.403 525.053 434.673 524.13 433.058 524.13C388.646 524.015 344.234 524.015 299.938 524.015C297.746 524.015 295.554 524.015 293.132 524.015C293.132 476.147 293.132 428.74 293.132 380.641C294.978 380.641 296.708 380.641 298.323 380.641C343.196 380.641 387.954 380.641 432.827 380.641C434.442 380.411 436.173 379.949 437.903 379.719ZM488.198 469.111C488.659 467.727 489.006 466.573 489.352 465.535C490.044 462.306 489.006 459.883 485.776 458.961C482.546 457.923 480.008 459.307 478.508 462.306C476.547 466.227 478.508 470.61 483.007 472.687C490.967 476.378 501.233 473.494 505.963 465.997C511.154 457.923 512.538 449.041 510.231 439.813C508.616 433.123 504.348 428.279 497.426 426.549C490.62 424.819 484.622 426.433 479.777 431.739C475.624 436.353 475.047 444.196 478.393 449.387C481.623 454.462 487.852 456.769 493.85 454.808C495.696 454.231 497.426 453.078 499.272 452.04C500.31 464.036 495.004 472.225 488.198 469.111ZM549.683 449.848C549.913 443.504 548.644 437.737 544.607 432.547C537.224 423.204 525.343 423.55 519.344 433.931C513.23 444.542 513.23 455.616 519.459 466.227C525.343 476.378 537.57 476.724 544.722 467.381C548.529 462.075 549.913 456.192 549.683 449.848ZM576.214 426.203C570.562 427.702 565.602 428.971 560.641 430.124C559.026 430.47 556.489 429.548 557.065 432.431C557.181 433.239 559.372 434.277 560.641 434.161C564.563 433.931 565.832 435.546 565.717 439.352C565.486 446.273 565.717 453.193 565.602 460.114C565.602 468.304 565.602 468.304 557.642 469.457C556.835 471.649 557.181 473.033 559.949 473.033C567.217 472.917 574.369 472.917 581.636 473.033C584.866 473.033 584.751 471.533 584.058 469.342C575.984 468.765 575.984 468.765 575.984 460.806C575.984 452.963 575.984 445.235 575.984 437.391C576.214 433.7 576.214 429.894 576.214 426.203ZM442.056 431.278C441.133 433.354 442.287 434.623 445.516 434.277C449.439 433.815 450.707 435.546 450.592 439.352C450.361 447.541 450.361 455.846 450.592 464.151C450.707 467.727 449.323 469.342 445.632 469.111C444.594 468.996 443.671 469.226 442.633 469.226C441.94 471.533 441.594 473.148 444.824 473.148C452.207 473.033 459.59 473.033 466.973 473.148C470.087 473.148 469.741 471.533 469.28 469.457C468.472 469.342 467.895 469.226 467.319 469.226C461.089 468.996 461.089 468.996 461.089 462.536C461.089 454.116 461.089 445.696 461.089 437.391C461.089 433.585 461.089 429.894 461.089 426.087C454.514 427.817 448.746 429.432 442.056 431.278Z" fill="#EC2625"/>
<path d="M439.634 233.923C439.634 282.252 439.634 330.466 439.518 378.796C439.288 377.642 438.826 376.604 438.826 375.451C438.826 328.852 438.826 282.252 438.826 235.653C438.826 235.076 438.942 234.499 439.057 233.923C439.172 233.807 439.403 233.807 439.634 233.923Z" fill="#C92628"/>
<path d="M488.198 469.111C495.004 472.341 500.195 464.151 499.273 452.04C497.427 452.963 495.697 454.116 493.851 454.808C487.852 456.769 481.623 454.462 478.393 449.387C475.048 444.081 475.625 436.238 479.778 431.739C484.622 426.433 490.621 424.818 497.427 426.549C504.348 428.279 508.501 433.123 510.231 439.813C512.538 449.041 511.039 457.922 505.963 465.997C501.234 473.494 490.852 476.378 483.007 472.687C478.509 470.61 476.548 466.227 478.509 462.306C480.008 459.307 482.546 458.038 485.776 458.961C489.006 459.883 490.044 462.421 489.352 465.535C489.121 466.573 488.66 467.611 488.198 469.111ZM487.622 439.467C487.968 441.889 487.737 444.196 488.66 445.811C489.698 447.657 491.774 449.848 493.505 449.964C495.12 450.079 498.004 447.657 498.234 446.042C498.811 441.889 498.58 437.391 498.004 433.239C497.773 431.854 495.35 430.009 493.736 429.778C492.351 429.663 490.159 431.162 489.467 432.662C488.198 434.738 488.083 437.276 487.622 439.467Z" fill="#FAF2F2"/>
<path d="M549.683 449.848C549.913 456.192 548.529 462.19 544.607 467.265C537.455 476.724 525.343 476.378 519.344 466.112C513.23 455.5 513.115 444.427 519.229 433.815C525.112 423.55 537.109 423.088 544.492 432.431C548.644 437.622 549.913 443.504 549.683 449.848ZM537.57 450.886C537.801 450.886 538.032 450.886 538.378 450.886C537.916 445.35 537.801 439.698 536.878 434.277C536.532 432.546 534.11 430.009 532.61 429.894C530.995 429.894 529.38 432.431 527.88 433.931C527.419 434.392 527.304 435.315 527.304 436.007C527.304 445.58 527.188 455.154 527.419 464.612C527.534 467.496 528.803 470.38 532.264 470.38C536.071 470.495 537.34 467.611 537.455 464.497C537.801 459.999 537.57 455.385 537.57 450.886Z" fill="#FAF3F3"/>
<path d="M576.214 426.203C576.214 429.894 576.214 433.7 576.214 437.506C576.214 445.35 576.214 453.078 576.214 460.921C576.214 468.765 576.214 468.765 584.289 469.457C584.981 471.649 585.212 473.263 581.867 473.148C574.599 473.033 567.447 473.033 560.18 473.148C557.296 473.148 556.95 471.879 557.873 469.572C565.832 468.419 565.832 468.419 565.832 460.229C565.832 453.309 565.717 446.388 565.948 439.467C566.063 435.661 564.794 434.046 560.872 434.277C559.719 434.392 557.527 433.354 557.296 432.547C556.719 429.663 559.257 430.586 560.872 430.24C565.602 428.856 570.562 427.587 576.214 426.203Z" fill="#FAF3F3"/>
<path d="M442.056 431.278C448.747 429.432 454.63 427.702 460.974 425.972C460.974 429.778 460.974 433.469 460.974 437.276C460.974 445.696 460.974 454.116 460.974 462.421C460.974 468.88 460.974 468.88 467.204 469.111C467.78 469.111 468.357 469.226 469.165 469.342C469.741 471.418 469.972 473.148 466.858 473.033C459.475 472.917 452.092 472.917 444.709 473.033C441.595 473.033 441.825 471.418 442.518 469.111C443.556 469.111 444.479 468.88 445.517 468.996C449.093 469.226 450.477 467.727 450.477 464.036C450.362 455.731 450.246 447.541 450.477 439.237C450.592 435.43 449.324 433.7 445.401 434.161C442.172 434.738 441.133 433.354 442.056 431.278Z" fill="#F9EFEF"/>
<path d="M487.622 439.467C488.083 437.391 488.198 434.738 489.352 432.662C490.044 431.278 492.351 429.663 493.62 429.778C495.235 430.009 497.657 431.855 497.888 433.239C498.58 437.506 498.696 441.89 498.119 446.042C497.888 447.657 495.004 449.964 493.389 449.964C491.659 449.848 489.583 447.657 488.544 445.811C487.737 444.196 487.968 441.89 487.622 439.467Z" fill="#E62E2E"/>
<path d="M537.57 450.886C537.57 455.5 537.801 459.999 537.455 464.612C537.224 467.727 536.071 470.61 532.264 470.495C528.803 470.38 527.419 467.611 527.419 464.728C527.188 455.154 527.304 445.696 527.304 436.122C527.304 435.43 527.419 434.507 527.881 434.046C529.38 432.547 530.995 429.894 532.61 430.009C534.11 430.009 536.648 432.547 536.878 434.392C537.801 439.813 537.916 445.465 538.378 451.002C538.032 450.886 537.801 450.886 537.57 450.886Z" fill="#E62E2E"/>
</g>
<defs>
<clipPath id="clip0">
<rect width="915" height="1005" fill="white" transform="translate(54 9)"/>
</clipPath>
</defs>
</svg>
