<svg id="Layer_1" data-name="Layer 1" xmlns="http://www.w3.org/2000/svg" viewBox="0 0 274 50.95"><defs><style>.cls-1{fill:#fff;}.cls-2{fill:#0272bb;}.cls-3{fill:#ec2626;}.cls-4{fill:#0c74ba;}.cls-5{fill:#0c74b9;}.cls-6{fill:#0b74ba;}.cls-7{fill:#0d74ba;}.cls-8{fill:#0e74b9;}.cls-9{fill:#0d73b9;}.cls-10{fill:#0d74b9;}.cls-11{fill:#0a73ba;}.cls-12{fill:#c64b45;}.cls-13{fill:#c43d37;}.cls-14{fill:#c54841;}.cls-15{fill:#1676b9;}.cls-16{fill:#1f79b9;}.cls-17{fill:#c4e3f3;}.cls-18{fill:#ec2625;}.cls-19{fill:#c92628;}.cls-20{fill:#faf2f2;}.cls-21{fill:#faf3f3;}.cls-22{fill:#f9efef;}.cls-23{fill:#e62e2e;}</style></defs><title>logo-white</title><rect class="cls-1" y="-0.04" width="51.03" height="51.03" rx="7.98" ry="7.98"/><path class="cls-2" d="M25.58,34.27H27.1a.41.41,0,0,1,.42.26,1.41,1.41,0,0,0,1.72.74,8.41,8.41,0,0,0,2.15-.85,14,14,0,0,0,5-4.35,12.41,12.41,0,0,0,2.15-5.48,13.11,13.11,0,0,0-.33-5.34,12.6,12.6,0,0,0-4.17-6.43,13.82,13.82,0,0,0-3.41-2.15,8.56,8.56,0,0,0-1.5-.5,1.35,1.35,0,0,0-1.45.44c-.09.11-.13.25-.22.35a.53.53,0,0,1-.31.2c-1.06,0-2.11,0-3.17,0-.34,0-.43-.13-.38-.47a4.89,4.89,0,0,1,1.58-3A4.51,4.51,0,0,1,28.6,6.6a10.81,10.81,0,0,1,4,1.12,17.93,17.93,0,0,1,7.77,7.16,15,15,0,0,1,1.71,4.31,16.48,16.48,0,0,1,.31,5,14.74,14.74,0,0,1-1.5,5.39,16.75,16.75,0,0,1-3.18,4.44A18.51,18.51,0,0,1,34.05,37a12.16,12.16,0,0,1-5.32,1.87,4.46,4.46,0,0,1-4.53-2.41,5.13,5.13,0,0,1-.58-1.72c0-.3,0-.44.36-.45.53,0,1.06,0,1.59,0Z"/><path class="cls-2" d="M8.19,22.62a16.27,16.27,0,0,1,1.46-6.8,13.72,13.72,0,0,1,3.64-4.73,19.37,19.37,0,0,1,6.62-3.76,17.06,17.06,0,0,1,4.65-.8.93.93,0,0,1,.31.11c0,.1-.07.23-.14.3a5.8,5.8,0,0,0-1.09,1.14,6,6,0,0,0-.75,1.63c-.14.48-.24.57-.73.64a11,11,0,0,0-2.39.69,12.63,12.63,0,0,0-4.88,3.4,12.64,12.64,0,0,0,7.26,20.67.84.84,0,0,1,.75.7,5.05,5.05,0,0,0,1.74,2.65c.12.09.29.18.22.36s-.25.13-.4.12a17,17,0,0,1-6.41-1.52,19.21,19.21,0,0,1-6-4.26A13.44,13.44,0,0,1,9,27.73,17.63,17.63,0,0,1,8.19,22.62Z"/><path class="cls-3" d="M19.15,41.55a.83.83,0,0,0-.2-.13,10.61,10.61,0,0,1-2.5-1.25A16.85,16.85,0,0,1,14.86,39a1.17,1.17,0,0,1-.45-1.21.49.49,0,0,1,.55-.45,3.37,3.37,0,0,1,1.4.44c.86.42,1.71.87,2.59,1.26s1.67.65,2.5,1A6.7,6.7,0,0,1,24.2,42a2.7,2.7,0,0,1,.69,1.65c0,1.35.08,2.71.12,4.06,0,.33-.16.49-.49.48a16.47,16.47,0,0,1-3.17-.45,6,6,0,0,1-.66-.2.35.35,0,0,1-.25-.42,2,2,0,0,1,0-.25,1.61,1.61,0,0,0-.44-1.7A5.34,5.34,0,0,0,18.28,44c-.93-.4-1.86-.8-2.79-1.22a4.14,4.14,0,0,1-1.94-1.93c-.29-.54-.51-1.12-.81-1.65-.76-1.36-1.55-2.7-2.31-4.05a7.05,7.05,0,0,1-.42-1,.87.87,0,0,1,0-.37.51.51,0,0,1,.84-.37,3.63,3.63,0,0,1,.66.75c.28.41.52.85.78,1.28a3,3,0,0,0,1,1,1.54,1.54,0,0,1,.79,1.37,1.85,1.85,0,0,0,.7,1.48A14.05,14.05,0,0,0,17.4,41c.47.23,1,.41,1.46.6a1,1,0,0,0,.26,0Z"/><path class="cls-3" d="M31.52,41.63l.28,0a8.11,8.11,0,0,0,1.88-.83,13.77,13.77,0,0,0,2.19-1.44A1.7,1.7,0,0,0,36.52,38a1.66,1.66,0,0,1,.87-1.53,4.11,4.11,0,0,0,1.37-1.62c.24-.4.51-.78.78-1.16a1.14,1.14,0,0,1,.25-.22.49.49,0,0,1,.55-.08.56.56,0,0,1,.31.53,2,2,0,0,1-.29,1c-.49.87-1,1.72-1.49,2.59S38,39.15,37.52,40c-.25.47-.49,1-.77,1.4a4.21,4.21,0,0,1-2,1.59c-1,.43-2,.88-3,1.35a3.66,3.66,0,0,0-1.23,1,1.58,1.58,0,0,0-.3,1.54c.13.47.05.62-.42.75a15.86,15.86,0,0,1-3.57.56c-.37,0-.54-.13-.53-.5,0-1.41.07-2.83.14-4.24a2.68,2.68,0,0,1,.82-1.63A7.29,7.29,0,0,1,29.36,40c1.23-.5,2.47-1,3.69-1.52.48-.2.91-.5,1.38-.73a2.87,2.87,0,0,1,1.24-.37.5.5,0,0,1,.55.45A1.22,1.22,0,0,1,35.78,39a11.68,11.68,0,0,1-2.18,1.5,10.41,10.41,0,0,1-1.89.89,1.05,1.05,0,0,0-.22.14Z"/><path class="cls-4" d="M7.46,32.41c-.21-.43-.43-.83-.6-1.24a.55.55,0,0,1,.45-.77,1.65,1.65,0,0,1,.36,0,.15.15,0,0,0,0,0,.59.59,0,0,1,.42-.58.61.61,0,0,1,.75.29c.23.39.44.8.67,1.21Zm1.48-1.34c-.12-.22-.23-.44-.35-.64a.26.26,0,0,0-.36-.12.26.26,0,0,0-.16.34c.09.24.21.46.32.7Zm-.89.46c-.11-.2-.2-.4-.32-.58a.24.24,0,0,0-.32-.11.21.21,0,0,0-.14.29c.09.22.2.43.31.65Z"/><path class="cls-5" d="M9.71,13.87l-.82-.57-.16.17-.23-.15.12-.21-.82-.59c.26-.34.49-.69.77-1a.73.73,0,0,1,.73-.22,1.55,1.55,0,0,1,1.08.78.74.74,0,0,1,0,.76C10.18,13.19,9.94,13.52,9.71,13.87Zm-.8-1.16.3-.41.24.18-.28.42.47.33c.29-.27.47-.61.39-.78a1.15,1.15,0,0,0-.9-.67c-.4-.05-.49.35-.72.59Z"/><path class="cls-4" d="M44.47,29.69l-.16.43-2.18-.79a3.08,3.08,0,0,1,.15-.39.28.28,0,0,1,.17-.1l1.26-.28a.46.46,0,0,0,.22-.1L42.63,28l.16-.43,2.17.79a1.58,1.58,0,0,1-.1.31.36.36,0,0,1-.19.16l-1.37.3-.24.06Z"/><path class="cls-6" d="M8.05,15.06l-1.3-.6L6.94,14,9,15v.07a.53.53,0,0,1-.57.45c-.38,0-.76.1-1.14.15l-.17,0,1.31.6-.19.42-2.08-.94c.06-.36.13-.44.47-.48L8,15.1Z"/><path class="cls-4" d="M40.9,11.46l-.86.62-.25.19-.28-.36,1.85-1.39a1.58,1.58,0,0,1,.19.27.39.39,0,0,1,0,.26c-.17.49-.36,1-.52,1.49l1.16-.87.28.36-1.85,1.39c-.09-.12-.18-.23-.26-.35a.22.22,0,0,1,0-.16l.47-1.26a1.19,1.19,0,0,0,0-.19h0v0Z"/><path class="cls-6" d="M43.38,20.59l0-.06a.53.53,0,0,1,.2-.7,8.55,8.55,0,0,0,.94-.92l-1.39.26L43,18.73l2.27-.43a2.81,2.81,0,0,1,.07.4.28.28,0,0,1-.1.17l-1.06,1-.1.12,1.45-.27.09.45Z"/><path class="cls-6" d="M5.49,27.74a3.18,3.18,0,0,1-.08-.39.24.24,0,0,1,.08-.16l1-1a1,1,0,0,1,.18-.11L6.61,26l-1.43.31-.1-.42.07,0,2.18-.48a3.13,3.13,0,0,1,.09.4.27.27,0,0,1-.08.18l-.94.94-.18.19,1.43-.31.1.44Z"/><path class="cls-7" d="M41.93,31.58l.27-.49.35.18-.49.92-.76-.42a.19.19,0,0,1-.07-.13,1.55,1.55,0,0,1,.52-1.39,1.19,1.19,0,0,1,1.53.09,1.08,1.08,0,0,1,.28,1.39,1,1,0,0,1-.74.65,3.08,3.08,0,0,1-.38,0c.05-.16.09-.3.14-.42a.16.16,0,0,1,.12-.06.63.63,0,0,0,.38-1.07,1.62,1.62,0,0,0-.64-.32c-.52-.1-.8.43-.73.86C41.71,31.44,41.83,31.5,41.93,31.58Z"/><path class="cls-8" d="M33.49,4.71l.45.22L33.41,6l-.1.21a.47.47,0,0,0,.43.71.33.33,0,0,0,.33-.2l.51-1,.19-.39.44.22-.34.7a.3.3,0,0,0,.46-.13L35.16,6l.2-.4.39.2c-.16.6-.38.75-1,.66-.07.15-.15.3-.23.45a.73.73,0,0,1-1.05.39,1.88,1.88,0,0,1-.4-.21.68.68,0,0,1-.28-.91C33,5.7,33.25,5.22,33.49,4.71Z"/><path class="cls-4" d="M44.71,24c-.31,0-.59,0-.86,0a.25.25,0,0,1-.16-.12,1.56,1.56,0,0,1-.17-1.37A1.23,1.23,0,0,1,45.34,22a1.24,1.24,0,0,1,.26,1.72,2.89,2.89,0,0,1-.46.34,3.25,3.25,0,0,1-.07-.41.22.22,0,0,1,.08-.16.56.56,0,0,0,.27-.59.59.59,0,0,0-.45-.54,1.33,1.33,0,0,0-.41,0,.67.67,0,0,0-.64,1c.09.24.11.25.41.2V23h.39v1Z"/><path class="cls-4" d="M16.47,5.69a1.17,1.17,0,0,1,1.22-1.12A1.25,1.25,0,0,1,18.85,5.9,1.18,1.18,0,0,1,17.61,7,1.25,1.25,0,0,1,16.47,5.69Zm1.88.21A1.2,1.2,0,0,0,18,5.17a.58.58,0,0,0-.68-.11.59.59,0,0,0-.38.57,1.16,1.16,0,0,0,.3.74.61.61,0,0,0,.69.15A.62.62,0,0,0,18.36,5.9Z"/><path class="cls-9" d="M23.26,4.49c-.45.26-.35.67-.28,1.08l-.5,0-.22-2.3.48,0,.11,1L23,4a3.67,3.67,0,0,0,.34-.44.83.83,0,0,1,1-.45l-.77,1,1.07,1.3c-.2,0-.38.05-.55.06a.24.24,0,0,1-.15-.1Z"/><path class="cls-5" d="M13.52,6.67l-.16,1.26,1.6.55c-.17.13-.3.24-.45.34a.27.27,0,0,1-.2,0l-1-.41a2,2,0,0,0,0,.61,2,2,0,0,0,.35.49l-.39.3-1.4-1.84.39-.3.6.78a.84.84,0,0,0,0-.12c0-.35.07-.71.12-1.06A.53.53,0,0,1,13.13,7,3.71,3.71,0,0,1,13.52,6.67Z"/><path class="cls-5" d="M26.73,5.44h-.5v-1H25.3v1h-.47V3.1a2.78,2.78,0,0,1,.41,0s.09.1.1.15c0,.24,0,.49,0,.75h.91V3.15h.48Z"/><path class="cls-8" d="M6.76,16.75l.38.12L6.79,18l.58.17.38-1.26.39.11-.53,1.74L5.4,18.1l.51-1.69.39.11-.37,1.23.47.14Z"/><path class="cls-4" d="M15.6,5.44l1.16,2-.42.25-.51-.87-.8.46.5.87-.42.25-1.16-2,.42-.25.46.78.8-.46-.45-.78Z"/><path class="cls-10" d="M5.78,28.66l-.08-.27.37-.15.45,1.2L7,29.28l-.4-1.11L6.94,28l.41,1.11.57-.2-.45-1.25.38-.13.62,1.7-1,.38-1,.36c-.09,0-.16.06-.2-.06l0-.12h0l0-.12h0Z"/><path class="cls-10" d="M5.84,24.58l-.07-.9-.9,0,0-.48,2.31-.17,0,.48-1,.09.06.91,1-.07,0,.48L5,25.15l0-.48Z"/><path class="cls-4" d="M42.9,12.65l.24.42-.79.45.45.8.79-.43.24.42-2,1.13L41.57,15l.87-.5-.44-.8-.88.49-.24-.43Z"/><path class="cls-11" d="M30.85,3.62c.2.07.38.13.55.2s.06.11.06.17c0,.47,0,.95,0,1.44l.59-.72c.11-.14.22-.28.34-.41a.21.21,0,0,1,.16-.07c.17,0,.33.12.52.18L31.89,5.84l-.1.12c-.29.35-.3.35-.71.18A.18.18,0,0,1,31,6C30.93,5.23,30.89,4.44,30.85,3.62Z"/><path class="cls-7" d="M27.44,3.2l.5.07-.14,1c0,.18-.06.37-.07.55s.13.43.43.47a.37.37,0,0,0,.46-.34c.07-.43.13-.86.2-1.29,0-.07,0-.14,0-.23l.47.07c0,.13,0,.25,0,.36-.06.42-.12.84-.2,1.25a.67.67,0,0,1-.76.6,2.47,2.47,0,0,1-.6-.1.64.64,0,0,1-.48-.67C27.28,4.35,27.37,3.79,27.44,3.2Z"/><path class="cls-5" d="M42.86,27.38a2.74,2.74,0,0,1,.08-.41.22.22,0,0,1,.16-.12c.36,0,.5-.18.51-.52a.38.38,0,0,1,0-.08c.09-.4.09-.4-.25-.61-.1-.06-.15-.11-.11-.24a2.77,2.77,0,0,0,.08-.36l.57.37,1.36.91a.24.24,0,0,1,.11.27c0,.26-.14.36-.4.4C44.29,27.11,43.6,27.25,42.86,27.38Zm1.08-.68.88-.14-.74-.47Z"/><path class="cls-4" d="M19.22,6.39c0-.36.08-.69.12-1s.11-.86.16-1.3c0-.11,0-.17.16-.19s.18-.06.27-.07a.19.19,0,0,1,.15.05l1.47,1.91a3.07,3.07,0,0,1-.44.11.23.23,0,0,1-.18-.1c-.14-.26-.32-.36-.6-.21l-.08,0c-.44.11-.44.11-.52.57a.18.18,0,0,1-.09.13C19.51,6.32,19.38,6.35,19.22,6.39Zm1.21-1.28-.53-.73-.08.89Z"/><path class="cls-6" d="M42.22,16.29l1.87.11.26,0c.38,0,.38,0,.49.4a.21.21,0,0,1,0,.18L43,18.51l-.06,0a3.42,3.42,0,0,1-.13-.41.24.24,0,0,1,.08-.17c.32-.3.32-.29.17-.7v0c0-.35-.23-.52-.6-.46a.16.16,0,0,1-.13-.08C42.31,16.58,42.27,16.45,42.22,16.29Zm2.05.55h-.89l.19.58Z"/><path class="cls-4" d="M10.89,12.15l-.62-1.32c-.13-.27-.25-.54-.38-.8a.16.16,0,0,1,0-.22c.26-.27.25-.27.6-.15l1.87.69.12.06a2.4,2.4,0,0,1-.26.28.26.26,0,0,1-.21,0c-.39-.14-.39-.15-.67.15l-.07.07c-.29.31-.29.31-.12.7a.27.27,0,0,1,0,.22A2.18,2.18,0,0,1,10.89,12.15Zm-.08-1.24.43-.48-.84-.33Z"/><path class="cls-10" d="M37.45,7.7,37,7.54a.53.53,0,0,0-.21-.6.48.48,0,0,0-.65,0,2.44,2.44,0,0,0-.44.64.48.48,0,0,0,.2.62.49.49,0,0,0,.62,0l.09-.07.15.18.16.2a.92.92,0,0,1-.78.26,1.09,1.09,0,0,1-.81-1.62,1.17,1.17,0,0,1,1.26-.73,1,1,0,0,1,.87,1.22Z"/><path class="cls-4" d="M4.86,21.75l0,0c0-.46,0-.46.47-.57l1.32-.31-.89-.43-.34-.16C5,20,5,20,5.09,19.56l.62.3c.48.24.95.49,1.43.71.23.11.11.27.12.42s-.07.2-.21.23l-2,.49Z"/><path class="cls-12" d="M22.07,13.17l.17,0H28.6v6.53h6.54v6.57H28.6a.82.82,0,0,1,.23-.07H35.1V19.75H28.84c-.29,0-.31,0-.31-.3q0-3,0-6v-.25H22.07Z"/><path class="cls-10" d="M39.19,8.86l-.49-.49L39,8.09l1.38,1.29-.27.29-.52-.47-1.31,1.38-.36-.33Z"/><path class="cls-13" d="M28.61,26.26c0,.55,0,1.11,0,1.66q0,2.32,0,4.64v.23H22v-.23q0-3,0-6.09c0-.07,0-.15,0-.22h0a.81.81,0,0,1,.07.22q0,3,0,6c0,.08,0,.17,0,.26H28.3c.2,0,.24-.06.24-.25q0-3,0-6a.83.83,0,0,1,.07-.22Z"/><path class="cls-7" d="M45.69,24.66l0,.49-2.3-.26.05-.49Z"/><path class="cls-10" d="M7.55,19.16l-.11.48-2.26-.46.1-.48Z"/><path class="cls-9" d="M40.82,9.87l.1.21-1.69,1.53-.33-.36L40.6,9.73l.23.15Z"/><path class="cls-14" d="M22,26.26H15.49c0-.09,0-.16,0-.23q0-3.06,0-6.12a.91.91,0,0,1,0-.2H22a1.63,1.63,0,0,1-.23,0H15.54v6.43h6.27a.8.8,0,0,1,.22.07Z"/><path class="cls-12" d="M22,19.72h-6.5l.21,0H22v-.26q0-3,0-6a1.55,1.55,0,0,1,0-.23h0a.62.62,0,0,0,0,.08q0,3.13,0,6.27a.71.71,0,0,0,0,.15Z"/><path class="cls-15" d="M5.28,17.18c.26.2.18.38.08.6-.12-.25-.4-.36-.29-.7s.39-.24.61-.39C5.65,17,5.59,17.14,5.28,17.18Z"/><path class="cls-15" d="M33.48,7.47c-.21.48-.12.47-.6.2l.19-.4Z"/><path class="cls-16" d="M40.82,9.88c0-.33.2-.1.29-.13.1-.19-.3-.26-.07-.51a4.85,4.85,0,0,1,.32.48.25.25,0,0,1-.05.22s-.14,0-.21,0a2.5,2.5,0,0,1-.27-.08Z"/><path class="cls-15" d="M8.23,28.1l.43-.16.16.44-.42.15Z"/><path class="cls-16" d="M6,29.63c-.09-.09-.22-.17-.26-.28a1.79,1.79,0,0,1,0-.47l.09-.12c0,.17,0,.29,0,.4s.05.09.07.14Z"/><path class="cls-17" d="M6.2,29.83l0,.12Z"/><path class="cls-17" d="M6.16,29.71l0,.12Z"/><path class="cls-18" d="M22,19.72l.07,0q0-3.25,0-6.49h6.43v.25q0,3,0,6c0,.29,0,.3.31.3H35.1v6.42H28.83a.82.82,0,0,0-.23.07.83.83,0,0,0-.07.22q0,3,0,6c0,.19,0,.25-.24.25H22.12c0-.1,0-.18,0-.26q0-3,0-6a.81.81,0,0,0-.07-.22.8.8,0,0,0-.22-.07H15.54V19.75H21.8A1.63,1.63,0,0,0,22,19.72Zm2.26,4c0-.06,0-.11,0-.16a.23.23,0,0,0-.16-.3.26.26,0,0,0-.33.15.34.34,0,0,0,.2.47.84.84,0,0,0,1-.3,1.46,1.46,0,0,0,.19-1.17A.8.8,0,0,0,23.91,22a.69.69,0,0,0-.06.79.59.59,0,0,0,.69.24,1.79,1.79,0,0,0,.24-.12C24.83,23.5,24.59,23.87,24.29,23.72ZM27,22.86a1.13,1.13,0,0,0-.23-.78.65.65,0,0,0-1.13.06,1.37,1.37,0,0,0,0,1.45.65.65,0,0,0,1.13,0A1.17,1.17,0,0,0,27,22.86Zm1.19-1.06-.7.18c-.07,0-.18,0-.16.11s.11.08.16.08.23.06.23.23,0,.62,0,.93,0,.37-.36.42c0,.1,0,.16.11.16h1c.15,0,.14-.07.11-.17-.36,0-.36,0-.36-.38s0-.7,0-1Zm-6,.23c0,.09,0,.15.15.13s.23.05.23.23c0,.37,0,.74,0,1.11,0,.16-.06.23-.22.22h-.13c0,.1,0,.18.1.17h1c.14,0,.13-.07.1-.17h-.09c-.28,0-.28,0-.28-.3s0-.75,0-1.13v-.51Z"/><path class="cls-19" d="M22.11,13.18q0,3.25,0,6.49a.71.71,0,0,1,0-.15q0-3.13,0-6.27a.62.62,0,0,1,0-.08Z"/><path class="cls-20" d="M24.29,23.72c.31.14.54-.22.5-.76a1.79,1.79,0,0,1-.24.12.59.59,0,0,1-.69-.24.69.69,0,0,1,.06-.79.8.8,0,0,1,1.36.36,1.46,1.46,0,0,1-.19,1.17.84.84,0,0,1-1,.3.34.34,0,0,1-.2-.47.26.26,0,0,1,.33-.15.23.23,0,0,1,.16.3C24.33,23.61,24.31,23.66,24.29,23.72Zm0-1.33a.87.87,0,0,0,0,.29c0,.08.14.18.22.18a.28.28,0,0,0,.21-.17,2,2,0,0,0,0-.58.26.26,0,0,0-.19-.15.25.25,0,0,0-.19.13A1.23,1.23,0,0,0,24.26,22.39Z"/><path class="cls-21" d="M27,22.86a1.17,1.17,0,0,1-.23.78.65.65,0,0,1-1.13,0,1.37,1.37,0,0,1,0-1.45.65.65,0,0,1,1.13-.06A1.13,1.13,0,0,1,27,22.86Zm-.54,0h0c0-.25,0-.5-.07-.75,0-.08-.12-.19-.19-.19s-.15.11-.21.18a.15.15,0,0,0,0,.09c0,.43,0,.86,0,1.28,0,.13.06.26.22.26s.23-.13.23-.27S26.5,23.11,26.5,22.91Z"/><path class="cls-21" d="M28.23,21.8v.51q0,.52,0,1c0,.35,0,.35.36.38,0,.1,0,.17-.11.17h-1c-.13,0-.14-.06-.11-.16.35-.05.36-.05.36-.42s0-.62,0-.93-.05-.24-.23-.23-.15,0-.16-.08.09-.09.16-.11Z"/><path class="cls-22" d="M22.22,22l.85-.24v.51q0,.56,0,1.13c0,.29,0,.29.28.3h.09c0,.1,0,.17-.1.17h-1c-.14,0-.13-.07-.1-.17h.13c.16,0,.22-.06.22-.22,0-.37,0-.74,0-1.11,0-.17-.05-.25-.23-.23S22.18,22.12,22.22,22Z"/><path class="cls-23" d="M24.26,22.39a1.23,1.23,0,0,1,.08-.31.25.25,0,0,1,.19-.13.26.26,0,0,1,.19.15,2,2,0,0,1,0,.58.28.28,0,0,1-.21.17c-.08,0-.17-.1-.22-.18A.87.87,0,0,1,24.26,22.39Z"/><path class="cls-23" d="M26.5,22.91c0,.2,0,.41,0,.61s-.06.27-.23.27-.22-.13-.22-.26c0-.43,0-.86,0-1.28a.15.15,0,0,1,0-.09c.07-.07.14-.18.21-.18s.18.12.19.19c0,.25,0,.5.07.75Z"/><path class="cls-1" d="M55.26,22.9V12.53h5a3.69,3.69,0,0,1,2.22.62,2.37,2.37,0,0,1,1,2,2.19,2.19,0,0,1-1.27,2.12,2.42,2.42,0,0,1,1.6,2.51,2.89,2.89,0,0,1-.9,2.14,2.82,2.82,0,0,1-1.07.68,7.3,7.3,0,0,1-2.21.26Zm2.08-8.58v2.27h2.54q1.53,0,1.53-1.16t-1.59-1.11Zm0,4v2.77H60q1.66,0,1.66-1.52a1.11,1.11,0,0,0-.48-1,1.87,1.87,0,0,0-1.08-.29Z"/><path class="cls-1" d="M73.31,12.53v1.83h-5.5v2.18h5.06v1.83H67.81v2.69h5.75V22.9H65.68V12.53Zm-3.16-2.08,1.13,1.47H70.15l-.64-.83-.66.83H67.71l1.17-1.47Zm0,12.81v1.17H68.88V23.26Z"/><path class="cls-1" d="M81.64,12.53h2V22.9H81.53l-4.27-7.41,0,0V22.9h-2V12.53H77.5l4.15,7.22Z"/><path class="cls-1" d="M91.88,18.25h-4V22.9H85.67V12.53h2.17v3.93h4V12.53H94V22.9H91.88Z"/><path class="cls-1" d="M103.94,20.39l2.25-7.86h2.25L104.92,22.9h-2.07L99.36,12.53h2.33l2.22,7.86Z"/><path class="cls-1" d="M111.81,12.53V22.9h-2.17V12.53Z"/><path class="cls-1" d="M121.46,12.53v1.83H116v2.18H121v1.83H116v2.69h5.75V22.9h-7.87V12.53Zm-3.16-2.08,1.13,1.47H118.3l-.64-.83-.66.83h-1.14L117,10.45Zm0,12.81v1.17H117V23.26Z"/><path class="cls-1" d="M129.79,12.53h2V22.9h-2.13l-4.27-7.41,0,0V22.9h-2V12.53h2.28l4.15,7.22Z"/><path class="cls-1" d="M137.93,18.34h-1.17V16.54h1.17v-4h4.58A3.79,3.79,0,0,1,145.74,14a5.71,5.71,0,0,1,1,3.5,6.68,6.68,0,0,1-.87,3.54,3.73,3.73,0,0,1-3.44,1.89h-4.49Zm2.12-4v2.22h2.4v1.79H140v2.77h2.11A2,2,0,0,0,144,19.94a5,5,0,0,0,.48-2.31q0-3.31-2.38-3.31Z"/><path class="cls-1" d="M150.53,20.76l-.72,2.14h-2.28l3.7-10.37h2.5l3.65,10.37H155l-.66-2.14Zm1.9-5.89L151.12,19h2.63l-1.29-4.1Z"/><path class="cls-1" d="M165.11,19.39V22.9h-2.17V12.53h2.17v4.22l4-4.22h2.79l-4.22,4.24,4.48,6.13h-2.79l-3.21-4.55Z"/><path class="cls-1" d="M179.35,18.25h-4V22.9h-2.17V12.53h2.17v3.93h4V12.53h2.17V22.9h-2.17Z"/><path class="cls-1" d="M183.17,17.71a5.16,5.16,0,0,1,2-4.55,5.42,5.42,0,0,1,6,0,5.16,5.16,0,0,1,2,4.55,5.16,5.16,0,0,1-2,4.55,5.41,5.41,0,0,1-6,0A5.16,5.16,0,0,1,183.17,17.71Zm2.17,0A4.48,4.48,0,0,0,186,20.2a2.68,2.68,0,0,0,4.39,0,4.48,4.48,0,0,0,.62-2.48,4.48,4.48,0,0,0-.62-2.48,2.68,2.68,0,0,0-4.39,0A4.48,4.48,0,0,0,185.34,17.71Z"/><path class="cls-1" d="M197.06,20.76l-.72,2.14h-2.28l3.7-10.37h2.5l3.65,10.37h-2.36l-.66-2.14Zm1.9-5.89L197.66,19h2.63L199,14.87Z"/><path class="cls-1" d="M211.64,19.39V22.9h-2.17V12.53h2.17v4.22l4-4.22h2.79l-4.22,4.24,4.48,6.13h-2.79l-3.21-4.55Z"/><path class="cls-1" d="M225.88,18.25h-4V22.9h-2.17V12.53h2.17v3.93h4V12.53H228V22.9h-2.17Z"/><path class="cls-1" d="M238.47,12.53v6.74q0,3.9-4.26,3.9a4.38,4.38,0,0,1-3-.92,3.55,3.55,0,0,1-1.14-2.85V12.53h2.21v6.73a2.25,2.25,0,0,0,.46,1.47,1.68,1.68,0,0,0,1.39.61q2.09,0,2.09-2V12.53Z"/><path class="cls-1" d="M248.37,20.39l2.25-7.86h2.25L249.35,22.9h-2.07l-3.49-10.37h2.33l2.22,7.86Z"/><path class="cls-1" d="M262.55,13.18v6.09q0,3.87-4.26,3.9a4.31,4.31,0,0,1-3-.92,3.55,3.55,0,0,1-1.14-2.85V12.53h2.21v6.73a2.28,2.28,0,0,0,.45,1.49,1.69,1.69,0,0,0,1.4.59q2.09,0,2.09-2V12.53h2.2l0-.23H262v-.94h1v.81A1.11,1.11,0,0,1,262.55,13.18ZM259,23.48v1.17h-1.27V23.48Z"/><path class="cls-1" d="M273.45,15.92h-2.17a2.92,2.92,0,0,0-.53-1.13,2.46,2.46,0,0,0-3.8.53,4.92,4.92,0,0,0-.53,2.43,4.72,4.72,0,0,0,.53,2.38,2.21,2.21,0,0,0,2,1.16,2.16,2.16,0,0,0,2.3-1.95h2.17a4.77,4.77,0,0,1-1.51,2.82,4.42,4.42,0,0,1-3,1,4.32,4.32,0,0,1-3.6-1.59,6.09,6.09,0,0,1-1.14-3.86,6,6,0,0,1,1.17-3.86,4.31,4.31,0,0,1,3.6-1.62,4.52,4.52,0,0,1,3.37,1.26A3.69,3.69,0,0,1,273.45,15.92Z"/><path class="cls-1" d="M59.66,31.69v8.54H57.49V31.69H54.36V29.86H62.8v1.83Z"/><path class="cls-1" d="M65.39,29.25h-.77a1.81,1.81,0,0,1,.1-.7,1.26,1.26,0,0,1,.48-.47.69.69,0,0,0,.38-.56.5.5,0,0,0-.56-.58q-.52,0-.62.66h-.81a1.29,1.29,0,0,1,.38-1,1.4,1.4,0,0,1,1-.36,1.68,1.68,0,0,1,1,.29,1.1,1.1,0,0,1,.45.94,1.38,1.38,0,0,1-.69,1.07A.89.89,0,0,0,65.39,29.25Zm.68.61V40.23H63.91V29.86Z"/><path class="cls-1" d="M74.42,29.86h2V40.23H74.31L70,32.82l0,0v7.39H68V29.86h2.28l4.15,7.22Z"/><path class="cls-1" d="M84.66,35.58h-4v4.65H78.45V29.86h2.17v3.93h4V29.86h2.17V40.23H84.66Z"/><path class="cls-1" d="M95.16,38.09l-.72,2.14H92.16l3.7-10.37h2.5L102,40.23H99.65L99,38.09Zm1.9-5.89-1.31,4.1h2.63l-1.29-4.1Z"/><path class="cls-1" d="M109.72,29.86h2V40.23h-2.13l-4.27-7.41,0,0v7.39h-2V29.86h2.28l4.15,7.22Z"/><path class="cls-1" d="M122.72,36.39V34.64H127v5.59h-1.44l-.22-1.3a5.16,5.16,0,0,1-1.11,1,3.93,3.93,0,0,1-2.12.55,4.33,4.33,0,0,1-3.57-1.62,5.92,5.92,0,0,1-1.2-3.81,5.75,5.75,0,0,1,1.3-3.93,5.38,5.38,0,0,1,7.19-.35A3.46,3.46,0,0,1,127,33.08h-2.17a1.56,1.56,0,0,0-.56-1,2.32,2.32,0,0,0-1.7-.69,2.59,2.59,0,0,0-2.3,1.16,4.47,4.47,0,0,0-.68,2.57q0,3.57,3,3.57a2.4,2.4,0,0,0,1.27-.36,2.8,2.8,0,0,0,1.24-1.92Z"/><path class="cls-1" d="M131.06,29.86V40.23H128.9V29.86Z"/><path class="cls-1" d="M135.28,38.09l-.72,2.14h-2.28L136,29.86h2.5l3.65,10.37h-2.36l-.66-2.14Zm1.9-5.89-1.31,4.1h2.63l-1.29-4.1Z"/><path class="cls-1" d="M149.84,29.86h2V40.23h-2.13l-4.27-7.41,0,0v7.39h-2V29.86h2.28l4.14,7.22Z"/><path class="cls-1" d="M158.82,36.39V34.64h4.33v5.59h-1.44l-.22-1.3a5.14,5.14,0,0,1-1.11,1,3.93,3.93,0,0,1-2.12.55,4.33,4.33,0,0,1-3.57-1.62,5.92,5.92,0,0,1-1.2-3.81,5.76,5.76,0,0,1,1.3-3.93A5.38,5.38,0,0,1,162,30.8a3.46,3.46,0,0,1,1.13,2.28h-2.17a1.55,1.55,0,0,0-.56-1,2.31,2.31,0,0,0-1.7-.69,2.59,2.59,0,0,0-2.3,1.16,4.47,4.47,0,0,0-.68,2.57q0,3.57,3,3.57a2.4,2.4,0,0,0,1.27-.36,2.8,2.8,0,0,0,1.24-1.92Z"/></svg>